<svg version="1.1" xmlns="http://www.w3.org/2000/svg" xmlns:xlink="http://www.w3.org/1999/xlink" stroke-linecap="round" stroke-linejoin="round" stroke-width="0" fill-rule="evenodd" width="83.198mm" height="82.182mm" viewBox="-40329 -41345 83198 82182" id="vEfeFxOIx-XdwxMEnNd9"><defs><circle cx="0" cy="0" r="1500" id="vEfeFxOIx-XdwxMEnNd9_pad-1"/><circle cx="0" cy="0" r="1028.5" id="vEfeFxOIx-XdwxMEnNd9_pad-2"/><circle cx="0" cy="0" r="508" id="vEfeFxOIx-XdwxMEnNd9_pad-3"/><circle cx="0" cy="0" r="325" id="vEfeFxOIx-XdwxMEnNd9_pad-4"/><circle cx="0" cy="0" r="197" id="vEfeFxOIx-XdwxMEnNd9_pad-5"/></defs><g transform="translate(0,-508) scale(1,-1)" fill="currentColor" stroke="currentColor"><use xlink:href="#vEfeFxOIx-XdwxMEnNd9_pad-1" x="27940" y="26670"/><use xlink:href="#vEfeFxOIx-XdwxMEnNd9_pad-1" x="-25400" y="27940"/><use xlink:href="#vEfeFxOIx-XdwxMEnNd9_pad-1" x="-25400" y="-27940"/><use xlink:href="#vEfeFxOIx-XdwxMEnNd9_pad-1" x="27940" y="-27940"/><use xlink:href="#vEfeFxOIx-XdwxMEnNd9_pad-2" x="35560" y="-18710"/><use xlink:href="#vEfeFxOIx-XdwxMEnNd9_pad-2" x="38100" y="-14310"/><use xlink:href="#vEfeFxOIx-XdwxMEnNd9_pad-3" x="-27940" y="0"/><use xlink:href="#vEfeFxOIx-XdwxMEnNd9_pad-3" x="-27940" y="-12700"/><use xlink:href="#vEfeFxOIx-XdwxMEnNd9_pad-3" x="-27940" y="-10160"/><use xlink:href="#vEfeFxOIx-XdwxMEnNd9_pad-3" x="-27940" y="-7620"/><use xlink:href="#vEfeFxOIx-XdwxMEnNd9_pad-3" x="-27940" y="-5080"/><use xlink:href="#vEfeFxOIx-XdwxMEnNd9_pad-3" x="-27940" y="-2540"/><use xlink:href="#vEfeFxOIx-XdwxMEnNd9_pad-4" x="82" y="38916"/><use xlink:href="#vEfeFxOIx-XdwxMEnNd9_pad-4" x="40845" y="254"/><use xlink:href="#vEfeFxOIx-XdwxMEnNd9_pad-4" x="-37846" y="-303"/><use xlink:href="#vEfeFxOIx-XdwxMEnNd9_pad-4" x="127" y="-37768"/><use xlink:href="#vEfeFxOIx-XdwxMEnNd9_pad-4" x="8636" y="31447"/><use xlink:href="#vEfeFxOIx-XdwxMEnNd9_pad-4" x="13208" y="21541"/><use xlink:href="#vEfeFxOIx-XdwxMEnNd9_pad-4" x="-17526" y="-10717"/><use xlink:href="#vEfeFxOIx-XdwxMEnNd9_pad-4" x="-12446" y="32209"/><use xlink:href="#vEfeFxOIx-XdwxMEnNd9_pad-5" x="-32512" y="-24384"/><use xlink:href="#vEfeFxOIx-XdwxMEnNd9_pad-5" x="-37592" y="-15748"/><use xlink:href="#vEfeFxOIx-XdwxMEnNd9_pad-5" x="-40132" y="-6096"/><use xlink:href="#vEfeFxOIx-XdwxMEnNd9_pad-5" x="-39624" y="8636"/><use xlink:href="#vEfeFxOIx-XdwxMEnNd9_pad-5" x="-35560" y="19304"/><use xlink:href="#vEfeFxOIx-XdwxMEnNd9_pad-5" x="-30988" y="26416"/><use xlink:href="#vEfeFxOIx-XdwxMEnNd9_pad-5" x="-22860" y="33528"/><use xlink:href="#vEfeFxOIx-XdwxMEnNd9_pad-5" x="-3556" y="-14732"/><use xlink:href="#vEfeFxOIx-XdwxMEnNd9_pad-5" x="-14224" y="-19304"/><use xlink:href="#vEfeFxOIx-XdwxMEnNd9_pad-5" x="-22352" y="-8636"/><use xlink:href="#vEfeFxOIx-XdwxMEnNd9_pad-5" x="13208" y="-27940"/><use xlink:href="#vEfeFxOIx-XdwxMEnNd9_pad-5" x="10668" y="-6096"/><use xlink:href="#vEfeFxOIx-XdwxMEnNd9_pad-5" x="14732" y="-6604"/><use xlink:href="#vEfeFxOIx-XdwxMEnNd9_pad-5" x="5080" y="-15240"/><use xlink:href="#vEfeFxOIx-XdwxMEnNd9_pad-5" x="29464" y="-7620"/><use xlink:href="#vEfeFxOIx-XdwxMEnNd9_pad-5" x="4064" y="22352"/><use xlink:href="#vEfeFxOIx-XdwxMEnNd9_pad-5" x="13716" y="6604"/><use xlink:href="#vEfeFxOIx-XdwxMEnNd9_pad-5" x="-32004" y="5080"/><use xlink:href="#vEfeFxOIx-XdwxMEnNd9_pad-5" x="-14224" y="-8128"/><use xlink:href="#vEfeFxOIx-XdwxMEnNd9_pad-5" x="9144" y="10668"/><use xlink:href="#vEfeFxOIx-XdwxMEnNd9_pad-5" x="1119" y="3038"/><use xlink:href="#vEfeFxOIx-XdwxMEnNd9_pad-5" x="8093" y="24281"/><use xlink:href="#vEfeFxOIx-XdwxMEnNd9_pad-5" x="448" y="10753"/><use xlink:href="#vEfeFxOIx-XdwxMEnNd9_pad-5" x="10284" y="21273"/><use xlink:href="#vEfeFxOIx-XdwxMEnNd9_pad-5" x="-19118" y="-3170"/><use xlink:href="#vEfeFxOIx-XdwxMEnNd9_pad-5" x="-1948" y="-38479"/><use xlink:href="#vEfeFxOIx-XdwxMEnNd9_pad-5" x="-37807" y="-3471"/><use xlink:href="#vEfeFxOIx-XdwxMEnNd9_pad-5" x="6748" y="30152"/><use xlink:href="#vEfeFxOIx-XdwxMEnNd9_pad-5" x="-1727" y="37760"/><use xlink:href="#vEfeFxOIx-XdwxMEnNd9_pad-5" x="14799" y="23097"/><use xlink:href="#vEfeFxOIx-XdwxMEnNd9_pad-5" x="-19331" y="-12009"/><use xlink:href="#vEfeFxOIx-XdwxMEnNd9_pad-5" x="38396" y="2332"/><use xlink:href="#vEfeFxOIx-XdwxMEnNd9_pad-5" x="-7851" y="280"/><use xlink:href="#vEfeFxOIx-XdwxMEnNd9_pad-5" x="8643" y="-17669"/><use xlink:href="#vEfeFxOIx-XdwxMEnNd9_pad-5" x="7675" y="2020"/><use xlink:href="#vEfeFxOIx-XdwxMEnNd9_pad-5" x="11065" y="-22950"/><use xlink:href="#vEfeFxOIx-XdwxMEnNd9_pad-5" x="6917" y="3524"/><use xlink:href="#vEfeFxOIx-XdwxMEnNd9_pad-5" x="11760" y="-25521"/><use xlink:href="#vEfeFxOIx-XdwxMEnNd9_pad-5" x="8505" y="2819"/><use xlink:href="#vEfeFxOIx-XdwxMEnNd9_pad-5" x="11103" y="1614"/><use xlink:href="#vEfeFxOIx-XdwxMEnNd9_pad-5" x="18526" y="9037"/><use xlink:href="#vEfeFxOIx-XdwxMEnNd9_pad-5" x="13920" y="3053"/><use xlink:href="#vEfeFxOIx-XdwxMEnNd9_pad-5" x="16738" y="5871"/><use xlink:href="#vEfeFxOIx-XdwxMEnNd9_pad-5" x="5604" y="9754"/><use xlink:href="#vEfeFxOIx-XdwxMEnNd9_pad-5" x="18796" y="16429"/><use xlink:href="#vEfeFxOIx-XdwxMEnNd9_pad-5" x="4169" y="9310"/><use xlink:href="#vEfeFxOIx-XdwxMEnNd9_pad-5" x="6096" y="-41148"/><use xlink:href="#vEfeFxOIx-XdwxMEnNd9_pad-5" x="4011" y="5029"/><use xlink:href="#vEfeFxOIx-XdwxMEnNd9_pad-5" x="24199" y="12474"/><use xlink:href="#vEfeFxOIx-XdwxMEnNd9_pad-5" x="2886" y="8982"/><use xlink:href="#vEfeFxOIx-XdwxMEnNd9_pad-5" x="20121" y="13810"/><use xlink:href="#vEfeFxOIx-XdwxMEnNd9_pad-5" x="14225" y="1434"/><use xlink:href="#vEfeFxOIx-XdwxMEnNd9_pad-5" x="13995" y="18445"/><use xlink:href="#vEfeFxOIx-XdwxMEnNd9_pad-5" x="37689" y="101"/><use xlink:href="#vEfeFxOIx-XdwxMEnNd9_pad-5" x="6855" y="-2106"/><use xlink:href="#vEfeFxOIx-XdwxMEnNd9_pad-5" x="1372" y="34670"/><use xlink:href="#vEfeFxOIx-XdwxMEnNd9_pad-5" x="8498" y="28096"/><use xlink:href="#vEfeFxOIx-XdwxMEnNd9_pad-5" x="-12057" y="28516"/><use xlink:href="#vEfeFxOIx-XdwxMEnNd9_pad-5" x="-1518" y="8222"/><use xlink:href="#vEfeFxOIx-XdwxMEnNd9_pad-5" x="-35900" y="-2423"/><use xlink:href="#vEfeFxOIx-XdwxMEnNd9_pad-5" x="1935" y="-5596"/><use xlink:href="#vEfeFxOIx-XdwxMEnNd9_pad-5" x="2142" y="-39332"/><use xlink:href="#vEfeFxOIx-XdwxMEnNd9_pad-5" x="-16894" y="-13819"/><use xlink:href="#vEfeFxOIx-XdwxMEnNd9_pad-5" x="-9732" y="943"/><use xlink:href="#vEfeFxOIx-XdwxMEnNd9_pad-5" x="-9676" y="11921"/><use xlink:href="#vEfeFxOIx-XdwxMEnNd9_pad-5" x="-21253" y="14941"/><use xlink:href="#vEfeFxOIx-XdwxMEnNd9_pad-5" x="1921" y="-2646"/><use xlink:href="#vEfeFxOIx-XdwxMEnNd9_pad-5" x="-6251" y="13729"/><use xlink:href="#vEfeFxOIx-XdwxMEnNd9_pad-5" x="-1791" y="5716"/><use xlink:href="#vEfeFxOIx-XdwxMEnNd9_pad-5" x="4505" y="-3627"/><use xlink:href="#vEfeFxOIx-XdwxMEnNd9_pad-5" x="-7663" y="-25297"/><use xlink:href="#vEfeFxOIx-XdwxMEnNd9_pad-5" x="-1617" y="4591"/><use xlink:href="#vEfeFxOIx-XdwxMEnNd9_pad-5" x="-12296" y="-28521"/><use xlink:href="#vEfeFxOIx-XdwxMEnNd9_pad-5" x="-2607" y="8159"/><use xlink:href="#vEfeFxOIx-XdwxMEnNd9_pad-5" x="-16041" y="-25736"/><use xlink:href="#vEfeFxOIx-XdwxMEnNd9_pad-5" x="-503" y="-6420"/><use xlink:href="#vEfeFxOIx-XdwxMEnNd9_pad-5" x="-6652" y="-30361"/><use xlink:href="#vEfeFxOIx-XdwxMEnNd9_pad-5" x="-2920" y="-2315"/><use xlink:href="#vEfeFxOIx-XdwxMEnNd9_pad-5" x="-11236" y="-26461"/><use xlink:href="#vEfeFxOIx-XdwxMEnNd9_pad-5" x="-5080" y="26924"/><use xlink:href="#vEfeFxOIx-XdwxMEnNd9_pad-5" x="-9372" y="-25353"/><use xlink:href="#vEfeFxOIx-XdwxMEnNd9_pad-5" x="23112" y="-16493"/><use xlink:href="#vEfeFxOIx-XdwxMEnNd9_pad-5" x="4022" y="2149"/><use xlink:href="#vEfeFxOIx-XdwxMEnNd9_pad-5" x="-3151" y="2497"/><use xlink:href="#vEfeFxOIx-XdwxMEnNd9_pad-5" x="-20060" y="-4732"/><use xlink:href="#vEfeFxOIx-XdwxMEnNd9_pad-5" x="-3579" y="9251"/><use xlink:href="#vEfeFxOIx-XdwxMEnNd9_pad-5" x="-250" y="-3157"/><use xlink:href="#vEfeFxOIx-XdwxMEnNd9_pad-5" x="-11925" y="-29852"/><use xlink:href="#vEfeFxOIx-XdwxMEnNd9_pad-5" x="183" y="-5588"/><use xlink:href="#vEfeFxOIx-XdwxMEnNd9_pad-5" x="-10921" y="-29386"/><use xlink:href="#vEfeFxOIx-XdwxMEnNd9_pad-5" x="3950" y="874"/><use xlink:href="#vEfeFxOIx-XdwxMEnNd9_pad-5" x="18841" y="19034"/><use xlink:href="#vEfeFxOIx-XdwxMEnNd9_pad-5" x="9144" y="18288"/><use xlink:href="#vEfeFxOIx-XdwxMEnNd9_pad-5" x="3048" y="13208"/><use xlink:href="#vEfeFxOIx-XdwxMEnNd9_pad-5" x="-18288" y="3556"/><use xlink:href="#vEfeFxOIx-XdwxMEnNd9_pad-5" x="18937" y="14120"/><use xlink:href="#vEfeFxOIx-XdwxMEnNd9_pad-5" x="-18288" y="29464"/><use xlink:href="#vEfeFxOIx-XdwxMEnNd9_pad-5" x="-8128" y="40640"/><use xlink:href="#vEfeFxOIx-XdwxMEnNd9_pad-5" x="8128" y="40640"/><use xlink:href="#vEfeFxOIx-XdwxMEnNd9_pad-5" x="16256" y="38608"/><use xlink:href="#vEfeFxOIx-XdwxMEnNd9_pad-5" x="25400" y="33528"/><use xlink:href="#vEfeFxOIx-XdwxMEnNd9_pad-5" x="35052" y="23876"/><use xlink:href="#vEfeFxOIx-XdwxMEnNd9_pad-5" x="39624" y="15748"/><use xlink:href="#vEfeFxOIx-XdwxMEnNd9_pad-5" x="41656" y="9144"/><use xlink:href="#vEfeFxOIx-XdwxMEnNd9_pad-5" x="42672" y="3048"/><use xlink:href="#vEfeFxOIx-XdwxMEnNd9_pad-5" x="42164" y="-6604"/><use xlink:href="#vEfeFxOIx-XdwxMEnNd9_pad-5" x="35052" y="-24384"/><use xlink:href="#vEfeFxOIx-XdwxMEnNd9_pad-5" x="22860" y="-34544"/><use xlink:href="#vEfeFxOIx-XdwxMEnNd9_pad-5" x="-9144" y="-40640"/><use xlink:href="#vEfeFxOIx-XdwxMEnNd9_pad-5" x="-17780" y="-37084"/><use xlink:href="#vEfeFxOIx-XdwxMEnNd9_pad-5" x="-23368" y="-33528"/><use xlink:href="#vEfeFxOIx-XdwxMEnNd9_pad-5" x="-2042" y="-3095"/></g></svg>