<svg version="1.1" xmlns="http://www.w3.org/2000/svg" xmlns:xlink="http://www.w3.org/1999/xlink" stroke-linecap="round" stroke-linejoin="round" stroke-width="0" fill-rule="evenodd" width="86.36mm" height="86.36mm" viewBox="-41910 -43180 86360 86360" id="f3OVP2hTUFt-daLSbcku"><g transform="translate(0,0) scale(1,-1)" fill="currentColor" stroke="currentColor"><path d="M 44450 -529.9 44450 529.9 44424 1589.5 44372 2648 44294 3705 44190.1 4759.8 44060.4 5811.6 43904.9 6860 43723.7 7904.3 43516.9 8943.7 43284.7 9977.8 43027.2 11005.9 42744.5 12027.4 42436.9 13041.6 42104.4 14048 41747.3 15045.9 41365.9 16034.7 40960.3 17013.9 40530.8 17982.8 40077.7 18940.9 39601.2 19887.6 39101.6 20822.3 38579.2 21744.4 38034.3 22653.5 37467.3 23548.9 36878.4 24430.1 36268.2 25296.7 35636.8 26147.9 34984.8 26983.5 34312.4 27802.7 33620.1 28605.3 32908.4 29390.6 32177.6 30158.2 31428.2 30907.6 30660.6 31638.4 29875.3 32350.1 29072.7 33042.4 28253.5 33714.8 27417.9 34366.8 26566.7 34998.2 25700.1 35608.4 24818.9 36197.3 23923.5 36764.3 23014.4 37309.2 22092.3 37831.6 21157.6 38331.2 20210.9 38807.7 19252.8 39260.8 18283.9 39690.3 17304.7 40095.9 16315.9 40477.3 15318 40834.4 14311.6 41166.9 13297.4 41474.5 12275.9 41757.2 11247.8 42014.7 10213.7 42246.9 9174.3 42453.7 8130 42634.9 7081.6 42790.4 6029.8 42920.1 4975 43024 3918 43102 2859.5 43154 1799.9 43180 740.1 43180 -319.5 43154 -1378 43102 -2435 43024 -3489.8 42920.1 -4541.6 42790.4 -5590 42634.9 -6634.3 42453.7 -7673.7 42246.9 -8707.8 42014.7 -9735.9 41757.2 -10757.4 41474.5 -11771.6 41166.9 -12778 40834.4 -13775.9 40477.3 -14764.7 40095.9 -15743.9 39690.3 -16712.8 39260.8 -17670.9 38807.7 -18617.6 38331.2 -19552.3 37831.6 -20474.4 37309.2 -21383.5 36764.3 -22278.9 36197.3 -23160.1 35608.4 -24026.7 34998.2 -24877.9 34366.8 -25713.5 33714.8 -26532.7 33042.4 -27335.3 32350.1 -28120.6 31638.4 -28888.2 30907.6 -29637.6 30158.2 -30368.4 29390.6 -31080.1 28605.3 -31772.4 27802.7 -32444.8 26983.5 -33096.8 26147.9 -33728.2 25296.7 -34338.4 24430.1 -34927.3 23548.9 -35494.3 22653.5 -36039.2 21744.4 -36561.6 20822.3 -37061.2 19887.6 -37537.7 18940.9 -37990.8 17982.8 -38420.3 17013.9 -38825.9 16034.7 -39207.3 15045.9 -39564.4 14048 -39896.9 13041.6 -40204.5 12027.4 -40487.2 11005.9 -40744.7 9977.8 -40976.9 8943.7 -41183.7 7904.3 -41364.9 6860 -41520.4 5811.6 -41650.1 4759.8 -41754 3705 -41832 2648 -41884 1589.5 -41910 529.9 -41910 -529.9 -41884 -1589.5 -41832 -2648 -41754 -3705 -41650.1 -4759.8 -41520.4 -5811.6 -41364.9 -6860 -41183.7 -7904.3 -40976.9 -8943.7 -40744.7 -9977.8 -40487.2 -11005.9 -40204.5 -12027.4 -39896.9 -13041.6 -39564.4 -14048 -39207.3 -15045.9 -38825.9 -16034.7 -38420.3 -17013.9 -37990.8 -17982.8 -37537.7 -18940.9 -37061.2 -19887.6 -36561.6 -20822.3 -36039.2 -21744.4 -35494.3 -22653.5 -34927.3 -23548.9 -34338.4 -24430.1 -33728.2 -25296.7 -33096.8 -26147.9 -32444.8 -26983.5 -31772.4 -27802.7 -31080.1 -28605.3 -30368.4 -29390.6 -29637.6 -30158.2 -28888.2 -30907.6 -28120.6 -31638.4 -27335.3 -32350.1 -26532.7 -33042.4 -25713.5 -33714.8 -24877.9 -34366.8 -24026.7 -34998.2 -23160.1 -35608.4 -22278.9 -36197.3 -21383.5 -36764.3 -20474.4 -37309.2 -19552.3 -37831.6 -18617.6 -38331.2 -17670.9 -38807.7 -16712.8 -39260.8 -15743.9 -39690.3 -14764.7 -40095.9 -13775.9 -40477.3 -12778 -40834.4 -11771.6 -41166.9 -10757.4 -41474.5 -9735.9 -41757.2 -8707.8 -42014.7 -7673.7 -42246.9 -6634.3 -42453.7 -5590 -42634.9 -4541.6 -42790.4 -3489.8 -42920.1 -2435 -43024 -1378 -43102 -319.5 -43154 740.1 -43180 1799.9 -43180 2859.5 -43154 3918 -43102 4975 -43024 6029.8 -42920.1 7081.6 -42790.4 8130 -42634.9 9174.3 -42453.7 10213.7 -42246.9 11247.8 -42014.7 12275.9 -41757.2 13297.4 -41474.5 14311.6 -41166.9 15318 -40834.4 16315.9 -40477.3 17304.7 -40095.9 18283.9 -39690.3 19252.8 -39260.8 20210.9 -38807.7 21157.6 -38331.2 22092.3 -37831.6 23014.4 -37309.2 23923.5 -36764.3 24818.9 -36197.3 25700.1 -35608.4 26566.7 -34998.2 27417.9 -34366.8 28253.5 -33714.8 29072.7 -33042.4 29875.3 -32350.1 30660.6 -31638.4 31428.2 -30907.6 32177.6 -30158.2 32908.4 -29390.6 33620.1 -28605.3 34312.4 -27802.7 34984.8 -26983.5 35636.8 -26147.9 36268.2 -25296.7 36878.4 -24430.1 37467.3 -23548.9 38034.3 -22653.5 38579.2 -21744.4 39101.6 -20822.3 39601.2 -19887.6 40077.7 -18940.9 40530.8 -17982.8 40960.3 -17013.9 41365.9 -16034.7 41747.3 -15045.9 42104.4 -14048 42436.9 -13041.6 42744.5 -12027.4 43027.2 -11005.9 43284.7 -9977.8 43516.9 -8943.7 43723.7 -7904.3 43904.9 -6860 44060.4 -5811.6 44190.1 -4759.8 44294 -3705 44372 -2648 44424 -1589.5 44450 -529.9 M -23900 27886.4 -23907.6 27779.6 -23922.9 27673.5 -23945.7 27568.8 -23975.9 27466 -24013.3 27365.6 -24057.8 27268.1 -24109.2 27174.1 -24167.1 27084 -24231.3 26998.2 -24301.5 26917.2 -24377.2 26841.5 -24458.2 26771.3 -24544 26707.1 -24634.1 26649.2 -24728.1 26597.8 -24825.6 26553.3 -24926 26515.9 -25028.8 26485.7 -25133.5 26462.9 -25239.6 26447.6 -25346.4 26440 -25453.6 26440 -25560.4 26447.6 -25666.5 26462.9 -25771.2 26485.7 -25874 26515.9 -25974.4 26553.3 -26071.9 26597.8 -26165.9 26649.2 -26256 26707.1 -26341.8 26771.3 -26422.8 26841.5 -26498.5 26917.2 -26568.7 26998.2 -26632.9 27084 -26690.8 27174.1 -26742.2 27268.1 -26786.7 27365.6 -26824.1 27466 -26854.3 27568.8 -26877.1 27673.5 -26892.4 27779.6 -26900 27886.4 -26900 27993.6 -26892.4 28100.4 -26877.1 28206.5 -26854.3 28311.2 -26824.1 28414 -26786.7 28514.4 -26742.2 28611.9 -26690.8 28705.9 -26632.9 28796 -26568.7 28881.8 -26498.5 28962.8 -26422.8 29038.5 -26341.8 29108.7 -26256 29172.9 -26165.9 29230.8 -26071.9 29282.2 -25974.4 29326.7 -25874 29364.1 -25771.2 29394.3 -25666.5 29417.1 -25560.4 29432.4 -25453.6 29440 -25346.4 29440 -25239.6 29432.4 -25133.5 29417.1 -25028.8 29394.3 -24926 29364.1 -24825.6 29326.7 -24728.1 29282.2 -24634.1 29230.8 -24544 29172.9 -24458.2 29108.7 -24377.2 29038.5 -24301.5 28962.8 -24231.3 28881.8 -24167.1 28796 -24109.2 28705.9 -24057.8 28611.9 -24013.3 28514.4 -23975.9 28414 -23945.7 28311.2 -23922.9 28206.5 -23907.6 28100.4 -23900 27993.6 -23900 27886.4 M -23900 -27993.6 -23907.6 -28100.4 -23922.9 -28206.5 -23945.7 -28311.2 -23975.9 -28414 -24013.3 -28514.4 -24057.8 -28611.9 -24109.2 -28705.9 -24167.1 -28796 -24231.3 -28881.8 -24301.5 -28962.8 -24377.2 -29038.5 -24458.2 -29108.7 -24544 -29172.9 -24634.1 -29230.8 -24728.1 -29282.2 -24825.6 -29326.7 -24926 -29364.1 -25028.8 -29394.3 -25133.5 -29417.1 -25239.6 -29432.4 -25346.4 -29440 -25453.6 -29440 -25560.4 -29432.4 -25666.5 -29417.1 -25771.2 -29394.3 -25874 -29364.1 -25974.4 -29326.7 -26071.9 -29282.2 -26165.9 -29230.8 -26256 -29172.9 -26341.8 -29108.7 -26422.8 -29038.5 -26498.5 -28962.8 -26568.7 -28881.8 -26632.9 -28796 -26690.8 -28705.9 -26742.2 -28611.9 -26786.7 -28514.4 -26824.1 -28414 -26854.3 -28311.2 -26877.1 -28206.5 -26892.4 -28100.4 -26900 -27993.6 -26900 -27886.4 -26892.4 -27779.6 -26877.1 -27673.5 -26854.3 -27568.8 -26824.1 -27466 -26786.7 -27365.6 -26742.2 -27268.1 -26690.8 -27174.1 -26632.9 -27084 -26568.7 -26998.2 -26498.5 -26917.2 -26422.8 -26841.5 -26341.8 -26771.3 -26256 -26707.1 -26165.9 -26649.2 -26071.9 -26597.8 -25974.4 -26553.3 -25874 -26515.9 -25771.2 -26485.7 -25666.5 -26462.9 -25560.4 -26447.6 -25453.6 -26440 -25346.4 -26440 -25239.6 -26447.6 -25133.5 -26462.9 -25028.8 -26485.7 -24926 -26515.9 -24825.6 -26553.3 -24728.1 -26597.8 -24634.1 -26649.2 -24544 -26707.1 -24458.2 -26771.3 -24377.2 -26841.5 -24301.5 -26917.2 -24231.3 -26998.2 -24167.1 -27084 -24109.2 -27174.1 -24057.8 -27268.1 -24013.3 -27365.6 -23975.9 -27466 -23945.7 -27568.8 -23922.9 -27673.5 -23907.6 -27779.6 -23900 -27886.4 -23900 -27993.6 M 29440 -27993.6 29432.4 -28100.4 29417.1 -28206.5 29394.3 -28311.2 29364.1 -28414 29326.7 -28514.4 29282.2 -28611.9 29230.8 -28705.9 29172.9 -28796 29108.7 -28881.8 29038.5 -28962.8 28962.8 -29038.5 28881.8 -29108.7 28796 -29172.9 28705.9 -29230.8 28611.9 -29282.2 28514.4 -29326.7 28414 -29364.1 28311.2 -29394.3 28206.5 -29417.1 28100.4 -29432.4 27993.6 -29440 27886.4 -29440 27779.6 -29432.4 27673.5 -29417.1 27568.8 -29394.3 27466 -29364.1 27365.6 -29326.7 27268.1 -29282.2 27174.1 -29230.8 27084 -29172.9 26998.2 -29108.7 26917.2 -29038.5 26841.5 -28962.8 26771.3 -28881.8 26707.1 -28796 26649.2 -28705.9 26597.8 -28611.9 26553.3 -28514.4 26515.9 -28414 26485.7 -28311.2 26462.9 -28206.5 26447.6 -28100.4 26440 -27993.6 26440 -27886.4 26447.6 -27779.6 26462.9 -27673.5 26485.7 -27568.8 26515.9 -27466 26553.3 -27365.6 26597.8 -27268.1 26649.2 -27174.1 26707.1 -27084 26771.3 -26998.2 26841.5 -26917.2 26917.2 -26841.5 26998.2 -26771.3 27084 -26707.1 27174.1 -26649.2 27268.1 -26597.8 27365.6 -26553.3 27466 -26515.9 27568.8 -26485.7 27673.5 -26462.9 27779.6 -26447.6 27886.4 -26440 27993.6 -26440 28100.4 -26447.6 28206.5 -26462.9 28311.2 -26485.7 28414 -26515.9 28514.4 -26553.3 28611.9 -26597.8 28705.9 -26649.2 28796 -26707.1 28881.8 -26771.3 28962.8 -26841.5 29038.5 -26917.2 29108.7 -26998.2 29172.9 -27084 29230.8 -27174.1 29282.2 -27268.1 29326.7 -27365.6 29364.1 -27466 29394.3 -27568.8 29417.1 -27673.5 29432.4 -27779.6 29440 -27886.4 29440 -27993.6 M 29440 26616.4 29432.4 26509.6 29417.1 26403.5 29394.3 26298.8 29364.1 26196 29326.7 26095.6 29282.2 25998.1 29230.8 25904.1 29172.9 25814 29108.7 25728.2 29038.5 25647.2 28962.8 25571.5 28881.8 25501.3 28796 25437.1 28705.9 25379.2 28611.9 25327.8 28514.4 25283.3 28414 25245.9 28311.2 25215.7 28206.5 25192.9 28100.4 25177.6 27993.6 25170 27886.4 25170 27779.6 25177.6 27673.5 25192.9 27568.8 25215.7 27466 25245.9 27365.6 25283.3 27268.1 25327.8 27174.1 25379.2 27084 25437.1 26998.2 25501.3 26917.2 25571.5 26841.5 25647.2 26771.3 25728.2 26707.1 25814 26649.2 25904.1 26597.8 25998.1 26553.3 26095.6 26515.9 26196 26485.7 26298.8 26462.9 26403.5 26447.6 26509.6 26440 26616.4 26440 26723.6 26447.6 26830.4 26462.9 26936.5 26485.7 27041.2 26515.9 27144 26553.3 27244.4 26597.8 27341.9 26649.2 27435.9 26707.1 27526 26771.3 27611.8 26841.5 27692.8 26917.2 27768.5 26998.2 27838.7 27084 27902.9 27174.1 27960.8 27268.1 28012.2 27365.6 28056.7 27466 28094.1 27568.8 28124.3 27673.5 28147.1 27779.6 28162.4 27886.4 28170 27993.6 28170 28100.4 28162.4 28206.5 28147.1 28311.2 28124.3 28414 28094.1 28514.4 28056.7 28611.9 28012.2 28705.9 27960.8 28796 27902.9 28881.8 27838.7 28962.8 27768.5 29038.5 27692.8 29108.7 27611.8 29172.9 27526 29230.8 27435.9 29282.2 27341.9 29326.7 27244.4 29364.1 27144 29394.3 27041.2 29417.1 26936.5 29432.4 26830.4 29440 26723.6 29440 26616.4 M -243 38937.3 -237.4 38979.5 -226.4 39020.7 -210.1 39060.1 -188.8 39096.9 -162.9 39130.7 -132.7 39160.9 -98.9 39186.8 -62.1 39208.1 -22.7 39224.4 18.5 39235.4 60.7 39241 103.3 39241 145.5 39235.4 186.7 39224.4 226.1 39208.1 262.9 39186.8 296.7 39160.9 326.9 39130.7 352.8 39096.9 374.1 39060.1 390.4 39020.7 401.4 38979.5 407 38937.3 407 38894.7 401.4 38852.5 390.4 38811.3 374.1 38771.9 352.8 38735.1 326.9 38701.3 296.7 38671.1 262.9 38645.2 226.1 38623.9 186.7 38607.6 145.5 38596.6 103.3 38591 60.7 38591 18.5 38596.6 -22.7 38607.6 -62.1 38623.9 -98.9 38645.2 -132.7 38671.1 -162.9 38701.3 -188.8 38735.1 -210.1 38771.9 -226.4 38811.3 -237.4 38852.5 -243 38894.7 -243 38937.3 M 40866.3 579 40908.5 573.4 40949.7 562.4 40989.1 546.1 41025.9 524.8 41059.7 498.9 41089.9 468.7 41115.8 434.9 41137.1 398.1 41153.4 358.7 41164.4 317.5 41170 275.3 41170 232.7 41164.4 190.5 41153.4 149.3 41137.1 109.9 41115.8 73.1 41089.9 39.3 41059.7 9.1 41025.9 -16.8 40989.1 -38.1 40949.7 -54.4 40908.5 -65.4 40866.3 -71 40823.7 -71 40781.5 -65.4 40740.3 -54.4 40700.9 -38.1 40664.1 -16.8 40630.3 9.1 40600.1 39.3 40574.2 73.1 40552.9 109.9 40536.6 149.3 40525.6 190.5 40520 232.7 40520 275.3 40525.6 317.5 40536.6 358.7 40552.9 398.1 40574.2 434.9 40600.1 468.7 40630.3 498.9 40664.1 524.8 40700.9 546.1 40740.3 562.4 40781.5 573.4 40823.7 579 40866.3 579 M -38171 -281.7 -38165.4 -239.5 -38154.4 -198.3 -38138.1 -158.9 -38116.8 -122.1 -38090.9 -88.3 -38060.7 -58.1 -38026.9 -32.2 -37990.1 -10.9 -37950.7 5.4 -37909.5 16.4 -37867.3 22 -37824.7 22 -37782.5 16.4 -37741.3 5.4 -37701.9 -10.9 -37665.1 -32.2 -37631.3 -58.1 -37601.1 -88.3 -37575.2 -122.1 -37553.9 -158.9 -37537.6 -198.3 -37526.6 -239.5 -37521 -281.7 -37521 -324.3 -37526.6 -366.5 -37537.6 -407.7 -37553.9 -447.1 -37575.2 -483.9 -37601.1 -517.7 -37631.3 -547.9 -37665.1 -573.8 -37701.9 -595.1 -37741.3 -611.4 -37782.5 -622.4 -37824.7 -628 -37867.3 -628 -37909.5 -622.4 -37950.7 -611.4 -37990.1 -595.1 -38026.9 -573.8 -38060.7 -547.9 -38090.9 -517.7 -38116.8 -483.9 -38138.1 -447.1 -38154.4 -407.7 -38165.4 -366.5 -38171 -324.3 -38171 -281.7 M -198 -37746.7 -192.4 -37704.5 -181.4 -37663.3 -165.1 -37623.9 -143.8 -37587.1 -117.9 -37553.3 -87.7 -37523.1 -53.9 -37497.2 -17.1 -37475.9 22.3 -37459.6 63.5 -37448.6 105.7 -37443 148.3 -37443 190.5 -37448.6 231.7 -37459.6 271.1 -37475.9 307.9 -37497.2 341.7 -37523.1 371.9 -37553.3 397.8 -37587.1 419.1 -37623.9 435.4 -37663.3 446.4 -37704.5 452 -37746.7 452 -37789.3 446.4 -37831.5 435.4 -37872.7 419.1 -37912.1 397.8 -37948.9 371.9 -37982.7 341.7 -38012.9 307.9 -38038.8 271.1 -38060.1 231.7 -38076.4 190.5 -38087.4 148.3 -38093 105.7 -38093 63.5 -38087.4 22.3 -38076.4 -17.1 -38060.1 -53.9 -38038.8 -87.7 -38012.9 -117.9 -37982.7 -143.8 -37948.9 -165.1 -37912.1 -181.4 -37872.7 -192.4 -37831.5 -198 -37789.3 -198 -37746.7 M 8311 31468.3 8316.6 31510.5 8327.6 31551.7 8343.9 31591.1 8365.2 31627.9 8391.1 31661.7 8421.3 31691.9 8455.1 31717.8 8491.9 31739.1 8531.3 31755.4 8572.5 31766.4 8614.7 31772 8657.3 31772 8699.5 31766.4 8740.7 31755.4 8780.1 31739.1 8816.9 31717.8 8850.7 31691.9 8880.9 31661.7 8906.8 31627.9 8928.1 31591.1 8944.4 31551.7 8955.4 31510.5 8961 31468.3 8961 31425.7 8955.4 31383.5 8944.4 31342.3 8928.1 31302.9 8906.8 31266.1 8880.9 31232.3 8850.7 31202.1 8816.9 31176.2 8780.1 31154.9 8740.7 31138.6 8699.5 31127.6 8657.3 31122 8614.7 31122 8572.5 31127.6 8531.3 31138.6 8491.9 31154.9 8455.1 31176.2 8421.3 31202.1 8391.1 31232.3 8365.2 31266.1 8343.9 31302.9 8327.6 31342.3 8316.6 31383.5 8311 31425.7 8311 31468.3 M 12883 21562.3 12888.6 21604.5 12899.6 21645.7 12915.9 21685.1 12937.2 21721.9 12963.1 21755.7 12993.3 21785.9 13027.1 21811.8 13063.9 21833.1 13103.3 21849.4 13144.5 21860.4 13186.7 21866 13229.3 21866 13271.5 21860.4 13312.7 21849.4 13352.1 21833.1 13388.9 21811.8 13422.7 21785.9 13452.9 21755.7 13478.8 21721.9 13500.1 21685.1 13516.4 21645.7 13527.4 21604.5 13533 21562.3 13533 21519.7 13527.4 21477.5 13516.4 21436.3 13500.1 21396.9 13478.8 21360.1 13452.9 21326.3 13422.7 21296.1 13388.9 21270.2 13352.1 21248.9 13312.7 21232.6 13271.5 21221.6 13229.3 21216 13186.7 21216 13144.5 21221.6 13103.3 21232.6 13063.9 21248.9 13027.1 21270.2 12993.3 21296.1 12963.1 21326.3 12937.2 21360.1 12915.9 21396.9 12899.6 21436.3 12888.6 21477.5 12883 21519.7 12883 21562.3 M -17851 -10695.7 -17845.4 -10653.5 -17834.4 -10612.3 -17818.1 -10572.9 -17796.8 -10536.1 -17770.9 -10502.3 -17740.7 -10472.1 -17706.9 -10446.2 -17670.1 -10424.9 -17630.7 -10408.6 -17589.5 -10397.6 -17547.3 -10392 -17504.7 -10392 -17462.5 -10397.6 -17421.3 -10408.6 -17381.9 -10424.9 -17345.1 -10446.2 -17311.3 -10472.1 -17281.1 -10502.3 -17255.2 -10536.1 -17233.9 -10572.9 -17217.6 -10612.3 -17206.6 -10653.5 -17201 -10695.7 -17201 -10738.3 -17206.6 -10780.5 -17217.6 -10821.7 -17233.9 -10861.1 -17255.2 -10897.9 -17281.1 -10931.7 -17311.3 -10961.9 -17345.1 -10987.8 -17381.9 -11009.1 -17421.3 -11025.4 -17462.5 -11036.4 -17504.7 -11042 -17547.3 -11042 -17589.5 -11036.4 -17630.7 -11025.4 -17670.1 -11009.1 -17706.9 -10987.8 -17740.7 -10961.9 -17770.9 -10931.7 -17796.8 -10897.9 -17818.1 -10861.1 -17834.4 -10821.7 -17845.4 -10780.5 -17851 -10738.3 -17851 -10695.7 M -12771 32230.3 -12765.4 32272.5 -12754.4 32313.7 -12738.1 32353.1 -12716.8 32389.9 -12690.9 32423.7 -12660.7 32453.9 -12626.9 32479.8 -12590.1 32501.1 -12550.7 32517.4 -12509.5 32528.4 -12467.3 32534 -12424.7 32534 -12382.5 32528.4 -12341.3 32517.4 -12301.9 32501.1 -12265.1 32479.8 -12231.3 32453.9 -12201.1 32423.7 -12175.2 32389.9 -12153.9 32353.1 -12137.6 32313.7 -12126.6 32272.5 -12121 32230.3 -12121 32187.7 -12126.6 32145.5 -12137.6 32104.3 -12153.9 32064.9 -12175.2 32028.1 -12201.1 31994.3 -12231.3 31964.1 -12265.1 31938.2 -12301.9 31916.9 -12341.3 31900.6 -12382.5 31889.6 -12424.7 31884 -12467.3 31884 -12509.5 31889.6 -12550.7 31900.6 -12590.1 31916.9 -12626.9 31938.2 -12660.7 31964.1 -12690.9 31994.3 -12716.8 32028.1 -12738.1 32064.9 -12754.4 32104.3 -12765.4 32145.5 -12771 32187.7 -12771 32230.3" fill="none" stroke-width="254"/></g></svg>