<svg version="1.1" xmlns="http://www.w3.org/2000/svg" xmlns:xlink="http://www.w3.org/1999/xlink" stroke-linecap="round" stroke-linejoin="round" stroke-width="0" fill-rule="evenodd" width="79.4426mm" height="77.43560000000001mm" viewBox="-38221.8 -38143.8 79442.6 77435.6" id="P3AotsTSsHfoncX4eeup"><defs><circle cx="0" cy="0" r="1550.8" id="P3AotsTSsHfoncX4eeup_pad-10"/><circle cx="0" cy="0" r="1828.8" id="P3AotsTSsHfoncX4eeup_pad-11"/><circle cx="0" cy="0" r="375.8" id="P3AotsTSsHfoncX4eeup_pad-12"/></defs><g transform="translate(0,1148) scale(1,-1)" fill="currentColor" stroke="currentColor"><use xlink:href="#P3AotsTSsHfoncX4eeup_pad-10" x="-25400" y="27940"/><use xlink:href="#P3AotsTSsHfoncX4eeup_pad-10" x="-25400" y="-27940"/><use xlink:href="#P3AotsTSsHfoncX4eeup_pad-10" x="27940" y="-27940"/><use xlink:href="#P3AotsTSsHfoncX4eeup_pad-10" x="27940" y="26670"/><use xlink:href="#P3AotsTSsHfoncX4eeup_pad-11" x="35560" y="-18709.7"/><use xlink:href="#P3AotsTSsHfoncX4eeup_pad-11" x="38100" y="-14310.3"/><use xlink:href="#P3AotsTSsHfoncX4eeup_pad-12" x="82" y="38916"/><use xlink:href="#P3AotsTSsHfoncX4eeup_pad-12" x="40845" y="254"/><use xlink:href="#P3AotsTSsHfoncX4eeup_pad-12" x="-37846" y="-303"/><use xlink:href="#P3AotsTSsHfoncX4eeup_pad-12" x="127" y="-37768"/><use xlink:href="#P3AotsTSsHfoncX4eeup_pad-12" x="8636" y="31447"/><use xlink:href="#P3AotsTSsHfoncX4eeup_pad-12" x="13208" y="21541"/><use xlink:href="#P3AotsTSsHfoncX4eeup_pad-12" x="-17526" y="-10717"/><use xlink:href="#P3AotsTSsHfoncX4eeup_pad-12" x="-12446" y="32209"/><path d="M -27178 -12700 -28702 -12700 M -28702 -10160 -27178 -10160 M -27178 -7620 -28702 -7620 M -28702 -5080 -27178 -5080 M -27178 -2540 -28702 -2540 M -28702 0 -27178 0" fill="none" stroke-width="1625.6"/></g></svg>