<svg version="1.1" xmlns="http://www.w3.org/2000/svg" xmlns:xlink="http://www.w3.org/1999/xlink" stroke-linecap="round" stroke-linejoin="round" stroke-width="0" fill-rule="evenodd" width="80.65180000000001mm" height="80.0255mm" viewBox="-38996.4 -40299.1 80651.8 80025.5" id="txOCss5lV-P7qqAvnXQ6"><defs><rect x="-550" y="-500" width="1100" height="1000" id="txOCss5lV-P7qqAvnXQ6_pad-10"/><rect x="-500" y="-550" width="1000" height="1100" id="txOCss5lV-P7qqAvnXQ6_pad-11"/><rect x="-315" y="-415" width="630" height="830" id="txOCss5lV-P7qqAvnXQ6_pad-13"/><rect x="-375" y="-200" width="750" height="400" id="txOCss5lV-P7qqAvnXQ6_pad-14"/><rect x="-600" y="-800" width="1200" height="1600" id="txOCss5lV-P7qqAvnXQ6_pad-19"/><rect x="-625" y="-300" width="1250" height="600" id="txOCss5lV-P7qqAvnXQ6_pad-20"/><rect x="-1900" y="-600" width="3800" height="1200" id="txOCss5lV-P7qqAvnXQ6_pad-21"/><rect x="-700" y="-725" width="1400" height="1450" id="txOCss5lV-P7qqAvnXQ6_pad-22"/><rect x="-300" y="-500" width="600" height="1000" id="txOCss5lV-P7qqAvnXQ6_pad-23"/><rect x="-425" y="-475" width="850" height="950" id="txOCss5lV-P7qqAvnXQ6_pad-24"/><rect x="-600" y="-140" width="1200" height="280" id="txOCss5lV-P7qqAvnXQ6_pad-25"/><rect x="-140" y="-600" width="280" height="1200" id="txOCss5lV-P7qqAvnXQ6_pad-26"/><rect x="-1200" y="-380" width="2400" height="760" id="txOCss5lV-P7qqAvnXQ6_pad-27"/><rect x="-450" y="-375" width="900" height="750" id="txOCss5lV-P7qqAvnXQ6_pad-28"/><rect x="-1600" y="-600" width="3200" height="1200" id="txOCss5lV-P7qqAvnXQ6_pad-29"/><rect x="-1906.4" y="-1500" width="3812.8" height="3000" id="txOCss5lV-P7qqAvnXQ6_pad-30"/></defs><g transform="translate(0,-572.6999999999971) scale(1,-1)" fill="currentColor" stroke="currentColor"><path d="M -11295.6 30745.9 -11295.6 30745.9 -11295.6 30746 -11295.6 31168 -11295.9 31168.4 -11296 31168.4 -11921 31168.4 -11921.4 31168.1 -11921.4 31168 -11921.4 30746 -11921.1 30745.6 -11921 30745.6 -11296 30745.6 -11295.6 30745.9"/><path d="M -16375.6 -13002.1 -16375.6 -13002.1 -16375.6 -13002 -16375.6 -12580 -16375.9 -12579.6 -16376 -12579.6 -17001 -12579.6 -17001.4 -12579.9 -17001.4 -12580 -17001.4 -13002 -17001.1 -13002.4 -17001 -13002.4 -16376 -13002.4 -16375.6 -13002.1"/><path d="M 39804.4 778.9 39804.4 778.9 39804.4 779 39804.4 1404 39804.1 1404.4 39804 1404.4 39382 1404.4 39381.6 1404.1 39381.6 1404 39381.6 779 39381.9 778.6 39382 778.6 39804 778.6 39804.4 778.9"/><path d="M 38982.4 -896.1 38982.4 -896.1 38982.4 -896 38982.4 -271 38982.1 -270.6 38982 -270.6 38560 -270.6 38559.6 -270.9 38559.6 -271 38559.6 -896 38559.9 -896.4 38560 -896.4 38982 -896.4 38982.4 -896.1"/><path d="M -442.6 37452.9 -442.6 37452.9 -442.6 37453 -442.6 37875 -442.9 37875.4 -443 37875.4 -1068 37875.4 -1068.4 37875.1 -1068.4 37875 -1068.4 37453 -1068.1 37452.6 -1068 37452.6 -443 37452.6 -442.6 37452.9"/><path d="M 1232.4 37452.9 1232.4 37452.9 1232.4 37453 1232.4 37875 1232.1 37875.4 1232 37875.4 607 37875.4 606.6 37875.1 606.6 37875 606.6 37453 606.9 37452.6 607 37452.6 1232 37452.6 1232.4 37452.9"/><path d="M -442.6 36630.9 -442.6 36630.9 -442.6 36631 -442.6 37053 -442.9 37053.4 -443 37053.4 -1068 37053.4 -1068.4 37053.1 -1068.4 37053 -1068.4 36631 -1068.1 36630.6 -1068 36630.6 -443 36630.6 -442.6 36630.9"/><path d="M 1232.4 36630.9 1232.4 36630.9 1232.4 36631 1232.4 37053 1232.1 37053.4 1232 37053.4 607 37053.4 606.6 37053.1 606.6 37053 606.6 36631 606.9 36630.6 607 36630.6 1232 36630.6 1232.4 36630.9"/><path d="M 39804.4 -896.1 39804.4 -896.1 39804.4 -896 39804.4 -271 39804.1 -270.6 39804 -270.6 39382 -270.6 39381.6 -270.9 39381.6 -271 39381.6 -896 39381.9 -896.4 39382 -896.4 39804 -896.4 39804.4 -896.1"/><path d="M -38370.6 -1766.1 -38370.6 -1766.1 -38370.6 -1766 -38370.6 -1344 -38370.9 -1343.6 -38371 -1343.6 -38996 -1343.6 -38996.4 -1343.9 -38996.4 -1344 -38996.4 -1766 -38996.1 -1766.4 -38996 -1766.4 -38371 -1766.4 -38370.6 -1766.1"/><path d="M -36695.6 -1766.1 -36695.6 -1766.1 -36695.6 -1766 -36695.6 -1344 -36695.9 -1343.6 -36696 -1343.6 -37321 -1343.6 -37321.4 -1343.9 -37321.4 -1344 -37321.4 -1766 -37321.1 -1766.4 -37321 -1766.4 -36696 -1766.4 -36695.6 -1766.1"/><path d="M -38370.6 -2588.1 -38370.6 -2588.1 -38370.6 -2588 -38370.6 -2166 -38370.9 -2165.6 -38371 -2165.6 -38996 -2165.6 -38996.4 -2165.9 -38996.4 -2166 -38996.4 -2588 -38996.1 -2588.4 -38996 -2588.4 -38371 -2588.4 -38370.6 -2588.1"/><path d="M -36695.6 -2588.1 -36695.6 -2588.1 -36695.6 -2588 -36695.6 -2166 -36695.9 -2165.6 -36696 -2165.6 -37321 -2165.6 -37321.4 -2165.9 -37321.4 -2166 -37321.4 -2588 -37321.1 -2588.4 -37321 -2588.4 -36696 -2588.4 -36695.6 -2588.1"/><path d="M -18050.6 -12180.1 -18050.6 -12180.1 -18050.6 -12180 -18050.6 -11758 -18050.9 -11757.6 -18051 -11757.6 -18676 -11757.6 -18676.4 -11757.9 -18676.4 -11758 -18676.4 -12180 -18676.1 -12180.4 -18676 -12180.4 -18051 -12180.4 -18050.6 -12180.1"/><path d="M -16375.6 -12180.1 -16375.6 -12180.1 -16375.6 -12180 -16375.6 -11758 -16375.9 -11757.6 -16376 -11757.6 -17001 -11757.6 -17001.4 -11757.9 -17001.4 -11758 -17001.4 -12180 -17001.1 -12180.4 -17001 -12180.4 -16376 -12180.4 -16375.6 -12180.1"/><path d="M -18050.6 -13002.1 -18050.6 -13002.1 -18050.6 -13002 -18050.6 -12580 -18050.9 -12579.6 -18051 -12579.6 -18676 -12579.6 -18676.4 -12579.9 -18676.4 -12580 -18676.4 -13002 -18676.1 -13002.4 -18676 -13002.4 -18051 -13002.4 -18050.6 -13002.1"/><path d="M 1277.4 -39231.1 1277.4 -39231.1 1277.4 -39231 1277.4 -38809 1277.1 -38808.6 1277 -38808.6 652 -38808.6 651.6 -38808.9 651.6 -38809 651.6 -39231 651.9 -39231.4 652 -39231.4 1277 -39231.4 1277.4 -39231.1"/><path d="M -12970.6 30745.9 -12970.6 30745.9 -12970.6 30746 -12970.6 31168 -12970.9 31168.4 -12971 31168.4 -13596 31168.4 -13596.4 31168.1 -13596.4 31168 -13596.4 30746 -13596.1 30745.6 -13596 30745.6 -12971 30745.6 -12970.6 30745.9"/><path d="M 8111.4 29983.9 8111.4 29983.9 8111.4 29984 8111.4 30406 8111.1 30406.4 8111 30406.4 7486 30406.4 7485.6 30406.1 7485.6 30406 7485.6 29984 7485.9 29983.6 7486 29983.6 8111 29983.6 8111.4 29983.9"/><path d="M 9786.4 29983.9 9786.4 29983.9 9786.4 29984 9786.4 30406 9786.1 30406.4 9786 30406.4 9161 30406.4 9160.6 30406.1 9160.6 30406 9160.6 29984 9160.9 29983.6 9161 29983.6 9786 29983.6 9786.4 29983.9"/><path d="M -11295.6 29923.9 -11295.6 29923.9 -11295.6 29924 -11295.6 30346 -11295.9 30346.4 -11296 30346.4 -11921 30346.4 -11921.4 30346.1 -11921.4 30346 -11921.4 29924 -11921.1 29923.6 -11921 29923.6 -11296 29923.6 -11295.6 29923.9"/><path d="M -12970.6 29923.9 -12970.6 29923.9 -12970.6 29924 -12970.6 30346 -12970.9 30346.4 -12971 30346.4 -13596 30346.4 -13596.4 30346.1 -13596.4 30346 -13596.4 29924 -13596.1 29923.6 -13596 29923.6 -12971 29923.6 -12970.6 29923.9"/><path d="M 9786.4 29161.9 9786.4 29161.9 9786.4 29162 9786.4 29584 9786.1 29584.4 9786 29584.4 9161 29584.4 9160.6 29584.1 9160.6 29584 9160.6 29162 9160.9 29161.6 9161 29161.6 9786 29161.6 9786.4 29161.9"/><path d="M 8111.4 29161.9 8111.4 29161.9 8111.4 29162 8111.4 29584 8111.1 29584.4 8111 29584.4 7486 29584.4 7485.6 29584.1 7485.6 29584 7485.6 29162 7485.9 29161.6 7486 29161.6 8111 29161.6 8111.4 29161.9"/><path d="M 38982.4 778.9 38982.4 778.9 38982.4 779 38982.4 1404 38982.1 1404.4 38982 1404.4 38560 1404.4 38559.6 1404.1 38559.6 1404 38559.6 779 38559.9 778.6 38560 778.6 38982 778.6 38982.4 778.9"/><path d="M -397.6 -39231.1 -397.6 -39231.1 -397.6 -39231 -397.6 -38809 -397.9 -38808.6 -398 -38808.6 -1023 -38808.6 -1023.4 -38808.9 -1023.4 -38809 -1023.4 -39231 -1023.1 -39231.4 -1023 -39231.4 -398 -39231.4 -397.6 -39231.1"/><path d="M 1277.4 -40053.1 1277.4 -40053.1 1277.4 -40053 1277.4 -39631 1277.1 -39630.6 1277 -39630.6 652 -39630.6 651.6 -39630.9 651.6 -39631 651.6 -40053 651.9 -40053.4 652 -40053.4 1277 -40053.4 1277.4 -40053.1"/><path d="M -397.6 -40053.1 -397.6 -40053.1 -397.6 -40053 -397.6 -39631 -397.9 -39630.6 -398 -39630.6 -1023 -39630.6 -1023.4 -39630.9 -1023.4 -39631 -1023.4 -40053 -1023.1 -40053.4 -1023 -40053.4 -398 -40053.4 -397.6 -40053.1"/><path d="M 14358.4 20077.9 14358.4 20077.9 14358.4 20078 14358.4 20500 14358.1 20500.4 14358 20500.4 13733 20500.4 13732.6 20500.1 13732.6 20500 13732.6 20078 13732.9 20077.6 13733 20077.6 14358 20077.6 14358.4 20077.9"/><path d="M 12683.4 20077.9 12683.4 20077.9 12683.4 20078 12683.4 20500 12683.1 20500.4 12683 20500.4 12058 20500.4 12057.6 20500.1 12057.6 20500 12057.6 20078 12057.9 20077.6 12058 20077.6 12683 20077.6 12683.4 20077.9"/><path d="M 14358.4 19255.9 14358.4 19255.9 14358.4 19256 14358.4 19678 14358.1 19678.4 14358 19678.4 13733 19678.4 13732.6 19678.1 13732.6 19678 13732.6 19256 13732.9 19255.6 13733 19255.6 14358 19255.6 14358.4 19255.9"/><path d="M 12683.4 19255.9 12683.4 19255.9 12683.4 19256 12683.4 19678 12683.1 19678.4 12683 19678.4 12058 19678.4 12057.6 19678.1 12057.6 19678 12057.6 19256 12057.9 19255.6 12058 19255.6 12683 19255.6 12683.4 19255.9"/><path d="M 8076.3 31496.9 8076.3 31496.9 8076.4 31496.9 8097.6 31606.5 8139.9 31709.6 8201.7 31802.5 8280.5 31881.3 8373.4 31943.1 8476.5 31985.4 8586.1 32006.6 8586.2 32006.8 8586.4 32006.9 8586.4 32007 8586.4 32257 8586.1 32257.4 8586 32257.4 8585.9 32257.4 8420.2 32231 8420.1 32231 8263.4 32170.8 8263.4 32170.7 8263.3 32170.7 8122.5 32079.3 8122.5 32079.2 8003.8 31960.5 8003.7 31960.5 7912.3 31819.7 7912.3 31819.6 7912.2 31819.6 7852 31662.9 7852 31662.8 7825.6 31497.1 7825.6 31497 7825.9 31496.6 7826 31496.6 8076 31496.6 8076.3 31496.9"/><path d="M -13005.7 32258.9 -13005.7 32258.9 -13005.6 32258.9 -12984.4 32368.5 -12942.1 32471.6 -12880.3 32564.5 -12801.5 32643.3 -12708.6 32705.1 -12605.5 32747.4 -12495.9 32768.6 -12495.8 32768.8 -12495.6 32768.9 -12495.6 32769 -12495.6 33019 -12495.9 33019.4 -12496 33019.4 -12496.1 33019.4 -12661.8 32993 -12661.9 32993 -12818.6 32932.8 -12818.7 32932.7 -12959.5 32841.3 -12959.5 32841.2 -13078.2 32722.5 -13078.3 32722.5 -13169.7 32581.7 -13169.7 32581.6 -13169.8 32581.6 -13230 32424.9 -13230 32424.8 -13256.4 32259.1 -13256.4 32259 -13256.1 32258.6 -13256 32258.6 -13006 32258.6 -13005.7 32258.9"/><path d="M 12648.3 21590.9 12648.3 21590.9 12648.4 21590.9 12669.6 21700.5 12711.9 21803.6 12773.7 21896.5 12852.5 21975.3 12945.4 22037.1 13048.5 22079.4 13158.1 22100.6 13158.2 22100.8 13158.4 22100.9 13158.4 22101 13158.4 22351 13158.1 22351.4 13158 22351.4 13157.9 22351.4 12992.2 22325 12992.1 22325 12835.4 22264.8 12835.4 22264.7 12835.3 22264.7 12694.5 22173.3 12694.5 22173.2 12575.8 22054.5 12575.7 22054.5 12484.3 21913.7 12484.3 21913.6 12484.2 21913.6 12424 21756.9 12424 21756.8 12397.6 21591.1 12397.6 21591 12397.9 21590.6 12398 21590.6 12648 21590.6 12648.3 21590.9"/><path d="M -38405.7 -253.1 -38405.7 -253.1 -38405.6 -253.1 -38384.4 -143.5 -38342.1 -40.4 -38280.3 52.5 -38201.5 131.3 -38108.6 193.1 -38005.5 235.4 -37895.9 256.6 -37895.8 256.8 -37895.6 256.9 -37895.6 257 -37895.6 507 -37895.9 507.4 -37896 507.4 -37896.1 507.4 -38061.8 481 -38061.9 481 -38218.6 420.8 -38218.7 420.7 -38359.5 329.3 -38359.5 329.2 -38478.2 210.5 -38478.3 210.5 -38569.7 69.7 -38569.7 69.6 -38569.8 69.6 -38630 -87.1 -38630 -87.2 -38656.4 -252.9 -38656.4 -253 -38656.1 -253.4 -38656 -253.4 -38406 -253.4 -38405.7 -253.1"/><path d="M -18085.7 -10667.1 -18085.7 -10667.1 -18085.6 -10667.1 -18064.4 -10557.5 -18022.1 -10454.4 -17960.3 -10361.5 -17881.5 -10282.7 -17788.6 -10220.9 -17685.5 -10178.6 -17575.9 -10157.4 -17575.8 -10157.2 -17575.6 -10157.1 -17575.6 -10157 -17575.6 -9907 -17575.9 -9906.6 -17576 -9906.6 -17576.1 -9906.6 -17741.8 -9933 -17741.9 -9933 -17898.6 -9993.2 -17898.7 -9993.3 -18039.5 -10084.7 -18039.5 -10084.8 -18158.2 -10203.5 -18158.3 -10203.5 -18249.7 -10344.3 -18249.7 -10344.4 -18249.8 -10344.4 -18310 -10501.1 -18310 -10501.2 -18336.4 -10666.9 -18336.4 -10667 -18336.1 -10667.4 -18336 -10667.4 -18086 -10667.4 -18085.7 -10667.1"/><path d="M -477.7 38965.9 -477.7 38965.9 -477.6 38965.9 -456.4 39075.5 -414.1 39178.6 -352.3 39271.5 -273.5 39350.3 -180.6 39412.1 -77.5 39454.4 32.1 39475.6 32.2 39475.8 32.4 39475.9 32.4 39476 32.4 39726 32.1 39726.4 32 39726.4 31.9 39726.4 -133.8 39700 -133.9 39700 -290.6 39639.8 -290.7 39639.7 -431.5 39548.3 -431.5 39548.2 -550.2 39429.5 -550.3 39429.5 -641.7 39288.7 -641.7 39288.6 -641.8 39288.6 -702 39131.9 -702 39131.8 -728.4 38966.1 -728.4 38966 -728.1 38965.6 -728 38965.6 -478 38965.6 -477.7 38965.9"/><path d="M -432.7 -37718.1 -432.7 -37718.1 -432.6 -37718.1 -411.4 -37608.5 -369.1 -37505.4 -307.3 -37412.5 -228.5 -37333.7 -135.6 -37271.9 -32.5 -37229.6 77.1 -37208.4 77.2 -37208.2 77.4 -37208.1 77.4 -37208 77.4 -36958 77.1 -36957.6 77 -36957.6 76.9 -36957.6 -88.8 -36984 -88.9 -36984 -245.6 -37044.2 -245.7 -37044.3 -386.5 -37135.7 -386.5 -37135.8 -505.2 -37254.5 -505.3 -37254.5 -596.7 -37395.3 -596.7 -37395.4 -596.8 -37395.4 -657 -37552.1 -657 -37552.2 -683.4 -37717.9 -683.4 -37718 -683.1 -37718.4 -683 -37718.4 -433 -37718.4 -432.7 -37718.1"/><path d="M 40285.3 303.9 40285.3 303.9 40285.4 303.9 40306.6 413.5 40348.9 516.6 40410.7 609.5 40489.5 688.3 40582.4 750.1 40685.5 792.4 40795.1 813.6 40795.2 813.8 40795.4 813.9 40795.4 814 40795.4 1064 40795.1 1064.4 40795 1064.4 40794.9 1064.4 40629.2 1038 40629.1 1038 40472.4 977.8 40472.4 977.7 40472.3 977.7 40331.5 886.3 40331.5 886.2 40212.8 767.5 40212.7 767.5 40121.3 626.7 40121.3 626.6 40121.2 626.6 40061 469.9 40061 469.8 40034.6 304.1 40034.6 304 40034.9 303.6 40035 303.6 40285 303.6 40285.3 303.9"/><path d="M 132 38105.6 132 38105.6 132.1 38105.6 297.8 38132 297.9 38132 454.6 38192.2 454.7 38192.3 595.5 38283.7 595.5 38283.8 714.2 38402.5 714.3 38402.5 805.7 38543.3 805.7 38543.4 805.8 38543.4 866 38700.1 866 38700.2 892.4 38865.9 892.4 38866 892.1 38866.4 892 38866.4 642 38866.4 641.7 38866.1 641.6 38866.1 620.4 38756.5 578.1 38653.4 516.3 38560.5 437.5 38481.7 344.6 38419.9 241.5 38377.6 131.9 38356.4 131.6 38356.1 131.6 38356 131.6 38106 131.9 38105.6 132 38105.6"/><path d="M -12396 31398.6 -12396 31398.6 -12395.9 31398.6 -12230.2 31425 -12230.1 31425 -12073.4 31485.2 -12073.4 31485.3 -12073.3 31485.3 -11932.5 31576.7 -11932.5 31576.8 -11813.8 31695.5 -11813.7 31695.5 -11722.3 31836.3 -11722.3 31836.4 -11722.2 31836.4 -11662 31993.1 -11662 31993.2 -11635.6 32158.9 -11635.6 32159 -11635.9 32159.4 -11636 32159.4 -11886 32159.4 -11886.3 32159.1 -11886.4 32159.1 -11907.6 32049.5 -11949.9 31946.4 -12011.7 31853.5 -12090.5 31774.7 -12183.4 31712.9 -12286.5 31670.6 -12396.1 31649.4 -12396.4 31649.1 -12396.4 31649 -12396.4 31399 -12396.1 31398.6 -12396 31398.6"/><path d="M 8686 30636.6 8686 30636.6 8686.1 30636.6 8851.8 30663 8851.9 30663 9008.6 30723.2 9008.7 30723.3 9149.5 30814.7 9149.5 30814.8 9268.2 30933.5 9268.3 30933.5 9359.7 31074.3 9359.7 31074.4 9359.8 31074.4 9420 31231.1 9420 31231.2 9446.4 31396.9 9446.4 31397 9446.1 31397.4 9446 31397.4 9196 31397.4 9195.7 31397.1 9195.6 31397.1 9174.4 31287.5 9132.1 31184.4 9070.3 31091.5 8991.5 31012.7 8898.6 30950.9 8795.5 30908.6 8685.9 30887.4 8685.6 30887.1 8685.6 30887 8685.6 30637 8685.9 30636.6 8686 30636.6"/><path d="M 13258 20730.6 13258 20730.6 13258.1 20730.6 13423.8 20757 13423.9 20757 13580.6 20817.2 13580.7 20817.3 13721.5 20908.7 13721.5 20908.8 13840.2 21027.5 13840.3 21027.5 13931.7 21168.3 13931.7 21168.4 13931.8 21168.4 13992 21325.1 13992 21325.2 14018.4 21490.9 14018.4 21491 14018.1 21491.4 14018 21491.4 13768 21491.4 13767.7 21491.1 13767.6 21491.1 13746.4 21381.5 13704.1 21278.4 13642.3 21185.5 13563.5 21106.7 13470.6 21044.9 13367.5 21002.6 13257.9 20981.4 13257.6 20981.1 13257.6 20981 13257.6 20731 13257.9 20730.6 13258 20730.6"/><path d="M -17476 -11527.4 -17476 -11527.4 -17475.9 -11527.4 -17310.2 -11501 -17310.1 -11501 -17153.4 -11440.8 -17153.4 -11440.7 -17153.3 -11440.7 -17012.5 -11349.3 -17012.5 -11349.2 -16893.8 -11230.5 -16893.7 -11230.5 -16802.3 -11089.7 -16802.3 -11089.6 -16802.2 -11089.6 -16742 -10932.9 -16742 -10932.8 -16715.6 -10767.1 -16715.6 -10767 -16715.9 -10766.6 -16716 -10766.6 -16966 -10766.6 -16966.3 -10766.9 -16966.4 -10766.9 -16987.6 -10876.5 -17029.9 -10979.6 -17091.7 -11072.5 -17170.5 -11151.3 -17263.4 -11213.1 -17366.5 -11255.4 -17476.1 -11276.6 -17476.4 -11276.9 -17476.4 -11277 -17476.4 -11527 -17476.1 -11527.4 -17476 -11527.4"/><path d="M 40895 -556.4 40895 -556.4 40895.1 -556.4 41060.8 -530 41060.9 -530 41217.6 -469.8 41217.7 -469.7 41358.5 -378.3 41358.5 -378.2 41477.2 -259.5 41477.3 -259.5 41568.7 -118.7 41568.7 -118.6 41568.8 -118.6 41629 38.1 41629 38.2 41655.4 203.9 41655.4 204 41655.1 204.4 41655 204.4 41405 204.4 41404.7 204.1 41404.6 204.1 41383.4 94.5 41341.1 -8.6 41279.3 -101.5 41200.5 -180.3 41107.6 -242.1 41004.5 -284.4 40894.9 -305.6 40894.6 -305.9 40894.6 -306 40894.6 -556 40894.9 -556.4 40895 -556.4"/><path d="M 177 -38578.4 177 -38578.4 177.1 -38578.4 342.8 -38552 342.9 -38552 499.6 -38491.8 499.7 -38491.7 640.5 -38400.3 640.5 -38400.2 759.2 -38281.5 759.3 -38281.5 850.7 -38140.7 850.7 -38140.6 850.8 -38140.6 911 -37983.9 911 -37983.8 937.4 -37818.1 937.4 -37818 937.1 -37817.6 937 -37817.6 687 -37817.6 686.7 -37817.9 686.6 -37817.9 665.4 -37927.5 623.1 -38030.6 561.3 -38123.5 482.5 -38202.3 389.6 -38264.1 286.5 -38306.4 176.9 -38327.6 176.6 -38327.9 176.6 -38328 176.6 -38578 176.9 -38578.4 177 -38578.4"/><path d="M -37796 -1113.4 -37796 -1113.4 -37795.9 -1113.4 -37630.2 -1087 -37630.1 -1087 -37473.4 -1026.8 -37473.4 -1026.7 -37473.3 -1026.7 -37332.5 -935.3 -37332.5 -935.2 -37213.8 -816.5 -37213.7 -816.5 -37122.3 -675.7 -37122.3 -675.6 -37122.2 -675.6 -37062 -518.9 -37062 -518.8 -37035.6 -353.1 -37035.6 -353 -37035.9 -352.6 -37036 -352.6 -37286 -352.6 -37286.3 -352.9 -37286.4 -352.9 -37307.6 -462.5 -37349.9 -565.6 -37411.7 -658.5 -37490.5 -737.3 -37583.4 -799.1 -37686.5 -841.4 -37796.1 -862.6 -37796.4 -862.9 -37796.4 -863 -37796.4 -1113 -37796.1 -1113.4 -37796 -1113.4"/><path d="M 892 38965.6 892 38965.6 892.4 38965.9 892.4 38966 892.4 38966.1 866 39131.8 866 39131.9 805.8 39288.6 805.7 39288.7 714.3 39429.5 714.2 39429.5 595.5 39548.2 595.5 39548.3 454.7 39639.7 454.6 39639.7 454.6 39639.8 297.9 39700 297.8 39700 132.1 39726.4 132 39726.4 131.6 39726.1 131.6 39726 131.6 39476 131.9 39475.7 131.9 39475.6 241.5 39454.4 344.6 39412.1 437.5 39350.3 516.3 39271.5 578.1 39178.6 620.4 39075.5 641.6 38965.9 641.9 38965.6 642 38965.6 892 38965.6 892 38965.6"/><path d="M -11636 32258.6 -11636 32258.6 -11635.6 32258.9 -11635.6 32259 -11635.6 32259.1 -11662 32424.8 -11662 32424.9 -11722.2 32581.6 -11722.3 32581.7 -11813.7 32722.5 -11813.8 32722.5 -11932.5 32841.2 -11932.5 32841.3 -12073.3 32932.7 -12073.4 32932.7 -12073.4 32932.8 -12230.1 32993 -12230.2 32993 -12395.9 33019.4 -12396 33019.4 -12396.4 33019.1 -12396.4 33019 -12396.4 32769 -12396.1 32768.7 -12396.1 32768.6 -12286.5 32747.4 -12183.4 32705.1 -12090.5 32643.3 -12011.7 32564.5 -11949.9 32471.6 -11907.6 32368.5 -11886.4 32258.9 -11886.1 32258.6 -11886 32258.6 -11636 32258.6 -11636 32258.6"/><path d="M 9446 31496.6 9446 31496.6 9446.4 31496.9 9446.4 31497 9446.4 31497.1 9420 31662.8 9420 31662.9 9359.8 31819.6 9359.7 31819.7 9268.3 31960.5 9268.2 31960.5 9149.5 32079.2 9149.5 32079.3 9008.7 32170.7 9008.6 32170.7 9008.6 32170.8 8851.9 32231 8851.8 32231 8686.1 32257.4 8686 32257.4 8685.6 32257.1 8685.6 32257 8685.6 32007 8685.9 32006.7 8685.9 32006.6 8795.5 31985.4 8898.6 31943.1 8991.5 31881.3 9070.3 31802.5 9132.1 31709.6 9174.4 31606.5 9195.6 31496.9 9195.9 31496.6 9196 31496.6 9446 31496.6 9446 31496.6"/><path d="M -16716 -10667.4 -16716 -10667.4 -16715.6 -10667.1 -16715.6 -10667 -16715.6 -10666.9 -16742 -10501.2 -16742 -10501.1 -16802.2 -10344.4 -16802.3 -10344.4 -16802.3 -10344.3 -16893.7 -10203.5 -16893.8 -10203.5 -17012.5 -10084.8 -17012.5 -10084.7 -17153.3 -9993.3 -17153.4 -9993.3 -17153.4 -9993.2 -17310.1 -9933 -17310.2 -9933 -17475.9 -9906.6 -17476 -9906.6 -17476.4 -9906.9 -17476.4 -9907 -17476.4 -10157 -17476.1 -10157.3 -17476.1 -10157.4 -17366.5 -10178.6 -17263.4 -10220.9 -17170.5 -10282.7 -17091.7 -10361.5 -17029.9 -10454.4 -16987.6 -10557.5 -16966.4 -10667.1 -16966.1 -10667.4 -16966 -10667.4 -16716 -10667.4 -16716 -10667.4"/><path d="M 14018 21590.6 14018 21590.6 14018.4 21590.9 14018.4 21591 14018.4 21591.1 13992 21756.8 13992 21756.9 13931.8 21913.6 13931.7 21913.7 13840.3 22054.5 13840.2 22054.5 13721.5 22173.2 13721.5 22173.3 13580.7 22264.7 13580.6 22264.7 13580.6 22264.8 13423.9 22325 13423.8 22325 13258.1 22351.4 13258 22351.4 13257.6 22351.1 13257.6 22351 13257.6 22101 13257.9 22100.7 13257.9 22100.6 13367.5 22079.4 13470.6 22037.1 13563.5 21975.3 13642.3 21896.5 13704.1 21803.6 13746.4 21700.5 13767.6 21590.9 13767.9 21590.6 13768 21590.6 14018 21590.6 14018 21590.6"/><path d="M 41655 303.6 41655 303.6 41655.4 303.9 41655.4 304 41655.4 304.1 41629 469.8 41629 469.9 41568.8 626.6 41568.7 626.7 41477.3 767.5 41477.2 767.5 41358.5 886.2 41358.5 886.3 41217.7 977.7 41217.6 977.7 41217.6 977.8 41060.9 1038 41060.8 1038 40895.1 1064.4 40895 1064.4 40894.6 1064.1 40894.6 1064 40894.6 814 40894.9 813.7 40894.9 813.6 41004.5 792.4 41107.6 750.1 41200.5 688.3 41279.3 609.5 41341.1 516.6 41383.4 413.5 41404.6 303.9 41404.9 303.6 41405 303.6 41655 303.6 41655 303.6"/><path d="M 937 -37718.4 937 -37718.4 937.4 -37718.1 937.4 -37718 937.4 -37717.9 911 -37552.2 911 -37552.1 850.8 -37395.4 850.7 -37395.4 850.7 -37395.3 759.3 -37254.5 759.2 -37254.5 640.5 -37135.8 640.5 -37135.7 499.7 -37044.3 499.6 -37044.3 499.6 -37044.2 342.9 -36984 342.8 -36984 177.1 -36957.6 177 -36957.6 176.6 -36957.9 176.6 -36958 176.6 -37208 176.9 -37208.3 176.9 -37208.4 286.5 -37229.6 389.6 -37271.9 482.5 -37333.7 561.3 -37412.5 623.1 -37505.4 665.4 -37608.5 686.6 -37718.1 686.9 -37718.4 687 -37718.4 937 -37718.4 937 -37718.4"/><path d="M -37036 -253.4 -37036 -253.4 -37035.6 -253.1 -37035.6 -253 -37035.6 -252.9 -37062 -87.2 -37062 -87.1 -37122.2 69.6 -37122.3 69.7 -37213.7 210.5 -37213.8 210.5 -37332.5 329.2 -37332.5 329.3 -37473.3 420.7 -37473.4 420.7 -37473.4 420.8 -37630.1 481 -37630.2 481 -37795.9 507.4 -37796 507.4 -37796.4 507.1 -37796.4 507 -37796.4 257 -37796.1 256.7 -37796.1 256.6 -37686.5 235.4 -37583.4 193.1 -37490.5 131.3 -37411.7 52.5 -37349.9 -40.4 -37307.6 -143.5 -37286.4 -253.1 -37286.1 -253.4 -37286 -253.4 -37036 -253.4 -37036 -253.4"/><path d="M 32 38105.6 32 38105.6 32.4 38105.9 32.4 38106 32.4 38356 32.1 38356.3 32.1 38356.4 -77.5 38377.6 -180.6 38419.9 -273.5 38481.7 -352.3 38560.5 -414.1 38653.4 -456.4 38756.5 -477.6 38866.1 -477.9 38866.4 -478 38866.4 -728 38866.4 -728.4 38866.1 -728.4 38866 -728.4 38865.9 -702 38700.2 -702 38700.1 -641.8 38543.4 -641.7 38543.4 -641.7 38543.3 -550.3 38402.5 -550.2 38402.5 -431.5 38283.8 -431.5 38283.7 -290.7 38192.3 -290.6 38192.3 -290.6 38192.2 -133.9 38132 -133.8 38132 31.9 38105.6 32 38105.6"/><path d="M -12496 31398.6 -12496 31398.6 -12495.6 31398.9 -12495.6 31399 -12495.6 31649 -12495.9 31649.3 -12495.9 31649.4 -12605.5 31670.6 -12708.6 31712.9 -12801.5 31774.7 -12880.3 31853.5 -12942.1 31946.4 -12984.4 32049.5 -13005.6 32159.1 -13005.9 32159.4 -13006 32159.4 -13256 32159.4 -13256.4 32159.1 -13256.4 32159 -13256.4 32158.9 -13230 31993.2 -13230 31993.1 -13169.8 31836.4 -13169.7 31836.4 -13169.7 31836.3 -13078.3 31695.5 -13078.2 31695.5 -12959.5 31576.8 -12959.5 31576.7 -12818.7 31485.3 -12818.6 31485.3 -12818.6 31485.2 -12661.9 31425 -12661.8 31425 -12496.1 31398.6 -12496 31398.6"/><path d="M 8586 30636.6 8586 30636.6 8586.4 30636.9 8586.4 30637 8586.4 30887 8586.1 30887.3 8586.1 30887.4 8476.5 30908.6 8373.4 30950.9 8280.5 31012.7 8201.7 31091.5 8139.9 31184.4 8097.6 31287.5 8076.4 31397.1 8076.1 31397.4 8076 31397.4 7826 31397.4 7825.6 31397.1 7825.6 31397 7825.6 31396.9 7852 31231.2 7852 31231.1 7912.2 31074.4 7912.3 31074.4 7912.3 31074.3 8003.7 30933.5 8003.8 30933.5 8122.5 30814.8 8122.5 30814.7 8263.3 30723.3 8263.4 30723.3 8263.4 30723.2 8420.1 30663 8420.2 30663 8585.9 30636.6 8586 30636.6"/><path d="M 13158 20730.6 13158 20730.6 13158.4 20730.9 13158.4 20731 13158.4 20981 13158.1 20981.3 13158.1 20981.4 13048.5 21002.6 12945.4 21044.9 12852.5 21106.7 12773.7 21185.5 12711.9 21278.4 12669.6 21381.5 12648.4 21491.1 12648.1 21491.4 12648 21491.4 12398 21491.4 12397.6 21491.1 12397.6 21491 12397.6 21490.9 12424 21325.2 12424 21325.1 12484.2 21168.4 12484.3 21168.4 12484.3 21168.3 12575.7 21027.5 12575.8 21027.5 12694.5 20908.8 12694.5 20908.7 12835.3 20817.3 12835.4 20817.3 12835.4 20817.2 12992.1 20757 12992.2 20757 13157.9 20730.6 13158 20730.6"/><path d="M 40795 -556.4 40795 -556.4 40795.4 -556.1 40795.4 -556 40795.4 -306 40795.1 -305.7 40795.1 -305.6 40685.5 -284.4 40582.4 -242.1 40489.5 -180.3 40410.7 -101.5 40348.9 -8.6 40306.6 94.5 40285.4 204.1 40285.1 204.4 40285 204.4 40035 204.4 40034.6 204.1 40034.6 204 40034.6 203.9 40061 38.2 40061 38.1 40121.2 -118.6 40121.3 -118.7 40212.7 -259.5 40212.8 -259.5 40331.5 -378.2 40331.5 -378.3 40472.3 -469.7 40472.4 -469.7 40472.4 -469.8 40629.1 -530 40629.2 -530 40794.9 -556.4 40795 -556.4"/><path d="M -17576 -11527.4 -17576 -11527.4 -17575.6 -11527.1 -17575.6 -11527 -17575.6 -11277 -17575.9 -11276.7 -17575.9 -11276.6 -17685.5 -11255.4 -17788.6 -11213.1 -17881.5 -11151.3 -17960.3 -11072.5 -18022.1 -10979.6 -18064.4 -10876.5 -18085.6 -10766.9 -18085.9 -10766.6 -18086 -10766.6 -18336 -10766.6 -18336.4 -10766.9 -18336.4 -10767 -18336.4 -10767.1 -18310 -10932.8 -18310 -10932.9 -18249.8 -11089.6 -18249.7 -11089.7 -18158.3 -11230.5 -18158.2 -11230.5 -18039.5 -11349.2 -18039.5 -11349.3 -17898.7 -11440.7 -17898.6 -11440.7 -17898.6 -11440.8 -17741.9 -11501 -17741.8 -11501 -17576.1 -11527.4 -17576 -11527.4"/><path d="M 77 -38578.4 77 -38578.4 77.4 -38578.1 77.4 -38578 77.4 -38328 77.1 -38327.7 77.1 -38327.6 -32.5 -38306.4 -135.6 -38264.1 -228.5 -38202.3 -307.3 -38123.5 -369.1 -38030.6 -411.4 -37927.5 -432.6 -37817.9 -432.9 -37817.6 -433 -37817.6 -683 -37817.6 -683.4 -37817.9 -683.4 -37818 -683.4 -37818.1 -657 -37983.8 -657 -37983.9 -596.8 -38140.6 -596.7 -38140.7 -505.3 -38281.5 -505.2 -38281.5 -386.5 -38400.2 -386.5 -38400.3 -245.7 -38491.7 -245.6 -38491.7 -245.6 -38491.8 -88.9 -38552 -88.8 -38552 76.9 -38578.4 77 -38578.4"/><path d="M -37896 -1113.4 -37896 -1113.4 -37895.6 -1113.1 -37895.6 -1113 -37895.6 -863 -37895.9 -862.7 -37895.9 -862.6 -38005.5 -841.4 -38108.6 -799.1 -38201.5 -737.3 -38280.3 -658.5 -38342.1 -565.6 -38384.4 -462.5 -38405.6 -352.9 -38405.9 -352.6 -38406 -352.6 -38656 -352.6 -38656.4 -352.9 -38656.4 -353 -38656.4 -353.1 -38630 -518.8 -38630 -518.9 -38569.8 -675.6 -38569.7 -675.7 -38478.3 -816.5 -38478.2 -816.5 -38359.5 -935.2 -38359.5 -935.3 -38218.7 -1026.7 -38218.6 -1026.7 -38218.6 -1026.8 -38061.9 -1087 -38061.8 -1087 -37896.1 -1113.4 -37896 -1113.4"/><use xlink:href="#txOCss5lV-P7qqAvnXQ6_pad-10" x="14390" y="-17780"/><use xlink:href="#txOCss5lV-P7qqAvnXQ6_pad-10" x="16090" y="-17780"/><use xlink:href="#txOCss5lV-P7qqAvnXQ6_pad-11" x="26670" y="-14820"/><use xlink:href="#txOCss5lV-P7qqAvnXQ6_pad-11" x="26670" y="-13120"/><use xlink:href="#txOCss5lV-P7qqAvnXQ6_pad-11" x="24130" y="-14820"/><use xlink:href="#txOCss5lV-P7qqAvnXQ6_pad-11" x="24130" y="-13120"/><use xlink:href="#txOCss5lV-P7qqAvnXQ6_pad-10" x="19470" y="-16510"/><use xlink:href="#txOCss5lV-P7qqAvnXQ6_pad-10" x="21170" y="-16510"/><use xlink:href="#txOCss5lV-P7qqAvnXQ6_pad-10" x="19470" y="-19050"/><use xlink:href="#txOCss5lV-P7qqAvnXQ6_pad-10" x="21170" y="-19050"/><use xlink:href="#txOCss5lV-P7qqAvnXQ6_pad-11" x="-5080" y="-31330"/><use xlink:href="#txOCss5lV-P7qqAvnXQ6_pad-11" x="-5080" y="-29630"/><use xlink:href="#txOCss5lV-P7qqAvnXQ6_pad-10" x="-8040" y="-1270"/><use xlink:href="#txOCss5lV-P7qqAvnXQ6_pad-10" x="-9740" y="-1270"/><use xlink:href="#txOCss5lV-P7qqAvnXQ6_pad-11" x="8890" y="5500"/><use xlink:href="#txOCss5lV-P7qqAvnXQ6_pad-11" x="8890" y="7200"/><use xlink:href="#txOCss5lV-P7qqAvnXQ6_pad-11" x="36322" y="1358"/><use xlink:href="#txOCss5lV-P7qqAvnXQ6_pad-11" x="36322" y="-342"/><use xlink:href="#txOCss5lV-P7qqAvnXQ6_pad-10" x="-850" y="-30480"/><use xlink:href="#txOCss5lV-P7qqAvnXQ6_pad-10" x="850" y="-30480"/><use xlink:href="#txOCss5lV-P7qqAvnXQ6_pad-10" x="-850" y="-33020"/><use xlink:href="#txOCss5lV-P7qqAvnXQ6_pad-10" x="850" y="-33020"/><use xlink:href="#txOCss5lV-P7qqAvnXQ6_pad-11" x="33274" y="1358"/><use xlink:href="#txOCss5lV-P7qqAvnXQ6_pad-11" x="33274" y="-342"/><use xlink:href="#txOCss5lV-P7qqAvnXQ6_pad-10" x="-37426" y="-5334"/><use xlink:href="#txOCss5lV-P7qqAvnXQ6_pad-10" x="-35726" y="-5334"/><use xlink:href="#txOCss5lV-P7qqAvnXQ6_pad-10" x="-37426" y="-7874"/><use xlink:href="#txOCss5lV-P7qqAvnXQ6_pad-10" x="-35726" y="-7874"/><use xlink:href="#txOCss5lV-P7qqAvnXQ6_pad-10" x="-850" y="30480"/><use xlink:href="#txOCss5lV-P7qqAvnXQ6_pad-10" x="850" y="30480"/><use xlink:href="#txOCss5lV-P7qqAvnXQ6_pad-10" x="8040" y="25400"/><use xlink:href="#txOCss5lV-P7qqAvnXQ6_pad-10" x="9740" y="25400"/><use xlink:href="#txOCss5lV-P7qqAvnXQ6_pad-10" x="11850" y="15240"/><use xlink:href="#txOCss5lV-P7qqAvnXQ6_pad-10" x="13550" y="15240"/><use xlink:href="#txOCss5lV-P7qqAvnXQ6_pad-10" x="-18376" y="-15494"/><use xlink:href="#txOCss5lV-P7qqAvnXQ6_pad-10" x="-16676" y="-15494"/><use xlink:href="#txOCss5lV-P7qqAvnXQ6_pad-10" x="-13550" y="26670"/><use xlink:href="#txOCss5lV-P7qqAvnXQ6_pad-10" x="-11850" y="26670"/><use xlink:href="#txOCss5lV-P7qqAvnXQ6_pad-10" x="-14566" y="4826"/><use xlink:href="#txOCss5lV-P7qqAvnXQ6_pad-10" x="-12866" y="4826"/><use xlink:href="#txOCss5lV-P7qqAvnXQ6_pad-10" x="-14566" y="1270"/><use xlink:href="#txOCss5lV-P7qqAvnXQ6_pad-10" x="-12866" y="1270"/><use xlink:href="#txOCss5lV-P7qqAvnXQ6_pad-11" x="-21590" y="-2960"/><use xlink:href="#txOCss5lV-P7qqAvnXQ6_pad-11" x="-21590" y="-4660"/><use xlink:href="#txOCss5lV-P7qqAvnXQ6_pad-11" x="-24130" y="-2960"/><use xlink:href="#txOCss5lV-P7qqAvnXQ6_pad-11" x="-24130" y="-4660"/><use xlink:href="#txOCss5lV-P7qqAvnXQ6_pad-10" x="-850" y="33020"/><use xlink:href="#txOCss5lV-P7qqAvnXQ6_pad-10" x="850" y="33020"/><use xlink:href="#txOCss5lV-P7qqAvnXQ6_pad-11" x="22860" y="13550"/><use xlink:href="#txOCss5lV-P7qqAvnXQ6_pad-11" x="22860" y="11850"/><path d="M -33763 14890 -33763 15590 -33063 15590 -33063 14890 -33763 14890 M -33763 15175 -33063 15175 M -33063 15460 -33763 15460 M -35517 15590 -35517 14890 M -35517 15590 -34817 15590 -34817 14890 -35517 14890 M -35517 15175 -34817 15175 M -34817 15460 -35517 15460 M -33763 11780 -33763 11080 M -33763 11780 -33063 11780 -33063 11080 -33763 11080 M -33763 11365 -33063 11365 M -33063 11650 -33763 11650 M -35517 11780 -35517 11080 M -35517 11780 -34817 11780 -34817 11080 -35517 11080 M -35517 11365 -34817 11365 M -34817 11650 -35517 11650" fill="none" stroke-width="300"/><use xlink:href="#txOCss5lV-P7qqAvnXQ6_pad-13" x="26790" y="-17780"/><use xlink:href="#txOCss5lV-P7qqAvnXQ6_pad-13" x="29090" y="-17780"/><use xlink:href="#txOCss5lV-P7qqAvnXQ6_pad-13" x="26790" y="-20320"/><use xlink:href="#txOCss5lV-P7qqAvnXQ6_pad-13" x="29090" y="-20320"/><path d="M -33763 7270 -33763 7970 -33063 7970 -33063 7270 -33763 7270 M -33763 7555 -33063 7555 M -33063 7840 -33763 7840 M -35517 7970 -35517 7270 M -35517 7970 -34817 7970 -34817 7270 -35517 7270 M -35517 7555 -34817 7555 M -34817 7840 -35517 7840" fill="none" stroke-width="300"/><use xlink:href="#txOCss5lV-P7qqAvnXQ6_pad-14" x="21670" y="-13675"/><use xlink:href="#txOCss5lV-P7qqAvnXQ6_pad-14" x="21670" y="-13025"/><use xlink:href="#txOCss5lV-P7qqAvnXQ6_pad-14" x="21670" y="-12375"/><use xlink:href="#txOCss5lV-P7qqAvnXQ6_pad-14" x="21670" y="-11725"/><use xlink:href="#txOCss5lV-P7qqAvnXQ6_pad-14" x="18970" y="-11725"/><use xlink:href="#txOCss5lV-P7qqAvnXQ6_pad-14" x="18970" y="-12375"/><use xlink:href="#txOCss5lV-P7qqAvnXQ6_pad-14" x="18970" y="-13025"/><use xlink:href="#txOCss5lV-P7qqAvnXQ6_pad-14" x="18970" y="-13675"/><path d="M 12418.2 -35264.3 12879.9 -36532.7 12504 -36669.5 12042.3 -35401.1 12418.2 -35264.3"/><path d="M 13029 -35042 13490.7 -36310.4 13114.8 -36447.2 12653.1 -35178.8 13029 -35042"/><path d="M 13639.8 -34819.7 14101.5 -36088.1 13725.6 -36224.9 13263.9 -34956.5 13639.8 -34819.7"/><path d="M 14250.6 -34597.3 14712.3 -35865.7 14336.4 -36002.5 13874.7 -34734.1 14250.6 -34597.3"/><path d="M 14861.4 -34375 15323.1 -35643.4 14947.2 -35780.2 14485.5 -34511.8 14861.4 -34375"/><path d="M 14661.9 -38943.7 12970.5 -39559.3 12354.9 -37867.9 14046.3 -37252.3 14661.9 -38943.7"/><path d="M 16823.2 -38157 15131.8 -38772.6 14516.2 -37081.2 16207.6 -36465.6 16823.2 -38157"/><path d="M 12368.1 -39512.4 10206.9 -40299.1 9762.3 -39077.6 11923.5 -38290.9 12368.1 -39512.4"/><path d="M 11774.5 -37296.9 10271.1 -37844.1 9723.9 -36340.7 11227.3 -35793.5 11774.5 -37296.9"/><path d="M 17788.6 -35107.9 16285.2 -35655.1 15738 -34151.7 17241.4 -33604.5 17788.6 -35107.9"/><path d="M 19415.8 -36947.3 17254.6 -37734 16810 -36512.5 18971.2 -35725.8 19415.8 -36947.3"/><use xlink:href="#txOCss5lV-P7qqAvnXQ6_pad-19" x="16740" y="-12700"/><use xlink:href="#txOCss5lV-P7qqAvnXQ6_pad-19" x="13740" y="-12700"/><use xlink:href="#txOCss5lV-P7qqAvnXQ6_pad-10" x="19900" y="7620"/><use xlink:href="#txOCss5lV-P7qqAvnXQ6_pad-10" x="18200" y="7620"/><use xlink:href="#txOCss5lV-P7qqAvnXQ6_pad-10" x="12929" y="-30901"/><use xlink:href="#txOCss5lV-P7qqAvnXQ6_pad-10" x="11229" y="-30901"/><use xlink:href="#txOCss5lV-P7qqAvnXQ6_pad-11" x="-8890" y="19470"/><use xlink:href="#txOCss5lV-P7qqAvnXQ6_pad-11" x="-8890" y="21170"/><use xlink:href="#txOCss5lV-P7qqAvnXQ6_pad-10" x="16090" y="-15240"/><use xlink:href="#txOCss5lV-P7qqAvnXQ6_pad-10" x="14390" y="-15240"/><use xlink:href="#txOCss5lV-P7qqAvnXQ6_pad-10" x="16090" y="-10160"/><use xlink:href="#txOCss5lV-P7qqAvnXQ6_pad-10" x="14390" y="-10160"/><use xlink:href="#txOCss5lV-P7qqAvnXQ6_pad-10" x="23280" y="-17780"/><use xlink:href="#txOCss5lV-P7qqAvnXQ6_pad-10" x="24980" y="-17780"/><use xlink:href="#txOCss5lV-P7qqAvnXQ6_pad-10" x="24980" y="-20320"/><use xlink:href="#txOCss5lV-P7qqAvnXQ6_pad-10" x="23280" y="-20320"/><use xlink:href="#txOCss5lV-P7qqAvnXQ6_pad-10" x="19900" y="10160"/><use xlink:href="#txOCss5lV-P7qqAvnXQ6_pad-10" x="18200" y="10160"/><use xlink:href="#txOCss5lV-P7qqAvnXQ6_pad-10" x="-29630" y="15240"/><use xlink:href="#txOCss5lV-P7qqAvnXQ6_pad-10" x="-31330" y="15240"/><use xlink:href="#txOCss5lV-P7qqAvnXQ6_pad-10" x="-29630" y="7620"/><use xlink:href="#txOCss5lV-P7qqAvnXQ6_pad-10" x="-31330" y="7620"/><use xlink:href="#txOCss5lV-P7qqAvnXQ6_pad-10" x="-29630" y="11430"/><use xlink:href="#txOCss5lV-P7qqAvnXQ6_pad-10" x="-31330" y="11430"/><use xlink:href="#txOCss5lV-P7qqAvnXQ6_pad-10" x="19900" y="12700"/><use xlink:href="#txOCss5lV-P7qqAvnXQ6_pad-10" x="18200" y="12700"/><use xlink:href="#txOCss5lV-P7qqAvnXQ6_pad-10" x="19900" y="15240"/><use xlink:href="#txOCss5lV-P7qqAvnXQ6_pad-10" x="18200" y="15240"/><use xlink:href="#txOCss5lV-P7qqAvnXQ6_pad-10" x="19900" y="17780"/><use xlink:href="#txOCss5lV-P7qqAvnXQ6_pad-10" x="18200" y="17780"/><use xlink:href="#txOCss5lV-P7qqAvnXQ6_pad-10" x="14997" y="-30940"/><use xlink:href="#txOCss5lV-P7qqAvnXQ6_pad-10" x="16697" y="-30940"/><use xlink:href="#txOCss5lV-P7qqAvnXQ6_pad-20" x="26035" y="16590"/><use xlink:href="#txOCss5lV-P7qqAvnXQ6_pad-20" x="26035" y="15490"/><use xlink:href="#txOCss5lV-P7qqAvnXQ6_pad-20" x="26035" y="14390"/><use xlink:href="#txOCss5lV-P7qqAvnXQ6_pad-20" x="26035" y="13290"/><use xlink:href="#txOCss5lV-P7qqAvnXQ6_pad-20" x="26035" y="12190"/><use xlink:href="#txOCss5lV-P7qqAvnXQ6_pad-20" x="26035" y="11090"/><use xlink:href="#txOCss5lV-P7qqAvnXQ6_pad-20" x="26035" y="9990"/><use xlink:href="#txOCss5lV-P7qqAvnXQ6_pad-20" x="26035" y="8890"/><use xlink:href="#txOCss5lV-P7qqAvnXQ6_pad-21" x="28535" y="7740"/><use xlink:href="#txOCss5lV-P7qqAvnXQ6_pad-22" x="27735" y="18240"/><use xlink:href="#txOCss5lV-P7qqAvnXQ6_pad-23" x="28985" y="18440"/><use xlink:href="#txOCss5lV-P7qqAvnXQ6_pad-24" x="29985" y="17490"/><use xlink:href="#txOCss5lV-P7qqAvnXQ6_pad-25" x="-5650" y="5020"/><use xlink:href="#txOCss5lV-P7qqAvnXQ6_pad-25" x="-5650" y="4520"/><use xlink:href="#txOCss5lV-P7qqAvnXQ6_pad-25" x="-5650" y="4020"/><use xlink:href="#txOCss5lV-P7qqAvnXQ6_pad-25" x="-5650" y="3520"/><use xlink:href="#txOCss5lV-P7qqAvnXQ6_pad-25" x="-5650" y="3020"/><use xlink:href="#txOCss5lV-P7qqAvnXQ6_pad-25" x="-5650" y="2520"/><use xlink:href="#txOCss5lV-P7qqAvnXQ6_pad-25" x="-5650" y="2020"/><use xlink:href="#txOCss5lV-P7qqAvnXQ6_pad-25" x="-5650" y="1520"/><use xlink:href="#txOCss5lV-P7qqAvnXQ6_pad-25" x="-5650" y="1020"/><use xlink:href="#txOCss5lV-P7qqAvnXQ6_pad-25" x="-5650" y="520"/><use xlink:href="#txOCss5lV-P7qqAvnXQ6_pad-25" x="-5650" y="20"/><use xlink:href="#txOCss5lV-P7qqAvnXQ6_pad-25" x="-5650" y="-480"/><use xlink:href="#txOCss5lV-P7qqAvnXQ6_pad-25" x="-5650" y="-980"/><use xlink:href="#txOCss5lV-P7qqAvnXQ6_pad-25" x="-5650" y="-1480"/><use xlink:href="#txOCss5lV-P7qqAvnXQ6_pad-25" x="-5650" y="-1980"/><use xlink:href="#txOCss5lV-P7qqAvnXQ6_pad-25" x="-5650" y="-2480"/><use xlink:href="#txOCss5lV-P7qqAvnXQ6_pad-26" x="-3750" y="-4380"/><use xlink:href="#txOCss5lV-P7qqAvnXQ6_pad-26" x="-3250" y="-4380"/><use xlink:href="#txOCss5lV-P7qqAvnXQ6_pad-26" x="-2750" y="-4380"/><use xlink:href="#txOCss5lV-P7qqAvnXQ6_pad-26" x="-2250" y="-4380"/><use xlink:href="#txOCss5lV-P7qqAvnXQ6_pad-26" x="-1750" y="-4380"/><use xlink:href="#txOCss5lV-P7qqAvnXQ6_pad-26" x="-1250" y="-4380"/><use xlink:href="#txOCss5lV-P7qqAvnXQ6_pad-26" x="-750" y="-4380"/><use xlink:href="#txOCss5lV-P7qqAvnXQ6_pad-26" x="-250" y="-4380"/><use xlink:href="#txOCss5lV-P7qqAvnXQ6_pad-26" x="250" y="-4380"/><use xlink:href="#txOCss5lV-P7qqAvnXQ6_pad-26" x="750" y="-4380"/><use xlink:href="#txOCss5lV-P7qqAvnXQ6_pad-26" x="1250" y="-4380"/><use xlink:href="#txOCss5lV-P7qqAvnXQ6_pad-26" x="1750" y="-4380"/><use xlink:href="#txOCss5lV-P7qqAvnXQ6_pad-26" x="2250" y="-4380"/><use xlink:href="#txOCss5lV-P7qqAvnXQ6_pad-26" x="2750" y="-4380"/><use xlink:href="#txOCss5lV-P7qqAvnXQ6_pad-26" x="3250" y="-4380"/><use xlink:href="#txOCss5lV-P7qqAvnXQ6_pad-26" x="3750" y="-4380"/><use xlink:href="#txOCss5lV-P7qqAvnXQ6_pad-25" x="5650" y="-2480"/><use xlink:href="#txOCss5lV-P7qqAvnXQ6_pad-25" x="5650" y="-1980"/><use xlink:href="#txOCss5lV-P7qqAvnXQ6_pad-25" x="5650" y="-1480"/><use xlink:href="#txOCss5lV-P7qqAvnXQ6_pad-25" x="5650" y="-980"/><use xlink:href="#txOCss5lV-P7qqAvnXQ6_pad-25" x="5650" y="-480"/><use xlink:href="#txOCss5lV-P7qqAvnXQ6_pad-25" x="5650" y="20"/><use xlink:href="#txOCss5lV-P7qqAvnXQ6_pad-25" x="5650" y="520"/><use xlink:href="#txOCss5lV-P7qqAvnXQ6_pad-25" x="5650" y="1020"/><use xlink:href="#txOCss5lV-P7qqAvnXQ6_pad-25" x="5650" y="1520"/><use xlink:href="#txOCss5lV-P7qqAvnXQ6_pad-25" x="5650" y="2020"/><use xlink:href="#txOCss5lV-P7qqAvnXQ6_pad-25" x="5650" y="2520"/><use xlink:href="#txOCss5lV-P7qqAvnXQ6_pad-25" x="5650" y="3020"/><use xlink:href="#txOCss5lV-P7qqAvnXQ6_pad-25" x="5650" y="3520"/><use xlink:href="#txOCss5lV-P7qqAvnXQ6_pad-25" x="5650" y="4020"/><use xlink:href="#txOCss5lV-P7qqAvnXQ6_pad-25" x="5650" y="4520"/><use xlink:href="#txOCss5lV-P7qqAvnXQ6_pad-25" x="5650" y="5020"/><use xlink:href="#txOCss5lV-P7qqAvnXQ6_pad-26" x="3750" y="6920"/><use xlink:href="#txOCss5lV-P7qqAvnXQ6_pad-26" x="3250" y="6920"/><use xlink:href="#txOCss5lV-P7qqAvnXQ6_pad-26" x="2750" y="6920"/><use xlink:href="#txOCss5lV-P7qqAvnXQ6_pad-26" x="2250" y="6920"/><use xlink:href="#txOCss5lV-P7qqAvnXQ6_pad-26" x="1750" y="6920"/><use xlink:href="#txOCss5lV-P7qqAvnXQ6_pad-26" x="1250" y="6920"/><use xlink:href="#txOCss5lV-P7qqAvnXQ6_pad-26" x="750" y="6920"/><use xlink:href="#txOCss5lV-P7qqAvnXQ6_pad-26" x="250" y="6920"/><use xlink:href="#txOCss5lV-P7qqAvnXQ6_pad-26" x="-250" y="6920"/><use xlink:href="#txOCss5lV-P7qqAvnXQ6_pad-26" x="-750" y="6920"/><use xlink:href="#txOCss5lV-P7qqAvnXQ6_pad-26" x="-1250" y="6920"/><use xlink:href="#txOCss5lV-P7qqAvnXQ6_pad-26" x="-1750" y="6920"/><use xlink:href="#txOCss5lV-P7qqAvnXQ6_pad-26" x="-2250" y="6920"/><use xlink:href="#txOCss5lV-P7qqAvnXQ6_pad-26" x="-2750" y="6920"/><use xlink:href="#txOCss5lV-P7qqAvnXQ6_pad-26" x="-3250" y="6920"/><use xlink:href="#txOCss5lV-P7qqAvnXQ6_pad-26" x="-3750" y="6920"/><use xlink:href="#txOCss5lV-P7qqAvnXQ6_pad-27" x="20730" y="30480"/><use xlink:href="#txOCss5lV-P7qqAvnXQ6_pad-27" x="14830" y="30480"/><use xlink:href="#txOCss5lV-P7qqAvnXQ6_pad-27" x="20730" y="31750"/><use xlink:href="#txOCss5lV-P7qqAvnXQ6_pad-27" x="14830" y="31750"/><use xlink:href="#txOCss5lV-P7qqAvnXQ6_pad-27" x="20730" y="33020"/><use xlink:href="#txOCss5lV-P7qqAvnXQ6_pad-27" x="14830" y="33020"/><use xlink:href="#txOCss5lV-P7qqAvnXQ6_pad-27" x="20730" y="34290"/><use xlink:href="#txOCss5lV-P7qqAvnXQ6_pad-27" x="14830" y="34290"/><use xlink:href="#txOCss5lV-P7qqAvnXQ6_pad-27" x="20730" y="35560"/><use xlink:href="#txOCss5lV-P7qqAvnXQ6_pad-27" x="14830" y="35560"/><use xlink:href="#txOCss5lV-P7qqAvnXQ6_pad-28" x="-9056" y="3748"/><use xlink:href="#txOCss5lV-P7qqAvnXQ6_pad-28" x="-10756" y="3748"/><use xlink:href="#txOCss5lV-P7qqAvnXQ6_pad-28" x="-10756" y="2348"/><use xlink:href="#txOCss5lV-P7qqAvnXQ6_pad-28" x="-9056" y="2348"/><use xlink:href="#txOCss5lV-P7qqAvnXQ6_pad-27" x="-8480" y="-31750"/><use xlink:href="#txOCss5lV-P7qqAvnXQ6_pad-27" x="-14380" y="-31750"/><use xlink:href="#txOCss5lV-P7qqAvnXQ6_pad-27" x="-8480" y="-30480"/><use xlink:href="#txOCss5lV-P7qqAvnXQ6_pad-27" x="-14380" y="-30480"/><use xlink:href="#txOCss5lV-P7qqAvnXQ6_pad-27" x="-8480" y="-29210"/><use xlink:href="#txOCss5lV-P7qqAvnXQ6_pad-27" x="-14380" y="-29210"/><use xlink:href="#txOCss5lV-P7qqAvnXQ6_pad-27" x="-8480" y="-27940"/><use xlink:href="#txOCss5lV-P7qqAvnXQ6_pad-27" x="-14380" y="-27940"/><use xlink:href="#txOCss5lV-P7qqAvnXQ6_pad-27" x="-8480" y="-26670"/><use xlink:href="#txOCss5lV-P7qqAvnXQ6_pad-27" x="-14380" y="-26670"/><use xlink:href="#txOCss5lV-P7qqAvnXQ6_pad-29" x="-18640" y="13430"/><use xlink:href="#txOCss5lV-P7qqAvnXQ6_pad-29" x="-11840" y="13430"/><use xlink:href="#txOCss5lV-P7qqAvnXQ6_pad-29" x="-11840" y="9430"/><use xlink:href="#txOCss5lV-P7qqAvnXQ6_pad-29" x="-18640" y="9430"/><use xlink:href="#txOCss5lV-P7qqAvnXQ6_pad-29" x="-18640" y="22320"/><use xlink:href="#txOCss5lV-P7qqAvnXQ6_pad-29" x="-11840" y="22320"/><use xlink:href="#txOCss5lV-P7qqAvnXQ6_pad-29" x="-11840" y="18320"/><use xlink:href="#txOCss5lV-P7qqAvnXQ6_pad-29" x="-18640" y="18320"/><use xlink:href="#txOCss5lV-P7qqAvnXQ6_pad-11" x="-8128" y="12280"/><use xlink:href="#txOCss5lV-P7qqAvnXQ6_pad-11" x="-8128" y="10580"/><use xlink:href="#txOCss5lV-P7qqAvnXQ6_pad-11" x="-5080" y="12280"/><use xlink:href="#txOCss5lV-P7qqAvnXQ6_pad-11" x="-5080" y="10580"/><use xlink:href="#txOCss5lV-P7qqAvnXQ6_pad-10" x="19900" y="20320"/><use xlink:href="#txOCss5lV-P7qqAvnXQ6_pad-10" x="18200" y="20320"/><use xlink:href="#txOCss5lV-P7qqAvnXQ6_pad-30" x="28090" y="0"/><use xlink:href="#txOCss5lV-P7qqAvnXQ6_pad-30" x="17630" y="0"/><use xlink:href="#txOCss5lV-P7qqAvnXQ6_pad-11" x="12700" y="-420"/><use xlink:href="#txOCss5lV-P7qqAvnXQ6_pad-11" x="12700" y="-2120"/></g></svg>