<svg version="1.1" xmlns="http://www.w3.org/2000/svg" xmlns:xlink="http://www.w3.org/1999/xlink" stroke-linecap="round" stroke-linejoin="round" stroke-width="0" fill-rule="evenodd" width="80.85430000000001mm" height="80.1927mm" viewBox="-39096.8 -40364.2 80854.3 80192.7" id="jn-ngIxQ5KmZ444J3a5y"><defs><rect x="-600.8" y="-550.8" width="1201.6" height="1101.6" id="jn-ngIxQ5KmZ444J3a5y_pad-10"/><rect x="-550.8" y="-600.8" width="1101.6" height="1201.6" id="jn-ngIxQ5KmZ444J3a5y_pad-11"/><rect x="-365.8" y="-465.8" width="731.6" height="931.6" id="jn-ngIxQ5KmZ444J3a5y_pad-13"/><circle cx="0" cy="0" r="1550.8" id="jn-ngIxQ5KmZ444J3a5y_pad-14"/><rect x="-475" y="-250" width="950" height="500" id="jn-ngIxQ5KmZ444J3a5y_pad-15"/><circle cx="0" cy="0" r="1828.8" id="jn-ngIxQ5KmZ444J3a5y_pad-20"/><rect x="-650.8" y="-850.8" width="1301.6" height="1701.6" id="jn-ngIxQ5KmZ444J3a5y_pad-21"/><rect x="-413.3" y="-311.8" width="826.6" height="623.6" id="jn-ngIxQ5KmZ444J3a5y_pad-23"/><circle cx="0" cy="0" r="375.8" id="jn-ngIxQ5KmZ444J3a5y_pad-24"/><rect x="-311.8" y="-413.3" width="623.6" height="826.6" id="jn-ngIxQ5KmZ444J3a5y_pad-25"/><rect x="-675.8" y="-350.8" width="1351.6" height="701.6" id="jn-ngIxQ5KmZ444J3a5y_pad-27"/><rect x="-1950.8" y="-650.8" width="3901.6" height="1301.6" id="jn-ngIxQ5KmZ444J3a5y_pad-28"/><rect x="-750.8" y="-775.8" width="1501.6" height="1551.6" id="jn-ngIxQ5KmZ444J3a5y_pad-29"/><rect x="-350.8" y="-550.8" width="701.6" height="1101.6" id="jn-ngIxQ5KmZ444J3a5y_pad-30"/><rect x="-475.8" y="-525.8" width="951.6" height="1051.6" id="jn-ngIxQ5KmZ444J3a5y_pad-31"/><rect x="-650.8" y="-190.8" width="1301.6" height="381.6" id="jn-ngIxQ5KmZ444J3a5y_pad-32"/><rect x="-190.8" y="-650.8" width="381.6" height="1301.6" id="jn-ngIxQ5KmZ444J3a5y_pad-33"/><rect x="-1250.8" y="-430.8" width="2501.6" height="861.6" id="jn-ngIxQ5KmZ444J3a5y_pad-34"/><rect x="-500.8" y="-425.8" width="1001.6" height="851.6" id="jn-ngIxQ5KmZ444J3a5y_pad-35"/><rect x="-1650.8" y="-650.8" width="3301.6" height="1301.6" id="jn-ngIxQ5KmZ444J3a5y_pad-36"/><rect x="-1957.2" y="-1550.8" width="3914.4" height="3101.6" id="jn-ngIxQ5KmZ444J3a5y_pad-37"/></defs><g transform="translate(0,-535.6999999999971) scale(1,-1)" fill="currentColor" stroke="currentColor"><use xlink:href="#jn-ngIxQ5KmZ444J3a5y_pad-10" x="14390" y="-17780"/><use xlink:href="#jn-ngIxQ5KmZ444J3a5y_pad-10" x="16090" y="-17780"/><use xlink:href="#jn-ngIxQ5KmZ444J3a5y_pad-11" x="26670" y="-14820"/><use xlink:href="#jn-ngIxQ5KmZ444J3a5y_pad-11" x="26670" y="-13120"/><use xlink:href="#jn-ngIxQ5KmZ444J3a5y_pad-11" x="24130" y="-14820"/><use xlink:href="#jn-ngIxQ5KmZ444J3a5y_pad-11" x="24130" y="-13120"/><use xlink:href="#jn-ngIxQ5KmZ444J3a5y_pad-10" x="19470" y="-16510"/><use xlink:href="#jn-ngIxQ5KmZ444J3a5y_pad-10" x="21170" y="-16510"/><use xlink:href="#jn-ngIxQ5KmZ444J3a5y_pad-10" x="19470" y="-19050"/><use xlink:href="#jn-ngIxQ5KmZ444J3a5y_pad-10" x="21170" y="-19050"/><use xlink:href="#jn-ngIxQ5KmZ444J3a5y_pad-11" x="-5080" y="-31330"/><use xlink:href="#jn-ngIxQ5KmZ444J3a5y_pad-11" x="-5080" y="-29630"/><use xlink:href="#jn-ngIxQ5KmZ444J3a5y_pad-10" x="-8040" y="-1270"/><use xlink:href="#jn-ngIxQ5KmZ444J3a5y_pad-10" x="-9740" y="-1270"/><use xlink:href="#jn-ngIxQ5KmZ444J3a5y_pad-11" x="8890" y="5500"/><use xlink:href="#jn-ngIxQ5KmZ444J3a5y_pad-11" x="8890" y="7200"/><use xlink:href="#jn-ngIxQ5KmZ444J3a5y_pad-11" x="36322" y="1358"/><use xlink:href="#jn-ngIxQ5KmZ444J3a5y_pad-11" x="36322" y="-342"/><use xlink:href="#jn-ngIxQ5KmZ444J3a5y_pad-10" x="-850" y="-30480"/><use xlink:href="#jn-ngIxQ5KmZ444J3a5y_pad-10" x="850" y="-30480"/><use xlink:href="#jn-ngIxQ5KmZ444J3a5y_pad-10" x="-850" y="-33020"/><use xlink:href="#jn-ngIxQ5KmZ444J3a5y_pad-10" x="850" y="-33020"/><use xlink:href="#jn-ngIxQ5KmZ444J3a5y_pad-11" x="33274" y="1358"/><use xlink:href="#jn-ngIxQ5KmZ444J3a5y_pad-11" x="33274" y="-342"/><use xlink:href="#jn-ngIxQ5KmZ444J3a5y_pad-10" x="-37426" y="-5334"/><use xlink:href="#jn-ngIxQ5KmZ444J3a5y_pad-10" x="-35726" y="-5334"/><use xlink:href="#jn-ngIxQ5KmZ444J3a5y_pad-10" x="-37426" y="-7874"/><use xlink:href="#jn-ngIxQ5KmZ444J3a5y_pad-10" x="-35726" y="-7874"/><use xlink:href="#jn-ngIxQ5KmZ444J3a5y_pad-10" x="-850" y="30480"/><use xlink:href="#jn-ngIxQ5KmZ444J3a5y_pad-10" x="850" y="30480"/><use xlink:href="#jn-ngIxQ5KmZ444J3a5y_pad-10" x="8040" y="25400"/><use xlink:href="#jn-ngIxQ5KmZ444J3a5y_pad-10" x="9740" y="25400"/><use xlink:href="#jn-ngIxQ5KmZ444J3a5y_pad-10" x="11850" y="15240"/><use xlink:href="#jn-ngIxQ5KmZ444J3a5y_pad-10" x="13550" y="15240"/><use xlink:href="#jn-ngIxQ5KmZ444J3a5y_pad-10" x="-18376" y="-15494"/><use xlink:href="#jn-ngIxQ5KmZ444J3a5y_pad-10" x="-16676" y="-15494"/><use xlink:href="#jn-ngIxQ5KmZ444J3a5y_pad-10" x="-13550" y="26670"/><use xlink:href="#jn-ngIxQ5KmZ444J3a5y_pad-10" x="-11850" y="26670"/><use xlink:href="#jn-ngIxQ5KmZ444J3a5y_pad-10" x="-14566" y="4826"/><use xlink:href="#jn-ngIxQ5KmZ444J3a5y_pad-10" x="-12866" y="4826"/><use xlink:href="#jn-ngIxQ5KmZ444J3a5y_pad-10" x="-14566" y="1270"/><use xlink:href="#jn-ngIxQ5KmZ444J3a5y_pad-10" x="-12866" y="1270"/><use xlink:href="#jn-ngIxQ5KmZ444J3a5y_pad-11" x="-21590" y="-2960"/><use xlink:href="#jn-ngIxQ5KmZ444J3a5y_pad-11" x="-21590" y="-4660"/><use xlink:href="#jn-ngIxQ5KmZ444J3a5y_pad-11" x="-24130" y="-2960"/><use xlink:href="#jn-ngIxQ5KmZ444J3a5y_pad-11" x="-24130" y="-4660"/><use xlink:href="#jn-ngIxQ5KmZ444J3a5y_pad-10" x="-850" y="33020"/><use xlink:href="#jn-ngIxQ5KmZ444J3a5y_pad-10" x="850" y="33020"/><use xlink:href="#jn-ngIxQ5KmZ444J3a5y_pad-11" x="22860" y="13550"/><use xlink:href="#jn-ngIxQ5KmZ444J3a5y_pad-11" x="22860" y="11850"/><path d="M -33765.5 14887.5 -33765.5 15592.5 -33060.5 15592.5 -33060.5 14887.5 -33765.5 14887.5 M -33765.5 15264.3 -33060.5 15264.3 M -35519.5 15592.5 -35519.5 14887.5 M -35519.5 15592.5 -34814.5 15592.5 -34814.5 14887.5 -35519.5 14887.5 M -35519.5 15264.3 -34814.5 15264.3 M -33765.5 11782.5 -33765.5 11077.5 M -33765.5 11782.5 -33060.5 11782.5 -33060.5 11077.5 -33765.5 11077.5 M -33765.5 11454.3 -33060.5 11454.3 M -35519.5 11782.5 -35519.5 11077.5 M -35519.5 11782.5 -34814.5 11782.5 -34814.5 11077.5 -35519.5 11077.5 M -35519.5 11454.3 -34814.5 11454.3" fill="none" stroke-width="396.575"/><use xlink:href="#jn-ngIxQ5KmZ444J3a5y_pad-13" x="26790" y="-17780"/><use xlink:href="#jn-ngIxQ5KmZ444J3a5y_pad-13" x="29090" y="-17780"/><use xlink:href="#jn-ngIxQ5KmZ444J3a5y_pad-13" x="26790" y="-20320"/><use xlink:href="#jn-ngIxQ5KmZ444J3a5y_pad-13" x="29090" y="-20320"/><path d="M -33765.5 7267.5 -33765.5 7972.5 -33060.5 7972.5 -33060.5 7267.5 -33765.5 7267.5 M -33765.5 7644.3 -33060.5 7644.3 M -35519.5 7972.5 -35519.5 7267.5 M -35519.5 7972.5 -34814.5 7972.5 -34814.5 7267.5 -35519.5 7267.5 M -35519.5 7644.3 -34814.5 7644.3" fill="none" stroke-width="396.575"/><use xlink:href="#jn-ngIxQ5KmZ444J3a5y_pad-14" x="-25400" y="27940"/><use xlink:href="#jn-ngIxQ5KmZ444J3a5y_pad-14" x="-25400" y="-27940"/><use xlink:href="#jn-ngIxQ5KmZ444J3a5y_pad-14" x="27940" y="-27940"/><use xlink:href="#jn-ngIxQ5KmZ444J3a5y_pad-14" x="27940" y="26670"/><use xlink:href="#jn-ngIxQ5KmZ444J3a5y_pad-15" x="21670" y="-13675"/><use xlink:href="#jn-ngIxQ5KmZ444J3a5y_pad-15" x="21670" y="-13025"/><use xlink:href="#jn-ngIxQ5KmZ444J3a5y_pad-15" x="21670" y="-12375"/><use xlink:href="#jn-ngIxQ5KmZ444J3a5y_pad-15" x="21670" y="-11725"/><use xlink:href="#jn-ngIxQ5KmZ444J3a5y_pad-15" x="18970" y="-11725"/><use xlink:href="#jn-ngIxQ5KmZ444J3a5y_pad-15" x="18970" y="-12375"/><use xlink:href="#jn-ngIxQ5KmZ444J3a5y_pad-15" x="18970" y="-13025"/><use xlink:href="#jn-ngIxQ5KmZ444J3a5y_pad-15" x="18970" y="-13675"/><use xlink:href="#jn-ngIxQ5KmZ444J3a5y_pad-15" x="18970" y="-11725"/><use xlink:href="#jn-ngIxQ5KmZ444J3a5y_pad-15" x="18970" y="-12375"/><use xlink:href="#jn-ngIxQ5KmZ444J3a5y_pad-15" x="18970" y="-13025"/><use xlink:href="#jn-ngIxQ5KmZ444J3a5y_pad-15" x="18970" y="-13675"/><path d="M 12448.6 -35199.1 12945 -36563.1 12473.6 -36734.7 11977.2 -35370.7 12448.6 -35199.1"/><path d="M 13059.4 -34976.8 13555.8 -36340.8 13084.4 -36512.4 12588 -35148.4 13059.4 -34976.8"/><path d="M 13670.2 -34754.5 14166.6 -36118.5 13695.2 -36290.1 13198.8 -34926.1 13670.2 -34754.5"/><path d="M 14281 -34532.1 14777.4 -35896.1 14306 -36067.7 13809.6 -34703.7 14281 -34532.1"/><path d="M 14891.8 -34309.8 15388.2 -35673.8 14916.8 -35845.4 14420.4 -34481.4 14891.8 -34309.8"/><path d="M 14727 -38974 12940.2 -39624.4 12289.8 -37837.6 14076.6 -37187.2 14727 -38974"/><path d="M 16888.3 -38187.3 15101.5 -38837.7 14451.1 -37050.9 16237.9 -36400.5 16888.3 -38187.3"/><path d="M 12433.2 -39542.8 10176.6 -40364.2 9697.2 -39047.2 11953.8 -38225.8 12433.2 -39542.8"/><path d="M 11839.6 -37327.2 10240.8 -37909.2 9658.8 -36310.4 11257.6 -35728.4 11839.6 -37327.2"/><path d="M 17853.7 -35138.2 16254.9 -35720.2 15672.9 -34121.4 17271.7 -33539.4 17853.7 -35138.2"/><path d="M 19480.9 -36977.7 17224.3 -37799.1 16744.9 -36482.1 19001.5 -35660.7 19480.9 -36977.7"/><use xlink:href="#jn-ngIxQ5KmZ444J3a5y_pad-20" x="35560" y="-18709.7"/><use xlink:href="#jn-ngIxQ5KmZ444J3a5y_pad-20" x="38100" y="-14310.3"/><use xlink:href="#jn-ngIxQ5KmZ444J3a5y_pad-21" x="16740" y="-12700"/><use xlink:href="#jn-ngIxQ5KmZ444J3a5y_pad-21" x="13740" y="-12700"/><path d="M -580.5 38916 -580.3 38932.3 -579.7 38948.5 -578.7 38964.7 -577.3 38980.9 -575.5 38997.1 -573.3 39013.2 -570.7 39029.3 -567.8 39045.2 -564.4 39061.2 -560.6 39077 -556.5 39092.7 -552 39108.3 -547.1 39123.8 -541.8 39139.2 -536.1 39154.4 -530.1 39169.5 -523.7 39184.5 -516.9 39199.3 -509.8 39213.9 -502.3 39228.3 -494.4 39242.5 -486.2 39256.6 -477.7 39270.4 -468.8 39284.1 -459.6 39297.5 -450.1 39310.7 -440.3 39323.6 -430.1 39336.3 -419.7 39348.7 -408.9 39360.9 -397.8 39372.8 -386.5 39384.5 -374.8 39395.8 -362.9 39406.9 -350.7 39417.7 -338.3 39428.1 -325.6 39438.3 -312.7 39448.1 -299.5 39457.6 -286.1 39466.8 -272.4 39475.7 -258.6 39484.2 -244.5 39492.4 -230.3 39500.3 -215.9 39507.8 -201.3 39514.9 -186.5 39521.7 -171.5 39528.1 -156.4 39534.1 -141.2 39539.8 -125.8 39545.1 -110.3 39550 -94.7 39554.5 -79 39558.6 -63.2 39562.4 -47.2 39565.8 -31.3 39568.7 -15.2 39571.3 0.9 39573.5 17.1 39575.3 33.3 39576.7 49.5 39577.7 65.7 39578.3 82 39578.5 98.3 39578.3 114.5 39577.7 130.7 39576.7 146.9 39575.3 163.1 39573.5 179.2 39571.3 195.3 39568.7 211.2 39565.8 227.2 39562.4 243 39558.6 258.7 39554.5 274.3 39550 289.8 39545.1 305.2 39539.8 320.4 39534.1 335.5 39528.1 350.5 39521.7 365.3 39514.9 379.9 39507.8 394.3 39500.3 408.5 39492.4 422.6 39484.2 436.4 39475.7 450.1 39466.8 463.5 39457.6 476.7 39448.1 489.6 39438.3 502.3 39428.1 514.7 39417.7 526.9 39406.9 538.8 39395.8 550.5 39384.5 561.8 39372.8 572.9 39360.9 583.7 39348.7 594.1 39336.3 604.3 39323.6 614.1 39310.7 623.6 39297.5 632.8 39284.1 641.7 39270.4 650.2 39256.6 658.4 39242.5 666.3 39228.3 673.8 39213.9 680.9 39199.3 687.7 39184.5 694.1 39169.5 700.1 39154.4 705.8 39139.2 711.1 39123.8 716 39108.3 720.5 39092.7 724.6 39077 728.4 39061.2 731.8 39045.2 734.7 39029.3 737.3 39013.2 739.5 38997.1 741.3 38980.9 742.7 38964.7 743.7 38948.5 744.3 38932.3 744.5 38916 744.3 38899.7 743.7 38883.5 742.7 38867.3 741.3 38851.1 739.5 38834.9 737.3 38818.8 734.7 38802.7 731.8 38786.8 728.4 38770.8 724.6 38755 720.5 38739.3 716 38723.7 711.1 38708.2 705.8 38692.8 700.1 38677.6 694.1 38662.5 687.7 38647.5 680.9 38632.7 673.8 38618.1 666.3 38603.7 658.4 38589.5 650.2 38575.4 641.7 38561.6 632.8 38547.9 623.6 38534.5 614.1 38521.3 604.3 38508.4 594.1 38495.7 583.7 38483.3 572.9 38471.1 561.8 38459.2 550.5 38447.5 538.8 38436.2 526.9 38425.1 514.7 38414.3 502.3 38403.9 489.6 38393.7 476.7 38383.9 463.5 38374.4 450.1 38365.2 436.4 38356.3 422.6 38347.8 408.5 38339.6 394.3 38331.7 379.9 38324.2 365.3 38317.1 350.5 38310.3 335.5 38303.9 320.4 38297.9 305.2 38292.2 289.8 38286.9 274.3 38282 258.7 38277.5 243 38273.4 227.2 38269.6 211.2 38266.2 195.3 38263.3 179.2 38260.7 163.1 38258.5 146.9 38256.7 130.7 38255.3 114.5 38254.3 98.3 38253.7 82 38253.5 65.7 38253.7 49.5 38254.3 33.3 38255.3 17.1 38256.7 0.9 38258.5 -15.2 38260.7 -31.3 38263.3 -47.2 38266.2 -63.2 38269.6 -79 38273.4 -94.7 38277.5 -110.3 38282 -125.8 38286.9 -141.2 38292.2 -156.4 38297.9 -171.5 38303.9 -186.5 38310.3 -201.3 38317.1 -215.9 38324.2 -230.3 38331.7 -244.5 38339.6 -258.6 38347.8 -272.4 38356.3 -286.1 38365.2 -299.5 38374.4 -312.7 38383.9 -325.6 38393.7 -338.3 38403.9 -350.7 38414.3 -362.9 38425.1 -374.8 38436.2 -386.5 38447.5 -397.8 38459.2 -408.9 38471.1 -419.7 38483.3 -430.1 38495.7 -440.3 38508.4 -450.1 38521.3 -459.6 38534.5 -468.8 38547.9 -477.7 38561.6 -486.2 38575.4 -494.4 38589.5 -502.3 38603.7 -509.8 38618.1 -516.9 38632.7 -523.7 38647.5 -530.1 38662.5 -536.1 38677.6 -541.8 38692.8 -547.1 38708.2 -552 38723.7 -556.5 38739.3 -560.6 38755 -564.4 38770.8 -567.8 38786.8 -570.7 38802.7 -573.3 38818.8 -575.5 38834.9 -577.3 38851.1 -578.7 38867.3 -579.7 38883.5 -580.3 38899.7 -580.5 38916" fill="none" stroke-width="500"/><use xlink:href="#jn-ngIxQ5KmZ444J3a5y_pad-23" x="919.5" y="36842"/><use xlink:href="#jn-ngIxQ5KmZ444J3a5y_pad-23" x="919.5" y="37664"/><use xlink:href="#jn-ngIxQ5KmZ444J3a5y_pad-23" x="-755.5" y="37664"/><use xlink:href="#jn-ngIxQ5KmZ444J3a5y_pad-23" x="-755.5" y="36842"/><use xlink:href="#jn-ngIxQ5KmZ444J3a5y_pad-24" x="82" y="38916"/><path d="M 40182.5 254 40182.7 270.3 40183.3 286.5 40184.3 302.7 40185.7 318.9 40187.5 335.1 40189.7 351.2 40192.3 367.3 40195.2 383.2 40198.6 399.2 40202.4 415 40206.5 430.7 40211 446.3 40215.9 461.8 40221.2 477.2 40226.9 492.4 40232.9 507.5 40239.3 522.5 40246.1 537.3 40253.2 551.9 40260.7 566.3 40268.6 580.5 40276.8 594.6 40285.3 608.4 40294.2 622.1 40303.4 635.5 40312.9 648.7 40322.7 661.6 40332.9 674.3 40343.3 686.7 40354.1 698.9 40365.2 710.8 40376.5 722.5 40388.2 733.8 40400.1 744.9 40412.3 755.7 40424.7 766.1 40437.4 776.3 40450.3 786.1 40463.5 795.6 40476.9 804.8 40490.6 813.7 40504.4 822.2 40518.5 830.4 40532.7 838.3 40547.1 845.8 40561.7 852.9 40576.5 859.7 40591.5 866.1 40606.6 872.1 40621.8 877.8 40637.2 883.1 40652.7 888 40668.3 892.5 40684 896.6 40699.8 900.4 40715.8 903.8 40731.7 906.7 40747.8 909.3 40763.9 911.5 40780.1 913.3 40796.3 914.7 40812.5 915.7 40828.7 916.3 40845 916.5 40861.3 916.3 40877.5 915.7 40893.7 914.7 40909.9 913.3 40926.1 911.5 40942.2 909.3 40958.3 906.7 40974.2 903.8 40990.2 900.4 41006 896.6 41021.7 892.5 41037.3 888 41052.8 883.1 41068.2 877.8 41083.4 872.1 41098.5 866.1 41113.5 859.7 41128.3 852.9 41142.9 845.8 41157.3 838.3 41171.5 830.4 41185.6 822.2 41199.4 813.7 41213.1 804.8 41226.5 795.6 41239.7 786.1 41252.6 776.3 41265.3 766.1 41277.7 755.7 41289.9 744.9 41301.8 733.8 41313.5 722.5 41324.8 710.8 41335.9 698.9 41346.7 686.7 41357.1 674.3 41367.3 661.6 41377.1 648.7 41386.6 635.5 41395.8 622.1 41404.7 608.4 41413.2 594.6 41421.4 580.5 41429.3 566.3 41436.8 551.9 41443.9 537.3 41450.7 522.5 41457.1 507.5 41463.1 492.4 41468.8 477.2 41474.1 461.8 41479 446.3 41483.5 430.7 41487.6 415 41491.4 399.2 41494.8 383.2 41497.7 367.3 41500.3 351.2 41502.5 335.1 41504.3 318.9 41505.7 302.7 41506.7 286.5 41507.3 270.3 41507.5 254 41507.3 237.7 41506.7 221.5 41505.7 205.3 41504.3 189.1 41502.5 172.9 41500.3 156.8 41497.7 140.7 41494.8 124.8 41491.4 108.8 41487.6 93 41483.5 77.3 41479 61.7 41474.1 46.2 41468.8 30.8 41463.1 15.6 41457.1 0.5 41450.7 -14.5 41443.9 -29.3 41436.8 -43.9 41429.3 -58.3 41421.4 -72.5 41413.2 -86.6 41404.7 -100.4 41395.8 -114.1 41386.6 -127.5 41377.1 -140.7 41367.3 -153.6 41357.1 -166.3 41346.7 -178.7 41335.9 -190.9 41324.8 -202.8 41313.5 -214.5 41301.8 -225.8 41289.9 -236.9 41277.7 -247.7 41265.3 -258.1 41252.6 -268.3 41239.7 -278.1 41226.5 -287.6 41213.1 -296.8 41199.4 -305.7 41185.6 -314.2 41171.5 -322.4 41157.3 -330.3 41142.9 -337.8 41128.3 -344.9 41113.5 -351.7 41098.5 -358.1 41083.4 -364.1 41068.2 -369.8 41052.8 -375.1 41037.3 -380 41021.7 -384.5 41006 -388.6 40990.2 -392.4 40974.2 -395.8 40958.3 -398.7 40942.2 -401.3 40926.1 -403.5 40909.9 -405.3 40893.7 -406.7 40877.5 -407.7 40861.3 -408.3 40845 -408.5 40828.7 -408.3 40812.5 -407.7 40796.3 -406.7 40780.1 -405.3 40763.9 -403.5 40747.8 -401.3 40731.7 -398.7 40715.8 -395.8 40699.8 -392.4 40684 -388.6 40668.3 -384.5 40652.7 -380 40637.2 -375.1 40621.8 -369.8 40606.6 -364.1 40591.5 -358.1 40576.5 -351.7 40561.7 -344.9 40547.1 -337.8 40532.7 -330.3 40518.5 -322.4 40504.4 -314.2 40490.6 -305.7 40476.9 -296.8 40463.5 -287.6 40450.3 -278.1 40437.4 -268.3 40424.7 -258.1 40412.3 -247.7 40400.1 -236.9 40388.2 -225.8 40376.5 -214.5 40365.2 -202.8 40354.1 -190.9 40343.3 -178.7 40332.9 -166.3 40322.7 -153.6 40312.9 -140.7 40303.4 -127.5 40294.2 -114.1 40285.3 -100.4 40276.8 -86.6 40268.6 -72.5 40260.7 -58.3 40253.2 -43.9 40246.1 -29.3 40239.3 -14.5 40232.9 0.5 40226.9 15.6 40221.2 30.8 40215.9 46.2 40211 61.7 40206.5 77.3 40202.4 93 40198.6 108.8 40195.2 124.8 40192.3 140.7 40189.7 156.8 40187.5 172.9 40185.7 189.1 40184.3 205.3 40183.3 221.5 40182.7 237.7 40182.5 254" fill="none" stroke-width="500"/><use xlink:href="#jn-ngIxQ5KmZ444J3a5y_pad-25" x="38771" y="-583.5"/><use xlink:href="#jn-ngIxQ5KmZ444J3a5y_pad-25" x="39593" y="-583.5"/><use xlink:href="#jn-ngIxQ5KmZ444J3a5y_pad-25" x="39593" y="1091.5"/><use xlink:href="#jn-ngIxQ5KmZ444J3a5y_pad-25" x="38771" y="1091.5"/><use xlink:href="#jn-ngIxQ5KmZ444J3a5y_pad-24" x="40845" y="254"/><path d="M -38508.5 -303 -38508.3 -286.7 -38507.7 -270.5 -38506.7 -254.3 -38505.3 -238.1 -38503.5 -221.9 -38501.3 -205.8 -38498.7 -189.7 -38495.8 -173.8 -38492.4 -157.8 -38488.6 -142 -38484.5 -126.3 -38480 -110.7 -38475.1 -95.2 -38469.8 -79.8 -38464.1 -64.6 -38458.1 -49.5 -38451.7 -34.5 -38444.9 -19.7 -38437.8 -5.1 -38430.3 9.3 -38422.4 23.5 -38414.2 37.6 -38405.7 51.4 -38396.8 65.1 -38387.6 78.5 -38378.1 91.7 -38368.3 104.6 -38358.1 117.3 -38347.7 129.7 -38336.9 141.9 -38325.8 153.8 -38314.5 165.5 -38302.8 176.8 -38290.9 187.9 -38278.7 198.7 -38266.3 209.1 -38253.6 219.3 -38240.7 229.1 -38227.5 238.6 -38214.1 247.8 -38200.4 256.7 -38186.6 265.2 -38172.5 273.4 -38158.3 281.3 -38143.9 288.8 -38129.3 295.9 -38114.5 302.7 -38099.5 309.1 -38084.4 315.1 -38069.2 320.8 -38053.8 326.1 -38038.3 331 -38022.7 335.5 -38007 339.6 -37991.2 343.4 -37975.2 346.8 -37959.3 349.7 -37943.2 352.3 -37927.1 354.5 -37910.9 356.3 -37894.7 357.7 -37878.5 358.7 -37862.3 359.3 -37846 359.5 -37829.7 359.3 -37813.5 358.7 -37797.3 357.7 -37781.1 356.3 -37764.9 354.5 -37748.8 352.3 -37732.7 349.7 -37716.8 346.8 -37700.8 343.4 -37685 339.6 -37669.3 335.5 -37653.7 331 -37638.2 326.1 -37622.8 320.8 -37607.6 315.1 -37592.5 309.1 -37577.5 302.7 -37562.7 295.9 -37548.1 288.8 -37533.7 281.3 -37519.5 273.4 -37505.4 265.2 -37491.6 256.7 -37477.9 247.8 -37464.5 238.6 -37451.3 229.1 -37438.4 219.3 -37425.7 209.1 -37413.3 198.7 -37401.1 187.9 -37389.2 176.8 -37377.5 165.5 -37366.2 153.8 -37355.1 141.9 -37344.3 129.7 -37333.9 117.3 -37323.7 104.6 -37313.9 91.7 -37304.4 78.5 -37295.2 65.1 -37286.3 51.4 -37277.8 37.6 -37269.6 23.5 -37261.7 9.3 -37254.2 -5.1 -37247.1 -19.7 -37240.3 -34.5 -37233.9 -49.5 -37227.9 -64.6 -37222.2 -79.8 -37216.9 -95.2 -37212 -110.7 -37207.5 -126.3 -37203.4 -142 -37199.6 -157.8 -37196.2 -173.8 -37193.3 -189.7 -37190.7 -205.8 -37188.5 -221.9 -37186.7 -238.1 -37185.3 -254.3 -37184.3 -270.5 -37183.7 -286.7 -37183.5 -303 -37183.7 -319.3 -37184.3 -335.5 -37185.3 -351.7 -37186.7 -367.9 -37188.5 -384.1 -37190.7 -400.2 -37193.3 -416.3 -37196.2 -432.2 -37199.6 -448.2 -37203.4 -464 -37207.5 -479.7 -37212 -495.3 -37216.9 -510.8 -37222.2 -526.2 -37227.9 -541.4 -37233.9 -556.5 -37240.3 -571.5 -37247.1 -586.3 -37254.2 -600.9 -37261.7 -615.3 -37269.6 -629.5 -37277.8 -643.6 -37286.3 -657.4 -37295.2 -671.1 -37304.4 -684.5 -37313.9 -697.7 -37323.7 -710.6 -37333.9 -723.3 -37344.3 -735.7 -37355.1 -747.9 -37366.2 -759.8 -37377.5 -771.5 -37389.2 -782.8 -37401.1 -793.9 -37413.3 -804.7 -37425.7 -815.1 -37438.4 -825.3 -37451.3 -835.1 -37464.5 -844.6 -37477.9 -853.8 -37491.6 -862.7 -37505.4 -871.2 -37519.5 -879.4 -37533.7 -887.3 -37548.1 -894.8 -37562.7 -901.9 -37577.5 -908.7 -37592.5 -915.1 -37607.6 -921.1 -37622.8 -926.8 -37638.2 -932.1 -37653.7 -937 -37669.3 -941.5 -37685 -945.6 -37700.8 -949.4 -37716.8 -952.8 -37732.7 -955.7 -37748.8 -958.3 -37764.9 -960.5 -37781.1 -962.3 -37797.3 -963.7 -37813.5 -964.7 -37829.7 -965.3 -37846 -965.5 -37862.3 -965.3 -37878.5 -964.7 -37894.7 -963.7 -37910.9 -962.3 -37927.1 -960.5 -37943.2 -958.3 -37959.3 -955.7 -37975.2 -952.8 -37991.2 -949.4 -38007 -945.6 -38022.7 -941.5 -38038.3 -937 -38053.8 -932.1 -38069.2 -926.8 -38084.4 -921.1 -38099.5 -915.1 -38114.5 -908.7 -38129.3 -901.9 -38143.9 -894.8 -38158.3 -887.3 -38172.5 -879.4 -38186.6 -871.2 -38200.4 -862.7 -38214.1 -853.8 -38227.5 -844.6 -38240.7 -835.1 -38253.6 -825.3 -38266.3 -815.1 -38278.7 -804.7 -38290.9 -793.9 -38302.8 -782.8 -38314.5 -771.5 -38325.8 -759.8 -38336.9 -747.9 -38347.7 -735.7 -38358.1 -723.3 -38368.3 -710.6 -38378.1 -697.7 -38387.6 -684.5 -38396.8 -671.1 -38405.7 -657.4 -38414.2 -643.6 -38422.4 -629.5 -38430.3 -615.3 -38437.8 -600.9 -38444.9 -586.3 -38451.7 -571.5 -38458.1 -556.5 -38464.1 -541.4 -38469.8 -526.2 -38475.1 -510.8 -38480 -495.3 -38484.5 -479.7 -38488.6 -464 -38492.4 -448.2 -38495.8 -432.2 -38498.7 -416.3 -38501.3 -400.2 -38503.5 -384.1 -38505.3 -367.9 -38506.7 -351.7 -38507.7 -335.5 -38508.3 -319.3 -38508.5 -303" fill="none" stroke-width="500"/><use xlink:href="#jn-ngIxQ5KmZ444J3a5y_pad-23" x="-37008.5" y="-2377"/><use xlink:href="#jn-ngIxQ5KmZ444J3a5y_pad-23" x="-37008.5" y="-1555"/><use xlink:href="#jn-ngIxQ5KmZ444J3a5y_pad-23" x="-38683.5" y="-1555"/><use xlink:href="#jn-ngIxQ5KmZ444J3a5y_pad-23" x="-38683.5" y="-2377"/><use xlink:href="#jn-ngIxQ5KmZ444J3a5y_pad-24" x="-37846" y="-303"/><path d="M -535.5 -37768 -535.3 -37751.7 -534.7 -37735.5 -533.7 -37719.3 -532.3 -37703.1 -530.5 -37686.9 -528.3 -37670.8 -525.7 -37654.7 -522.8 -37638.8 -519.4 -37622.8 -515.6 -37607 -511.5 -37591.3 -507 -37575.7 -502.1 -37560.2 -496.8 -37544.8 -491.1 -37529.6 -485.1 -37514.5 -478.7 -37499.5 -471.9 -37484.7 -464.8 -37470.1 -457.3 -37455.7 -449.4 -37441.5 -441.2 -37427.4 -432.7 -37413.6 -423.8 -37399.9 -414.6 -37386.5 -405.1 -37373.3 -395.3 -37360.4 -385.1 -37347.7 -374.7 -37335.3 -363.9 -37323.1 -352.8 -37311.2 -341.5 -37299.5 -329.8 -37288.2 -317.9 -37277.1 -305.7 -37266.3 -293.3 -37255.9 -280.6 -37245.7 -267.7 -37235.9 -254.5 -37226.4 -241.1 -37217.2 -227.4 -37208.3 -213.6 -37199.8 -199.5 -37191.6 -185.3 -37183.7 -170.9 -37176.2 -156.3 -37169.1 -141.5 -37162.3 -126.5 -37155.9 -111.4 -37149.9 -96.2 -37144.2 -80.8 -37138.9 -65.3 -37134 -49.7 -37129.5 -34 -37125.4 -18.2 -37121.6 -2.2 -37118.2 13.7 -37115.3 29.8 -37112.7 45.9 -37110.5 62.1 -37108.7 78.3 -37107.3 94.5 -37106.3 110.7 -37105.7 127 -37105.5 143.3 -37105.7 159.5 -37106.3 175.7 -37107.3 191.9 -37108.7 208.1 -37110.5 224.2 -37112.7 240.3 -37115.3 256.2 -37118.2 272.2 -37121.6 288 -37125.4 303.7 -37129.5 319.3 -37134 334.8 -37138.9 350.2 -37144.2 365.4 -37149.9 380.5 -37155.9 395.5 -37162.3 410.3 -37169.1 424.9 -37176.2 439.3 -37183.7 453.5 -37191.6 467.6 -37199.8 481.4 -37208.3 495.1 -37217.2 508.5 -37226.4 521.7 -37235.9 534.6 -37245.7 547.3 -37255.9 559.7 -37266.3 571.9 -37277.1 583.8 -37288.2 595.5 -37299.5 606.8 -37311.2 617.9 -37323.1 628.7 -37335.3 639.1 -37347.7 649.3 -37360.4 659.1 -37373.3 668.6 -37386.5 677.8 -37399.9 686.7 -37413.6 695.2 -37427.4 703.4 -37441.5 711.3 -37455.7 718.8 -37470.1 725.9 -37484.7 732.7 -37499.5 739.1 -37514.5 745.1 -37529.6 750.8 -37544.8 756.1 -37560.2 761 -37575.7 765.5 -37591.3 769.6 -37607 773.4 -37622.8 776.8 -37638.8 779.7 -37654.7 782.3 -37670.8 784.5 -37686.9 786.3 -37703.1 787.7 -37719.3 788.7 -37735.5 789.3 -37751.7 789.5 -37768 789.3 -37784.3 788.7 -37800.5 787.7 -37816.7 786.3 -37832.9 784.5 -37849.1 782.3 -37865.2 779.7 -37881.3 776.8 -37897.2 773.4 -37913.2 769.6 -37929 765.5 -37944.7 761 -37960.3 756.1 -37975.8 750.8 -37991.2 745.1 -38006.4 739.1 -38021.5 732.7 -38036.5 725.9 -38051.3 718.8 -38065.9 711.3 -38080.3 703.4 -38094.5 695.2 -38108.6 686.7 -38122.4 677.8 -38136.1 668.6 -38149.5 659.1 -38162.7 649.3 -38175.6 639.1 -38188.3 628.7 -38200.7 617.9 -38212.9 606.8 -38224.8 595.5 -38236.5 583.8 -38247.8 571.9 -38258.9 559.7 -38269.7 547.3 -38280.1 534.6 -38290.3 521.7 -38300.1 508.5 -38309.6 495.1 -38318.8 481.4 -38327.7 467.6 -38336.2 453.5 -38344.4 439.3 -38352.3 424.9 -38359.8 410.3 -38366.9 395.5 -38373.7 380.5 -38380.1 365.4 -38386.1 350.2 -38391.8 334.8 -38397.1 319.3 -38402 303.7 -38406.5 288 -38410.6 272.2 -38414.4 256.2 -38417.8 240.3 -38420.7 224.2 -38423.3 208.1 -38425.5 191.9 -38427.3 175.7 -38428.7 159.5 -38429.7 143.3 -38430.3 127 -38430.5 110.7 -38430.3 94.5 -38429.7 78.3 -38428.7 62.1 -38427.3 45.9 -38425.5 29.8 -38423.3 13.7 -38420.7 -2.2 -38417.8 -18.2 -38414.4 -34 -38410.6 -49.7 -38406.5 -65.3 -38402 -80.8 -38397.1 -96.2 -38391.8 -111.4 -38386.1 -126.5 -38380.1 -141.5 -38373.7 -156.3 -38366.9 -170.9 -38359.8 -185.3 -38352.3 -199.5 -38344.4 -213.6 -38336.2 -227.4 -38327.7 -241.1 -38318.8 -254.5 -38309.6 -267.7 -38300.1 -280.6 -38290.3 -293.3 -38280.1 -305.7 -38269.7 -317.9 -38258.9 -329.8 -38247.8 -341.5 -38236.5 -352.8 -38224.8 -363.9 -38212.9 -374.7 -38200.7 -385.1 -38188.3 -395.3 -38175.6 -405.1 -38162.7 -414.6 -38149.5 -423.8 -38136.1 -432.7 -38122.4 -441.2 -38108.6 -449.4 -38094.5 -457.3 -38080.3 -464.8 -38065.9 -471.9 -38051.3 -478.7 -38036.5 -485.1 -38021.5 -491.1 -38006.4 -496.8 -37991.2 -502.1 -37975.8 -507 -37960.3 -511.5 -37944.7 -515.6 -37929 -519.4 -37913.2 -522.8 -37897.2 -525.7 -37881.3 -528.3 -37865.2 -530.5 -37849.1 -532.3 -37832.9 -533.7 -37816.7 -534.7 -37800.5 -535.3 -37784.3 -535.5 -37768" fill="none" stroke-width="500"/><use xlink:href="#jn-ngIxQ5KmZ444J3a5y_pad-23" x="964.5" y="-39842"/><use xlink:href="#jn-ngIxQ5KmZ444J3a5y_pad-23" x="964.5" y="-39020"/><use xlink:href="#jn-ngIxQ5KmZ444J3a5y_pad-23" x="-710.5" y="-39020"/><use xlink:href="#jn-ngIxQ5KmZ444J3a5y_pad-23" x="-710.5" y="-39842"/><use xlink:href="#jn-ngIxQ5KmZ444J3a5y_pad-24" x="127" y="-37768"/><path d="M 7973.5 31447 7973.7 31463.3 7974.3 31479.5 7975.3 31495.7 7976.7 31511.9 7978.5 31528.1 7980.7 31544.2 7983.3 31560.3 7986.2 31576.2 7989.6 31592.2 7993.4 31608 7997.5 31623.7 8002 31639.3 8006.9 31654.8 8012.2 31670.2 8017.9 31685.4 8023.9 31700.5 8030.3 31715.5 8037.1 31730.3 8044.2 31744.9 8051.7 31759.3 8059.6 31773.5 8067.8 31787.6 8076.3 31801.4 8085.2 31815.1 8094.4 31828.5 8103.9 31841.7 8113.7 31854.6 8123.9 31867.3 8134.3 31879.7 8145.1 31891.9 8156.2 31903.8 8167.5 31915.5 8179.2 31926.8 8191.1 31937.9 8203.3 31948.7 8215.7 31959.1 8228.4 31969.3 8241.3 31979.1 8254.5 31988.6 8267.9 31997.8 8281.6 32006.7 8295.4 32015.2 8309.5 32023.4 8323.7 32031.3 8338.1 32038.8 8352.7 32045.9 8367.5 32052.7 8382.5 32059.1 8397.6 32065.1 8412.8 32070.8 8428.2 32076.1 8443.7 32081 8459.3 32085.5 8475 32089.6 8490.8 32093.4 8506.8 32096.8 8522.7 32099.7 8538.8 32102.3 8554.9 32104.5 8571.1 32106.3 8587.3 32107.7 8603.5 32108.7 8619.7 32109.3 8636 32109.5 8652.3 32109.3 8668.5 32108.7 8684.7 32107.7 8700.9 32106.3 8717.1 32104.5 8733.2 32102.3 8749.3 32099.7 8765.2 32096.8 8781.2 32093.4 8797 32089.6 8812.7 32085.5 8828.3 32081 8843.8 32076.1 8859.2 32070.8 8874.4 32065.1 8889.5 32059.1 8904.5 32052.7 8919.3 32045.9 8933.9 32038.8 8948.3 32031.3 8962.5 32023.4 8976.6 32015.2 8990.4 32006.7 9004.1 31997.8 9017.5 31988.6 9030.7 31979.1 9043.6 31969.3 9056.3 31959.1 9068.7 31948.7 9080.9 31937.9 9092.8 31926.8 9104.5 31915.5 9115.8 31903.8 9126.9 31891.9 9137.7 31879.7 9148.1 31867.3 9158.3 31854.6 9168.1 31841.7 9177.6 31828.5 9186.8 31815.1 9195.7 31801.4 9204.2 31787.6 9212.4 31773.5 9220.3 31759.3 9227.8 31744.9 9234.9 31730.3 9241.7 31715.5 9248.1 31700.5 9254.1 31685.4 9259.8 31670.2 9265.1 31654.8 9270 31639.3 9274.5 31623.7 9278.6 31608 9282.4 31592.2 9285.8 31576.2 9288.7 31560.3 9291.3 31544.2 9293.5 31528.1 9295.3 31511.9 9296.7 31495.7 9297.7 31479.5 9298.3 31463.3 9298.5 31447 9298.3 31430.7 9297.7 31414.5 9296.7 31398.3 9295.3 31382.1 9293.5 31365.9 9291.3 31349.8 9288.7 31333.7 9285.8 31317.8 9282.4 31301.8 9278.6 31286 9274.5 31270.3 9270 31254.7 9265.1 31239.2 9259.8 31223.8 9254.1 31208.6 9248.1 31193.5 9241.7 31178.5 9234.9 31163.7 9227.8 31149.1 9220.3 31134.7 9212.4 31120.5 9204.2 31106.4 9195.7 31092.6 9186.8 31078.9 9177.6 31065.5 9168.1 31052.3 9158.3 31039.4 9148.1 31026.7 9137.7 31014.3 9126.9 31002.1 9115.8 30990.2 9104.5 30978.5 9092.8 30967.2 9080.9 30956.1 9068.7 30945.3 9056.3 30934.9 9043.6 30924.7 9030.7 30914.9 9017.5 30905.4 9004.1 30896.2 8990.4 30887.3 8976.6 30878.8 8962.5 30870.6 8948.3 30862.7 8933.9 30855.2 8919.3 30848.1 8904.5 30841.3 8889.5 30834.9 8874.4 30828.9 8859.2 30823.2 8843.8 30817.9 8828.3 30813 8812.7 30808.5 8797 30804.4 8781.2 30800.6 8765.2 30797.2 8749.3 30794.3 8733.2 30791.7 8717.1 30789.5 8700.9 30787.7 8684.7 30786.3 8668.5 30785.3 8652.3 30784.7 8636 30784.5 8619.7 30784.7 8603.5 30785.3 8587.3 30786.3 8571.1 30787.7 8554.9 30789.5 8538.8 30791.7 8522.7 30794.3 8506.8 30797.2 8490.8 30800.6 8475 30804.4 8459.3 30808.5 8443.7 30813 8428.2 30817.9 8412.8 30823.2 8397.6 30828.9 8382.5 30834.9 8367.5 30841.3 8352.7 30848.1 8338.1 30855.2 8323.7 30862.7 8309.5 30870.6 8295.4 30878.8 8281.6 30887.3 8267.9 30896.2 8254.5 30905.4 8241.3 30914.9 8228.4 30924.7 8215.7 30934.9 8203.3 30945.3 8191.1 30956.1 8179.2 30967.2 8167.5 30978.5 8156.2 30990.2 8145.1 31002.1 8134.3 31014.3 8123.9 31026.7 8113.7 31039.4 8103.9 31052.3 8094.4 31065.5 8085.2 31078.9 8076.3 31092.6 8067.8 31106.4 8059.6 31120.5 8051.7 31134.7 8044.2 31149.1 8037.1 31163.7 8030.3 31178.5 8023.9 31193.5 8017.9 31208.6 8012.2 31223.8 8006.9 31239.2 8002 31254.7 7997.5 31270.3 7993.4 31286 7989.6 31301.8 7986.2 31317.8 7983.3 31333.7 7980.7 31349.8 7978.5 31365.9 7976.7 31382.1 7975.3 31398.3 7974.3 31414.5 7973.7 31430.7 7973.5 31447" fill="none" stroke-width="500"/><use xlink:href="#jn-ngIxQ5KmZ444J3a5y_pad-23" x="9473.5" y="29373"/><use xlink:href="#jn-ngIxQ5KmZ444J3a5y_pad-23" x="9473.5" y="30195"/><use xlink:href="#jn-ngIxQ5KmZ444J3a5y_pad-23" x="7798.5" y="30195"/><use xlink:href="#jn-ngIxQ5KmZ444J3a5y_pad-23" x="7798.5" y="29373"/><use xlink:href="#jn-ngIxQ5KmZ444J3a5y_pad-24" x="8636" y="31447"/><path d="M 12545.5 21541 12545.7 21557.3 12546.3 21573.5 12547.3 21589.7 12548.7 21605.9 12550.5 21622.1 12552.7 21638.2 12555.3 21654.3 12558.2 21670.2 12561.6 21686.2 12565.4 21702 12569.5 21717.7 12574 21733.3 12578.9 21748.8 12584.2 21764.2 12589.9 21779.4 12595.9 21794.5 12602.3 21809.5 12609.1 21824.3 12616.2 21838.9 12623.7 21853.3 12631.6 21867.5 12639.8 21881.6 12648.3 21895.4 12657.2 21909.1 12666.4 21922.5 12675.9 21935.7 12685.7 21948.6 12695.9 21961.3 12706.3 21973.7 12717.1 21985.9 12728.2 21997.8 12739.5 22009.5 12751.2 22020.8 12763.1 22031.9 12775.3 22042.7 12787.7 22053.1 12800.4 22063.3 12813.3 22073.1 12826.5 22082.6 12839.9 22091.8 12853.6 22100.7 12867.4 22109.2 12881.5 22117.4 12895.7 22125.3 12910.1 22132.8 12924.7 22139.9 12939.5 22146.7 12954.5 22153.1 12969.6 22159.1 12984.8 22164.8 13000.2 22170.1 13015.7 22175 13031.3 22179.5 13047 22183.6 13062.8 22187.4 13078.8 22190.8 13094.7 22193.7 13110.8 22196.3 13126.9 22198.5 13143.1 22200.3 13159.3 22201.7 13175.5 22202.7 13191.7 22203.3 13208 22203.5 13224.3 22203.3 13240.5 22202.7 13256.7 22201.7 13272.9 22200.3 13289.1 22198.5 13305.2 22196.3 13321.3 22193.7 13337.2 22190.8 13353.2 22187.4 13369 22183.6 13384.7 22179.5 13400.3 22175 13415.8 22170.1 13431.2 22164.8 13446.4 22159.1 13461.5 22153.1 13476.5 22146.7 13491.3 22139.9 13505.9 22132.8 13520.3 22125.3 13534.5 22117.4 13548.6 22109.2 13562.4 22100.7 13576.1 22091.8 13589.5 22082.6 13602.7 22073.1 13615.6 22063.3 13628.3 22053.1 13640.7 22042.7 13652.9 22031.9 13664.8 22020.8 13676.5 22009.5 13687.8 21997.8 13698.9 21985.9 13709.7 21973.7 13720.1 21961.3 13730.3 21948.6 13740.1 21935.7 13749.6 21922.5 13758.8 21909.1 13767.7 21895.4 13776.2 21881.6 13784.4 21867.5 13792.3 21853.3 13799.8 21838.9 13806.9 21824.3 13813.7 21809.5 13820.1 21794.5 13826.1 21779.4 13831.8 21764.2 13837.1 21748.8 13842 21733.3 13846.5 21717.7 13850.6 21702 13854.4 21686.2 13857.8 21670.2 13860.7 21654.3 13863.3 21638.2 13865.5 21622.1 13867.3 21605.9 13868.7 21589.7 13869.7 21573.5 13870.3 21557.3 13870.5 21541 13870.3 21524.7 13869.7 21508.5 13868.7 21492.3 13867.3 21476.1 13865.5 21459.9 13863.3 21443.8 13860.7 21427.7 13857.8 21411.8 13854.4 21395.8 13850.6 21380 13846.5 21364.3 13842 21348.7 13837.1 21333.2 13831.8 21317.8 13826.1 21302.6 13820.1 21287.5 13813.7 21272.5 13806.9 21257.7 13799.8 21243.1 13792.3 21228.7 13784.4 21214.5 13776.2 21200.4 13767.7 21186.6 13758.8 21172.9 13749.6 21159.5 13740.1 21146.3 13730.3 21133.4 13720.1 21120.7 13709.7 21108.3 13698.9 21096.1 13687.8 21084.2 13676.5 21072.5 13664.8 21061.2 13652.9 21050.1 13640.7 21039.3 13628.3 21028.9 13615.6 21018.7 13602.7 21008.9 13589.5 20999.4 13576.1 20990.2 13562.4 20981.3 13548.6 20972.8 13534.5 20964.6 13520.3 20956.7 13505.9 20949.2 13491.3 20942.1 13476.5 20935.3 13461.5 20928.9 13446.4 20922.9 13431.2 20917.2 13415.8 20911.9 13400.3 20907 13384.7 20902.5 13369 20898.4 13353.2 20894.6 13337.2 20891.2 13321.3 20888.3 13305.2 20885.7 13289.1 20883.5 13272.9 20881.7 13256.7 20880.3 13240.5 20879.3 13224.3 20878.7 13208 20878.5 13191.7 20878.7 13175.5 20879.3 13159.3 20880.3 13143.1 20881.7 13126.9 20883.5 13110.8 20885.7 13094.7 20888.3 13078.8 20891.2 13062.8 20894.6 13047 20898.4 13031.3 20902.5 13015.7 20907 13000.2 20911.9 12984.8 20917.2 12969.6 20922.9 12954.5 20928.9 12939.5 20935.3 12924.7 20942.1 12910.1 20949.2 12895.7 20956.7 12881.5 20964.6 12867.4 20972.8 12853.6 20981.3 12839.9 20990.2 12826.5 20999.4 12813.3 21008.9 12800.4 21018.7 12787.7 21028.9 12775.3 21039.3 12763.1 21050.1 12751.2 21061.2 12739.5 21072.5 12728.2 21084.2 12717.1 21096.1 12706.3 21108.3 12695.9 21120.7 12685.7 21133.4 12675.9 21146.3 12666.4 21159.5 12657.2 21172.9 12648.3 21186.6 12639.8 21200.4 12631.6 21214.5 12623.7 21228.7 12616.2 21243.1 12609.1 21257.7 12602.3 21272.5 12595.9 21287.5 12589.9 21302.6 12584.2 21317.8 12578.9 21333.2 12574 21348.7 12569.5 21364.3 12565.4 21380 12561.6 21395.8 12558.2 21411.8 12555.3 21427.7 12552.7 21443.8 12550.5 21459.9 12548.7 21476.1 12547.3 21492.3 12546.3 21508.5 12545.7 21524.7 12545.5 21541" fill="none" stroke-width="500"/><use xlink:href="#jn-ngIxQ5KmZ444J3a5y_pad-23" x="14045.5" y="19467"/><use xlink:href="#jn-ngIxQ5KmZ444J3a5y_pad-23" x="14045.5" y="20289"/><use xlink:href="#jn-ngIxQ5KmZ444J3a5y_pad-23" x="12370.5" y="20289"/><use xlink:href="#jn-ngIxQ5KmZ444J3a5y_pad-23" x="12370.5" y="19467"/><use xlink:href="#jn-ngIxQ5KmZ444J3a5y_pad-24" x="13208" y="21541"/><path d="M -18188.5 -10717 -18188.3 -10700.7 -18187.7 -10684.5 -18186.7 -10668.3 -18185.3 -10652.1 -18183.5 -10635.9 -18181.3 -10619.8 -18178.7 -10603.7 -18175.8 -10587.8 -18172.4 -10571.8 -18168.6 -10556 -18164.5 -10540.3 -18160 -10524.7 -18155.1 -10509.2 -18149.8 -10493.8 -18144.1 -10478.6 -18138.1 -10463.5 -18131.7 -10448.5 -18124.9 -10433.7 -18117.8 -10419.1 -18110.3 -10404.7 -18102.4 -10390.5 -18094.2 -10376.4 -18085.7 -10362.6 -18076.8 -10348.9 -18067.6 -10335.5 -18058.1 -10322.3 -18048.3 -10309.4 -18038.1 -10296.7 -18027.7 -10284.3 -18016.9 -10272.1 -18005.8 -10260.2 -17994.5 -10248.5 -17982.8 -10237.2 -17970.9 -10226.1 -17958.7 -10215.3 -17946.3 -10204.9 -17933.6 -10194.7 -17920.7 -10184.9 -17907.5 -10175.4 -17894.1 -10166.2 -17880.4 -10157.3 -17866.6 -10148.8 -17852.5 -10140.6 -17838.3 -10132.7 -17823.9 -10125.2 -17809.3 -10118.1 -17794.5 -10111.3 -17779.5 -10104.9 -17764.4 -10098.9 -17749.2 -10093.2 -17733.8 -10087.9 -17718.3 -10083 -17702.7 -10078.5 -17687 -10074.4 -17671.2 -10070.6 -17655.2 -10067.2 -17639.3 -10064.3 -17623.2 -10061.7 -17607.1 -10059.5 -17590.9 -10057.7 -17574.7 -10056.3 -17558.5 -10055.3 -17542.3 -10054.7 -17526 -10054.5 -17509.7 -10054.7 -17493.5 -10055.3 -17477.3 -10056.3 -17461.1 -10057.7 -17444.9 -10059.5 -17428.8 -10061.7 -17412.7 -10064.3 -17396.8 -10067.2 -17380.8 -10070.6 -17365 -10074.4 -17349.3 -10078.5 -17333.7 -10083 -17318.2 -10087.9 -17302.8 -10093.2 -17287.6 -10098.9 -17272.5 -10104.9 -17257.5 -10111.3 -17242.7 -10118.1 -17228.1 -10125.2 -17213.7 -10132.7 -17199.5 -10140.6 -17185.4 -10148.8 -17171.6 -10157.3 -17157.9 -10166.2 -17144.5 -10175.4 -17131.3 -10184.9 -17118.4 -10194.7 -17105.7 -10204.9 -17093.3 -10215.3 -17081.1 -10226.1 -17069.2 -10237.2 -17057.5 -10248.5 -17046.2 -10260.2 -17035.1 -10272.1 -17024.3 -10284.3 -17013.9 -10296.7 -17003.7 -10309.4 -16993.9 -10322.3 -16984.4 -10335.5 -16975.2 -10348.9 -16966.3 -10362.6 -16957.8 -10376.4 -16949.6 -10390.5 -16941.7 -10404.7 -16934.2 -10419.1 -16927.1 -10433.7 -16920.3 -10448.5 -16913.9 -10463.5 -16907.9 -10478.6 -16902.2 -10493.8 -16896.9 -10509.2 -16892 -10524.7 -16887.5 -10540.3 -16883.4 -10556 -16879.6 -10571.8 -16876.2 -10587.8 -16873.3 -10603.7 -16870.7 -10619.8 -16868.5 -10635.9 -16866.7 -10652.1 -16865.3 -10668.3 -16864.3 -10684.5 -16863.7 -10700.7 -16863.5 -10717 -16863.7 -10733.3 -16864.3 -10749.5 -16865.3 -10765.7 -16866.7 -10781.9 -16868.5 -10798.1 -16870.7 -10814.2 -16873.3 -10830.3 -16876.2 -10846.2 -16879.6 -10862.2 -16883.4 -10878 -16887.5 -10893.7 -16892 -10909.3 -16896.9 -10924.8 -16902.2 -10940.2 -16907.9 -10955.4 -16913.9 -10970.5 -16920.3 -10985.5 -16927.1 -11000.3 -16934.2 -11014.9 -16941.7 -11029.3 -16949.6 -11043.5 -16957.8 -11057.6 -16966.3 -11071.4 -16975.2 -11085.1 -16984.4 -11098.5 -16993.9 -11111.7 -17003.7 -11124.6 -17013.9 -11137.3 -17024.3 -11149.7 -17035.1 -11161.9 -17046.2 -11173.8 -17057.5 -11185.5 -17069.2 -11196.8 -17081.1 -11207.9 -17093.3 -11218.7 -17105.7 -11229.1 -17118.4 -11239.3 -17131.3 -11249.1 -17144.5 -11258.6 -17157.9 -11267.8 -17171.6 -11276.7 -17185.4 -11285.2 -17199.5 -11293.4 -17213.7 -11301.3 -17228.1 -11308.8 -17242.7 -11315.9 -17257.5 -11322.7 -17272.5 -11329.1 -17287.6 -11335.1 -17302.8 -11340.8 -17318.2 -11346.1 -17333.7 -11351 -17349.3 -11355.5 -17365 -11359.6 -17380.8 -11363.4 -17396.8 -11366.8 -17412.7 -11369.7 -17428.8 -11372.3 -17444.9 -11374.5 -17461.1 -11376.3 -17477.3 -11377.7 -17493.5 -11378.7 -17509.7 -11379.3 -17526 -11379.5 -17542.3 -11379.3 -17558.5 -11378.7 -17574.7 -11377.7 -17590.9 -11376.3 -17607.1 -11374.5 -17623.2 -11372.3 -17639.3 -11369.7 -17655.2 -11366.8 -17671.2 -11363.4 -17687 -11359.6 -17702.7 -11355.5 -17718.3 -11351 -17733.8 -11346.1 -17749.2 -11340.8 -17764.4 -11335.1 -17779.5 -11329.1 -17794.5 -11322.7 -17809.3 -11315.9 -17823.9 -11308.8 -17838.3 -11301.3 -17852.5 -11293.4 -17866.6 -11285.2 -17880.4 -11276.7 -17894.1 -11267.8 -17907.5 -11258.6 -17920.7 -11249.1 -17933.6 -11239.3 -17946.3 -11229.1 -17958.7 -11218.7 -17970.9 -11207.9 -17982.8 -11196.8 -17994.5 -11185.5 -18005.8 -11173.8 -18016.9 -11161.9 -18027.7 -11149.7 -18038.1 -11137.3 -18048.3 -11124.6 -18058.1 -11111.7 -18067.6 -11098.5 -18076.8 -11085.1 -18085.7 -11071.4 -18094.2 -11057.6 -18102.4 -11043.5 -18110.3 -11029.3 -18117.8 -11014.9 -18124.9 -11000.3 -18131.7 -10985.5 -18138.1 -10970.5 -18144.1 -10955.4 -18149.8 -10940.2 -18155.1 -10924.8 -18160 -10909.3 -18164.5 -10893.7 -18168.6 -10878 -18172.4 -10862.2 -18175.8 -10846.2 -18178.7 -10830.3 -18181.3 -10814.2 -18183.5 -10798.1 -18185.3 -10781.9 -18186.7 -10765.7 -18187.7 -10749.5 -18188.3 -10733.3 -18188.5 -10717" fill="none" stroke-width="500"/><use xlink:href="#jn-ngIxQ5KmZ444J3a5y_pad-23" x="-16688.5" y="-12791"/><use xlink:href="#jn-ngIxQ5KmZ444J3a5y_pad-23" x="-16688.5" y="-11969"/><use xlink:href="#jn-ngIxQ5KmZ444J3a5y_pad-23" x="-18363.5" y="-11969"/><use xlink:href="#jn-ngIxQ5KmZ444J3a5y_pad-23" x="-18363.5" y="-12791"/><use xlink:href="#jn-ngIxQ5KmZ444J3a5y_pad-24" x="-17526" y="-10717"/><path d="M -13108.5 32209 -13108.3 32225.3 -13107.7 32241.5 -13106.7 32257.7 -13105.3 32273.9 -13103.5 32290.1 -13101.3 32306.2 -13098.7 32322.3 -13095.8 32338.2 -13092.4 32354.2 -13088.6 32370 -13084.5 32385.7 -13080 32401.3 -13075.1 32416.8 -13069.8 32432.2 -13064.1 32447.4 -13058.1 32462.5 -13051.7 32477.5 -13044.9 32492.3 -13037.8 32506.9 -13030.3 32521.3 -13022.4 32535.5 -13014.2 32549.6 -13005.7 32563.4 -12996.8 32577.1 -12987.6 32590.5 -12978.1 32603.7 -12968.3 32616.6 -12958.1 32629.3 -12947.7 32641.7 -12936.9 32653.9 -12925.8 32665.8 -12914.5 32677.5 -12902.8 32688.8 -12890.9 32699.9 -12878.7 32710.7 -12866.3 32721.1 -12853.6 32731.3 -12840.7 32741.1 -12827.5 32750.6 -12814.1 32759.8 -12800.4 32768.7 -12786.6 32777.2 -12772.5 32785.4 -12758.3 32793.3 -12743.9 32800.8 -12729.3 32807.9 -12714.5 32814.7 -12699.5 32821.1 -12684.4 32827.1 -12669.2 32832.8 -12653.8 32838.1 -12638.3 32843 -12622.7 32847.5 -12607 32851.6 -12591.2 32855.4 -12575.2 32858.8 -12559.3 32861.7 -12543.2 32864.3 -12527.1 32866.5 -12510.9 32868.3 -12494.7 32869.7 -12478.5 32870.7 -12462.3 32871.3 -12446 32871.5 -12429.7 32871.3 -12413.5 32870.7 -12397.3 32869.7 -12381.1 32868.3 -12364.9 32866.5 -12348.8 32864.3 -12332.7 32861.7 -12316.8 32858.8 -12300.8 32855.4 -12285 32851.6 -12269.3 32847.5 -12253.7 32843 -12238.2 32838.1 -12222.8 32832.8 -12207.6 32827.1 -12192.5 32821.1 -12177.5 32814.7 -12162.7 32807.9 -12148.1 32800.8 -12133.7 32793.3 -12119.5 32785.4 -12105.4 32777.2 -12091.6 32768.7 -12077.9 32759.8 -12064.5 32750.6 -12051.3 32741.1 -12038.4 32731.3 -12025.7 32721.1 -12013.3 32710.7 -12001.1 32699.9 -11989.2 32688.8 -11977.5 32677.5 -11966.2 32665.8 -11955.1 32653.9 -11944.3 32641.7 -11933.9 32629.3 -11923.7 32616.6 -11913.9 32603.7 -11904.4 32590.5 -11895.2 32577.1 -11886.3 32563.4 -11877.8 32549.6 -11869.6 32535.5 -11861.7 32521.3 -11854.2 32506.9 -11847.1 32492.3 -11840.3 32477.5 -11833.9 32462.5 -11827.9 32447.4 -11822.2 32432.2 -11816.9 32416.8 -11812 32401.3 -11807.5 32385.7 -11803.4 32370 -11799.6 32354.2 -11796.2 32338.2 -11793.3 32322.3 -11790.7 32306.2 -11788.5 32290.1 -11786.7 32273.9 -11785.3 32257.7 -11784.3 32241.5 -11783.7 32225.3 -11783.5 32209 -11783.7 32192.7 -11784.3 32176.5 -11785.3 32160.3 -11786.7 32144.1 -11788.5 32127.9 -11790.7 32111.8 -11793.3 32095.7 -11796.2 32079.8 -11799.6 32063.8 -11803.4 32048 -11807.5 32032.3 -11812 32016.7 -11816.9 32001.2 -11822.2 31985.8 -11827.9 31970.6 -11833.9 31955.5 -11840.3 31940.5 -11847.1 31925.7 -11854.2 31911.1 -11861.7 31896.7 -11869.6 31882.5 -11877.8 31868.4 -11886.3 31854.6 -11895.2 31840.9 -11904.4 31827.5 -11913.9 31814.3 -11923.7 31801.4 -11933.9 31788.7 -11944.3 31776.3 -11955.1 31764.1 -11966.2 31752.2 -11977.5 31740.5 -11989.2 31729.2 -12001.1 31718.1 -12013.3 31707.3 -12025.7 31696.9 -12038.4 31686.7 -12051.3 31676.9 -12064.5 31667.4 -12077.9 31658.2 -12091.6 31649.3 -12105.4 31640.8 -12119.5 31632.6 -12133.7 31624.7 -12148.1 31617.2 -12162.7 31610.1 -12177.5 31603.3 -12192.5 31596.9 -12207.6 31590.9 -12222.8 31585.2 -12238.2 31579.9 -12253.7 31575 -12269.3 31570.5 -12285 31566.4 -12300.8 31562.6 -12316.8 31559.2 -12332.7 31556.3 -12348.8 31553.7 -12364.9 31551.5 -12381.1 31549.7 -12397.3 31548.3 -12413.5 31547.3 -12429.7 31546.7 -12446 31546.5 -12462.3 31546.7 -12478.5 31547.3 -12494.7 31548.3 -12510.9 31549.7 -12527.1 31551.5 -12543.2 31553.7 -12559.3 31556.3 -12575.2 31559.2 -12591.2 31562.6 -12607 31566.4 -12622.7 31570.5 -12638.3 31575 -12653.8 31579.9 -12669.2 31585.2 -12684.4 31590.9 -12699.5 31596.9 -12714.5 31603.3 -12729.3 31610.1 -12743.9 31617.2 -12758.3 31624.7 -12772.5 31632.6 -12786.6 31640.8 -12800.4 31649.3 -12814.1 31658.2 -12827.5 31667.4 -12840.7 31676.9 -12853.6 31686.7 -12866.3 31696.9 -12878.7 31707.3 -12890.9 31718.1 -12902.8 31729.2 -12914.5 31740.5 -12925.8 31752.2 -12936.9 31764.1 -12947.7 31776.3 -12958.1 31788.7 -12968.3 31801.4 -12978.1 31814.3 -12987.6 31827.5 -12996.8 31840.9 -13005.7 31854.6 -13014.2 31868.4 -13022.4 31882.5 -13030.3 31896.7 -13037.8 31911.1 -13044.9 31925.7 -13051.7 31940.5 -13058.1 31955.5 -13064.1 31970.6 -13069.8 31985.8 -13075.1 32001.2 -13080 32016.7 -13084.5 32032.3 -13088.6 32048 -13092.4 32063.8 -13095.8 32079.8 -13098.7 32095.7 -13101.3 32111.8 -13103.5 32127.9 -13105.3 32144.1 -13106.7 32160.3 -13107.7 32176.5 -13108.3 32192.7 -13108.5 32209" fill="none" stroke-width="500"/><use xlink:href="#jn-ngIxQ5KmZ444J3a5y_pad-23" x="-11608.5" y="30135"/><use xlink:href="#jn-ngIxQ5KmZ444J3a5y_pad-23" x="-11608.5" y="30957"/><use xlink:href="#jn-ngIxQ5KmZ444J3a5y_pad-23" x="-13283.5" y="30957"/><use xlink:href="#jn-ngIxQ5KmZ444J3a5y_pad-23" x="-13283.5" y="30135"/><use xlink:href="#jn-ngIxQ5KmZ444J3a5y_pad-24" x="-12446" y="32209"/><use xlink:href="#jn-ngIxQ5KmZ444J3a5y_pad-10" x="19900" y="7620"/><use xlink:href="#jn-ngIxQ5KmZ444J3a5y_pad-10" x="18200" y="7620"/><use xlink:href="#jn-ngIxQ5KmZ444J3a5y_pad-10" x="12929" y="-30901"/><use xlink:href="#jn-ngIxQ5KmZ444J3a5y_pad-10" x="11229" y="-30901"/><use xlink:href="#jn-ngIxQ5KmZ444J3a5y_pad-11" x="-8890" y="19470"/><use xlink:href="#jn-ngIxQ5KmZ444J3a5y_pad-11" x="-8890" y="21170"/><use xlink:href="#jn-ngIxQ5KmZ444J3a5y_pad-10" x="16090" y="-15240"/><use xlink:href="#jn-ngIxQ5KmZ444J3a5y_pad-10" x="14390" y="-15240"/><use xlink:href="#jn-ngIxQ5KmZ444J3a5y_pad-10" x="16090" y="-10160"/><use xlink:href="#jn-ngIxQ5KmZ444J3a5y_pad-10" x="14390" y="-10160"/><use xlink:href="#jn-ngIxQ5KmZ444J3a5y_pad-10" x="23280" y="-17780"/><use xlink:href="#jn-ngIxQ5KmZ444J3a5y_pad-10" x="24980" y="-17780"/><use xlink:href="#jn-ngIxQ5KmZ444J3a5y_pad-10" x="24980" y="-20320"/><use xlink:href="#jn-ngIxQ5KmZ444J3a5y_pad-10" x="23280" y="-20320"/><use xlink:href="#jn-ngIxQ5KmZ444J3a5y_pad-10" x="19900" y="10160"/><use xlink:href="#jn-ngIxQ5KmZ444J3a5y_pad-10" x="18200" y="10160"/><use xlink:href="#jn-ngIxQ5KmZ444J3a5y_pad-10" x="-29630" y="15240"/><use xlink:href="#jn-ngIxQ5KmZ444J3a5y_pad-10" x="-31330" y="15240"/><use xlink:href="#jn-ngIxQ5KmZ444J3a5y_pad-10" x="-29630" y="7620"/><use xlink:href="#jn-ngIxQ5KmZ444J3a5y_pad-10" x="-31330" y="7620"/><use xlink:href="#jn-ngIxQ5KmZ444J3a5y_pad-10" x="-29630" y="11430"/><use xlink:href="#jn-ngIxQ5KmZ444J3a5y_pad-10" x="-31330" y="11430"/><use xlink:href="#jn-ngIxQ5KmZ444J3a5y_pad-10" x="19900" y="12700"/><use xlink:href="#jn-ngIxQ5KmZ444J3a5y_pad-10" x="18200" y="12700"/><use xlink:href="#jn-ngIxQ5KmZ444J3a5y_pad-10" x="19900" y="15240"/><use xlink:href="#jn-ngIxQ5KmZ444J3a5y_pad-10" x="18200" y="15240"/><use xlink:href="#jn-ngIxQ5KmZ444J3a5y_pad-10" x="19900" y="17780"/><use xlink:href="#jn-ngIxQ5KmZ444J3a5y_pad-10" x="18200" y="17780"/><use xlink:href="#jn-ngIxQ5KmZ444J3a5y_pad-10" x="14997" y="-30940"/><use xlink:href="#jn-ngIxQ5KmZ444J3a5y_pad-10" x="16697" y="-30940"/><path d="M -27178 -12700 -28702 -12700 M -28702 -10160 -27178 -10160 M -27178 -7620 -28702 -7620 M -28702 -5080 -27178 -5080 M -27178 -2540 -28702 -2540 M -28702 0 -27178 0" fill="none" stroke-width="1625.6"/><use xlink:href="#jn-ngIxQ5KmZ444J3a5y_pad-27" x="26035" y="16590"/><use xlink:href="#jn-ngIxQ5KmZ444J3a5y_pad-27" x="26035" y="15490"/><use xlink:href="#jn-ngIxQ5KmZ444J3a5y_pad-27" x="26035" y="14390"/><use xlink:href="#jn-ngIxQ5KmZ444J3a5y_pad-27" x="26035" y="13290"/><use xlink:href="#jn-ngIxQ5KmZ444J3a5y_pad-27" x="26035" y="12190"/><use xlink:href="#jn-ngIxQ5KmZ444J3a5y_pad-27" x="26035" y="11090"/><use xlink:href="#jn-ngIxQ5KmZ444J3a5y_pad-27" x="26035" y="9990"/><use xlink:href="#jn-ngIxQ5KmZ444J3a5y_pad-27" x="26035" y="8890"/><use xlink:href="#jn-ngIxQ5KmZ444J3a5y_pad-28" x="28535" y="7740"/><use xlink:href="#jn-ngIxQ5KmZ444J3a5y_pad-29" x="27735" y="18240"/><use xlink:href="#jn-ngIxQ5KmZ444J3a5y_pad-30" x="28985" y="18440"/><use xlink:href="#jn-ngIxQ5KmZ444J3a5y_pad-31" x="29985" y="17490"/><use xlink:href="#jn-ngIxQ5KmZ444J3a5y_pad-32" x="-5650" y="5020"/><use xlink:href="#jn-ngIxQ5KmZ444J3a5y_pad-32" x="-5650" y="4520"/><use xlink:href="#jn-ngIxQ5KmZ444J3a5y_pad-32" x="-5650" y="4020"/><use xlink:href="#jn-ngIxQ5KmZ444J3a5y_pad-32" x="-5650" y="3520"/><use xlink:href="#jn-ngIxQ5KmZ444J3a5y_pad-32" x="-5650" y="3020"/><use xlink:href="#jn-ngIxQ5KmZ444J3a5y_pad-32" x="-5650" y="2520"/><use xlink:href="#jn-ngIxQ5KmZ444J3a5y_pad-32" x="-5650" y="2020"/><use xlink:href="#jn-ngIxQ5KmZ444J3a5y_pad-32" x="-5650" y="1520"/><use xlink:href="#jn-ngIxQ5KmZ444J3a5y_pad-32" x="-5650" y="1020"/><use xlink:href="#jn-ngIxQ5KmZ444J3a5y_pad-32" x="-5650" y="520"/><use xlink:href="#jn-ngIxQ5KmZ444J3a5y_pad-32" x="-5650" y="20"/><use xlink:href="#jn-ngIxQ5KmZ444J3a5y_pad-32" x="-5650" y="-480"/><use xlink:href="#jn-ngIxQ5KmZ444J3a5y_pad-32" x="-5650" y="-980"/><use xlink:href="#jn-ngIxQ5KmZ444J3a5y_pad-32" x="-5650" y="-1480"/><use xlink:href="#jn-ngIxQ5KmZ444J3a5y_pad-32" x="-5650" y="-1980"/><use xlink:href="#jn-ngIxQ5KmZ444J3a5y_pad-32" x="-5650" y="-2480"/><use xlink:href="#jn-ngIxQ5KmZ444J3a5y_pad-33" x="-3750" y="-4380"/><use xlink:href="#jn-ngIxQ5KmZ444J3a5y_pad-33" x="-3250" y="-4380"/><use xlink:href="#jn-ngIxQ5KmZ444J3a5y_pad-33" x="-2750" y="-4380"/><use xlink:href="#jn-ngIxQ5KmZ444J3a5y_pad-33" x="-2250" y="-4380"/><use xlink:href="#jn-ngIxQ5KmZ444J3a5y_pad-33" x="-1750" y="-4380"/><use xlink:href="#jn-ngIxQ5KmZ444J3a5y_pad-33" x="-1250" y="-4380"/><use xlink:href="#jn-ngIxQ5KmZ444J3a5y_pad-33" x="-750" y="-4380"/><use xlink:href="#jn-ngIxQ5KmZ444J3a5y_pad-33" x="-250" y="-4380"/><use xlink:href="#jn-ngIxQ5KmZ444J3a5y_pad-33" x="250" y="-4380"/><use xlink:href="#jn-ngIxQ5KmZ444J3a5y_pad-33" x="750" y="-4380"/><use xlink:href="#jn-ngIxQ5KmZ444J3a5y_pad-33" x="1250" y="-4380"/><use xlink:href="#jn-ngIxQ5KmZ444J3a5y_pad-33" x="1750" y="-4380"/><use xlink:href="#jn-ngIxQ5KmZ444J3a5y_pad-33" x="2250" y="-4380"/><use xlink:href="#jn-ngIxQ5KmZ444J3a5y_pad-33" x="2750" y="-4380"/><use xlink:href="#jn-ngIxQ5KmZ444J3a5y_pad-33" x="3250" y="-4380"/><use xlink:href="#jn-ngIxQ5KmZ444J3a5y_pad-33" x="3750" y="-4380"/><use xlink:href="#jn-ngIxQ5KmZ444J3a5y_pad-32" x="5650" y="-2480"/><use xlink:href="#jn-ngIxQ5KmZ444J3a5y_pad-32" x="5650" y="-1980"/><use xlink:href="#jn-ngIxQ5KmZ444J3a5y_pad-32" x="5650" y="-1480"/><use xlink:href="#jn-ngIxQ5KmZ444J3a5y_pad-32" x="5650" y="-980"/><use xlink:href="#jn-ngIxQ5KmZ444J3a5y_pad-32" x="5650" y="-480"/><use xlink:href="#jn-ngIxQ5KmZ444J3a5y_pad-32" x="5650" y="20"/><use xlink:href="#jn-ngIxQ5KmZ444J3a5y_pad-32" x="5650" y="520"/><use xlink:href="#jn-ngIxQ5KmZ444J3a5y_pad-32" x="5650" y="1020"/><use xlink:href="#jn-ngIxQ5KmZ444J3a5y_pad-32" x="5650" y="1520"/><use xlink:href="#jn-ngIxQ5KmZ444J3a5y_pad-32" x="5650" y="2020"/><use xlink:href="#jn-ngIxQ5KmZ444J3a5y_pad-32" x="5650" y="2520"/><use xlink:href="#jn-ngIxQ5KmZ444J3a5y_pad-32" x="5650" y="3020"/><use xlink:href="#jn-ngIxQ5KmZ444J3a5y_pad-32" x="5650" y="3520"/><use xlink:href="#jn-ngIxQ5KmZ444J3a5y_pad-32" x="5650" y="4020"/><use xlink:href="#jn-ngIxQ5KmZ444J3a5y_pad-32" x="5650" y="4520"/><use xlink:href="#jn-ngIxQ5KmZ444J3a5y_pad-32" x="5650" y="5020"/><use xlink:href="#jn-ngIxQ5KmZ444J3a5y_pad-33" x="3750" y="6920"/><use xlink:href="#jn-ngIxQ5KmZ444J3a5y_pad-33" x="3250" y="6920"/><use xlink:href="#jn-ngIxQ5KmZ444J3a5y_pad-33" x="2750" y="6920"/><use xlink:href="#jn-ngIxQ5KmZ444J3a5y_pad-33" x="2250" y="6920"/><use xlink:href="#jn-ngIxQ5KmZ444J3a5y_pad-33" x="1750" y="6920"/><use xlink:href="#jn-ngIxQ5KmZ444J3a5y_pad-33" x="1250" y="6920"/><use xlink:href="#jn-ngIxQ5KmZ444J3a5y_pad-33" x="750" y="6920"/><use xlink:href="#jn-ngIxQ5KmZ444J3a5y_pad-33" x="250" y="6920"/><use xlink:href="#jn-ngIxQ5KmZ444J3a5y_pad-33" x="-250" y="6920"/><use xlink:href="#jn-ngIxQ5KmZ444J3a5y_pad-33" x="-750" y="6920"/><use xlink:href="#jn-ngIxQ5KmZ444J3a5y_pad-33" x="-1250" y="6920"/><use xlink:href="#jn-ngIxQ5KmZ444J3a5y_pad-33" x="-1750" y="6920"/><use xlink:href="#jn-ngIxQ5KmZ444J3a5y_pad-33" x="-2250" y="6920"/><use xlink:href="#jn-ngIxQ5KmZ444J3a5y_pad-33" x="-2750" y="6920"/><use xlink:href="#jn-ngIxQ5KmZ444J3a5y_pad-33" x="-3250" y="6920"/><use xlink:href="#jn-ngIxQ5KmZ444J3a5y_pad-33" x="-3750" y="6920"/><use xlink:href="#jn-ngIxQ5KmZ444J3a5y_pad-34" x="20730" y="30480"/><use xlink:href="#jn-ngIxQ5KmZ444J3a5y_pad-34" x="14830" y="30480"/><use xlink:href="#jn-ngIxQ5KmZ444J3a5y_pad-34" x="20730" y="31750"/><use xlink:href="#jn-ngIxQ5KmZ444J3a5y_pad-34" x="14830" y="31750"/><use xlink:href="#jn-ngIxQ5KmZ444J3a5y_pad-34" x="20730" y="33020"/><use xlink:href="#jn-ngIxQ5KmZ444J3a5y_pad-34" x="14830" y="33020"/><use xlink:href="#jn-ngIxQ5KmZ444J3a5y_pad-34" x="20730" y="34290"/><use xlink:href="#jn-ngIxQ5KmZ444J3a5y_pad-34" x="14830" y="34290"/><use xlink:href="#jn-ngIxQ5KmZ444J3a5y_pad-34" x="20730" y="35560"/><use xlink:href="#jn-ngIxQ5KmZ444J3a5y_pad-34" x="14830" y="35560"/><use xlink:href="#jn-ngIxQ5KmZ444J3a5y_pad-35" x="-9056" y="3748"/><use xlink:href="#jn-ngIxQ5KmZ444J3a5y_pad-35" x="-10756" y="3748"/><use xlink:href="#jn-ngIxQ5KmZ444J3a5y_pad-35" x="-10756" y="2348"/><use xlink:href="#jn-ngIxQ5KmZ444J3a5y_pad-35" x="-9056" y="2348"/><use xlink:href="#jn-ngIxQ5KmZ444J3a5y_pad-34" x="-8480" y="-31750"/><use xlink:href="#jn-ngIxQ5KmZ444J3a5y_pad-34" x="-14380" y="-31750"/><use xlink:href="#jn-ngIxQ5KmZ444J3a5y_pad-34" x="-8480" y="-30480"/><use xlink:href="#jn-ngIxQ5KmZ444J3a5y_pad-34" x="-14380" y="-30480"/><use xlink:href="#jn-ngIxQ5KmZ444J3a5y_pad-34" x="-8480" y="-29210"/><use xlink:href="#jn-ngIxQ5KmZ444J3a5y_pad-34" x="-14380" y="-29210"/><use xlink:href="#jn-ngIxQ5KmZ444J3a5y_pad-34" x="-8480" y="-27940"/><use xlink:href="#jn-ngIxQ5KmZ444J3a5y_pad-34" x="-14380" y="-27940"/><use xlink:href="#jn-ngIxQ5KmZ444J3a5y_pad-34" x="-8480" y="-26670"/><use xlink:href="#jn-ngIxQ5KmZ444J3a5y_pad-34" x="-14380" y="-26670"/><use xlink:href="#jn-ngIxQ5KmZ444J3a5y_pad-36" x="-18640" y="13430"/><use xlink:href="#jn-ngIxQ5KmZ444J3a5y_pad-36" x="-11840" y="13430"/><use xlink:href="#jn-ngIxQ5KmZ444J3a5y_pad-36" x="-11840" y="9430"/><use xlink:href="#jn-ngIxQ5KmZ444J3a5y_pad-36" x="-18640" y="9430"/><use xlink:href="#jn-ngIxQ5KmZ444J3a5y_pad-36" x="-18640" y="22320"/><use xlink:href="#jn-ngIxQ5KmZ444J3a5y_pad-36" x="-11840" y="22320"/><use xlink:href="#jn-ngIxQ5KmZ444J3a5y_pad-36" x="-11840" y="18320"/><use xlink:href="#jn-ngIxQ5KmZ444J3a5y_pad-36" x="-18640" y="18320"/><use xlink:href="#jn-ngIxQ5KmZ444J3a5y_pad-11" x="-8128" y="12280"/><use xlink:href="#jn-ngIxQ5KmZ444J3a5y_pad-11" x="-8128" y="10580"/><use xlink:href="#jn-ngIxQ5KmZ444J3a5y_pad-11" x="-5080" y="12280"/><use xlink:href="#jn-ngIxQ5KmZ444J3a5y_pad-11" x="-5080" y="10580"/><use xlink:href="#jn-ngIxQ5KmZ444J3a5y_pad-10" x="19900" y="20320"/><use xlink:href="#jn-ngIxQ5KmZ444J3a5y_pad-10" x="18200" y="20320"/><use xlink:href="#jn-ngIxQ5KmZ444J3a5y_pad-37" x="28090" y="0"/><use xlink:href="#jn-ngIxQ5KmZ444J3a5y_pad-37" x="17630" y="0"/><use xlink:href="#jn-ngIxQ5KmZ444J3a5y_pad-11" x="12700" y="-420"/><use xlink:href="#jn-ngIxQ5KmZ444J3a5y_pad-11" x="12700" y="-2120"/></g></svg>