G04 EAGLE Gerber RS-274X export*
G75*
%MOMM*%
%FSLAX34Y34*%
%LPD*%
%INBottom Copper*%
%IPPOS*%
%AMOC8*
5,1,8,0,0,1.08239X$1,22.5*%
G01*
%ADD10C,3.556000*%
%ADD11C,1.524000*%
%ADD12C,0.800100*%
%ADD13C,0.203200*%

G36*
X32969Y-426741D02*
X32969Y-426741D01*
X33149Y-426735D01*
X73381Y-422893D01*
X73441Y-422882D01*
X73620Y-422859D01*
X113305Y-415210D01*
X113364Y-415193D01*
X113539Y-415153D01*
X152317Y-403767D01*
X152374Y-403744D01*
X152398Y-403737D01*
X152406Y-403735D01*
X152409Y-403733D01*
X152546Y-403688D01*
X190066Y-388667D01*
X190120Y-388640D01*
X190285Y-388567D01*
X226208Y-370048D01*
X226259Y-370015D01*
X226417Y-369927D01*
X260416Y-348077D01*
X260464Y-348039D01*
X260613Y-347937D01*
X286082Y-327908D01*
X286122Y-327869D01*
X286168Y-327837D01*
X286286Y-327715D01*
X286410Y-327599D01*
X286443Y-327554D01*
X286482Y-327514D01*
X286577Y-327374D01*
X286678Y-327237D01*
X286703Y-327187D01*
X286734Y-327141D01*
X286803Y-326986D01*
X286878Y-326834D01*
X286894Y-326781D01*
X286916Y-326729D01*
X286956Y-326565D01*
X287004Y-326402D01*
X287010Y-326346D01*
X287023Y-326292D01*
X287033Y-326123D01*
X287051Y-325954D01*
X287047Y-325898D01*
X287050Y-325843D01*
X287031Y-325674D01*
X287019Y-325505D01*
X287005Y-325451D01*
X286998Y-325395D01*
X286949Y-325233D01*
X286907Y-325069D01*
X286884Y-325018D01*
X286868Y-324964D01*
X286791Y-324813D01*
X286721Y-324659D01*
X286689Y-324613D01*
X286664Y-324563D01*
X286561Y-324428D01*
X286465Y-324288D01*
X286425Y-324249D01*
X286392Y-324204D01*
X286267Y-324089D01*
X286147Y-323969D01*
X286102Y-323937D01*
X286061Y-323899D01*
X285917Y-323808D01*
X285778Y-323711D01*
X285728Y-323687D01*
X285681Y-323657D01*
X285524Y-323593D01*
X285370Y-323522D01*
X285316Y-323508D01*
X285264Y-323486D01*
X285098Y-323451D01*
X284934Y-323408D01*
X284879Y-323403D01*
X284824Y-323392D01*
X284512Y-323372D01*
X273078Y-323372D01*
X260945Y-319810D01*
X250308Y-312974D01*
X242028Y-303418D01*
X236775Y-291916D01*
X234975Y-279400D01*
X236775Y-266884D01*
X242028Y-255382D01*
X250308Y-245826D01*
X260945Y-238990D01*
X273078Y-235428D01*
X285722Y-235428D01*
X297855Y-238990D01*
X308492Y-245826D01*
X316772Y-255382D01*
X322025Y-266884D01*
X323825Y-279400D01*
X322779Y-286669D01*
X322770Y-286846D01*
X322754Y-287021D01*
X322758Y-287070D01*
X322755Y-287119D01*
X322777Y-287294D01*
X322792Y-287470D01*
X322805Y-287517D01*
X322811Y-287566D01*
X322863Y-287735D01*
X322909Y-287905D01*
X322930Y-287949D01*
X322944Y-287996D01*
X323025Y-288152D01*
X323101Y-288312D01*
X323129Y-288352D01*
X323152Y-288395D01*
X323259Y-288535D01*
X323361Y-288679D01*
X323396Y-288713D01*
X323426Y-288752D01*
X323557Y-288871D01*
X323683Y-288994D01*
X323723Y-289022D01*
X323760Y-289055D01*
X323909Y-289148D01*
X324055Y-289248D01*
X324100Y-289268D01*
X324141Y-289294D01*
X324305Y-289359D01*
X324466Y-289431D01*
X324514Y-289443D01*
X324559Y-289462D01*
X324732Y-289497D01*
X324903Y-289540D01*
X324952Y-289543D01*
X325000Y-289553D01*
X325176Y-289558D01*
X325352Y-289569D01*
X325401Y-289564D01*
X325450Y-289565D01*
X325624Y-289539D01*
X325800Y-289519D01*
X325847Y-289505D01*
X325895Y-289497D01*
X326062Y-289441D01*
X326231Y-289390D01*
X326275Y-289368D01*
X326321Y-289352D01*
X326476Y-289267D01*
X326633Y-289187D01*
X326672Y-289158D01*
X326715Y-289134D01*
X326852Y-289023D01*
X326993Y-288917D01*
X327036Y-288873D01*
X327064Y-288850D01*
X327106Y-288802D01*
X327212Y-288693D01*
X348446Y-264188D01*
X348482Y-264138D01*
X348596Y-263998D01*
X372039Y-231077D01*
X372070Y-231024D01*
X372169Y-230873D01*
X392377Y-195873D01*
X392403Y-195817D01*
X392488Y-195658D01*
X409277Y-158895D01*
X409297Y-158838D01*
X409366Y-158671D01*
X422585Y-120479D01*
X422600Y-120419D01*
X422653Y-120247D01*
X432181Y-80971D01*
X432190Y-80910D01*
X432227Y-80734D01*
X437978Y-40731D01*
X437982Y-40670D01*
X438001Y-40490D01*
X439924Y-121D01*
X439922Y-60D01*
X439924Y121D01*
X438001Y40490D01*
X437993Y40551D01*
X437978Y40731D01*
X432227Y80734D01*
X432213Y80794D01*
X432181Y80971D01*
X422653Y120247D01*
X422633Y120305D01*
X422585Y120479D01*
X409366Y158671D01*
X409341Y158727D01*
X409277Y158895D01*
X392488Y195658D01*
X392457Y195711D01*
X392377Y195873D01*
X372169Y230873D01*
X372134Y230924D01*
X372039Y231077D01*
X348596Y263998D01*
X348556Y264044D01*
X348446Y264188D01*
X321980Y294731D01*
X321936Y294773D01*
X321813Y294906D01*
X292564Y322796D01*
X292516Y322834D01*
X292381Y322954D01*
X260613Y347937D01*
X260561Y347970D01*
X260416Y348077D01*
X226417Y369927D01*
X226363Y369955D01*
X226208Y370048D01*
X190285Y388567D01*
X190229Y388590D01*
X190066Y388667D01*
X152546Y403688D01*
X152487Y403705D01*
X152317Y403767D01*
X113539Y415153D01*
X113479Y415165D01*
X113305Y415210D01*
X73620Y422859D01*
X73559Y422865D01*
X73381Y422893D01*
X33149Y426735D01*
X33088Y426735D01*
X32907Y426746D01*
X-7507Y426746D01*
X-7569Y426741D01*
X-7749Y426735D01*
X-47981Y422893D01*
X-48041Y422882D01*
X-48220Y422859D01*
X-87905Y415210D01*
X-87964Y415193D01*
X-88139Y415153D01*
X-126917Y403767D01*
X-126974Y403744D01*
X-127146Y403688D01*
X-164666Y388667D01*
X-164720Y388640D01*
X-164885Y388567D01*
X-200808Y370048D01*
X-200859Y370015D01*
X-201017Y369927D01*
X-235016Y348077D01*
X-235064Y348039D01*
X-235213Y347937D01*
X-260682Y327908D01*
X-260722Y327869D01*
X-260768Y327837D01*
X-260886Y327715D01*
X-261010Y327599D01*
X-261043Y327554D01*
X-261082Y327514D01*
X-261177Y327374D01*
X-261278Y327237D01*
X-261303Y327187D01*
X-261334Y327141D01*
X-261403Y326986D01*
X-261478Y326834D01*
X-261494Y326781D01*
X-261516Y326729D01*
X-261556Y326565D01*
X-261604Y326402D01*
X-261610Y326346D01*
X-261623Y326292D01*
X-261633Y326123D01*
X-261651Y325954D01*
X-261647Y325898D01*
X-261650Y325843D01*
X-261631Y325674D01*
X-261619Y325505D01*
X-261605Y325451D01*
X-261598Y325395D01*
X-261549Y325233D01*
X-261507Y325069D01*
X-261484Y325018D01*
X-261468Y324964D01*
X-261391Y324813D01*
X-261321Y324659D01*
X-261289Y324613D01*
X-261264Y324563D01*
X-261161Y324428D01*
X-261065Y324288D01*
X-261025Y324249D01*
X-260992Y324204D01*
X-260867Y324089D01*
X-260747Y323969D01*
X-260702Y323937D01*
X-260661Y323899D01*
X-260517Y323808D01*
X-260378Y323711D01*
X-260328Y323687D01*
X-260281Y323657D01*
X-260124Y323593D01*
X-259970Y323522D01*
X-259916Y323508D01*
X-259864Y323486D01*
X-259698Y323451D01*
X-259534Y323408D01*
X-259479Y323403D01*
X-259424Y323392D01*
X-259112Y323372D01*
X-247678Y323372D01*
X-235545Y319810D01*
X-224908Y312974D01*
X-216628Y303418D01*
X-211375Y291916D01*
X-209575Y279400D01*
X-211375Y266884D01*
X-216628Y255382D01*
X-224908Y245826D01*
X-235545Y238990D01*
X-247678Y235428D01*
X-260322Y235428D01*
X-272455Y238990D01*
X-283092Y245826D01*
X-291372Y255382D01*
X-296625Y266884D01*
X-298425Y279400D01*
X-297379Y286669D01*
X-297370Y286846D01*
X-297354Y287021D01*
X-297358Y287070D01*
X-297355Y287119D01*
X-297377Y287294D01*
X-297392Y287470D01*
X-297405Y287517D01*
X-297411Y287566D01*
X-297463Y287735D01*
X-297509Y287905D01*
X-297530Y287949D01*
X-297544Y287996D01*
X-297625Y288152D01*
X-297701Y288312D01*
X-297729Y288352D01*
X-297752Y288395D01*
X-297859Y288535D01*
X-297961Y288679D01*
X-297996Y288713D01*
X-298026Y288752D01*
X-298157Y288871D01*
X-298283Y288994D01*
X-298323Y289022D01*
X-298360Y289055D01*
X-298509Y289148D01*
X-298655Y289248D01*
X-298700Y289268D01*
X-298741Y289294D01*
X-298905Y289359D01*
X-299066Y289431D01*
X-299114Y289443D01*
X-299159Y289462D01*
X-299332Y289497D01*
X-299503Y289540D01*
X-299552Y289543D01*
X-299600Y289553D01*
X-299776Y289558D01*
X-299952Y289569D01*
X-300001Y289564D01*
X-300050Y289565D01*
X-300224Y289539D01*
X-300400Y289519D01*
X-300447Y289505D01*
X-300495Y289497D01*
X-300662Y289441D01*
X-300831Y289390D01*
X-300875Y289368D01*
X-300921Y289352D01*
X-301076Y289267D01*
X-301233Y289187D01*
X-301272Y289158D01*
X-301315Y289134D01*
X-301452Y289023D01*
X-301593Y288917D01*
X-301636Y288873D01*
X-301664Y288850D01*
X-301706Y288802D01*
X-301812Y288693D01*
X-323046Y264188D01*
X-323082Y264138D01*
X-323196Y263998D01*
X-346639Y231077D01*
X-346670Y231024D01*
X-346769Y230873D01*
X-366977Y195873D01*
X-367003Y195817D01*
X-367088Y195658D01*
X-383877Y158895D01*
X-383897Y158838D01*
X-383966Y158671D01*
X-397185Y120479D01*
X-397200Y120419D01*
X-397253Y120247D01*
X-406781Y80971D01*
X-406790Y80910D01*
X-406827Y80734D01*
X-412578Y40731D01*
X-412582Y40669D01*
X-412601Y40490D01*
X-414524Y121D01*
X-414522Y60D01*
X-414524Y-121D01*
X-412601Y-40490D01*
X-412593Y-40551D01*
X-412578Y-40731D01*
X-406827Y-80734D01*
X-406813Y-80794D01*
X-406781Y-80971D01*
X-397253Y-120247D01*
X-397233Y-120305D01*
X-397185Y-120479D01*
X-383966Y-158671D01*
X-383941Y-158727D01*
X-383877Y-158895D01*
X-367088Y-195658D01*
X-367057Y-195711D01*
X-366977Y-195873D01*
X-346769Y-230873D01*
X-346734Y-230924D01*
X-346639Y-231077D01*
X-323196Y-263998D01*
X-323156Y-264044D01*
X-323046Y-264188D01*
X-301812Y-288693D01*
X-301685Y-288816D01*
X-301563Y-288943D01*
X-301523Y-288972D01*
X-301488Y-289006D01*
X-301342Y-289104D01*
X-301199Y-289208D01*
X-301155Y-289230D01*
X-301114Y-289257D01*
X-300953Y-289328D01*
X-300794Y-289405D01*
X-300746Y-289418D01*
X-300702Y-289438D01*
X-300530Y-289479D01*
X-300360Y-289526D01*
X-300311Y-289531D01*
X-300264Y-289543D01*
X-300088Y-289553D01*
X-299912Y-289570D01*
X-299863Y-289566D01*
X-299814Y-289569D01*
X-299639Y-289548D01*
X-299463Y-289533D01*
X-299416Y-289521D01*
X-299367Y-289515D01*
X-299198Y-289463D01*
X-299028Y-289418D01*
X-298984Y-289397D01*
X-298937Y-289383D01*
X-298779Y-289302D01*
X-298620Y-289228D01*
X-298580Y-289200D01*
X-298536Y-289177D01*
X-298396Y-289070D01*
X-298252Y-288968D01*
X-298217Y-288933D01*
X-298178Y-288904D01*
X-298059Y-288774D01*
X-297935Y-288648D01*
X-297908Y-288608D01*
X-297875Y-288571D01*
X-297780Y-288422D01*
X-297680Y-288277D01*
X-297660Y-288232D01*
X-297634Y-288191D01*
X-297568Y-288027D01*
X-297495Y-287867D01*
X-297483Y-287819D01*
X-297465Y-287774D01*
X-297428Y-287601D01*
X-297385Y-287430D01*
X-297382Y-287381D01*
X-297372Y-287333D01*
X-297366Y-287157D01*
X-297354Y-286981D01*
X-297359Y-286920D01*
X-297358Y-286883D01*
X-297367Y-286821D01*
X-297379Y-286669D01*
X-298425Y-279400D01*
X-296625Y-266884D01*
X-291372Y-255382D01*
X-283092Y-245826D01*
X-272455Y-238990D01*
X-260322Y-235428D01*
X-247678Y-235428D01*
X-235545Y-238990D01*
X-224908Y-245826D01*
X-216628Y-255382D01*
X-211375Y-266884D01*
X-209575Y-279400D01*
X-211375Y-291916D01*
X-216628Y-303418D01*
X-224908Y-312974D01*
X-235545Y-319810D01*
X-247678Y-323372D01*
X-259112Y-323372D01*
X-259168Y-323377D01*
X-259223Y-323375D01*
X-259391Y-323397D01*
X-259561Y-323412D01*
X-259615Y-323427D01*
X-259670Y-323434D01*
X-259831Y-323486D01*
X-259995Y-323531D01*
X-260045Y-323555D01*
X-260098Y-323572D01*
X-260249Y-323651D01*
X-260402Y-323724D01*
X-260447Y-323757D01*
X-260496Y-323783D01*
X-260630Y-323888D01*
X-260768Y-323986D01*
X-260807Y-324026D01*
X-260851Y-324061D01*
X-260963Y-324187D01*
X-261082Y-324309D01*
X-261113Y-324355D01*
X-261150Y-324397D01*
X-261239Y-324541D01*
X-261334Y-324682D01*
X-261356Y-324733D01*
X-261386Y-324781D01*
X-261447Y-324939D01*
X-261516Y-325094D01*
X-261529Y-325148D01*
X-261550Y-325200D01*
X-261583Y-325366D01*
X-261623Y-325531D01*
X-261626Y-325587D01*
X-261637Y-325642D01*
X-261640Y-325811D01*
X-261650Y-325981D01*
X-261644Y-326036D01*
X-261645Y-326092D01*
X-261618Y-326259D01*
X-261598Y-326428D01*
X-261582Y-326482D01*
X-261573Y-326536D01*
X-261517Y-326696D01*
X-261468Y-326859D01*
X-261443Y-326909D01*
X-261424Y-326961D01*
X-261341Y-327109D01*
X-261264Y-327260D01*
X-261230Y-327305D01*
X-261203Y-327353D01*
X-261094Y-327484D01*
X-260992Y-327619D01*
X-260951Y-327657D01*
X-260915Y-327700D01*
X-260682Y-327908D01*
X-235213Y-347937D01*
X-235161Y-347970D01*
X-235016Y-348077D01*
X-201017Y-369927D01*
X-200963Y-369955D01*
X-200808Y-370048D01*
X-164885Y-388567D01*
X-164829Y-388590D01*
X-164666Y-388667D01*
X-127146Y-403688D01*
X-127087Y-403705D01*
X-126917Y-403767D01*
X-88139Y-415153D01*
X-88079Y-415165D01*
X-87905Y-415210D01*
X-48220Y-422859D01*
X-48159Y-422865D01*
X-47981Y-422893D01*
X-7749Y-426735D01*
X-7688Y-426735D01*
X-7507Y-426746D01*
X32907Y-426746D01*
X32969Y-426741D01*
G37*
%LPC*%
G36*
X19865Y-401130D02*
X19865Y-401130D01*
X16994Y-399941D01*
X14797Y-397744D01*
X13608Y-394873D01*
X13608Y-391765D01*
X14330Y-390021D01*
X14365Y-389909D01*
X14410Y-389801D01*
X14433Y-389695D01*
X14465Y-389591D01*
X14480Y-389475D01*
X14504Y-389361D01*
X14514Y-389207D01*
X14522Y-389144D01*
X14520Y-389108D01*
X14524Y-389049D01*
X14524Y-318047D01*
X14521Y-318012D01*
X14523Y-317978D01*
X14501Y-317789D01*
X14484Y-317598D01*
X14475Y-317565D01*
X14471Y-317531D01*
X14415Y-317348D01*
X14365Y-317164D01*
X14350Y-317133D01*
X14340Y-317100D01*
X14253Y-316929D01*
X14172Y-316757D01*
X14152Y-316729D01*
X14136Y-316698D01*
X14021Y-316546D01*
X13910Y-316391D01*
X13885Y-316367D01*
X13864Y-316340D01*
X13724Y-316211D01*
X13587Y-316077D01*
X13558Y-316058D01*
X13533Y-316034D01*
X13372Y-315932D01*
X13214Y-315825D01*
X13182Y-315811D01*
X13153Y-315793D01*
X12977Y-315720D01*
X12802Y-315643D01*
X12769Y-315635D01*
X12737Y-315622D01*
X12550Y-315582D01*
X12365Y-315536D01*
X12330Y-315534D01*
X12296Y-315527D01*
X11984Y-315508D01*
X-105031Y-315508D01*
X-105160Y-315519D01*
X-105290Y-315521D01*
X-105384Y-315539D01*
X-105479Y-315548D01*
X-105605Y-315582D01*
X-105732Y-315607D01*
X-105822Y-315641D01*
X-105914Y-315666D01*
X-106031Y-315722D01*
X-106152Y-315769D01*
X-106234Y-315819D01*
X-106320Y-315860D01*
X-106426Y-315935D01*
X-106537Y-316003D01*
X-106609Y-316066D01*
X-106686Y-316122D01*
X-106777Y-316215D01*
X-106875Y-316301D01*
X-106934Y-316376D01*
X-107000Y-316444D01*
X-107073Y-316552D01*
X-107154Y-316654D01*
X-107199Y-316738D01*
X-107253Y-316817D01*
X-107305Y-316936D01*
X-107367Y-317051D01*
X-107396Y-317142D01*
X-107435Y-317229D01*
X-107466Y-317356D01*
X-107506Y-317479D01*
X-107519Y-317574D01*
X-107541Y-317667D01*
X-107549Y-317796D01*
X-107567Y-317925D01*
X-107563Y-318021D01*
X-107569Y-318116D01*
X-107554Y-318245D01*
X-107549Y-318375D01*
X-107528Y-318468D01*
X-107517Y-318563D01*
X-107479Y-318688D01*
X-107451Y-318815D01*
X-107414Y-318903D01*
X-107387Y-318994D01*
X-107328Y-319110D01*
X-107278Y-319230D01*
X-107226Y-319311D01*
X-107182Y-319396D01*
X-107104Y-319499D01*
X-107033Y-319608D01*
X-106947Y-319706D01*
X-106910Y-319754D01*
X-106878Y-319785D01*
X-106826Y-319843D01*
X-47444Y-379224D01*
X-47318Y-379330D01*
X-47197Y-379441D01*
X-47146Y-379474D01*
X-47099Y-379513D01*
X-46956Y-379595D01*
X-46818Y-379683D01*
X-46761Y-379706D01*
X-46708Y-379737D01*
X-46553Y-379792D01*
X-46401Y-379854D01*
X-46341Y-379867D01*
X-46284Y-379888D01*
X-46121Y-379914D01*
X-45961Y-379949D01*
X-45884Y-379954D01*
X-45840Y-379961D01*
X-45779Y-379960D01*
X-45649Y-379968D01*
X-26755Y-379968D01*
X-26591Y-379954D01*
X-26427Y-379947D01*
X-26367Y-379934D01*
X-26307Y-379928D01*
X-26148Y-379885D01*
X-25987Y-379849D01*
X-25931Y-379826D01*
X-25872Y-379810D01*
X-25724Y-379739D01*
X-25572Y-379676D01*
X-25521Y-379642D01*
X-25466Y-379616D01*
X-25332Y-379521D01*
X-25194Y-379431D01*
X-25136Y-379380D01*
X-25100Y-379354D01*
X-25057Y-379311D01*
X-24960Y-379224D01*
X-23908Y-378173D01*
X-21037Y-376984D01*
X-17930Y-376984D01*
X-15059Y-378173D01*
X-12861Y-380370D01*
X-11672Y-383241D01*
X-11672Y-386349D01*
X-12861Y-389220D01*
X-15059Y-391417D01*
X-17930Y-392606D01*
X-21037Y-392606D01*
X-23908Y-391417D01*
X-24960Y-390365D01*
X-25086Y-390260D01*
X-25207Y-390148D01*
X-25258Y-390116D01*
X-25305Y-390076D01*
X-25448Y-389995D01*
X-25586Y-389907D01*
X-25643Y-389883D01*
X-25696Y-389853D01*
X-25851Y-389798D01*
X-26003Y-389736D01*
X-26063Y-389723D01*
X-26120Y-389702D01*
X-26283Y-389675D01*
X-26443Y-389641D01*
X-26520Y-389636D01*
X-26564Y-389629D01*
X-26626Y-389630D01*
X-26755Y-389622D01*
X-49660Y-389622D01*
X-51434Y-388887D01*
X-213984Y-226337D01*
X-214719Y-224563D01*
X-214719Y-145050D01*
X-214722Y-145015D01*
X-214720Y-144981D01*
X-214742Y-144792D01*
X-214759Y-144601D01*
X-214768Y-144568D01*
X-214772Y-144534D01*
X-214827Y-144351D01*
X-214877Y-144167D01*
X-214892Y-144136D01*
X-214902Y-144103D01*
X-214989Y-143932D01*
X-215070Y-143760D01*
X-215091Y-143732D01*
X-215106Y-143701D01*
X-215222Y-143549D01*
X-215333Y-143394D01*
X-215357Y-143370D01*
X-215378Y-143343D01*
X-215518Y-143214D01*
X-215655Y-143080D01*
X-215684Y-143061D01*
X-215709Y-143037D01*
X-215870Y-142935D01*
X-216028Y-142828D01*
X-216060Y-142814D01*
X-216089Y-142796D01*
X-216266Y-142723D01*
X-216440Y-142646D01*
X-216474Y-142638D01*
X-216506Y-142625D01*
X-216692Y-142585D01*
X-216878Y-142539D01*
X-216912Y-142537D01*
X-216946Y-142530D01*
X-217258Y-142511D01*
X-292424Y-142511D01*
X-294198Y-141776D01*
X-295207Y-140766D01*
X-295913Y-140061D01*
X-381156Y-54818D01*
X-382165Y-53809D01*
X-382900Y-52035D01*
X-382900Y-41983D01*
X-382914Y-41820D01*
X-382921Y-41655D01*
X-382934Y-41596D01*
X-382940Y-41535D01*
X-382983Y-41376D01*
X-383019Y-41216D01*
X-383042Y-41159D01*
X-383058Y-41100D01*
X-383129Y-40952D01*
X-383192Y-40800D01*
X-383226Y-40749D01*
X-383252Y-40694D01*
X-383347Y-40560D01*
X-383437Y-40422D01*
X-383488Y-40364D01*
X-383514Y-40328D01*
X-383557Y-40285D01*
X-383644Y-40188D01*
X-384695Y-39136D01*
X-385884Y-36265D01*
X-385884Y-33158D01*
X-384695Y-30287D01*
X-382498Y-28089D01*
X-379627Y-26900D01*
X-378140Y-26900D01*
X-377976Y-26886D01*
X-377812Y-26879D01*
X-377752Y-26866D01*
X-377691Y-26860D01*
X-377532Y-26817D01*
X-377372Y-26781D01*
X-377316Y-26758D01*
X-377257Y-26742D01*
X-377108Y-26671D01*
X-376957Y-26608D01*
X-376905Y-26575D01*
X-376850Y-26548D01*
X-376717Y-26453D01*
X-376578Y-26363D01*
X-376521Y-26312D01*
X-376484Y-26286D01*
X-376441Y-26243D01*
X-376344Y-26157D01*
X-371618Y-21430D01*
X-371512Y-21304D01*
X-371401Y-21183D01*
X-371368Y-21132D01*
X-371329Y-21085D01*
X-371247Y-20942D01*
X-371159Y-20803D01*
X-371136Y-20747D01*
X-371106Y-20694D01*
X-371050Y-20539D01*
X-370988Y-20387D01*
X-370975Y-20327D01*
X-370955Y-20270D01*
X-370928Y-20107D01*
X-370893Y-19947D01*
X-370889Y-19870D01*
X-370881Y-19825D01*
X-370882Y-19764D01*
X-370874Y-19635D01*
X-370874Y-11331D01*
X-370881Y-11248D01*
X-370879Y-11166D01*
X-370901Y-11025D01*
X-370914Y-10882D01*
X-370936Y-10802D01*
X-370948Y-10721D01*
X-370995Y-10586D01*
X-371032Y-10448D01*
X-371068Y-10373D01*
X-371095Y-10295D01*
X-371165Y-10170D01*
X-371226Y-10041D01*
X-371274Y-9974D01*
X-371314Y-9902D01*
X-371405Y-9791D01*
X-371488Y-9675D01*
X-371547Y-9618D01*
X-371599Y-9554D01*
X-371708Y-9461D01*
X-371811Y-9361D01*
X-371879Y-9315D01*
X-371942Y-9261D01*
X-372065Y-9189D01*
X-372184Y-9109D01*
X-372259Y-9076D01*
X-372330Y-9034D01*
X-372465Y-8984D01*
X-372596Y-8927D01*
X-372676Y-8907D01*
X-372753Y-8879D01*
X-372894Y-8854D01*
X-373033Y-8820D01*
X-373115Y-8815D01*
X-373196Y-8801D01*
X-373340Y-8801D01*
X-373482Y-8792D01*
X-373564Y-8802D01*
X-373647Y-8802D01*
X-373787Y-8828D01*
X-373930Y-8844D01*
X-374009Y-8868D01*
X-374090Y-8883D01*
X-374323Y-8963D01*
X-374361Y-8975D01*
X-374370Y-8979D01*
X-374385Y-8985D01*
X-377056Y-10091D01*
X-379864Y-10091D01*
X-382460Y-9016D01*
X-384446Y-7030D01*
X-385521Y-4434D01*
X-385521Y-1626D01*
X-384446Y970D01*
X-382460Y2956D01*
X-379864Y4031D01*
X-377056Y4031D01*
X-374385Y2925D01*
X-374306Y2900D01*
X-374231Y2867D01*
X-374092Y2833D01*
X-373955Y2790D01*
X-373874Y2779D01*
X-373794Y2760D01*
X-373651Y2751D01*
X-373509Y2733D01*
X-373426Y2737D01*
X-373344Y2732D01*
X-373202Y2749D01*
X-373059Y2756D01*
X-372979Y2775D01*
X-372897Y2784D01*
X-372760Y2826D01*
X-372621Y2858D01*
X-372545Y2891D01*
X-372466Y2915D01*
X-372338Y2980D01*
X-372207Y3036D01*
X-372138Y3082D01*
X-372065Y3119D01*
X-371951Y3205D01*
X-371831Y3284D01*
X-371772Y3341D01*
X-371706Y3391D01*
X-371609Y3496D01*
X-371505Y3595D01*
X-371457Y3661D01*
X-371401Y3722D01*
X-371324Y3843D01*
X-371239Y3958D01*
X-371203Y4032D01*
X-371159Y4102D01*
X-371105Y4234D01*
X-371042Y4363D01*
X-371019Y4442D01*
X-370988Y4518D01*
X-370958Y4658D01*
X-370919Y4796D01*
X-370911Y4878D01*
X-370893Y4959D01*
X-370878Y5205D01*
X-370874Y5244D01*
X-370875Y5255D01*
X-370874Y5271D01*
X-370874Y50612D01*
X-370139Y52386D01*
X-40836Y381689D01*
X-39062Y382424D01*
X-24543Y382424D01*
X-24379Y382439D01*
X-24214Y382445D01*
X-24155Y382459D01*
X-24094Y382464D01*
X-23935Y382507D01*
X-23775Y382543D01*
X-23719Y382566D01*
X-23660Y382582D01*
X-23511Y382653D01*
X-23359Y382717D01*
X-23308Y382750D01*
X-23253Y382776D01*
X-23120Y382871D01*
X-22981Y382961D01*
X-22923Y383012D01*
X-22887Y383038D01*
X-22844Y383082D01*
X-22747Y383168D01*
X-21696Y384219D01*
X-18825Y385409D01*
X-15717Y385409D01*
X-12846Y384219D01*
X-11795Y383168D01*
X-11668Y383062D01*
X-11547Y382951D01*
X-11496Y382918D01*
X-11449Y382879D01*
X-11307Y382797D01*
X-11168Y382709D01*
X-11111Y382686D01*
X-11058Y382656D01*
X-10903Y382600D01*
X-10751Y382538D01*
X-10692Y382525D01*
X-10634Y382505D01*
X-10472Y382478D01*
X-10311Y382443D01*
X-10234Y382439D01*
X-10190Y382431D01*
X-10129Y382432D01*
X-9999Y382424D01*
X-7833Y382424D01*
X-7750Y382431D01*
X-7668Y382429D01*
X-7527Y382451D01*
X-7384Y382464D01*
X-7304Y382486D01*
X-7223Y382498D01*
X-7088Y382545D01*
X-6950Y382582D01*
X-6875Y382618D01*
X-6797Y382645D01*
X-6672Y382714D01*
X-6543Y382776D01*
X-6476Y382824D01*
X-6404Y382864D01*
X-6293Y382955D01*
X-6177Y383038D01*
X-6120Y383097D01*
X-6056Y383149D01*
X-5963Y383258D01*
X-5863Y383361D01*
X-5817Y383429D01*
X-5763Y383492D01*
X-5691Y383615D01*
X-5611Y383734D01*
X-5578Y383809D01*
X-5536Y383880D01*
X-5487Y384015D01*
X-5429Y384146D01*
X-5409Y384226D01*
X-5381Y384303D01*
X-5356Y384444D01*
X-5322Y384583D01*
X-5317Y384665D01*
X-5303Y384746D01*
X-5303Y384890D01*
X-5294Y385032D01*
X-5304Y385114D01*
X-5304Y385197D01*
X-5330Y385337D01*
X-5346Y385480D01*
X-5370Y385559D01*
X-5385Y385640D01*
X-5465Y385873D01*
X-5477Y385911D01*
X-5481Y385920D01*
X-5487Y385935D01*
X-6241Y387756D01*
X-6241Y390564D01*
X-5166Y393160D01*
X-3180Y395146D01*
X-584Y396221D01*
X2224Y396221D01*
X4820Y395146D01*
X6806Y393160D01*
X7881Y390564D01*
X7881Y387756D01*
X6806Y385160D01*
X4820Y383174D01*
X2224Y382099D01*
X1281Y382099D01*
X1152Y382088D01*
X1022Y382086D01*
X928Y382068D01*
X833Y382059D01*
X707Y382025D01*
X579Y382000D01*
X490Y381966D01*
X398Y381941D01*
X281Y381885D01*
X159Y381838D01*
X78Y381788D01*
X-8Y381747D01*
X-114Y381672D01*
X-225Y381604D01*
X-297Y381541D01*
X-375Y381485D01*
X-465Y381392D01*
X-563Y381306D01*
X-622Y381231D01*
X-689Y381163D01*
X-762Y381055D01*
X-842Y380953D01*
X-887Y380869D01*
X-941Y380790D01*
X-993Y380671D01*
X-1055Y380556D01*
X-1084Y380465D01*
X-1123Y380378D01*
X-1154Y380251D01*
X-1194Y380128D01*
X-1207Y380033D01*
X-1230Y379940D01*
X-1238Y379811D01*
X-1255Y379682D01*
X-1251Y379586D01*
X-1257Y379491D01*
X-1242Y379362D01*
X-1237Y379232D01*
X-1216Y379139D01*
X-1205Y379044D01*
X-1168Y378919D01*
X-1139Y378792D01*
X-1103Y378704D01*
X-1075Y378613D01*
X-1016Y378497D01*
X-966Y378377D01*
X-914Y378296D01*
X-871Y378211D01*
X-792Y378108D01*
X-721Y377999D01*
X-635Y377901D01*
X-599Y377853D01*
X-566Y377822D01*
X-515Y377764D01*
X67178Y310072D01*
X67304Y309967D01*
X67425Y309855D01*
X67476Y309823D01*
X67523Y309784D01*
X67666Y309702D01*
X67804Y309614D01*
X67861Y309590D01*
X67914Y309560D01*
X68069Y309505D01*
X68221Y309443D01*
X68281Y309430D01*
X68338Y309409D01*
X68501Y309383D01*
X68661Y309348D01*
X68738Y309343D01*
X68782Y309336D01*
X68843Y309337D01*
X68973Y309329D01*
X69032Y309329D01*
X71903Y308140D01*
X72955Y307088D01*
X73081Y306982D01*
X73202Y306871D01*
X73253Y306838D01*
X73300Y306799D01*
X73443Y306718D01*
X73581Y306629D01*
X73638Y306606D01*
X73691Y306576D01*
X73846Y306521D01*
X73998Y306458D01*
X74058Y306445D01*
X74115Y306425D01*
X74278Y306398D01*
X74438Y306363D01*
X74515Y306359D01*
X74559Y306351D01*
X74621Y306352D01*
X74750Y306344D01*
X78370Y306344D01*
X78500Y306356D01*
X78630Y306358D01*
X78724Y306376D01*
X78819Y306384D01*
X78944Y306418D01*
X79072Y306443D01*
X79161Y306478D01*
X79253Y306503D01*
X79370Y306559D01*
X79492Y306605D01*
X79574Y306655D01*
X79660Y306696D01*
X79765Y306772D01*
X79877Y306839D01*
X79948Y306903D01*
X80026Y306958D01*
X80117Y307052D01*
X80214Y307138D01*
X80273Y307212D01*
X80340Y307281D01*
X80413Y307389D01*
X80493Y307491D01*
X80538Y307575D01*
X80592Y307654D01*
X80645Y307773D01*
X80706Y307888D01*
X80735Y307978D01*
X80774Y308066D01*
X80805Y308192D01*
X80845Y308316D01*
X80858Y308410D01*
X80881Y308503D01*
X80889Y308633D01*
X80906Y308762D01*
X80903Y308857D01*
X80908Y308953D01*
X80893Y309082D01*
X80888Y309212D01*
X80867Y309305D01*
X80856Y309400D01*
X80819Y309524D01*
X80790Y309651D01*
X80754Y309739D01*
X80726Y309831D01*
X80667Y309947D01*
X80617Y310067D01*
X80565Y310147D01*
X80522Y310232D01*
X80443Y310336D01*
X80407Y310392D01*
X79299Y313066D01*
X79299Y315874D01*
X80374Y318470D01*
X82360Y320456D01*
X84956Y321531D01*
X87764Y321531D01*
X90360Y320456D01*
X92346Y318470D01*
X93421Y315874D01*
X93421Y313066D01*
X92346Y310470D01*
X90360Y308484D01*
X87764Y307409D01*
X84515Y307409D01*
X84386Y307398D01*
X84255Y307396D01*
X84162Y307378D01*
X84066Y307369D01*
X83941Y307335D01*
X83813Y307310D01*
X83724Y307276D01*
X83632Y307251D01*
X83515Y307195D01*
X83393Y307148D01*
X83312Y307098D01*
X83225Y307057D01*
X83120Y306982D01*
X83009Y306914D01*
X82937Y306851D01*
X82859Y306795D01*
X82769Y306702D01*
X82671Y306616D01*
X82612Y306541D01*
X82545Y306473D01*
X82472Y306365D01*
X82392Y306263D01*
X82347Y306179D01*
X82293Y306100D01*
X82241Y305981D01*
X82179Y305866D01*
X82150Y305775D01*
X82111Y305688D01*
X82080Y305561D01*
X82040Y305438D01*
X82027Y305343D01*
X82004Y305250D01*
X81996Y305121D01*
X81979Y304992D01*
X81983Y304896D01*
X81977Y304801D01*
X81992Y304672D01*
X81997Y304542D01*
X82018Y304449D01*
X82029Y304354D01*
X82066Y304229D01*
X82095Y304102D01*
X82131Y304014D01*
X82159Y303923D01*
X82218Y303807D01*
X82268Y303687D01*
X82320Y303606D01*
X82363Y303521D01*
X82442Y303418D01*
X82512Y303309D01*
X82599Y303211D01*
X82635Y303163D01*
X82668Y303132D01*
X82719Y303074D01*
X146265Y239529D01*
X146391Y239423D01*
X146512Y239312D01*
X146563Y239279D01*
X146610Y239240D01*
X146753Y239159D01*
X146892Y239070D01*
X146948Y239047D01*
X147001Y239017D01*
X147156Y238962D01*
X147308Y238899D01*
X147368Y238886D01*
X147425Y238866D01*
X147588Y238839D01*
X147749Y238805D01*
X147825Y238800D01*
X147870Y238792D01*
X147931Y238793D01*
X148060Y238785D01*
X149548Y238785D01*
X152418Y237596D01*
X153470Y236545D01*
X153596Y236439D01*
X153717Y236328D01*
X153769Y236295D01*
X153815Y236256D01*
X153958Y236174D01*
X154097Y236086D01*
X154154Y236063D01*
X154206Y236032D01*
X154361Y235977D01*
X154514Y235915D01*
X154573Y235902D01*
X154631Y235881D01*
X154793Y235855D01*
X154954Y235820D01*
X155031Y235815D01*
X155075Y235808D01*
X155136Y235809D01*
X155266Y235801D01*
X177263Y235801D01*
X179037Y235066D01*
X382229Y31874D01*
X382355Y31768D01*
X382476Y31657D01*
X382527Y31624D01*
X382574Y31585D01*
X382717Y31504D01*
X382855Y31415D01*
X382912Y31392D01*
X382965Y31362D01*
X383120Y31307D01*
X383272Y31244D01*
X383332Y31231D01*
X383389Y31211D01*
X383551Y31184D01*
X383712Y31149D01*
X383789Y31145D01*
X383833Y31137D01*
X383894Y31138D01*
X384024Y31130D01*
X385511Y31130D01*
X388382Y29941D01*
X390580Y27744D01*
X391769Y24873D01*
X391769Y21765D01*
X390580Y18894D01*
X388382Y16697D01*
X385511Y15508D01*
X382404Y15508D01*
X379533Y16697D01*
X377335Y18894D01*
X376146Y21765D01*
X376146Y23252D01*
X376132Y23416D01*
X376125Y23581D01*
X376112Y23640D01*
X376106Y23701D01*
X376063Y23860D01*
X376027Y24020D01*
X376004Y24076D01*
X375988Y24135D01*
X375917Y24283D01*
X375854Y24436D01*
X375821Y24487D01*
X375794Y24542D01*
X375699Y24675D01*
X375609Y24814D01*
X375558Y24872D01*
X375532Y24908D01*
X375489Y24951D01*
X375403Y25048D01*
X175047Y225404D01*
X174921Y225509D01*
X174800Y225621D01*
X174748Y225653D01*
X174701Y225693D01*
X174559Y225774D01*
X174420Y225862D01*
X174363Y225886D01*
X174310Y225916D01*
X174156Y225971D01*
X174003Y226033D01*
X173944Y226046D01*
X173886Y226067D01*
X173724Y226094D01*
X173563Y226128D01*
X173486Y226133D01*
X173442Y226140D01*
X173381Y226139D01*
X173251Y226147D01*
X155266Y226147D01*
X155102Y226133D01*
X154938Y226126D01*
X154878Y226113D01*
X154817Y226107D01*
X154658Y226064D01*
X154498Y226029D01*
X154442Y226005D01*
X154383Y225989D01*
X154235Y225918D01*
X154082Y225855D01*
X154031Y225822D01*
X153976Y225796D01*
X153843Y225700D01*
X153704Y225611D01*
X153646Y225560D01*
X153610Y225533D01*
X153568Y225490D01*
X153470Y225404D01*
X152418Y224352D01*
X149548Y223163D01*
X146440Y223163D01*
X143569Y224352D01*
X141372Y226549D01*
X140183Y229420D01*
X140183Y230907D01*
X140168Y231071D01*
X140161Y231236D01*
X140148Y231295D01*
X140143Y231356D01*
X140099Y231515D01*
X140064Y231675D01*
X140040Y231732D01*
X140024Y231790D01*
X139954Y231938D01*
X139890Y232091D01*
X139857Y232142D01*
X139831Y232197D01*
X139790Y232254D01*
X139783Y232268D01*
X139733Y232334D01*
X139646Y232469D01*
X139595Y232527D01*
X139569Y232563D01*
X139533Y232598D01*
X139511Y232627D01*
X139486Y232650D01*
X139439Y232703D01*
X95400Y276741D01*
X95374Y276764D01*
X95351Y276790D01*
X95201Y276908D01*
X95055Y277030D01*
X95025Y277048D01*
X94998Y277069D01*
X94829Y277159D01*
X94664Y277254D01*
X94632Y277265D01*
X94601Y277282D01*
X94420Y277341D01*
X94240Y277405D01*
X94206Y277410D01*
X94173Y277421D01*
X93984Y277447D01*
X93796Y277478D01*
X93761Y277478D01*
X93727Y277482D01*
X93536Y277474D01*
X93345Y277472D01*
X93311Y277465D01*
X93277Y277464D01*
X93091Y277423D01*
X92903Y277386D01*
X92871Y277374D01*
X92837Y277366D01*
X92662Y277293D01*
X92483Y277224D01*
X92454Y277206D01*
X92422Y277193D01*
X92262Y277089D01*
X92099Y276990D01*
X92073Y276967D01*
X92044Y276948D01*
X91809Y276741D01*
X89410Y274342D01*
X86539Y273152D01*
X83431Y273152D01*
X80560Y274342D01*
X78161Y276741D01*
X78035Y276846D01*
X77914Y276958D01*
X77863Y276990D01*
X77816Y277029D01*
X77673Y277111D01*
X77534Y277199D01*
X77478Y277223D01*
X77425Y277253D01*
X77270Y277308D01*
X77118Y277370D01*
X77058Y277383D01*
X77001Y277404D01*
X76839Y277430D01*
X76678Y277465D01*
X76600Y277470D01*
X76557Y277477D01*
X76496Y277476D01*
X76366Y277484D01*
X48960Y277484D01*
X48796Y277470D01*
X48632Y277463D01*
X48572Y277450D01*
X48511Y277444D01*
X48352Y277401D01*
X48192Y277365D01*
X48136Y277342D01*
X48077Y277326D01*
X47929Y277255D01*
X47777Y277192D01*
X47725Y277159D01*
X47670Y277132D01*
X47537Y277037D01*
X47398Y276947D01*
X47341Y276896D01*
X47304Y276870D01*
X47262Y276827D01*
X47164Y276741D01*
X2998Y232575D01*
X2892Y232448D01*
X2781Y232327D01*
X2748Y232276D01*
X2709Y232229D01*
X2628Y232086D01*
X2539Y231948D01*
X2516Y231891D01*
X2486Y231838D01*
X2431Y231683D01*
X2368Y231531D01*
X2356Y231471D01*
X2335Y231414D01*
X2308Y231252D01*
X2274Y231091D01*
X2269Y231014D01*
X2262Y230970D01*
X2262Y230909D01*
X2254Y230779D01*
X2254Y139585D01*
X2266Y139455D01*
X2268Y139325D01*
X2286Y139231D01*
X2294Y139136D01*
X2329Y139011D01*
X2353Y138883D01*
X2388Y138794D01*
X2413Y138702D01*
X2469Y138585D01*
X2516Y138463D01*
X2565Y138381D01*
X2606Y138295D01*
X2682Y138190D01*
X2749Y138078D01*
X2813Y138007D01*
X2868Y137929D01*
X2962Y137838D01*
X3048Y137741D01*
X3122Y137682D01*
X3191Y137615D01*
X3299Y137542D01*
X3401Y137462D01*
X3485Y137416D01*
X3564Y137363D01*
X3683Y137310D01*
X3798Y137249D01*
X3888Y137219D01*
X3976Y137181D01*
X4102Y137150D01*
X4226Y137110D01*
X4320Y137097D01*
X4413Y137074D01*
X4543Y137066D01*
X4672Y137048D01*
X4768Y137052D01*
X4863Y137046D01*
X4992Y137061D01*
X5122Y137067D01*
X5215Y137087D01*
X5310Y137098D01*
X5435Y137136D01*
X5561Y137164D01*
X5649Y137201D01*
X5741Y137229D01*
X5857Y137288D01*
X5977Y137338D01*
X6057Y137390D01*
X6142Y137433D01*
X6246Y137512D01*
X6355Y137582D01*
X6453Y137668D01*
X6501Y137705D01*
X6531Y137738D01*
X6589Y137789D01*
X82783Y213982D01*
X82888Y214109D01*
X83000Y214230D01*
X83032Y214281D01*
X83071Y214328D01*
X83153Y214471D01*
X83241Y214609D01*
X83265Y214666D01*
X83295Y214719D01*
X83350Y214874D01*
X83412Y215026D01*
X83425Y215086D01*
X83446Y215143D01*
X83472Y215305D01*
X83507Y215466D01*
X83512Y215543D01*
X83519Y215587D01*
X83518Y215648D01*
X83526Y215778D01*
X83526Y232328D01*
X83512Y232492D01*
X83505Y232656D01*
X83492Y232716D01*
X83486Y232777D01*
X83443Y232936D01*
X83408Y233096D01*
X83384Y233152D01*
X83368Y233211D01*
X83297Y233360D01*
X83234Y233511D01*
X83201Y233563D01*
X83174Y233618D01*
X83079Y233752D01*
X82990Y233890D01*
X82938Y233948D01*
X82912Y233984D01*
X82869Y234027D01*
X82783Y234124D01*
X82655Y234252D01*
X82528Y234357D01*
X82408Y234469D01*
X82356Y234502D01*
X82310Y234541D01*
X82167Y234622D01*
X82028Y234711D01*
X81971Y234734D01*
X81919Y234764D01*
X81764Y234819D01*
X81611Y234882D01*
X81552Y234895D01*
X81494Y234915D01*
X81332Y234942D01*
X81171Y234976D01*
X81094Y234981D01*
X81050Y234988D01*
X80989Y234988D01*
X80859Y234996D01*
X79372Y234996D01*
X76501Y236185D01*
X74304Y238382D01*
X73114Y241253D01*
X73114Y244361D01*
X74304Y247232D01*
X76501Y249429D01*
X79372Y250618D01*
X82479Y250618D01*
X85350Y249429D01*
X87548Y247232D01*
X88737Y244361D01*
X88737Y242873D01*
X88751Y242710D01*
X88758Y242545D01*
X88771Y242486D01*
X88777Y242425D01*
X88820Y242266D01*
X88856Y242106D01*
X88879Y242049D01*
X88895Y241991D01*
X88966Y241842D01*
X89029Y241690D01*
X89063Y241639D01*
X89089Y241584D01*
X89184Y241450D01*
X89274Y241312D01*
X89325Y241254D01*
X89351Y241218D01*
X89395Y241175D01*
X89481Y241078D01*
X92445Y238114D01*
X93180Y236340D01*
X93180Y220240D01*
X93191Y220110D01*
X93193Y219981D01*
X93211Y219887D01*
X93220Y219792D01*
X93254Y219666D01*
X93279Y219538D01*
X93313Y219449D01*
X93338Y219357D01*
X93394Y219240D01*
X93441Y219118D01*
X93491Y219037D01*
X93532Y218951D01*
X93607Y218845D01*
X93675Y218734D01*
X93738Y218662D01*
X93794Y218584D01*
X93887Y218494D01*
X93973Y218396D01*
X94048Y218337D01*
X94116Y218270D01*
X94224Y218198D01*
X94326Y218117D01*
X94410Y218072D01*
X94489Y218018D01*
X94608Y217966D01*
X94723Y217904D01*
X94814Y217875D01*
X94901Y217836D01*
X95028Y217805D01*
X95151Y217765D01*
X95246Y217752D01*
X95339Y217729D01*
X95468Y217721D01*
X95597Y217704D01*
X95693Y217708D01*
X95788Y217702D01*
X95917Y217717D01*
X96047Y217722D01*
X96140Y217743D01*
X96235Y217754D01*
X96360Y217792D01*
X96487Y217820D01*
X96575Y217856D01*
X96666Y217884D01*
X96782Y217943D01*
X96902Y217993D01*
X96982Y218045D01*
X97068Y218089D01*
X97171Y218167D01*
X97280Y218238D01*
X97378Y218324D01*
X97426Y218361D01*
X97457Y218393D01*
X97515Y218445D01*
X98419Y219349D01*
X101290Y220538D01*
X104397Y220538D01*
X107268Y219349D01*
X109466Y217152D01*
X110655Y214281D01*
X110655Y211173D01*
X109466Y208302D01*
X107268Y206105D01*
X104397Y204916D01*
X101290Y204916D01*
X98419Y206105D01*
X97367Y207156D01*
X97241Y207262D01*
X97120Y207373D01*
X97069Y207406D01*
X97022Y207445D01*
X96879Y207527D01*
X96740Y207615D01*
X96684Y207638D01*
X96631Y207669D01*
X96476Y207724D01*
X96324Y207786D01*
X96264Y207799D01*
X96207Y207820D01*
X96044Y207846D01*
X95884Y207881D01*
X95807Y207886D01*
X95762Y207893D01*
X95701Y207892D01*
X95572Y207900D01*
X91404Y207900D01*
X91240Y207886D01*
X91076Y207879D01*
X91016Y207866D01*
X90956Y207860D01*
X90797Y207817D01*
X90636Y207781D01*
X90580Y207758D01*
X90521Y207742D01*
X90373Y207671D01*
X90221Y207608D01*
X90169Y207574D01*
X90115Y207548D01*
X89981Y207453D01*
X89843Y207363D01*
X89785Y207312D01*
X89749Y207286D01*
X89706Y207243D01*
X89609Y207156D01*
X10047Y127595D01*
X9941Y127468D01*
X9830Y127348D01*
X9797Y127296D01*
X9758Y127249D01*
X9676Y127107D01*
X9588Y126968D01*
X9565Y126911D01*
X9535Y126858D01*
X9480Y126704D01*
X9417Y126551D01*
X9404Y126492D01*
X9384Y126434D01*
X9357Y126272D01*
X9322Y126111D01*
X9318Y126034D01*
X9310Y125990D01*
X9311Y125929D01*
X9303Y125799D01*
X9303Y114799D01*
X9318Y114635D01*
X9324Y114471D01*
X9338Y114411D01*
X9343Y114350D01*
X9386Y114192D01*
X9422Y114031D01*
X9446Y113975D01*
X9462Y113916D01*
X9532Y113768D01*
X9596Y113616D01*
X9629Y113564D01*
X9655Y113509D01*
X9751Y113376D01*
X9840Y113238D01*
X9891Y113180D01*
X9917Y113143D01*
X9961Y113101D01*
X10047Y113003D01*
X11098Y111952D01*
X12288Y109081D01*
X12288Y107594D01*
X12302Y107430D01*
X12309Y107266D01*
X12322Y107206D01*
X12328Y107145D01*
X12371Y106986D01*
X12406Y106826D01*
X12430Y106770D01*
X12446Y106711D01*
X12517Y106562D01*
X12580Y106411D01*
X12613Y106359D01*
X12639Y106304D01*
X12735Y106171D01*
X12824Y106032D01*
X12875Y105975D01*
X12902Y105938D01*
X12945Y105895D01*
X13031Y105798D01*
X15284Y103546D01*
X16019Y101772D01*
X16019Y99920D01*
X16030Y99791D01*
X16032Y99661D01*
X16050Y99567D01*
X16058Y99472D01*
X16093Y99346D01*
X16117Y99219D01*
X16152Y99129D01*
X16177Y99037D01*
X16233Y98920D01*
X16280Y98799D01*
X16329Y98717D01*
X16370Y98631D01*
X16446Y98525D01*
X16514Y98414D01*
X16577Y98342D01*
X16632Y98265D01*
X16726Y98174D01*
X16812Y98076D01*
X16887Y98017D01*
X16955Y97951D01*
X17063Y97878D01*
X17165Y97797D01*
X17249Y97752D01*
X17328Y97698D01*
X17447Y97646D01*
X17562Y97584D01*
X17653Y97555D01*
X17740Y97516D01*
X17866Y97485D01*
X17990Y97445D01*
X18085Y97432D01*
X18177Y97410D01*
X18307Y97402D01*
X18436Y97384D01*
X18532Y97388D01*
X18627Y97382D01*
X18756Y97397D01*
X18886Y97402D01*
X18979Y97423D01*
X19074Y97434D01*
X19199Y97472D01*
X19326Y97500D01*
X19414Y97537D01*
X19505Y97564D01*
X19621Y97623D01*
X19741Y97673D01*
X19821Y97725D01*
X19906Y97769D01*
X20010Y97847D01*
X20119Y97918D01*
X20217Y98004D01*
X20265Y98041D01*
X20295Y98073D01*
X20353Y98125D01*
X116168Y193940D01*
X117883Y195655D01*
X119657Y196390D01*
X182365Y196390D01*
X182529Y196404D01*
X182693Y196411D01*
X182753Y196424D01*
X182814Y196429D01*
X182972Y196473D01*
X183133Y196508D01*
X183189Y196532D01*
X183248Y196548D01*
X183396Y196619D01*
X183548Y196682D01*
X183600Y196715D01*
X183655Y196741D01*
X183788Y196837D01*
X183927Y196926D01*
X183943Y196941D01*
X186857Y198148D01*
X189964Y198148D01*
X192835Y196959D01*
X195033Y194761D01*
X196222Y191890D01*
X196222Y188378D01*
X196236Y188214D01*
X196243Y188050D01*
X196256Y187990D01*
X196262Y187930D01*
X196305Y187771D01*
X196341Y187610D01*
X196364Y187554D01*
X196380Y187495D01*
X196451Y187347D01*
X196514Y187195D01*
X196548Y187143D01*
X196574Y187089D01*
X196669Y186955D01*
X196759Y186817D01*
X196810Y186759D01*
X196836Y186722D01*
X196879Y186680D01*
X196966Y186582D01*
X256761Y126787D01*
X373980Y9568D01*
X374107Y9462D01*
X374227Y9351D01*
X374279Y9318D01*
X374326Y9279D01*
X374468Y9197D01*
X374607Y9109D01*
X374664Y9086D01*
X374717Y9056D01*
X374871Y9000D01*
X375024Y8938D01*
X375083Y8925D01*
X375141Y8905D01*
X375303Y8878D01*
X375464Y8843D01*
X375541Y8839D01*
X375585Y8831D01*
X375646Y8832D01*
X375776Y8824D01*
X378445Y8824D01*
X381315Y7635D01*
X383513Y5437D01*
X384702Y2567D01*
X384702Y-541D01*
X383513Y-3412D01*
X381315Y-5609D01*
X378445Y-6798D01*
X375337Y-6798D01*
X372466Y-5609D01*
X370269Y-3412D01*
X369080Y-541D01*
X369080Y-235D01*
X369065Y-72D01*
X369058Y93D01*
X369045Y152D01*
X369040Y213D01*
X368996Y372D01*
X368961Y532D01*
X368937Y589D01*
X368921Y648D01*
X368851Y796D01*
X368787Y948D01*
X368754Y999D01*
X368728Y1054D01*
X368632Y1188D01*
X368543Y1326D01*
X368492Y1384D01*
X368466Y1420D01*
X368422Y1463D01*
X368336Y1560D01*
X254108Y115788D01*
X254081Y115811D01*
X254058Y115837D01*
X253909Y115954D01*
X253762Y116077D01*
X253732Y116095D01*
X253705Y116116D01*
X253537Y116206D01*
X253371Y116301D01*
X253339Y116312D01*
X253308Y116329D01*
X253127Y116387D01*
X252947Y116451D01*
X252913Y116457D01*
X252880Y116468D01*
X252692Y116494D01*
X252503Y116525D01*
X252468Y116524D01*
X252434Y116529D01*
X252243Y116521D01*
X252053Y116519D01*
X252019Y116512D01*
X251984Y116511D01*
X251798Y116470D01*
X251611Y116433D01*
X251578Y116421D01*
X251544Y116413D01*
X251368Y116340D01*
X251191Y116271D01*
X251161Y116253D01*
X251129Y116240D01*
X250969Y116136D01*
X250806Y116037D01*
X250780Y116014D01*
X250751Y115995D01*
X250517Y115788D01*
X150802Y16074D01*
X150696Y15948D01*
X150585Y15827D01*
X150552Y15775D01*
X150513Y15729D01*
X150432Y15586D01*
X150343Y15447D01*
X150320Y15390D01*
X150290Y15338D01*
X150235Y15183D01*
X150172Y15030D01*
X150160Y14971D01*
X150139Y14913D01*
X150112Y14751D01*
X150078Y14590D01*
X150073Y14513D01*
X150066Y14469D01*
X150066Y14408D01*
X150058Y14278D01*
X150058Y12791D01*
X148869Y9920D01*
X146672Y7723D01*
X143801Y6534D01*
X140693Y6534D01*
X137823Y7723D01*
X135625Y9920D01*
X134436Y12791D01*
X134436Y15899D01*
X135625Y18770D01*
X136323Y19468D01*
X136376Y19531D01*
X136436Y19588D01*
X136520Y19703D01*
X136612Y19813D01*
X136653Y19885D01*
X136702Y19951D01*
X136765Y20080D01*
X136836Y20204D01*
X136863Y20282D01*
X136899Y20356D01*
X136938Y20494D01*
X136986Y20628D01*
X137000Y20710D01*
X137022Y20789D01*
X137037Y20932D01*
X137060Y21073D01*
X137059Y21155D01*
X137067Y21237D01*
X137056Y21380D01*
X137054Y21523D01*
X137038Y21604D01*
X137032Y21686D01*
X136995Y21825D01*
X136968Y21965D01*
X136939Y22042D01*
X136918Y22122D01*
X136857Y22252D01*
X136806Y22385D01*
X136763Y22455D01*
X136729Y22530D01*
X136646Y22648D01*
X136572Y22770D01*
X136518Y22831D01*
X136470Y22899D01*
X136369Y23000D01*
X136274Y23107D01*
X136209Y23158D01*
X136151Y23216D01*
X136033Y23298D01*
X135921Y23387D01*
X135848Y23425D01*
X135780Y23472D01*
X135559Y23580D01*
X135524Y23599D01*
X135514Y23602D01*
X135500Y23609D01*
X134776Y23909D01*
X132565Y26120D01*
X132498Y26231D01*
X132431Y26358D01*
X132381Y26423D01*
X132338Y26493D01*
X132243Y26601D01*
X132156Y26714D01*
X132094Y26769D01*
X132040Y26831D01*
X131928Y26919D01*
X131821Y27016D01*
X131751Y27059D01*
X131687Y27110D01*
X131561Y27178D01*
X131439Y27253D01*
X131363Y27284D01*
X131290Y27323D01*
X131154Y27367D01*
X131021Y27420D01*
X130940Y27437D01*
X130862Y27462D01*
X130720Y27482D01*
X130580Y27510D01*
X130497Y27512D01*
X130416Y27523D01*
X130273Y27518D01*
X130130Y27521D01*
X130048Y27508D01*
X129966Y27505D01*
X129826Y27474D01*
X129685Y27452D01*
X129607Y27425D01*
X129526Y27407D01*
X129394Y27352D01*
X129259Y27306D01*
X129187Y27266D01*
X129111Y27234D01*
X128990Y27156D01*
X128866Y27086D01*
X128802Y27034D01*
X128733Y26990D01*
X128548Y26826D01*
X128517Y26801D01*
X128510Y26793D01*
X128498Y26783D01*
X119586Y17870D01*
X119480Y17744D01*
X119369Y17623D01*
X119336Y17572D01*
X119297Y17525D01*
X119216Y17382D01*
X119127Y17243D01*
X119104Y17187D01*
X119074Y17134D01*
X119019Y16979D01*
X118956Y16827D01*
X118943Y16767D01*
X118923Y16710D01*
X118896Y16547D01*
X118862Y16387D01*
X118857Y16310D01*
X118849Y16265D01*
X118850Y16204D01*
X118842Y16075D01*
X118842Y14588D01*
X117653Y11717D01*
X116779Y10842D01*
X116757Y10816D01*
X116731Y10793D01*
X116613Y10644D01*
X116490Y10497D01*
X116473Y10467D01*
X116451Y10440D01*
X116361Y10272D01*
X116267Y10106D01*
X116255Y10073D01*
X116239Y10043D01*
X116180Y9862D01*
X116116Y9682D01*
X116110Y9647D01*
X116099Y9615D01*
X116074Y9426D01*
X116042Y9238D01*
X116043Y9203D01*
X116038Y9169D01*
X116046Y8978D01*
X116048Y8787D01*
X116055Y8753D01*
X116056Y8719D01*
X116098Y8533D01*
X116134Y8345D01*
X116147Y8313D01*
X116154Y8279D01*
X116228Y8103D01*
X116296Y7925D01*
X116314Y7896D01*
X116328Y7864D01*
X116431Y7703D01*
X116530Y7541D01*
X116553Y7515D01*
X116572Y7485D01*
X116779Y7251D01*
X233492Y-109462D01*
X235207Y-111177D01*
X235942Y-112951D01*
X235942Y-157655D01*
X235956Y-157819D01*
X235963Y-157983D01*
X235976Y-158043D01*
X235982Y-158104D01*
X236025Y-158263D01*
X236061Y-158423D01*
X236084Y-158479D01*
X236100Y-158538D01*
X236171Y-158686D01*
X236234Y-158838D01*
X236268Y-158890D01*
X236294Y-158945D01*
X236389Y-159078D01*
X236479Y-159217D01*
X236530Y-159274D01*
X236556Y-159311D01*
X236599Y-159353D01*
X236686Y-159451D01*
X237737Y-160502D01*
X238926Y-163373D01*
X238926Y-166481D01*
X237737Y-169352D01*
X235540Y-171549D01*
X232669Y-172738D01*
X229561Y-172738D01*
X226690Y-171549D01*
X224493Y-169352D01*
X223304Y-166481D01*
X223304Y-163373D01*
X224493Y-160502D01*
X225545Y-159451D01*
X225650Y-159324D01*
X225762Y-159204D01*
X225794Y-159152D01*
X225834Y-159105D01*
X225915Y-158963D01*
X226003Y-158824D01*
X226027Y-158767D01*
X226057Y-158714D01*
X226112Y-158560D01*
X226174Y-158407D01*
X226187Y-158348D01*
X226208Y-158290D01*
X226235Y-158128D01*
X226269Y-157967D01*
X226274Y-157890D01*
X226281Y-157846D01*
X226280Y-157785D01*
X226288Y-157655D01*
X226288Y-116962D01*
X226283Y-116897D01*
X226283Y-116889D01*
X226278Y-116841D01*
X226274Y-116798D01*
X226267Y-116634D01*
X226254Y-116574D01*
X226248Y-116514D01*
X226233Y-116456D01*
X226231Y-116441D01*
X226208Y-116364D01*
X226205Y-116355D01*
X226170Y-116194D01*
X226146Y-116138D01*
X226130Y-116079D01*
X226107Y-116031D01*
X226101Y-116010D01*
X226056Y-115922D01*
X225996Y-115779D01*
X225963Y-115727D01*
X225937Y-115673D01*
X225909Y-115634D01*
X225896Y-115609D01*
X225828Y-115519D01*
X225752Y-115401D01*
X225701Y-115343D01*
X225674Y-115306D01*
X225646Y-115278D01*
X225624Y-115250D01*
X225594Y-115223D01*
X225545Y-115166D01*
X126859Y-16480D01*
X126759Y-16397D01*
X126666Y-16306D01*
X126587Y-16253D01*
X126513Y-16192D01*
X126400Y-16127D01*
X126293Y-16054D01*
X126205Y-16016D01*
X126122Y-15968D01*
X126000Y-15925D01*
X125881Y-15872D01*
X125788Y-15849D01*
X125698Y-15817D01*
X125570Y-15796D01*
X125443Y-15765D01*
X125348Y-15759D01*
X125254Y-15744D01*
X125124Y-15746D01*
X124994Y-15738D01*
X124899Y-15749D01*
X124804Y-15750D01*
X124676Y-15775D01*
X124547Y-15790D01*
X124455Y-15817D01*
X124361Y-15836D01*
X124240Y-15882D01*
X124116Y-15920D01*
X124031Y-15963D01*
X123941Y-15998D01*
X123830Y-16065D01*
X123715Y-16124D01*
X123638Y-16182D01*
X123557Y-16232D01*
X123459Y-16318D01*
X123356Y-16396D01*
X123291Y-16467D01*
X123219Y-16530D01*
X123139Y-16632D01*
X123051Y-16728D01*
X122999Y-16808D01*
X122940Y-16883D01*
X122879Y-16997D01*
X122809Y-17107D01*
X122772Y-17196D01*
X122727Y-17280D01*
X122687Y-17404D01*
X122638Y-17524D01*
X122618Y-17617D01*
X122588Y-17708D01*
X122570Y-17837D01*
X122543Y-17964D01*
X122535Y-18094D01*
X122527Y-18154D01*
X122529Y-18199D01*
X122524Y-18276D01*
X122524Y-248037D01*
X122538Y-248201D01*
X122545Y-248365D01*
X122558Y-248425D01*
X122564Y-248485D01*
X122607Y-248644D01*
X122643Y-248805D01*
X122666Y-248861D01*
X122682Y-248920D01*
X122753Y-249068D01*
X122816Y-249220D01*
X122850Y-249272D01*
X122876Y-249326D01*
X122971Y-249460D01*
X123061Y-249598D01*
X123112Y-249656D01*
X123138Y-249693D01*
X123181Y-249735D01*
X123268Y-249833D01*
X124224Y-250789D01*
X125413Y-253660D01*
X125413Y-256767D01*
X124224Y-259638D01*
X122026Y-261835D01*
X119155Y-263025D01*
X116048Y-263025D01*
X113177Y-261835D01*
X110980Y-259638D01*
X109790Y-256767D01*
X109790Y-253660D01*
X110980Y-250789D01*
X112127Y-249642D01*
X112232Y-249515D01*
X112344Y-249394D01*
X112376Y-249343D01*
X112416Y-249296D01*
X112497Y-249153D01*
X112585Y-249015D01*
X112609Y-248958D01*
X112639Y-248905D01*
X112694Y-248750D01*
X112756Y-248598D01*
X112769Y-248538D01*
X112790Y-248481D01*
X112817Y-248319D01*
X112851Y-248158D01*
X112856Y-248081D01*
X112863Y-248037D01*
X112862Y-247976D01*
X112870Y-247846D01*
X112870Y-239852D01*
X112867Y-239818D01*
X112869Y-239783D01*
X112847Y-239594D01*
X112830Y-239404D01*
X112821Y-239370D01*
X112817Y-239336D01*
X112762Y-239153D01*
X112712Y-238970D01*
X112697Y-238938D01*
X112687Y-238905D01*
X112600Y-238735D01*
X112519Y-238563D01*
X112498Y-238535D01*
X112483Y-238504D01*
X112367Y-238352D01*
X112256Y-238197D01*
X112232Y-238173D01*
X112211Y-238145D01*
X112071Y-238016D01*
X111934Y-237883D01*
X111905Y-237863D01*
X111880Y-237840D01*
X111719Y-237737D01*
X111561Y-237631D01*
X111529Y-237617D01*
X111500Y-237598D01*
X111323Y-237526D01*
X111149Y-237448D01*
X111115Y-237440D01*
X111083Y-237427D01*
X110897Y-237387D01*
X110711Y-237342D01*
X110677Y-237340D01*
X110643Y-237332D01*
X110331Y-237313D01*
X109095Y-237313D01*
X106224Y-236124D01*
X104026Y-233927D01*
X102837Y-231056D01*
X102837Y-229569D01*
X102823Y-229405D01*
X102816Y-229240D01*
X102803Y-229181D01*
X102797Y-229120D01*
X102754Y-228961D01*
X102718Y-228801D01*
X102695Y-228744D01*
X102679Y-228686D01*
X102608Y-228538D01*
X102545Y-228385D01*
X102512Y-228334D01*
X102485Y-228279D01*
X102390Y-228146D01*
X102300Y-228007D01*
X102249Y-227949D01*
X102223Y-227913D01*
X102180Y-227870D01*
X102094Y-227773D01*
X75292Y-200971D01*
X74557Y-199197D01*
X74557Y-30824D01*
X74550Y-30742D01*
X74552Y-30660D01*
X74530Y-30518D01*
X74517Y-30376D01*
X74495Y-30296D01*
X74483Y-30215D01*
X74436Y-30079D01*
X74399Y-29941D01*
X74363Y-29867D01*
X74336Y-29789D01*
X74266Y-29664D01*
X74205Y-29535D01*
X74157Y-29468D01*
X74117Y-29396D01*
X74026Y-29285D01*
X73943Y-29168D01*
X73884Y-29111D01*
X73832Y-29047D01*
X73723Y-28954D01*
X73620Y-28854D01*
X73552Y-28808D01*
X73489Y-28755D01*
X73366Y-28682D01*
X73247Y-28602D01*
X73172Y-28569D01*
X73101Y-28527D01*
X72966Y-28478D01*
X72835Y-28420D01*
X72755Y-28401D01*
X72678Y-28372D01*
X72537Y-28347D01*
X72398Y-28313D01*
X72316Y-28308D01*
X72235Y-28294D01*
X72091Y-28295D01*
X71949Y-28286D01*
X71867Y-28295D01*
X71784Y-28296D01*
X71644Y-28321D01*
X71501Y-28338D01*
X71423Y-28362D01*
X71341Y-28376D01*
X71109Y-28457D01*
X71070Y-28468D01*
X71061Y-28473D01*
X71046Y-28478D01*
X70101Y-28870D01*
X66993Y-28870D01*
X64122Y-27680D01*
X63071Y-26629D01*
X62945Y-26523D01*
X62824Y-26412D01*
X62772Y-26379D01*
X62726Y-26340D01*
X62583Y-26258D01*
X62444Y-26170D01*
X62388Y-26147D01*
X62335Y-26117D01*
X62180Y-26061D01*
X62027Y-25999D01*
X61968Y-25986D01*
X61910Y-25966D01*
X61748Y-25939D01*
X61587Y-25904D01*
X61510Y-25900D01*
X61466Y-25892D01*
X61405Y-25893D01*
X61275Y-25885D01*
X51844Y-25885D01*
X51714Y-25897D01*
X51584Y-25898D01*
X51490Y-25916D01*
X51395Y-25925D01*
X51270Y-25959D01*
X51142Y-25984D01*
X51053Y-26018D01*
X50961Y-26043D01*
X50844Y-26099D01*
X50722Y-26146D01*
X50640Y-26196D01*
X50554Y-26237D01*
X50448Y-26312D01*
X50337Y-26380D01*
X50266Y-26443D01*
X50188Y-26499D01*
X50097Y-26592D01*
X50000Y-26678D01*
X49941Y-26753D01*
X49874Y-26822D01*
X49801Y-26929D01*
X49720Y-27031D01*
X49675Y-27116D01*
X49622Y-27195D01*
X49569Y-27314D01*
X49508Y-27428D01*
X49478Y-27519D01*
X49440Y-27607D01*
X49409Y-27733D01*
X49369Y-27856D01*
X49356Y-27951D01*
X49333Y-28044D01*
X49325Y-28174D01*
X49307Y-28303D01*
X49311Y-28398D01*
X49305Y-28493D01*
X49320Y-28622D01*
X49326Y-28752D01*
X49346Y-28846D01*
X49357Y-28941D01*
X49395Y-29065D01*
X49423Y-29192D01*
X49460Y-29280D01*
X49488Y-29372D01*
X49547Y-29488D01*
X49597Y-29607D01*
X49649Y-29688D01*
X49692Y-29773D01*
X49770Y-29876D01*
X49841Y-29986D01*
X49927Y-30083D01*
X49964Y-30132D01*
X49997Y-30162D01*
X50048Y-30220D01*
X51675Y-31847D01*
X52864Y-34718D01*
X52864Y-37825D01*
X51675Y-40696D01*
X49478Y-42893D01*
X46607Y-44083D01*
X43499Y-44083D01*
X40628Y-42893D01*
X39577Y-41842D01*
X39450Y-41736D01*
X39330Y-41625D01*
X39278Y-41592D01*
X39231Y-41553D01*
X39089Y-41471D01*
X38950Y-41383D01*
X38893Y-41360D01*
X38840Y-41330D01*
X38685Y-41275D01*
X38533Y-41212D01*
X38474Y-41199D01*
X38416Y-41179D01*
X38254Y-41152D01*
X38093Y-41117D01*
X38016Y-41113D01*
X37972Y-41105D01*
X37911Y-41106D01*
X37781Y-41098D01*
X10192Y-41098D01*
X10028Y-41113D01*
X9864Y-41119D01*
X9804Y-41133D01*
X9744Y-41138D01*
X9585Y-41181D01*
X9424Y-41217D01*
X9368Y-41240D01*
X9309Y-41257D01*
X9161Y-41327D01*
X9009Y-41391D01*
X8957Y-41424D01*
X8903Y-41450D01*
X8769Y-41546D01*
X8631Y-41635D01*
X8573Y-41686D01*
X8536Y-41712D01*
X8494Y-41756D01*
X8397Y-41842D01*
X5216Y-45023D01*
X5163Y-45086D01*
X5103Y-45143D01*
X5018Y-45259D01*
X4927Y-45368D01*
X4886Y-45440D01*
X4837Y-45506D01*
X4774Y-45635D01*
X4703Y-45759D01*
X4676Y-45837D01*
X4640Y-45911D01*
X4600Y-46048D01*
X4552Y-46183D01*
X4539Y-46265D01*
X4517Y-46344D01*
X4502Y-46486D01*
X4479Y-46628D01*
X4480Y-46710D01*
X4472Y-46792D01*
X4483Y-46935D01*
X4485Y-47078D01*
X4501Y-47159D01*
X4507Y-47241D01*
X4543Y-47379D01*
X4571Y-47520D01*
X4600Y-47597D01*
X4621Y-47676D01*
X4681Y-47806D01*
X4733Y-47940D01*
X4776Y-48010D01*
X4810Y-48085D01*
X4892Y-48202D01*
X4967Y-48325D01*
X5021Y-48386D01*
X5069Y-48454D01*
X5170Y-48555D01*
X5265Y-48662D01*
X5330Y-48713D01*
X5388Y-48771D01*
X5506Y-48853D01*
X5618Y-48941D01*
X5691Y-48980D01*
X5759Y-49027D01*
X5980Y-49135D01*
X6015Y-49154D01*
X6025Y-49157D01*
X6039Y-49164D01*
X6260Y-49256D01*
X8696Y-51692D01*
X8763Y-51778D01*
X8824Y-51833D01*
X8879Y-51896D01*
X8991Y-51984D01*
X9097Y-52080D01*
X9167Y-52124D01*
X9232Y-52175D01*
X9358Y-52242D01*
X9479Y-52318D01*
X9556Y-52349D01*
X9629Y-52388D01*
X9765Y-52432D01*
X9897Y-52485D01*
X9979Y-52501D01*
X10057Y-52527D01*
X10198Y-52546D01*
X10338Y-52575D01*
X10421Y-52577D01*
X10503Y-52588D01*
X10646Y-52583D01*
X10788Y-52586D01*
X10870Y-52573D01*
X10953Y-52570D01*
X11093Y-52539D01*
X11233Y-52517D01*
X11312Y-52490D01*
X11393Y-52472D01*
X11524Y-52417D01*
X11659Y-52371D01*
X11732Y-52331D01*
X11808Y-52299D01*
X11928Y-52221D01*
X12053Y-52152D01*
X12117Y-52099D01*
X12187Y-52054D01*
X12369Y-51893D01*
X12401Y-51867D01*
X12408Y-51858D01*
X12421Y-51847D01*
X14926Y-49342D01*
X17797Y-48153D01*
X20904Y-48153D01*
X23775Y-49342D01*
X25972Y-51540D01*
X27162Y-54411D01*
X27162Y-57518D01*
X25972Y-60389D01*
X24921Y-61441D01*
X24815Y-61567D01*
X24704Y-61688D01*
X24671Y-61739D01*
X24632Y-61786D01*
X24550Y-61929D01*
X24462Y-62068D01*
X24439Y-62124D01*
X24409Y-62177D01*
X24354Y-62332D01*
X24291Y-62484D01*
X24278Y-62544D01*
X24258Y-62601D01*
X24231Y-62764D01*
X24196Y-62924D01*
X24192Y-63001D01*
X24184Y-63046D01*
X24185Y-63107D01*
X24177Y-63236D01*
X24177Y-384310D01*
X24196Y-384522D01*
X24213Y-384733D01*
X24216Y-384745D01*
X24217Y-384759D01*
X24273Y-384964D01*
X24327Y-385168D01*
X24332Y-385180D01*
X24336Y-385193D01*
X24427Y-385384D01*
X24516Y-385577D01*
X24523Y-385588D01*
X24529Y-385600D01*
X24652Y-385771D01*
X24774Y-385946D01*
X24783Y-385955D01*
X24791Y-385966D01*
X24944Y-386114D01*
X25093Y-386263D01*
X25104Y-386270D01*
X25114Y-386280D01*
X25290Y-386399D01*
X25464Y-386519D01*
X25478Y-386526D01*
X25487Y-386532D01*
X25523Y-386548D01*
X25745Y-386656D01*
X25844Y-386697D01*
X28041Y-388894D01*
X29230Y-391765D01*
X29230Y-394873D01*
X28041Y-397744D01*
X25844Y-399941D01*
X22973Y-401130D01*
X19865Y-401130D01*
G37*
%LPD*%
G36*
X-298976Y-122167D02*
X-298976Y-122167D01*
X-298832Y-122165D01*
X-298751Y-122149D01*
X-298669Y-122143D01*
X-298531Y-122106D01*
X-298390Y-122079D01*
X-298313Y-122049D01*
X-298234Y-122029D01*
X-298104Y-121969D01*
X-297970Y-121917D01*
X-297900Y-121874D01*
X-297825Y-121840D01*
X-297708Y-121757D01*
X-297586Y-121683D01*
X-297524Y-121628D01*
X-297456Y-121581D01*
X-297355Y-121479D01*
X-297248Y-121385D01*
X-297197Y-121320D01*
X-297139Y-121262D01*
X-297057Y-121144D01*
X-296969Y-121032D01*
X-296930Y-120959D01*
X-296883Y-120891D01*
X-296775Y-120670D01*
X-296756Y-120635D01*
X-296753Y-120625D01*
X-296746Y-120611D01*
X-296711Y-120525D01*
X-293495Y-117309D01*
X-291894Y-116646D01*
X-291867Y-116632D01*
X-291838Y-116622D01*
X-291668Y-116528D01*
X-291495Y-116438D01*
X-291471Y-116419D01*
X-291444Y-116404D01*
X-291293Y-116282D01*
X-291139Y-116162D01*
X-291118Y-116139D01*
X-291095Y-116120D01*
X-290968Y-115972D01*
X-290837Y-115828D01*
X-290821Y-115802D01*
X-290801Y-115779D01*
X-290702Y-115611D01*
X-290599Y-115446D01*
X-290588Y-115417D01*
X-290573Y-115391D01*
X-290505Y-115209D01*
X-290433Y-115027D01*
X-290427Y-114997D01*
X-290416Y-114969D01*
X-290382Y-114778D01*
X-290343Y-114586D01*
X-290342Y-114556D01*
X-290336Y-114526D01*
X-290336Y-114331D01*
X-290332Y-114136D01*
X-290336Y-114106D01*
X-290336Y-114076D01*
X-290371Y-113884D01*
X-290401Y-113691D01*
X-290410Y-113662D01*
X-290416Y-113632D01*
X-290484Y-113449D01*
X-290547Y-113265D01*
X-290562Y-113239D01*
X-290572Y-113210D01*
X-290671Y-113042D01*
X-290766Y-112872D01*
X-290786Y-112848D01*
X-290801Y-112822D01*
X-290928Y-112674D01*
X-291052Y-112524D01*
X-291075Y-112504D01*
X-291094Y-112481D01*
X-291246Y-112358D01*
X-291394Y-112231D01*
X-291420Y-112216D01*
X-291444Y-112197D01*
X-291713Y-112038D01*
X-293011Y-111376D01*
X-294467Y-110319D01*
X-295739Y-109047D01*
X-296796Y-107591D01*
X-297613Y-105988D01*
X-298169Y-104277D01*
X-298191Y-104139D01*
X-279400Y-104139D01*
X-260609Y-104139D01*
X-260631Y-104277D01*
X-261187Y-105988D01*
X-262004Y-107591D01*
X-263061Y-109047D01*
X-264333Y-110319D01*
X-265789Y-111376D01*
X-267087Y-112038D01*
X-267113Y-112054D01*
X-267141Y-112066D01*
X-267304Y-112174D01*
X-267469Y-112277D01*
X-267491Y-112297D01*
X-267516Y-112314D01*
X-267658Y-112449D01*
X-267802Y-112580D01*
X-267820Y-112604D01*
X-267842Y-112625D01*
X-267958Y-112782D01*
X-268076Y-112937D01*
X-268090Y-112964D01*
X-268108Y-112988D01*
X-268194Y-113164D01*
X-268284Y-113336D01*
X-268293Y-113365D01*
X-268306Y-113393D01*
X-268359Y-113581D01*
X-268417Y-113767D01*
X-268421Y-113797D01*
X-268429Y-113826D01*
X-268448Y-114020D01*
X-268472Y-114213D01*
X-268470Y-114244D01*
X-268473Y-114274D01*
X-268458Y-114469D01*
X-268448Y-114663D01*
X-268441Y-114693D01*
X-268438Y-114723D01*
X-268389Y-114911D01*
X-268344Y-115101D01*
X-268332Y-115129D01*
X-268324Y-115158D01*
X-268242Y-115335D01*
X-268165Y-115514D01*
X-268148Y-115540D01*
X-268135Y-115567D01*
X-268023Y-115727D01*
X-267915Y-115889D01*
X-267894Y-115911D01*
X-267877Y-115936D01*
X-267738Y-116073D01*
X-267603Y-116214D01*
X-267579Y-116232D01*
X-267557Y-116253D01*
X-267397Y-116364D01*
X-267239Y-116479D01*
X-267212Y-116492D01*
X-267187Y-116509D01*
X-266906Y-116646D01*
X-265305Y-117309D01*
X-262089Y-120525D01*
X-262056Y-120606D01*
X-261958Y-120793D01*
X-261862Y-120983D01*
X-261854Y-120993D01*
X-261848Y-121005D01*
X-261717Y-121173D01*
X-261590Y-121341D01*
X-261580Y-121350D01*
X-261572Y-121361D01*
X-261414Y-121503D01*
X-261259Y-121647D01*
X-261247Y-121654D01*
X-261238Y-121662D01*
X-261058Y-121775D01*
X-260879Y-121888D01*
X-260867Y-121893D01*
X-260855Y-121900D01*
X-260659Y-121979D01*
X-260462Y-122059D01*
X-260449Y-122062D01*
X-260437Y-122067D01*
X-260230Y-122109D01*
X-260022Y-122154D01*
X-260006Y-122155D01*
X-259996Y-122157D01*
X-259956Y-122158D01*
X-259710Y-122173D01*
X-221387Y-122173D01*
X-221224Y-122159D01*
X-221059Y-122152D01*
X-221000Y-122139D01*
X-220939Y-122133D01*
X-220780Y-122090D01*
X-220619Y-122054D01*
X-220563Y-122031D01*
X-220504Y-122015D01*
X-220356Y-121944D01*
X-220204Y-121881D01*
X-220153Y-121848D01*
X-220098Y-121821D01*
X-219964Y-121726D01*
X-219826Y-121636D01*
X-219768Y-121585D01*
X-219732Y-121559D01*
X-219689Y-121516D01*
X-219592Y-121430D01*
X-99910Y-1748D01*
X-99857Y-1685D01*
X-99798Y-1628D01*
X-99713Y-1513D01*
X-99621Y-1403D01*
X-99580Y-1331D01*
X-99532Y-1265D01*
X-99469Y-1136D01*
X-99398Y-1012D01*
X-99370Y-934D01*
X-99334Y-860D01*
X-99295Y-722D01*
X-99247Y-587D01*
X-99234Y-506D01*
X-99211Y-427D01*
X-99197Y-285D01*
X-99174Y-143D01*
X-99175Y-61D01*
X-99167Y21D01*
X-99178Y164D01*
X-99180Y307D01*
X-99195Y388D01*
X-99202Y470D01*
X-99238Y608D01*
X-99265Y749D01*
X-99295Y826D01*
X-99316Y906D01*
X-99376Y1035D01*
X-99428Y1169D01*
X-99470Y1239D01*
X-99505Y1314D01*
X-99587Y1431D01*
X-99661Y1554D01*
X-99716Y1616D01*
X-99763Y1683D01*
X-99865Y1784D01*
X-99960Y1891D01*
X-100024Y1942D01*
X-100083Y2000D01*
X-100201Y2082D01*
X-100313Y2171D01*
X-100385Y2209D01*
X-100453Y2256D01*
X-100675Y2365D01*
X-100710Y2383D01*
X-100720Y2387D01*
X-100734Y2393D01*
X-101742Y2811D01*
X-103939Y5008D01*
X-105128Y7879D01*
X-105128Y10987D01*
X-103939Y13858D01*
X-102325Y15471D01*
X-102220Y15598D01*
X-102108Y15719D01*
X-102076Y15770D01*
X-102037Y15817D01*
X-101955Y15960D01*
X-101867Y16098D01*
X-101843Y16155D01*
X-101813Y16208D01*
X-101758Y16363D01*
X-101696Y16515D01*
X-101683Y16575D01*
X-101662Y16632D01*
X-101636Y16794D01*
X-101601Y16955D01*
X-101596Y17032D01*
X-101589Y17076D01*
X-101590Y17137D01*
X-101582Y17267D01*
X-101582Y111936D01*
X-101596Y112100D01*
X-101603Y112264D01*
X-101616Y112324D01*
X-101622Y112385D01*
X-101665Y112543D01*
X-101701Y112704D01*
X-101724Y112760D01*
X-101740Y112819D01*
X-101811Y112967D01*
X-101874Y113119D01*
X-101907Y113171D01*
X-101934Y113226D01*
X-102029Y113359D01*
X-102119Y113497D01*
X-102170Y113555D01*
X-102196Y113592D01*
X-102239Y113634D01*
X-102325Y113732D01*
X-103377Y114783D01*
X-104566Y117654D01*
X-104566Y118901D01*
X-104569Y118935D01*
X-104567Y118970D01*
X-104589Y119159D01*
X-104606Y119349D01*
X-104615Y119383D01*
X-104619Y119417D01*
X-104675Y119600D01*
X-104725Y119784D01*
X-104739Y119815D01*
X-104750Y119848D01*
X-104836Y120019D01*
X-104918Y120190D01*
X-104938Y120218D01*
X-104954Y120249D01*
X-105069Y120401D01*
X-105180Y120556D01*
X-105205Y120581D01*
X-105226Y120608D01*
X-105366Y120737D01*
X-105503Y120870D01*
X-105532Y120890D01*
X-105557Y120913D01*
X-105718Y121016D01*
X-105876Y121123D01*
X-105908Y121137D01*
X-105937Y121155D01*
X-106113Y121228D01*
X-106288Y121305D01*
X-106321Y121313D01*
X-106353Y121326D01*
X-106540Y121366D01*
X-106725Y121411D01*
X-106760Y121414D01*
X-106794Y121421D01*
X-107105Y121440D01*
X-131794Y121440D01*
X-131958Y121426D01*
X-132122Y121419D01*
X-132182Y121406D01*
X-132242Y121400D01*
X-132401Y121357D01*
X-132562Y121321D01*
X-132618Y121298D01*
X-132677Y121282D01*
X-132825Y121211D01*
X-132977Y121148D01*
X-133029Y121114D01*
X-133083Y121088D01*
X-133217Y120993D01*
X-133355Y120903D01*
X-133413Y120852D01*
X-133450Y120826D01*
X-133492Y120782D01*
X-133590Y120696D01*
X-256663Y-2377D01*
X-258378Y-4092D01*
X-260417Y-4936D01*
X-260568Y-4976D01*
X-260580Y-4982D01*
X-260593Y-4985D01*
X-260784Y-5076D01*
X-260977Y-5165D01*
X-260988Y-5173D01*
X-261000Y-5179D01*
X-261172Y-5302D01*
X-261346Y-5424D01*
X-261355Y-5433D01*
X-261366Y-5441D01*
X-261514Y-5593D01*
X-261663Y-5743D01*
X-261670Y-5754D01*
X-261680Y-5763D01*
X-261799Y-5940D01*
X-261919Y-6113D01*
X-261926Y-6128D01*
X-261932Y-6136D01*
X-261948Y-6173D01*
X-262056Y-6394D01*
X-262089Y-6475D01*
X-265305Y-9691D01*
X-266907Y-10354D01*
X-267022Y-10414D01*
X-267142Y-10466D01*
X-267221Y-10518D01*
X-267306Y-10563D01*
X-267409Y-10642D01*
X-267517Y-10714D01*
X-267586Y-10780D01*
X-267662Y-10838D01*
X-267749Y-10935D01*
X-267843Y-11024D01*
X-267900Y-11102D01*
X-267964Y-11172D01*
X-268032Y-11283D01*
X-268109Y-11388D01*
X-268151Y-11474D01*
X-268202Y-11555D01*
X-268250Y-11675D01*
X-268307Y-11792D01*
X-268333Y-11884D01*
X-268368Y-11973D01*
X-268394Y-12100D01*
X-268430Y-12226D01*
X-268439Y-12321D01*
X-268458Y-12414D01*
X-268461Y-12544D01*
X-268474Y-12674D01*
X-268467Y-12769D01*
X-268469Y-12864D01*
X-268449Y-12993D01*
X-268439Y-13123D01*
X-268415Y-13215D01*
X-268400Y-13309D01*
X-268358Y-13432D01*
X-268325Y-13558D01*
X-268285Y-13645D01*
X-268254Y-13735D01*
X-268191Y-13849D01*
X-268136Y-13967D01*
X-268081Y-14045D01*
X-268035Y-14128D01*
X-267952Y-14229D01*
X-267878Y-14336D01*
X-267810Y-14403D01*
X-267749Y-14477D01*
X-267650Y-14561D01*
X-267558Y-14653D01*
X-267480Y-14707D01*
X-267407Y-14769D01*
X-267295Y-14835D01*
X-267188Y-14909D01*
X-267071Y-14966D01*
X-267018Y-14997D01*
X-266976Y-15012D01*
X-266907Y-15046D01*
X-265305Y-15709D01*
X-262089Y-18925D01*
X-262056Y-19006D01*
X-261958Y-19193D01*
X-261862Y-19383D01*
X-261854Y-19393D01*
X-261848Y-19405D01*
X-261716Y-19574D01*
X-261590Y-19741D01*
X-261580Y-19750D01*
X-261572Y-19761D01*
X-261414Y-19903D01*
X-261259Y-20047D01*
X-261247Y-20054D01*
X-261238Y-20062D01*
X-261058Y-20175D01*
X-260879Y-20288D01*
X-260867Y-20293D01*
X-260855Y-20300D01*
X-260659Y-20379D01*
X-260462Y-20459D01*
X-260449Y-20462D01*
X-260437Y-20467D01*
X-260380Y-20479D01*
X-258378Y-21308D01*
X-253555Y-26131D01*
X-253428Y-26237D01*
X-253308Y-26348D01*
X-253256Y-26381D01*
X-253210Y-26420D01*
X-253067Y-26501D01*
X-252928Y-26590D01*
X-252871Y-26613D01*
X-252819Y-26643D01*
X-252664Y-26698D01*
X-252511Y-26761D01*
X-252452Y-26774D01*
X-252394Y-26794D01*
X-252232Y-26821D01*
X-252071Y-26855D01*
X-251994Y-26860D01*
X-251950Y-26868D01*
X-251889Y-26867D01*
X-251759Y-26875D01*
X-198451Y-26875D01*
X-198288Y-26860D01*
X-198123Y-26853D01*
X-198064Y-26840D01*
X-198003Y-26835D01*
X-197844Y-26791D01*
X-197684Y-26756D01*
X-197627Y-26732D01*
X-197568Y-26716D01*
X-197420Y-26646D01*
X-197268Y-26582D01*
X-197217Y-26549D01*
X-197162Y-26523D01*
X-197028Y-26427D01*
X-196890Y-26338D01*
X-196832Y-26287D01*
X-196796Y-26261D01*
X-196753Y-26217D01*
X-196656Y-26131D01*
X-195604Y-25079D01*
X-192733Y-23890D01*
X-189626Y-23890D01*
X-186755Y-25079D01*
X-184557Y-27277D01*
X-183368Y-30148D01*
X-183368Y-33255D01*
X-184557Y-36126D01*
X-186755Y-38323D01*
X-189626Y-39513D01*
X-191575Y-39513D01*
X-191657Y-39520D01*
X-191739Y-39518D01*
X-191880Y-39540D01*
X-192023Y-39553D01*
X-192103Y-39574D01*
X-192184Y-39587D01*
X-192319Y-39633D01*
X-192457Y-39671D01*
X-192532Y-39706D01*
X-192610Y-39733D01*
X-192735Y-39803D01*
X-192864Y-39864D01*
X-192931Y-39912D01*
X-193003Y-39953D01*
X-193114Y-40043D01*
X-193230Y-40127D01*
X-193288Y-40186D01*
X-193351Y-40238D01*
X-193444Y-40347D01*
X-193544Y-40449D01*
X-193590Y-40518D01*
X-193644Y-40580D01*
X-193716Y-40704D01*
X-193796Y-40822D01*
X-193830Y-40898D01*
X-193871Y-40969D01*
X-193921Y-41103D01*
X-193979Y-41234D01*
X-193998Y-41314D01*
X-194026Y-41391D01*
X-194051Y-41533D01*
X-194085Y-41672D01*
X-194090Y-41754D01*
X-194105Y-41835D01*
X-194104Y-41978D01*
X-194113Y-42121D01*
X-194103Y-42203D01*
X-194103Y-42285D01*
X-194077Y-42426D01*
X-194061Y-42568D01*
X-194037Y-42647D01*
X-194022Y-42728D01*
X-193942Y-42961D01*
X-193931Y-42999D01*
X-193926Y-43009D01*
X-193921Y-43024D01*
X-192785Y-45765D01*
X-192785Y-48872D01*
X-193974Y-51743D01*
X-196172Y-53940D01*
X-199043Y-55130D01*
X-202150Y-55130D01*
X-205021Y-53940D01*
X-206073Y-52889D01*
X-206199Y-52783D01*
X-206320Y-52672D01*
X-206371Y-52639D01*
X-206418Y-52600D01*
X-206561Y-52518D01*
X-206700Y-52430D01*
X-206756Y-52407D01*
X-206809Y-52377D01*
X-206964Y-52322D01*
X-207116Y-52259D01*
X-207176Y-52246D01*
X-207233Y-52226D01*
X-207396Y-52199D01*
X-207556Y-52164D01*
X-207633Y-52160D01*
X-207678Y-52152D01*
X-207739Y-52153D01*
X-207868Y-52145D01*
X-229179Y-52145D01*
X-229343Y-52160D01*
X-229507Y-52166D01*
X-229567Y-52180D01*
X-229628Y-52185D01*
X-229787Y-52228D01*
X-229947Y-52264D01*
X-230003Y-52288D01*
X-230062Y-52304D01*
X-230210Y-52374D01*
X-230362Y-52438D01*
X-230414Y-52471D01*
X-230469Y-52497D01*
X-230602Y-52593D01*
X-230741Y-52682D01*
X-230798Y-52733D01*
X-230835Y-52759D01*
X-230877Y-52803D01*
X-230975Y-52889D01*
X-258378Y-80292D01*
X-260417Y-81136D01*
X-260568Y-81176D01*
X-260580Y-81182D01*
X-260593Y-81185D01*
X-260784Y-81276D01*
X-260977Y-81365D01*
X-260988Y-81373D01*
X-261000Y-81379D01*
X-261172Y-81502D01*
X-261346Y-81624D01*
X-261355Y-81633D01*
X-261366Y-81641D01*
X-261514Y-81793D01*
X-261663Y-81943D01*
X-261670Y-81954D01*
X-261680Y-81963D01*
X-261799Y-82140D01*
X-261919Y-82313D01*
X-261926Y-82328D01*
X-261932Y-82336D01*
X-261948Y-82373D01*
X-262056Y-82594D01*
X-262089Y-82675D01*
X-265305Y-85891D01*
X-266906Y-86554D01*
X-266933Y-86568D01*
X-266962Y-86578D01*
X-267132Y-86672D01*
X-267305Y-86762D01*
X-267329Y-86781D01*
X-267356Y-86796D01*
X-267507Y-86918D01*
X-267661Y-87038D01*
X-267682Y-87061D01*
X-267705Y-87080D01*
X-267832Y-87228D01*
X-267963Y-87372D01*
X-267979Y-87398D01*
X-267999Y-87421D01*
X-268098Y-87589D01*
X-268201Y-87754D01*
X-268212Y-87783D01*
X-268227Y-87809D01*
X-268295Y-87991D01*
X-268367Y-88173D01*
X-268373Y-88203D01*
X-268384Y-88231D01*
X-268418Y-88422D01*
X-268457Y-88614D01*
X-268458Y-88644D01*
X-268464Y-88674D01*
X-268464Y-88869D01*
X-268468Y-89064D01*
X-268464Y-89094D01*
X-268464Y-89124D01*
X-268429Y-89316D01*
X-268399Y-89509D01*
X-268390Y-89538D01*
X-268384Y-89568D01*
X-268316Y-89751D01*
X-268253Y-89935D01*
X-268238Y-89961D01*
X-268228Y-89990D01*
X-268129Y-90158D01*
X-268034Y-90328D01*
X-268014Y-90352D01*
X-267999Y-90378D01*
X-267872Y-90526D01*
X-267748Y-90676D01*
X-267725Y-90696D01*
X-267706Y-90719D01*
X-267554Y-90842D01*
X-267406Y-90969D01*
X-267380Y-90984D01*
X-267356Y-91003D01*
X-267087Y-91162D01*
X-265789Y-91824D01*
X-264333Y-92881D01*
X-263061Y-94153D01*
X-262004Y-95609D01*
X-261187Y-97212D01*
X-260631Y-98923D01*
X-260609Y-99061D01*
X-279400Y-99061D01*
X-298191Y-99061D01*
X-298169Y-98923D01*
X-297613Y-97212D01*
X-296796Y-95609D01*
X-295739Y-94153D01*
X-294467Y-92881D01*
X-293011Y-91824D01*
X-291713Y-91162D01*
X-291687Y-91146D01*
X-291659Y-91134D01*
X-291496Y-91026D01*
X-291331Y-90923D01*
X-291309Y-90903D01*
X-291284Y-90886D01*
X-291142Y-90751D01*
X-290998Y-90620D01*
X-290980Y-90596D01*
X-290958Y-90575D01*
X-290842Y-90418D01*
X-290724Y-90263D01*
X-290710Y-90236D01*
X-290692Y-90212D01*
X-290606Y-90037D01*
X-290516Y-89864D01*
X-290507Y-89835D01*
X-290494Y-89807D01*
X-290441Y-89619D01*
X-290383Y-89433D01*
X-290379Y-89403D01*
X-290371Y-89374D01*
X-290352Y-89180D01*
X-290328Y-88987D01*
X-290330Y-88956D01*
X-290327Y-88926D01*
X-290342Y-88731D01*
X-290352Y-88537D01*
X-290359Y-88507D01*
X-290362Y-88477D01*
X-290411Y-88289D01*
X-290456Y-88099D01*
X-290468Y-88071D01*
X-290476Y-88042D01*
X-290558Y-87865D01*
X-290635Y-87686D01*
X-290652Y-87660D01*
X-290665Y-87633D01*
X-290777Y-87473D01*
X-290885Y-87311D01*
X-290906Y-87289D01*
X-290923Y-87264D01*
X-291062Y-87127D01*
X-291197Y-86986D01*
X-291221Y-86968D01*
X-291243Y-86947D01*
X-291403Y-86836D01*
X-291561Y-86721D01*
X-291588Y-86708D01*
X-291613Y-86691D01*
X-291894Y-86554D01*
X-293495Y-85891D01*
X-296710Y-82675D01*
X-298451Y-78474D01*
X-298451Y-73926D01*
X-296710Y-69725D01*
X-293495Y-66509D01*
X-291893Y-65846D01*
X-291778Y-65786D01*
X-291658Y-65734D01*
X-291579Y-65682D01*
X-291494Y-65637D01*
X-291391Y-65558D01*
X-291283Y-65486D01*
X-291214Y-65420D01*
X-291138Y-65362D01*
X-291051Y-65265D01*
X-290957Y-65176D01*
X-290900Y-65098D01*
X-290836Y-65027D01*
X-290768Y-64917D01*
X-290691Y-64812D01*
X-290649Y-64726D01*
X-290598Y-64645D01*
X-290550Y-64524D01*
X-290493Y-64408D01*
X-290467Y-64316D01*
X-290432Y-64227D01*
X-290406Y-64099D01*
X-290370Y-63974D01*
X-290361Y-63879D01*
X-290342Y-63786D01*
X-290339Y-63656D01*
X-290326Y-63526D01*
X-290333Y-63431D01*
X-290331Y-63336D01*
X-290351Y-63207D01*
X-290361Y-63078D01*
X-290385Y-62985D01*
X-290400Y-62891D01*
X-290442Y-62768D01*
X-290475Y-62642D01*
X-290515Y-62555D01*
X-290546Y-62465D01*
X-290609Y-62351D01*
X-290664Y-62233D01*
X-290719Y-62155D01*
X-290765Y-62072D01*
X-290848Y-61971D01*
X-290922Y-61865D01*
X-290990Y-61797D01*
X-291051Y-61723D01*
X-291149Y-61639D01*
X-291242Y-61547D01*
X-291321Y-61493D01*
X-291393Y-61431D01*
X-291505Y-61365D01*
X-291612Y-61291D01*
X-291729Y-61234D01*
X-291782Y-61203D01*
X-291824Y-61188D01*
X-291893Y-61154D01*
X-293495Y-60490D01*
X-296710Y-57275D01*
X-298451Y-53074D01*
X-298451Y-48526D01*
X-296710Y-44325D01*
X-293495Y-41109D01*
X-291893Y-40446D01*
X-291778Y-40386D01*
X-291658Y-40334D01*
X-291579Y-40282D01*
X-291494Y-40237D01*
X-291391Y-40158D01*
X-291283Y-40086D01*
X-291214Y-40020D01*
X-291138Y-39962D01*
X-291051Y-39865D01*
X-290957Y-39776D01*
X-290900Y-39698D01*
X-290836Y-39627D01*
X-290768Y-39517D01*
X-290691Y-39412D01*
X-290649Y-39326D01*
X-290598Y-39245D01*
X-290550Y-39124D01*
X-290493Y-39008D01*
X-290467Y-38916D01*
X-290432Y-38827D01*
X-290406Y-38699D01*
X-290370Y-38574D01*
X-290361Y-38479D01*
X-290342Y-38386D01*
X-290339Y-38256D01*
X-290326Y-38126D01*
X-290333Y-38031D01*
X-290331Y-37936D01*
X-290351Y-37807D01*
X-290361Y-37678D01*
X-290385Y-37585D01*
X-290400Y-37491D01*
X-290442Y-37368D01*
X-290475Y-37242D01*
X-290515Y-37155D01*
X-290546Y-37065D01*
X-290609Y-36951D01*
X-290664Y-36833D01*
X-290719Y-36755D01*
X-290765Y-36672D01*
X-290848Y-36571D01*
X-290922Y-36465D01*
X-290990Y-36397D01*
X-291051Y-36323D01*
X-291149Y-36239D01*
X-291242Y-36147D01*
X-291321Y-36093D01*
X-291393Y-36031D01*
X-291505Y-35965D01*
X-291612Y-35891D01*
X-291729Y-35834D01*
X-291782Y-35803D01*
X-291824Y-35788D01*
X-291893Y-35754D01*
X-293495Y-35090D01*
X-296710Y-31875D01*
X-298451Y-27674D01*
X-298451Y-23126D01*
X-296710Y-18925D01*
X-293495Y-15709D01*
X-291893Y-15046D01*
X-291778Y-14986D01*
X-291658Y-14934D01*
X-291579Y-14882D01*
X-291494Y-14837D01*
X-291391Y-14758D01*
X-291283Y-14686D01*
X-291214Y-14620D01*
X-291138Y-14562D01*
X-291051Y-14465D01*
X-290957Y-14375D01*
X-290900Y-14298D01*
X-290836Y-14227D01*
X-290768Y-14117D01*
X-290691Y-14012D01*
X-290649Y-13926D01*
X-290598Y-13845D01*
X-290550Y-13724D01*
X-290493Y-13608D01*
X-290467Y-13516D01*
X-290432Y-13427D01*
X-290406Y-13299D01*
X-290370Y-13174D01*
X-290361Y-13079D01*
X-290342Y-12986D01*
X-290339Y-12856D01*
X-290326Y-12726D01*
X-290333Y-12631D01*
X-290331Y-12536D01*
X-290351Y-12407D01*
X-290361Y-12277D01*
X-290385Y-12185D01*
X-290400Y-12091D01*
X-290442Y-11968D01*
X-290475Y-11842D01*
X-290515Y-11755D01*
X-290546Y-11665D01*
X-290609Y-11551D01*
X-290664Y-11433D01*
X-290719Y-11355D01*
X-290765Y-11272D01*
X-290848Y-11171D01*
X-290922Y-11064D01*
X-290990Y-10997D01*
X-291051Y-10923D01*
X-291150Y-10839D01*
X-291242Y-10747D01*
X-291320Y-10693D01*
X-291393Y-10631D01*
X-291505Y-10565D01*
X-291612Y-10491D01*
X-291729Y-10434D01*
X-291782Y-10403D01*
X-291824Y-10388D01*
X-291893Y-10354D01*
X-293495Y-9691D01*
X-296710Y-6475D01*
X-298451Y-2274D01*
X-298451Y2274D01*
X-296710Y6475D01*
X-293495Y9690D01*
X-289294Y11431D01*
X-269506Y11431D01*
X-265305Y9690D01*
X-263572Y7957D01*
X-263545Y7935D01*
X-263522Y7909D01*
X-263373Y7791D01*
X-263226Y7668D01*
X-263196Y7651D01*
X-263169Y7630D01*
X-263001Y7540D01*
X-262835Y7445D01*
X-262803Y7433D01*
X-262772Y7417D01*
X-262591Y7358D01*
X-262411Y7294D01*
X-262377Y7288D01*
X-262344Y7278D01*
X-262155Y7252D01*
X-261967Y7221D01*
X-261932Y7221D01*
X-261898Y7216D01*
X-261707Y7224D01*
X-261517Y7227D01*
X-261483Y7233D01*
X-261448Y7235D01*
X-261262Y7276D01*
X-261075Y7312D01*
X-261042Y7325D01*
X-261009Y7332D01*
X-260832Y7406D01*
X-260655Y7475D01*
X-260625Y7493D01*
X-260593Y7506D01*
X-260433Y7610D01*
X-260270Y7709D01*
X-260244Y7731D01*
X-260215Y7750D01*
X-259981Y7957D01*
X-146752Y121186D01*
X-146669Y121285D01*
X-146578Y121378D01*
X-146525Y121458D01*
X-146463Y121531D01*
X-146399Y121644D01*
X-146326Y121752D01*
X-146287Y121839D01*
X-146240Y121922D01*
X-146197Y122044D01*
X-146144Y122163D01*
X-146121Y122256D01*
X-146089Y122346D01*
X-146068Y122475D01*
X-146037Y122601D01*
X-146031Y122696D01*
X-146016Y122790D01*
X-146018Y122921D01*
X-146010Y123050D01*
X-146021Y123145D01*
X-146022Y123241D01*
X-146047Y123368D01*
X-146062Y123497D01*
X-146089Y123589D01*
X-146107Y123683D01*
X-146154Y123804D01*
X-146192Y123928D01*
X-146235Y124014D01*
X-146270Y124103D01*
X-146337Y124214D01*
X-146396Y124330D01*
X-146454Y124406D01*
X-146504Y124487D01*
X-146590Y124585D01*
X-146668Y124688D01*
X-146739Y124753D01*
X-146802Y124825D01*
X-146904Y124905D01*
X-146999Y124994D01*
X-147080Y125045D01*
X-147155Y125104D01*
X-147269Y125166D01*
X-147379Y125235D01*
X-147468Y125272D01*
X-147552Y125317D01*
X-147675Y125357D01*
X-147796Y125406D01*
X-147889Y125427D01*
X-147980Y125456D01*
X-148109Y125474D01*
X-148236Y125501D01*
X-148366Y125509D01*
X-148426Y125517D01*
X-148471Y125516D01*
X-148548Y125520D01*
X-212248Y125520D01*
X-212282Y125517D01*
X-212317Y125519D01*
X-212506Y125497D01*
X-212696Y125480D01*
X-212729Y125471D01*
X-212764Y125467D01*
X-212947Y125412D01*
X-213130Y125362D01*
X-213162Y125347D01*
X-213195Y125337D01*
X-213365Y125250D01*
X-213537Y125169D01*
X-213565Y125148D01*
X-213596Y125133D01*
X-213748Y125017D01*
X-213903Y124906D01*
X-213927Y124882D01*
X-213955Y124861D01*
X-214084Y124721D01*
X-214217Y124584D01*
X-214237Y124555D01*
X-214260Y124530D01*
X-214363Y124369D01*
X-214469Y124211D01*
X-214483Y124179D01*
X-214502Y124150D01*
X-214574Y123973D01*
X-214651Y123799D01*
X-214660Y123765D01*
X-214673Y123733D01*
X-214713Y123547D01*
X-214758Y123361D01*
X-214760Y123327D01*
X-214768Y123293D01*
X-214787Y122981D01*
X-214787Y114191D01*
X-215522Y112417D01*
X-217237Y110702D01*
X-350444Y-22505D01*
X-350549Y-22631D01*
X-350661Y-22752D01*
X-350693Y-22804D01*
X-350733Y-22850D01*
X-350814Y-22993D01*
X-350902Y-23132D01*
X-350926Y-23188D01*
X-350956Y-23241D01*
X-351011Y-23396D01*
X-351073Y-23548D01*
X-351086Y-23608D01*
X-351107Y-23666D01*
X-351134Y-23828D01*
X-351168Y-23989D01*
X-351173Y-24066D01*
X-351180Y-24110D01*
X-351179Y-24171D01*
X-351187Y-24301D01*
X-351187Y-25788D01*
X-352377Y-28659D01*
X-354574Y-30856D01*
X-357445Y-32045D01*
X-360552Y-32045D01*
X-363423Y-30856D01*
X-363612Y-30667D01*
X-363638Y-30645D01*
X-363661Y-30619D01*
X-363811Y-30500D01*
X-363957Y-30378D01*
X-363987Y-30361D01*
X-364015Y-30340D01*
X-364183Y-30250D01*
X-364348Y-30155D01*
X-364381Y-30143D01*
X-364411Y-30127D01*
X-364593Y-30068D01*
X-364772Y-30004D01*
X-364807Y-29999D01*
X-364840Y-29988D01*
X-365029Y-29962D01*
X-365217Y-29931D01*
X-365251Y-29931D01*
X-365286Y-29927D01*
X-365477Y-29934D01*
X-365667Y-29937D01*
X-365701Y-29943D01*
X-365736Y-29945D01*
X-365922Y-29986D01*
X-366109Y-30022D01*
X-366141Y-30035D01*
X-366175Y-30042D01*
X-366351Y-30116D01*
X-366529Y-30185D01*
X-366559Y-30203D01*
X-366591Y-30216D01*
X-366750Y-30319D01*
X-366914Y-30419D01*
X-366940Y-30442D01*
X-366969Y-30460D01*
X-367203Y-30667D01*
X-369518Y-32983D01*
X-369624Y-33109D01*
X-369735Y-33230D01*
X-369768Y-33281D01*
X-369807Y-33328D01*
X-369889Y-33471D01*
X-369977Y-33609D01*
X-370000Y-33666D01*
X-370030Y-33719D01*
X-370085Y-33874D01*
X-370148Y-34026D01*
X-370161Y-34086D01*
X-370181Y-34143D01*
X-370208Y-34305D01*
X-370243Y-34466D01*
X-370247Y-34543D01*
X-370255Y-34587D01*
X-370254Y-34648D01*
X-370262Y-34778D01*
X-370262Y-36265D01*
X-371451Y-39136D01*
X-372503Y-40188D01*
X-372608Y-40314D01*
X-372720Y-40435D01*
X-372752Y-40486D01*
X-372792Y-40533D01*
X-372873Y-40676D01*
X-372961Y-40815D01*
X-372985Y-40871D01*
X-373015Y-40924D01*
X-373070Y-41079D01*
X-373132Y-41231D01*
X-373145Y-41291D01*
X-373166Y-41348D01*
X-373193Y-41511D01*
X-373227Y-41671D01*
X-373232Y-41748D01*
X-373239Y-41793D01*
X-373238Y-41854D01*
X-373246Y-41983D01*
X-373246Y-48024D01*
X-373232Y-48187D01*
X-373225Y-48352D01*
X-373212Y-48411D01*
X-373206Y-48472D01*
X-373163Y-48631D01*
X-373128Y-48791D01*
X-373104Y-48848D01*
X-373088Y-48906D01*
X-373017Y-49055D01*
X-372954Y-49207D01*
X-372921Y-49258D01*
X-372895Y-49313D01*
X-372799Y-49447D01*
X-372710Y-49585D01*
X-372659Y-49643D01*
X-372632Y-49679D01*
X-372589Y-49722D01*
X-372503Y-49819D01*
X-300887Y-121434D01*
X-300824Y-121487D01*
X-300767Y-121547D01*
X-300652Y-121631D01*
X-300542Y-121723D01*
X-300470Y-121764D01*
X-300404Y-121813D01*
X-300275Y-121876D01*
X-300151Y-121947D01*
X-300074Y-121974D01*
X-299999Y-122010D01*
X-299862Y-122049D01*
X-299727Y-122097D01*
X-299645Y-122111D01*
X-299566Y-122133D01*
X-299424Y-122148D01*
X-299283Y-122171D01*
X-299200Y-122170D01*
X-299118Y-122178D01*
X-298976Y-122167D01*
G37*
G36*
X-9774Y100631D02*
X-9774Y100631D01*
X-9679Y100632D01*
X-9551Y100657D01*
X-9422Y100672D01*
X-9330Y100699D01*
X-9237Y100718D01*
X-9116Y100764D01*
X-8991Y100802D01*
X-8906Y100845D01*
X-8817Y100880D01*
X-8706Y100947D01*
X-8590Y101006D01*
X-8514Y101064D01*
X-8432Y101114D01*
X-8335Y101200D01*
X-8231Y101278D01*
X-8166Y101349D01*
X-8095Y101412D01*
X-8014Y101514D01*
X-7926Y101610D01*
X-7874Y101690D01*
X-7815Y101765D01*
X-7754Y101880D01*
X-7684Y101989D01*
X-7648Y102078D01*
X-7603Y102162D01*
X-7562Y102286D01*
X-7513Y102406D01*
X-7493Y102499D01*
X-7463Y102590D01*
X-7446Y102719D01*
X-7418Y102846D01*
X-7410Y102976D01*
X-7402Y103036D01*
X-7404Y103081D01*
X-7399Y103158D01*
X-7399Y234790D01*
X-6664Y236564D01*
X40338Y283567D01*
X40444Y283693D01*
X40555Y283814D01*
X40588Y283865D01*
X40627Y283912D01*
X40709Y284055D01*
X40797Y284193D01*
X40820Y284250D01*
X40850Y284303D01*
X40905Y284458D01*
X40968Y284610D01*
X40981Y284670D01*
X41001Y284727D01*
X41028Y284890D01*
X41063Y285050D01*
X41067Y285127D01*
X41075Y285171D01*
X41074Y285232D01*
X41082Y285362D01*
X41082Y311458D01*
X41067Y311621D01*
X41061Y311786D01*
X41047Y311845D01*
X41042Y311906D01*
X40999Y312065D01*
X40963Y312225D01*
X40939Y312282D01*
X40923Y312341D01*
X40853Y312489D01*
X40789Y312641D01*
X40756Y312692D01*
X40730Y312747D01*
X40634Y312881D01*
X40545Y313019D01*
X40494Y313077D01*
X40468Y313113D01*
X40424Y313156D01*
X40338Y313253D01*
X15444Y338147D01*
X15318Y338253D01*
X15197Y338364D01*
X15146Y338397D01*
X15099Y338436D01*
X14956Y338517D01*
X14817Y338606D01*
X14761Y338629D01*
X14708Y338659D01*
X14553Y338714D01*
X14401Y338777D01*
X14341Y338790D01*
X14284Y338810D01*
X14121Y338837D01*
X13961Y338872D01*
X13884Y338876D01*
X13840Y338884D01*
X13778Y338883D01*
X13649Y338891D01*
X12162Y338891D01*
X9291Y340080D01*
X7093Y342277D01*
X5904Y345148D01*
X5904Y348256D01*
X7093Y351127D01*
X7987Y352020D01*
X8009Y352047D01*
X8035Y352070D01*
X8153Y352219D01*
X8276Y352365D01*
X8293Y352396D01*
X8314Y352423D01*
X8404Y352591D01*
X8499Y352756D01*
X8511Y352789D01*
X8527Y352820D01*
X8586Y353001D01*
X8650Y353181D01*
X8656Y353215D01*
X8666Y353248D01*
X8692Y353437D01*
X8723Y353625D01*
X8723Y353659D01*
X8728Y353694D01*
X8720Y353885D01*
X8717Y354075D01*
X8711Y354109D01*
X8709Y354144D01*
X8668Y354330D01*
X8632Y354517D01*
X8619Y354550D01*
X8612Y354583D01*
X8538Y354759D01*
X8469Y354937D01*
X8451Y354967D01*
X8438Y354999D01*
X8335Y355159D01*
X8235Y355322D01*
X8213Y355348D01*
X8194Y355377D01*
X7987Y355611D01*
X-8316Y371914D01*
X-8343Y371936D01*
X-8366Y371962D01*
X-8515Y372081D01*
X-8662Y372203D01*
X-8692Y372220D01*
X-8719Y372242D01*
X-8887Y372332D01*
X-9052Y372426D01*
X-9085Y372438D01*
X-9116Y372454D01*
X-9297Y372513D01*
X-9477Y372577D01*
X-9511Y372583D01*
X-9544Y372594D01*
X-9733Y372620D01*
X-9921Y372651D01*
X-9955Y372650D01*
X-9990Y372655D01*
X-10181Y372647D01*
X-10371Y372645D01*
X-10405Y372638D01*
X-10440Y372637D01*
X-10626Y372595D01*
X-10813Y372559D01*
X-10846Y372547D01*
X-10879Y372539D01*
X-11055Y372466D01*
X-11233Y372397D01*
X-11263Y372379D01*
X-11295Y372365D01*
X-11455Y372262D01*
X-11618Y372163D01*
X-11644Y372140D01*
X-11673Y372121D01*
X-11907Y371914D01*
X-12846Y370975D01*
X-15717Y369786D01*
X-18825Y369786D01*
X-21696Y370975D01*
X-22747Y372027D01*
X-22873Y372132D01*
X-22994Y372244D01*
X-23046Y372277D01*
X-23092Y372316D01*
X-23235Y372397D01*
X-23374Y372486D01*
X-23430Y372509D01*
X-23483Y372539D01*
X-23638Y372594D01*
X-23791Y372657D01*
X-23850Y372669D01*
X-23908Y372690D01*
X-24070Y372717D01*
X-24231Y372751D01*
X-24308Y372756D01*
X-24352Y372763D01*
X-24413Y372763D01*
X-24543Y372771D01*
X-35050Y372771D01*
X-35214Y372756D01*
X-35379Y372749D01*
X-35438Y372736D01*
X-35499Y372731D01*
X-35658Y372687D01*
X-35818Y372652D01*
X-35874Y372628D01*
X-35933Y372612D01*
X-36081Y372542D01*
X-36234Y372478D01*
X-36285Y372445D01*
X-36340Y372419D01*
X-36473Y372323D01*
X-36612Y372234D01*
X-36670Y372183D01*
X-36706Y372157D01*
X-36748Y372113D01*
X-36846Y372027D01*
X-114821Y294052D01*
X-114843Y294026D01*
X-114869Y294003D01*
X-114987Y293853D01*
X-115110Y293707D01*
X-115127Y293677D01*
X-115148Y293650D01*
X-115238Y293481D01*
X-115333Y293316D01*
X-115344Y293283D01*
X-115361Y293253D01*
X-115420Y293071D01*
X-115484Y292892D01*
X-115489Y292857D01*
X-115500Y292824D01*
X-115526Y292636D01*
X-115557Y292447D01*
X-115557Y292413D01*
X-115561Y292378D01*
X-115554Y292188D01*
X-115551Y291997D01*
X-115544Y291963D01*
X-115543Y291929D01*
X-115502Y291742D01*
X-115465Y291555D01*
X-115453Y291523D01*
X-115445Y291489D01*
X-115372Y291313D01*
X-115303Y291135D01*
X-115285Y291105D01*
X-115272Y291074D01*
X-115168Y290913D01*
X-115069Y290750D01*
X-115046Y290724D01*
X-115028Y290695D01*
X-114821Y290461D01*
X-113944Y289585D01*
X-112755Y286714D01*
X-112755Y283606D01*
X-113944Y280735D01*
X-116141Y278538D01*
X-119012Y277349D01*
X-120499Y277349D01*
X-120663Y277334D01*
X-120828Y277327D01*
X-120887Y277314D01*
X-120948Y277309D01*
X-121107Y277265D01*
X-121267Y277230D01*
X-121323Y277206D01*
X-121382Y277190D01*
X-121530Y277120D01*
X-121683Y277056D01*
X-121734Y277023D01*
X-121789Y276997D01*
X-121922Y276901D01*
X-122061Y276812D01*
X-122119Y276761D01*
X-122155Y276735D01*
X-122197Y276691D01*
X-122295Y276605D01*
X-214043Y184857D01*
X-214149Y184730D01*
X-214260Y184610D01*
X-214293Y184558D01*
X-214332Y184511D01*
X-214413Y184369D01*
X-214502Y184230D01*
X-214525Y184173D01*
X-214555Y184120D01*
X-214610Y183966D01*
X-214673Y183813D01*
X-214686Y183754D01*
X-214706Y183696D01*
X-214733Y183534D01*
X-214768Y183373D01*
X-214772Y183296D01*
X-214780Y183252D01*
X-214779Y183191D01*
X-214787Y183061D01*
X-214787Y159763D01*
X-214786Y159752D01*
X-214786Y159751D01*
X-214786Y159749D01*
X-214784Y159728D01*
X-214786Y159694D01*
X-214764Y159504D01*
X-214747Y159314D01*
X-214738Y159281D01*
X-214734Y159246D01*
X-214678Y159064D01*
X-214628Y158880D01*
X-214614Y158849D01*
X-214603Y158815D01*
X-214517Y158645D01*
X-214435Y158473D01*
X-214415Y158445D01*
X-214399Y158414D01*
X-214284Y158262D01*
X-214173Y158107D01*
X-214148Y158083D01*
X-214127Y158055D01*
X-213987Y157926D01*
X-213850Y157793D01*
X-213821Y157774D01*
X-213796Y157750D01*
X-213635Y157648D01*
X-213477Y157541D01*
X-213445Y157527D01*
X-213416Y157508D01*
X-213240Y157436D01*
X-213065Y157359D01*
X-213032Y157351D01*
X-213000Y157337D01*
X-212813Y157297D01*
X-212628Y157252D01*
X-212593Y157250D01*
X-212559Y157243D01*
X-212248Y157224D01*
X-210977Y157224D01*
X-208106Y156034D01*
X-207055Y154983D01*
X-206928Y154877D01*
X-206807Y154766D01*
X-206756Y154733D01*
X-206709Y154694D01*
X-206566Y154612D01*
X-206428Y154524D01*
X-206371Y154501D01*
X-206318Y154471D01*
X-206163Y154415D01*
X-206011Y154353D01*
X-205951Y154340D01*
X-205894Y154320D01*
X-205732Y154293D01*
X-205571Y154258D01*
X-205494Y154254D01*
X-205450Y154246D01*
X-205389Y154247D01*
X-205259Y154239D01*
X-63710Y154239D01*
X-61936Y153504D01*
X-51371Y142939D01*
X-50620Y141127D01*
X-50615Y140988D01*
X-50601Y140929D01*
X-50596Y140868D01*
X-50553Y140709D01*
X-50517Y140549D01*
X-50493Y140492D01*
X-50477Y140433D01*
X-50407Y140285D01*
X-50343Y140133D01*
X-50310Y140082D01*
X-50284Y140027D01*
X-50188Y139893D01*
X-50099Y139755D01*
X-50048Y139697D01*
X-50022Y139661D01*
X-49978Y139618D01*
X-49892Y139521D01*
X-11734Y101362D01*
X-11634Y101279D01*
X-11541Y101188D01*
X-11462Y101135D01*
X-11388Y101074D01*
X-11276Y101009D01*
X-11168Y100936D01*
X-11080Y100898D01*
X-10997Y100850D01*
X-10875Y100807D01*
X-10756Y100754D01*
X-10663Y100731D01*
X-10573Y100699D01*
X-10445Y100678D01*
X-10319Y100647D01*
X-10223Y100641D01*
X-10129Y100626D01*
X-9999Y100628D01*
X-9869Y100620D01*
X-9774Y100631D01*
G37*
G36*
X-76834Y-305851D02*
X-76834Y-305851D01*
X-76799Y-305853D01*
X-76610Y-305831D01*
X-76420Y-305814D01*
X-76386Y-305805D01*
X-76352Y-305801D01*
X-76169Y-305746D01*
X-75985Y-305696D01*
X-75954Y-305681D01*
X-75921Y-305671D01*
X-75750Y-305584D01*
X-75579Y-305502D01*
X-75550Y-305482D01*
X-75520Y-305467D01*
X-75368Y-305351D01*
X-75212Y-305240D01*
X-75188Y-305215D01*
X-75161Y-305195D01*
X-75032Y-305055D01*
X-74898Y-304918D01*
X-74879Y-304889D01*
X-74856Y-304863D01*
X-74753Y-304702D01*
X-74646Y-304545D01*
X-74632Y-304513D01*
X-74614Y-304484D01*
X-74541Y-304307D01*
X-74464Y-304133D01*
X-74456Y-304099D01*
X-74443Y-304067D01*
X-74403Y-303880D01*
X-74357Y-303695D01*
X-74355Y-303661D01*
X-74348Y-303627D01*
X-74329Y-303315D01*
X-74329Y-302060D01*
X-73140Y-299189D01*
X-70942Y-296992D01*
X-68071Y-295803D01*
X-66584Y-295803D01*
X-66421Y-295788D01*
X-66256Y-295782D01*
X-66197Y-295768D01*
X-66136Y-295763D01*
X-65977Y-295720D01*
X-65816Y-295684D01*
X-65760Y-295660D01*
X-65701Y-295644D01*
X-65553Y-295574D01*
X-65401Y-295510D01*
X-65350Y-295477D01*
X-65295Y-295451D01*
X-65161Y-295355D01*
X-65023Y-295266D01*
X-64965Y-295215D01*
X-64929Y-295189D01*
X-64886Y-295145D01*
X-64789Y-295059D01*
X-10602Y-240872D01*
X-10496Y-240746D01*
X-10385Y-240625D01*
X-10352Y-240574D01*
X-10313Y-240527D01*
X-10231Y-240384D01*
X-10143Y-240245D01*
X-10120Y-240189D01*
X-10090Y-240136D01*
X-10035Y-239981D01*
X-9972Y-239829D01*
X-9959Y-239769D01*
X-9939Y-239712D01*
X-9912Y-239549D01*
X-9877Y-239389D01*
X-9873Y-239312D01*
X-9865Y-239268D01*
X-9866Y-239206D01*
X-9858Y-239077D01*
X-9858Y-71974D01*
X-9870Y-71845D01*
X-9871Y-71715D01*
X-9890Y-71621D01*
X-9898Y-71526D01*
X-9932Y-71401D01*
X-9957Y-71273D01*
X-9991Y-71184D01*
X-10017Y-71092D01*
X-10072Y-70974D01*
X-10119Y-70853D01*
X-10169Y-70771D01*
X-10210Y-70685D01*
X-10286Y-70579D01*
X-10353Y-70468D01*
X-10416Y-70397D01*
X-10472Y-70319D01*
X-10565Y-70228D01*
X-10651Y-70131D01*
X-10726Y-70072D01*
X-10795Y-70005D01*
X-10903Y-69932D01*
X-11004Y-69851D01*
X-11089Y-69806D01*
X-11168Y-69753D01*
X-11287Y-69700D01*
X-11401Y-69639D01*
X-11492Y-69609D01*
X-11580Y-69570D01*
X-11706Y-69540D01*
X-11830Y-69500D01*
X-11924Y-69486D01*
X-12017Y-69464D01*
X-12147Y-69456D01*
X-12276Y-69438D01*
X-12371Y-69442D01*
X-12466Y-69436D01*
X-12596Y-69451D01*
X-12726Y-69456D01*
X-12819Y-69477D01*
X-12914Y-69488D01*
X-13038Y-69526D01*
X-13165Y-69554D01*
X-13253Y-69591D01*
X-13345Y-69619D01*
X-13460Y-69677D01*
X-13581Y-69728D01*
X-13661Y-69780D01*
X-13746Y-69823D01*
X-13849Y-69901D01*
X-13959Y-69972D01*
X-14056Y-70058D01*
X-14105Y-70095D01*
X-14135Y-70128D01*
X-14193Y-70179D01*
X-63965Y-119951D01*
X-64071Y-120077D01*
X-64182Y-120198D01*
X-64215Y-120250D01*
X-64254Y-120296D01*
X-64335Y-120439D01*
X-64424Y-120578D01*
X-64447Y-120634D01*
X-64477Y-120687D01*
X-64532Y-120842D01*
X-64595Y-120994D01*
X-64608Y-121054D01*
X-64628Y-121112D01*
X-64655Y-121274D01*
X-64689Y-121435D01*
X-64694Y-121512D01*
X-64702Y-121556D01*
X-64701Y-121617D01*
X-64709Y-121747D01*
X-64709Y-256835D01*
X-65443Y-258609D01*
X-100657Y-293822D01*
X-100762Y-293949D01*
X-100874Y-294069D01*
X-100906Y-294121D01*
X-100946Y-294168D01*
X-101027Y-294310D01*
X-101116Y-294449D01*
X-101139Y-294506D01*
X-101169Y-294559D01*
X-101224Y-294714D01*
X-101287Y-294866D01*
X-101299Y-294925D01*
X-101320Y-294983D01*
X-101347Y-295145D01*
X-101381Y-295306D01*
X-101385Y-295373D01*
X-102590Y-298281D01*
X-104787Y-300478D01*
X-105973Y-300969D01*
X-106130Y-301051D01*
X-106290Y-301128D01*
X-106329Y-301155D01*
X-106372Y-301178D01*
X-106512Y-301286D01*
X-106656Y-301390D01*
X-106690Y-301424D01*
X-106728Y-301453D01*
X-106847Y-301585D01*
X-106971Y-301712D01*
X-106997Y-301752D01*
X-107029Y-301788D01*
X-107123Y-301938D01*
X-107223Y-302085D01*
X-107242Y-302129D01*
X-107267Y-302170D01*
X-107333Y-302335D01*
X-107405Y-302497D01*
X-107416Y-302544D01*
X-107434Y-302588D01*
X-107469Y-302762D01*
X-107511Y-302935D01*
X-107514Y-302982D01*
X-107524Y-303029D01*
X-107528Y-303207D01*
X-107539Y-303384D01*
X-107534Y-303432D01*
X-107535Y-303479D01*
X-107508Y-303655D01*
X-107487Y-303831D01*
X-107473Y-303877D01*
X-107466Y-303924D01*
X-107408Y-304092D01*
X-107357Y-304262D01*
X-107335Y-304305D01*
X-107320Y-304350D01*
X-107233Y-304505D01*
X-107152Y-304664D01*
X-107124Y-304702D01*
X-107100Y-304743D01*
X-106988Y-304881D01*
X-106880Y-305022D01*
X-106845Y-305055D01*
X-106815Y-305092D01*
X-106680Y-305207D01*
X-106549Y-305328D01*
X-106509Y-305353D01*
X-106473Y-305384D01*
X-106319Y-305474D01*
X-106170Y-305569D01*
X-106125Y-305588D01*
X-106084Y-305612D01*
X-105917Y-305673D01*
X-105753Y-305740D01*
X-105706Y-305750D01*
X-105661Y-305767D01*
X-105487Y-305798D01*
X-105313Y-305835D01*
X-105254Y-305839D01*
X-105218Y-305845D01*
X-105155Y-305845D01*
X-105001Y-305854D01*
X-76868Y-305854D01*
X-76834Y-305851D01*
G37*
G36*
X-358483Y-16023D02*
X-358483Y-16023D01*
X-358353Y-16018D01*
X-358260Y-15997D01*
X-358165Y-15986D01*
X-358040Y-15948D01*
X-357914Y-15920D01*
X-357826Y-15883D01*
X-357734Y-15856D01*
X-357618Y-15797D01*
X-357498Y-15746D01*
X-357418Y-15694D01*
X-357333Y-15651D01*
X-357229Y-15573D01*
X-357120Y-15502D01*
X-357022Y-15416D01*
X-356974Y-15379D01*
X-356944Y-15346D01*
X-356886Y-15295D01*
X-225184Y116407D01*
X-225078Y116533D01*
X-224967Y116654D01*
X-224934Y116705D01*
X-224895Y116752D01*
X-224814Y116895D01*
X-224725Y117034D01*
X-224702Y117090D01*
X-224672Y117143D01*
X-224617Y117298D01*
X-224554Y117450D01*
X-224541Y117510D01*
X-224521Y117567D01*
X-224494Y117730D01*
X-224459Y117890D01*
X-224455Y117967D01*
X-224447Y118012D01*
X-224448Y118073D01*
X-224440Y118202D01*
X-224440Y178302D01*
X-224452Y178432D01*
X-224454Y178562D01*
X-224472Y178656D01*
X-224480Y178751D01*
X-224514Y178876D01*
X-224539Y179004D01*
X-224574Y179093D01*
X-224599Y179185D01*
X-224654Y179302D01*
X-224701Y179424D01*
X-224751Y179506D01*
X-224792Y179592D01*
X-224868Y179697D01*
X-224935Y179809D01*
X-224999Y179880D01*
X-225054Y179958D01*
X-225148Y180049D01*
X-225233Y180146D01*
X-225308Y180205D01*
X-225377Y180272D01*
X-225485Y180345D01*
X-225587Y180425D01*
X-225671Y180470D01*
X-225750Y180524D01*
X-225869Y180577D01*
X-225983Y180638D01*
X-226074Y180668D01*
X-226162Y180706D01*
X-226288Y180737D01*
X-226412Y180777D01*
X-226506Y180790D01*
X-226599Y180813D01*
X-226729Y180821D01*
X-226858Y180839D01*
X-226953Y180835D01*
X-227049Y180841D01*
X-227178Y180826D01*
X-227308Y180820D01*
X-227401Y180800D01*
X-227496Y180788D01*
X-227620Y180751D01*
X-227747Y180723D01*
X-227835Y180686D01*
X-227927Y180658D01*
X-228043Y180599D01*
X-228163Y180549D01*
X-228243Y180497D01*
X-228328Y180454D01*
X-228432Y180375D01*
X-228541Y180305D01*
X-228638Y180219D01*
X-228687Y180182D01*
X-228717Y180149D01*
X-228775Y180098D01*
X-360477Y48396D01*
X-360583Y48270D01*
X-360694Y48149D01*
X-360727Y48097D01*
X-360766Y48051D01*
X-360847Y47908D01*
X-360936Y47769D01*
X-360959Y47712D01*
X-360989Y47660D01*
X-361044Y47505D01*
X-361107Y47352D01*
X-361119Y47293D01*
X-361140Y47235D01*
X-361167Y47073D01*
X-361201Y46912D01*
X-361206Y46835D01*
X-361213Y46791D01*
X-361213Y46730D01*
X-361221Y46600D01*
X-361221Y-13500D01*
X-361209Y-13629D01*
X-361207Y-13759D01*
X-361189Y-13853D01*
X-361181Y-13948D01*
X-361146Y-14074D01*
X-361122Y-14201D01*
X-361087Y-14290D01*
X-361062Y-14382D01*
X-361006Y-14500D01*
X-360959Y-14621D01*
X-360910Y-14703D01*
X-360869Y-14789D01*
X-360793Y-14895D01*
X-360726Y-15006D01*
X-360662Y-15077D01*
X-360607Y-15155D01*
X-360513Y-15246D01*
X-360427Y-15343D01*
X-360353Y-15402D01*
X-360284Y-15469D01*
X-360176Y-15542D01*
X-360074Y-15623D01*
X-359990Y-15668D01*
X-359911Y-15721D01*
X-359792Y-15774D01*
X-359677Y-15835D01*
X-359587Y-15865D01*
X-359499Y-15904D01*
X-359373Y-15934D01*
X-359249Y-15975D01*
X-359155Y-15988D01*
X-359062Y-16010D01*
X-358932Y-16018D01*
X-358803Y-16036D01*
X-358707Y-16032D01*
X-358612Y-16038D01*
X-358483Y-16023D01*
G37*
G36*
X-176146Y-249296D02*
X-176146Y-249296D01*
X-176050Y-249294D01*
X-175922Y-249270D01*
X-175793Y-249255D01*
X-175702Y-249227D01*
X-175608Y-249209D01*
X-175487Y-249162D01*
X-175362Y-249124D01*
X-175277Y-249081D01*
X-175188Y-249046D01*
X-175077Y-248979D01*
X-174961Y-248920D01*
X-174885Y-248862D01*
X-174803Y-248813D01*
X-174706Y-248726D01*
X-174602Y-248648D01*
X-174537Y-248578D01*
X-174466Y-248514D01*
X-174385Y-248413D01*
X-174297Y-248317D01*
X-174246Y-248236D01*
X-174186Y-248161D01*
X-174125Y-248047D01*
X-174055Y-247937D01*
X-174019Y-247849D01*
X-173974Y-247764D01*
X-173934Y-247641D01*
X-173884Y-247520D01*
X-173864Y-247427D01*
X-173835Y-247336D01*
X-173817Y-247208D01*
X-173789Y-247080D01*
X-173781Y-246951D01*
X-173773Y-246890D01*
X-173775Y-246845D01*
X-173770Y-246768D01*
X-173770Y-145465D01*
X-173785Y-145301D01*
X-173792Y-145137D01*
X-173805Y-145077D01*
X-173810Y-145016D01*
X-173853Y-144857D01*
X-173889Y-144697D01*
X-173913Y-144641D01*
X-173929Y-144582D01*
X-173999Y-144434D01*
X-174063Y-144282D01*
X-174096Y-144230D01*
X-174122Y-144175D01*
X-174218Y-144042D01*
X-174307Y-143903D01*
X-174358Y-143846D01*
X-174384Y-143809D01*
X-174428Y-143767D01*
X-174514Y-143669D01*
X-175566Y-142618D01*
X-176755Y-139747D01*
X-176755Y-136639D01*
X-175566Y-133768D01*
X-173368Y-131571D01*
X-170497Y-130382D01*
X-167775Y-130382D01*
X-167741Y-130379D01*
X-167706Y-130381D01*
X-167517Y-130359D01*
X-167327Y-130342D01*
X-167293Y-130333D01*
X-167259Y-130329D01*
X-167076Y-130273D01*
X-166893Y-130223D01*
X-166861Y-130208D01*
X-166828Y-130198D01*
X-166658Y-130111D01*
X-166486Y-130030D01*
X-166458Y-130010D01*
X-166427Y-129994D01*
X-166275Y-129879D01*
X-166120Y-129768D01*
X-166096Y-129743D01*
X-166068Y-129722D01*
X-165939Y-129582D01*
X-165806Y-129445D01*
X-165786Y-129416D01*
X-165763Y-129391D01*
X-165660Y-129230D01*
X-165554Y-129072D01*
X-165540Y-129040D01*
X-165521Y-129011D01*
X-165449Y-128835D01*
X-165371Y-128660D01*
X-165363Y-128627D01*
X-165350Y-128595D01*
X-165310Y-128408D01*
X-165265Y-128223D01*
X-165263Y-128188D01*
X-165255Y-128154D01*
X-165236Y-127842D01*
X-165236Y-123646D01*
X-164501Y-121872D01*
X-162786Y-120158D01*
X-30002Y12627D01*
X-29896Y12753D01*
X-29785Y12874D01*
X-29752Y12926D01*
X-29713Y12973D01*
X-29631Y13115D01*
X-29543Y13254D01*
X-29520Y13311D01*
X-29489Y13364D01*
X-29434Y13518D01*
X-29372Y13671D01*
X-29359Y13730D01*
X-29339Y13788D01*
X-29312Y13950D01*
X-29277Y14111D01*
X-29272Y14188D01*
X-29265Y14232D01*
X-29266Y14293D01*
X-29258Y14423D01*
X-29258Y14620D01*
X-29261Y14654D01*
X-29259Y14689D01*
X-29281Y14878D01*
X-29298Y15069D01*
X-29307Y15102D01*
X-29311Y15136D01*
X-29366Y15319D01*
X-29416Y15503D01*
X-29431Y15534D01*
X-29441Y15567D01*
X-29528Y15738D01*
X-29610Y15910D01*
X-29630Y15938D01*
X-29646Y15969D01*
X-29761Y16121D01*
X-29872Y16276D01*
X-29897Y16300D01*
X-29918Y16327D01*
X-30058Y16456D01*
X-30195Y16590D01*
X-30223Y16609D01*
X-30249Y16633D01*
X-30410Y16735D01*
X-30568Y16842D01*
X-30599Y16856D01*
X-30629Y16874D01*
X-30805Y16947D01*
X-30979Y17024D01*
X-31013Y17032D01*
X-31045Y17045D01*
X-31232Y17085D01*
X-31417Y17131D01*
X-31451Y17133D01*
X-31485Y17140D01*
X-31797Y17159D01*
X-33060Y17159D01*
X-35931Y18348D01*
X-36983Y19400D01*
X-37109Y19506D01*
X-37230Y19617D01*
X-37282Y19650D01*
X-37328Y19689D01*
X-37471Y19770D01*
X-37610Y19859D01*
X-37666Y19882D01*
X-37719Y19912D01*
X-37874Y19967D01*
X-38026Y20030D01*
X-38086Y20043D01*
X-38144Y20063D01*
X-38306Y20090D01*
X-38467Y20125D01*
X-38544Y20129D01*
X-38588Y20137D01*
X-38649Y20136D01*
X-38779Y20144D01*
X-63314Y20144D01*
X-63478Y20129D01*
X-63643Y20122D01*
X-63702Y20109D01*
X-63763Y20104D01*
X-63922Y20060D01*
X-64082Y20025D01*
X-64138Y20001D01*
X-64197Y19985D01*
X-64346Y19915D01*
X-64498Y19851D01*
X-64549Y19818D01*
X-64604Y19792D01*
X-64738Y19696D01*
X-64876Y19607D01*
X-64934Y19556D01*
X-64970Y19530D01*
X-65013Y19486D01*
X-65110Y19400D01*
X-72793Y11717D01*
X-72816Y11690D01*
X-72842Y11667D01*
X-72959Y11518D01*
X-73082Y11371D01*
X-73100Y11341D01*
X-73121Y11314D01*
X-73211Y11146D01*
X-73306Y10980D01*
X-73317Y10948D01*
X-73334Y10917D01*
X-73392Y10736D01*
X-73456Y10556D01*
X-73462Y10522D01*
X-73473Y10489D01*
X-73499Y10300D01*
X-73530Y10112D01*
X-73529Y10077D01*
X-73534Y10043D01*
X-73526Y9852D01*
X-73524Y9662D01*
X-73517Y9628D01*
X-73516Y9593D01*
X-73475Y9407D01*
X-73438Y9220D01*
X-73426Y9187D01*
X-73418Y9153D01*
X-73345Y8977D01*
X-73276Y8800D01*
X-73258Y8770D01*
X-73245Y8738D01*
X-73141Y8578D01*
X-73042Y8415D01*
X-73019Y8389D01*
X-73000Y8360D01*
X-72793Y8126D01*
X-71891Y7224D01*
X-70702Y4353D01*
X-70702Y1245D01*
X-71891Y-1626D01*
X-74089Y-3823D01*
X-76960Y-5012D01*
X-78447Y-5012D01*
X-78611Y-5027D01*
X-78775Y-5034D01*
X-78835Y-5047D01*
X-78895Y-5052D01*
X-79054Y-5095D01*
X-79215Y-5131D01*
X-79271Y-5155D01*
X-79330Y-5171D01*
X-79478Y-5241D01*
X-79630Y-5305D01*
X-79682Y-5338D01*
X-79736Y-5364D01*
X-79870Y-5460D01*
X-80008Y-5549D01*
X-80066Y-5600D01*
X-80103Y-5626D01*
X-80145Y-5670D01*
X-80242Y-5756D01*
X-171692Y-97205D01*
X-171745Y-97269D01*
X-171804Y-97326D01*
X-171889Y-97441D01*
X-171981Y-97551D01*
X-172022Y-97622D01*
X-172070Y-97689D01*
X-172133Y-97817D01*
X-172204Y-97942D01*
X-172232Y-98019D01*
X-172268Y-98094D01*
X-172307Y-98231D01*
X-172355Y-98366D01*
X-172368Y-98447D01*
X-172391Y-98527D01*
X-172405Y-98669D01*
X-172428Y-98810D01*
X-172427Y-98893D01*
X-172435Y-98975D01*
X-172424Y-99117D01*
X-172422Y-99260D01*
X-172407Y-99341D01*
X-172400Y-99424D01*
X-172364Y-99562D01*
X-172337Y-99702D01*
X-172307Y-99779D01*
X-172286Y-99859D01*
X-172226Y-99989D01*
X-172174Y-100122D01*
X-172131Y-100193D01*
X-172097Y-100268D01*
X-172015Y-100385D01*
X-171940Y-100507D01*
X-171886Y-100569D01*
X-171838Y-100637D01*
X-171737Y-100737D01*
X-171642Y-100844D01*
X-171578Y-100896D01*
X-171519Y-100954D01*
X-171428Y-101017D01*
X-169274Y-103170D01*
X-168199Y-105766D01*
X-168199Y-108574D01*
X-169274Y-111170D01*
X-171260Y-113156D01*
X-173856Y-114231D01*
X-176664Y-114231D01*
X-179260Y-113156D01*
X-181380Y-111035D01*
X-181385Y-111027D01*
X-181480Y-110920D01*
X-181567Y-110807D01*
X-181629Y-110752D01*
X-181683Y-110690D01*
X-181795Y-110602D01*
X-181901Y-110505D01*
X-181972Y-110462D01*
X-182036Y-110411D01*
X-182162Y-110343D01*
X-182284Y-110268D01*
X-182360Y-110237D01*
X-182433Y-110198D01*
X-182569Y-110154D01*
X-182702Y-110101D01*
X-182783Y-110084D01*
X-182861Y-110059D01*
X-183003Y-110039D01*
X-183143Y-110011D01*
X-183226Y-110009D01*
X-183307Y-109997D01*
X-183451Y-110003D01*
X-183593Y-110000D01*
X-183675Y-110012D01*
X-183757Y-110016D01*
X-183897Y-110047D01*
X-184038Y-110069D01*
X-184116Y-110095D01*
X-184197Y-110113D01*
X-184329Y-110169D01*
X-184464Y-110215D01*
X-184536Y-110255D01*
X-184612Y-110287D01*
X-184733Y-110365D01*
X-184857Y-110434D01*
X-184921Y-110486D01*
X-184991Y-110531D01*
X-185175Y-110694D01*
X-185206Y-110719D01*
X-185213Y-110728D01*
X-185225Y-110738D01*
X-186627Y-112141D01*
X-186650Y-112168D01*
X-186676Y-112190D01*
X-186794Y-112340D01*
X-186916Y-112486D01*
X-186933Y-112516D01*
X-186955Y-112544D01*
X-187045Y-112712D01*
X-187140Y-112877D01*
X-187151Y-112910D01*
X-187168Y-112940D01*
X-187227Y-113122D01*
X-187290Y-113301D01*
X-187296Y-113336D01*
X-187307Y-113369D01*
X-187333Y-113557D01*
X-187364Y-113746D01*
X-187363Y-113780D01*
X-187368Y-113815D01*
X-187360Y-114005D01*
X-187358Y-114196D01*
X-187351Y-114230D01*
X-187350Y-114265D01*
X-187309Y-114450D01*
X-187272Y-114638D01*
X-187260Y-114670D01*
X-187252Y-114704D01*
X-187179Y-114880D01*
X-187110Y-115058D01*
X-187092Y-115088D01*
X-187079Y-115120D01*
X-186975Y-115279D01*
X-186876Y-115443D01*
X-186853Y-115469D01*
X-186834Y-115498D01*
X-186697Y-115653D01*
X-185502Y-118539D01*
X-185502Y-121647D01*
X-186691Y-124518D01*
X-188888Y-126715D01*
X-191759Y-127904D01*
X-193246Y-127904D01*
X-193410Y-127919D01*
X-193574Y-127926D01*
X-193634Y-127939D01*
X-193695Y-127944D01*
X-193854Y-127988D01*
X-194014Y-128023D01*
X-194070Y-128047D01*
X-194129Y-128063D01*
X-194277Y-128133D01*
X-194429Y-128197D01*
X-194481Y-128230D01*
X-194536Y-128256D01*
X-194669Y-128352D01*
X-194808Y-128441D01*
X-194865Y-128492D01*
X-194902Y-128518D01*
X-194944Y-128562D01*
X-195042Y-128648D01*
X-204321Y-137928D01*
X-204427Y-138054D01*
X-204538Y-138175D01*
X-204571Y-138226D01*
X-204610Y-138273D01*
X-204692Y-138416D01*
X-204780Y-138555D01*
X-204803Y-138611D01*
X-204834Y-138664D01*
X-204889Y-138819D01*
X-204951Y-138971D01*
X-204964Y-139031D01*
X-204985Y-139088D01*
X-205011Y-139251D01*
X-205046Y-139411D01*
X-205051Y-139488D01*
X-205058Y-139533D01*
X-205057Y-139594D01*
X-205065Y-139723D01*
X-205065Y-220552D01*
X-205051Y-220716D01*
X-205044Y-220880D01*
X-205031Y-220940D01*
X-205025Y-221000D01*
X-204982Y-221159D01*
X-204946Y-221320D01*
X-204923Y-221376D01*
X-204907Y-221435D01*
X-204836Y-221583D01*
X-204773Y-221735D01*
X-204739Y-221787D01*
X-204713Y-221841D01*
X-204618Y-221975D01*
X-204528Y-222113D01*
X-204477Y-222171D01*
X-204451Y-222207D01*
X-204408Y-222250D01*
X-204321Y-222347D01*
X-178105Y-248564D01*
X-178005Y-248647D01*
X-177912Y-248738D01*
X-177833Y-248791D01*
X-177760Y-248853D01*
X-177647Y-248917D01*
X-177539Y-248990D01*
X-177452Y-249029D01*
X-177369Y-249076D01*
X-177246Y-249120D01*
X-177127Y-249172D01*
X-177034Y-249195D01*
X-176944Y-249227D01*
X-176816Y-249248D01*
X-176690Y-249279D01*
X-176595Y-249285D01*
X-176500Y-249300D01*
X-176370Y-249299D01*
X-176240Y-249307D01*
X-176146Y-249296D01*
G37*
%LPC*%
G36*
X273078Y222728D02*
X273078Y222728D01*
X260945Y226290D01*
X250308Y233126D01*
X242028Y242682D01*
X236775Y254184D01*
X234975Y266700D01*
X236775Y279216D01*
X242028Y290718D01*
X250308Y300274D01*
X260945Y307110D01*
X273078Y310672D01*
X285722Y310672D01*
X297855Y307110D01*
X308492Y300274D01*
X316772Y290718D01*
X322025Y279216D01*
X323825Y266700D01*
X322025Y254184D01*
X316772Y242682D01*
X308492Y233126D01*
X297855Y226290D01*
X285722Y222728D01*
X273078Y222728D01*
G37*
%LPD*%
G36*
X110495Y-221295D02*
X110495Y-221295D01*
X110591Y-221293D01*
X110718Y-221269D01*
X110847Y-221254D01*
X110939Y-221226D01*
X111033Y-221208D01*
X111154Y-221161D01*
X111278Y-221123D01*
X111364Y-221080D01*
X111453Y-221046D01*
X111564Y-220978D01*
X111680Y-220919D01*
X111756Y-220861D01*
X111837Y-220812D01*
X111935Y-220726D01*
X112038Y-220647D01*
X112103Y-220577D01*
X112175Y-220513D01*
X112255Y-220412D01*
X112344Y-220316D01*
X112395Y-220235D01*
X112454Y-220160D01*
X112516Y-220046D01*
X112585Y-219936D01*
X112622Y-219848D01*
X112667Y-219763D01*
X112707Y-219640D01*
X112756Y-219520D01*
X112777Y-219426D01*
X112806Y-219335D01*
X112824Y-219207D01*
X112851Y-219079D01*
X112859Y-218950D01*
X112867Y-218889D01*
X112866Y-218844D01*
X112870Y-218767D01*
X112870Y-13258D01*
X112856Y-13095D01*
X112849Y-12930D01*
X112836Y-12871D01*
X112830Y-12810D01*
X112787Y-12651D01*
X112752Y-12490D01*
X112728Y-12434D01*
X112712Y-12375D01*
X112641Y-12227D01*
X112578Y-12075D01*
X112545Y-12024D01*
X112519Y-11969D01*
X112423Y-11835D01*
X112334Y-11697D01*
X112283Y-11639D01*
X112256Y-11603D01*
X112213Y-11560D01*
X112127Y-11463D01*
X95594Y5070D01*
X95494Y5154D01*
X95401Y5244D01*
X95322Y5298D01*
X95248Y5359D01*
X95136Y5424D01*
X95028Y5496D01*
X94940Y5535D01*
X94857Y5582D01*
X94735Y5626D01*
X94616Y5679D01*
X94523Y5701D01*
X94433Y5733D01*
X94305Y5754D01*
X94179Y5785D01*
X94083Y5791D01*
X93989Y5807D01*
X93859Y5805D01*
X93729Y5813D01*
X93634Y5802D01*
X93539Y5801D01*
X93411Y5776D01*
X93282Y5761D01*
X93190Y5733D01*
X93097Y5715D01*
X92976Y5668D01*
X92851Y5631D01*
X92766Y5587D01*
X92677Y5553D01*
X92566Y5485D01*
X92450Y5426D01*
X92374Y5369D01*
X92292Y5319D01*
X92195Y5233D01*
X92091Y5154D01*
X92026Y5084D01*
X91955Y5021D01*
X91874Y4919D01*
X91786Y4823D01*
X91734Y4742D01*
X91675Y4668D01*
X91614Y4553D01*
X91544Y4443D01*
X91508Y4355D01*
X91463Y4271D01*
X91422Y4147D01*
X91373Y4027D01*
X91353Y3933D01*
X91323Y3842D01*
X91306Y3714D01*
X91278Y3587D01*
X91270Y3457D01*
X91262Y3396D01*
X91264Y3352D01*
X91259Y3275D01*
X91259Y-169414D01*
X91274Y-169578D01*
X91280Y-169742D01*
X91294Y-169802D01*
X91299Y-169863D01*
X91342Y-170021D01*
X91378Y-170182D01*
X91401Y-170238D01*
X91417Y-170297D01*
X91488Y-170445D01*
X91552Y-170597D01*
X91585Y-170649D01*
X91611Y-170704D01*
X91706Y-170837D01*
X91796Y-170975D01*
X91847Y-171033D01*
X91873Y-171070D01*
X91917Y-171112D01*
X92003Y-171210D01*
X93054Y-172261D01*
X94244Y-175132D01*
X94244Y-178240D01*
X93054Y-181111D01*
X90857Y-183308D01*
X87986Y-184497D01*
X86750Y-184497D01*
X86715Y-184500D01*
X86681Y-184498D01*
X86491Y-184520D01*
X86301Y-184537D01*
X86268Y-184546D01*
X86233Y-184550D01*
X86050Y-184605D01*
X85867Y-184656D01*
X85836Y-184670D01*
X85802Y-184680D01*
X85632Y-184767D01*
X85460Y-184849D01*
X85432Y-184869D01*
X85401Y-184885D01*
X85249Y-185000D01*
X85094Y-185111D01*
X85070Y-185136D01*
X85042Y-185157D01*
X84913Y-185297D01*
X84780Y-185434D01*
X84761Y-185462D01*
X84737Y-185488D01*
X84635Y-185649D01*
X84528Y-185807D01*
X84514Y-185838D01*
X84495Y-185868D01*
X84423Y-186044D01*
X84346Y-186219D01*
X84337Y-186252D01*
X84324Y-186284D01*
X84284Y-186471D01*
X84239Y-186656D01*
X84237Y-186691D01*
X84230Y-186724D01*
X84210Y-187036D01*
X84210Y-195186D01*
X84225Y-195350D01*
X84232Y-195514D01*
X84245Y-195574D01*
X84250Y-195634D01*
X84294Y-195793D01*
X84329Y-195954D01*
X84353Y-196010D01*
X84369Y-196069D01*
X84439Y-196217D01*
X84503Y-196369D01*
X84536Y-196421D01*
X84562Y-196475D01*
X84658Y-196609D01*
X84747Y-196747D01*
X84798Y-196805D01*
X84824Y-196842D01*
X84868Y-196884D01*
X84954Y-196982D01*
X108536Y-220563D01*
X108635Y-220646D01*
X108728Y-220737D01*
X108808Y-220791D01*
X108881Y-220852D01*
X108994Y-220916D01*
X109102Y-220989D01*
X109189Y-221028D01*
X109272Y-221075D01*
X109394Y-221119D01*
X109513Y-221171D01*
X109606Y-221194D01*
X109696Y-221226D01*
X109825Y-221247D01*
X109951Y-221278D01*
X110046Y-221284D01*
X110140Y-221300D01*
X110271Y-221298D01*
X110400Y-221306D01*
X110495Y-221295D01*
G37*
G36*
X-133146Y-286536D02*
X-133146Y-286536D01*
X-133050Y-286535D01*
X-132922Y-286510D01*
X-132793Y-286495D01*
X-132702Y-286467D01*
X-132608Y-286449D01*
X-132487Y-286402D01*
X-132362Y-286365D01*
X-132277Y-286321D01*
X-132188Y-286287D01*
X-132077Y-286219D01*
X-131961Y-286160D01*
X-131885Y-286103D01*
X-131803Y-286053D01*
X-131706Y-285967D01*
X-131602Y-285888D01*
X-131537Y-285818D01*
X-131466Y-285755D01*
X-131385Y-285653D01*
X-131297Y-285557D01*
X-131245Y-285477D01*
X-131186Y-285402D01*
X-131125Y-285287D01*
X-131055Y-285178D01*
X-131019Y-285089D01*
X-130974Y-285005D01*
X-130933Y-284881D01*
X-130884Y-284761D01*
X-130864Y-284667D01*
X-130834Y-284577D01*
X-130817Y-284448D01*
X-130789Y-284321D01*
X-130781Y-284191D01*
X-130773Y-284131D01*
X-130775Y-284086D01*
X-130770Y-284009D01*
X-130770Y-283658D01*
X-129581Y-280787D01*
X-128529Y-279735D01*
X-128424Y-279609D01*
X-128312Y-279488D01*
X-128280Y-279437D01*
X-128240Y-279390D01*
X-128159Y-279247D01*
X-128071Y-279108D01*
X-128047Y-279052D01*
X-128017Y-278999D01*
X-127962Y-278844D01*
X-127900Y-278692D01*
X-127887Y-278632D01*
X-127866Y-278575D01*
X-127839Y-278412D01*
X-127805Y-278252D01*
X-127800Y-278175D01*
X-127793Y-278130D01*
X-127794Y-278069D01*
X-127786Y-277940D01*
X-127786Y-105975D01*
X-127603Y-105535D01*
X-127550Y-105366D01*
X-127491Y-105199D01*
X-127483Y-105151D01*
X-127469Y-105106D01*
X-127446Y-104930D01*
X-127417Y-104754D01*
X-127418Y-104707D01*
X-127412Y-104659D01*
X-127421Y-104482D01*
X-127423Y-104304D01*
X-127433Y-104257D01*
X-127435Y-104209D01*
X-127475Y-104037D01*
X-127509Y-103862D01*
X-127526Y-103817D01*
X-127537Y-103771D01*
X-127607Y-103608D01*
X-127671Y-103442D01*
X-127696Y-103401D01*
X-127715Y-103357D01*
X-127813Y-103209D01*
X-127905Y-103057D01*
X-127937Y-103021D01*
X-127963Y-102982D01*
X-128086Y-102853D01*
X-128203Y-102720D01*
X-128241Y-102690D01*
X-128274Y-102656D01*
X-128418Y-102550D01*
X-128557Y-102441D01*
X-128599Y-102418D01*
X-128637Y-102390D01*
X-128797Y-102312D01*
X-128953Y-102228D01*
X-128999Y-102213D01*
X-129042Y-102192D01*
X-129213Y-102144D01*
X-129382Y-102089D01*
X-129429Y-102082D01*
X-129475Y-102069D01*
X-129652Y-102052D01*
X-129828Y-102027D01*
X-129875Y-102029D01*
X-129923Y-102025D01*
X-130100Y-102038D01*
X-130278Y-102046D01*
X-130324Y-102056D01*
X-130372Y-102060D01*
X-130544Y-102105D01*
X-130717Y-102143D01*
X-130761Y-102162D01*
X-130808Y-102174D01*
X-130968Y-102248D01*
X-131133Y-102317D01*
X-131173Y-102343D01*
X-131216Y-102363D01*
X-131361Y-102465D01*
X-131511Y-102561D01*
X-131555Y-102600D01*
X-131585Y-102621D01*
X-131629Y-102666D01*
X-131745Y-102768D01*
X-154839Y-125862D01*
X-154945Y-125988D01*
X-155056Y-126109D01*
X-155089Y-126161D01*
X-155128Y-126208D01*
X-155209Y-126350D01*
X-155298Y-126489D01*
X-155321Y-126546D01*
X-155351Y-126599D01*
X-155406Y-126753D01*
X-155469Y-126906D01*
X-155482Y-126965D01*
X-155502Y-127023D01*
X-155529Y-127185D01*
X-155563Y-127346D01*
X-155568Y-127423D01*
X-155576Y-127467D01*
X-155575Y-127528D01*
X-155583Y-127658D01*
X-155583Y-250086D01*
X-155568Y-250249D01*
X-155561Y-250414D01*
X-155548Y-250473D01*
X-155543Y-250534D01*
X-155499Y-250693D01*
X-155464Y-250853D01*
X-155440Y-250910D01*
X-155424Y-250969D01*
X-155354Y-251117D01*
X-155290Y-251269D01*
X-155257Y-251320D01*
X-155231Y-251375D01*
X-155135Y-251509D01*
X-155046Y-251647D01*
X-154995Y-251705D01*
X-154969Y-251741D01*
X-154925Y-251784D01*
X-154839Y-251881D01*
X-153787Y-252933D01*
X-152598Y-255804D01*
X-152598Y-258911D01*
X-153787Y-261782D01*
X-154662Y-262657D01*
X-154684Y-262683D01*
X-154710Y-262706D01*
X-154828Y-262855D01*
X-154951Y-263002D01*
X-154968Y-263032D01*
X-154989Y-263059D01*
X-155079Y-263227D01*
X-155174Y-263393D01*
X-155186Y-263425D01*
X-155202Y-263456D01*
X-155261Y-263637D01*
X-155325Y-263817D01*
X-155330Y-263851D01*
X-155341Y-263884D01*
X-155367Y-264073D01*
X-155398Y-264261D01*
X-155398Y-264296D01*
X-155403Y-264330D01*
X-155395Y-264521D01*
X-155392Y-264712D01*
X-155386Y-264746D01*
X-155384Y-264780D01*
X-155343Y-264966D01*
X-155307Y-265154D01*
X-155294Y-265186D01*
X-155287Y-265220D01*
X-155213Y-265396D01*
X-155144Y-265574D01*
X-155126Y-265603D01*
X-155113Y-265635D01*
X-155009Y-265796D01*
X-154910Y-265958D01*
X-154887Y-265984D01*
X-154869Y-266013D01*
X-154662Y-266248D01*
X-135105Y-285804D01*
X-135005Y-285888D01*
X-134912Y-285978D01*
X-134833Y-286032D01*
X-134760Y-286093D01*
X-134647Y-286158D01*
X-134539Y-286231D01*
X-134451Y-286269D01*
X-134369Y-286317D01*
X-134246Y-286360D01*
X-134127Y-286413D01*
X-134034Y-286435D01*
X-133944Y-286467D01*
X-133816Y-286489D01*
X-133690Y-286519D01*
X-133595Y-286525D01*
X-133500Y-286541D01*
X-133370Y-286539D01*
X-133240Y-286547D01*
X-133146Y-286536D01*
G37*
G36*
X104897Y21924D02*
X104897Y21924D01*
X105027Y21929D01*
X105120Y21950D01*
X105215Y21961D01*
X105340Y21999D01*
X105467Y22027D01*
X105555Y22063D01*
X105646Y22091D01*
X105762Y22150D01*
X105882Y22200D01*
X105962Y22252D01*
X106048Y22296D01*
X106151Y22374D01*
X106261Y22445D01*
X106358Y22531D01*
X106406Y22568D01*
X106437Y22600D01*
X106495Y22652D01*
X106606Y22763D01*
X109477Y23953D01*
X110964Y23953D01*
X111128Y23967D01*
X111293Y23974D01*
X111352Y23987D01*
X111413Y23992D01*
X111572Y24036D01*
X111732Y24071D01*
X111789Y24095D01*
X111847Y24111D01*
X111995Y24181D01*
X112148Y24245D01*
X112199Y24278D01*
X112254Y24304D01*
X112387Y24400D01*
X112526Y24489D01*
X112584Y24540D01*
X112620Y24566D01*
X112663Y24610D01*
X112760Y24696D01*
X176703Y88639D01*
X176809Y88766D01*
X176920Y88886D01*
X176953Y88938D01*
X176992Y88985D01*
X177073Y89127D01*
X177162Y89266D01*
X177185Y89323D01*
X177215Y89376D01*
X177270Y89530D01*
X177333Y89683D01*
X177346Y89742D01*
X177366Y89800D01*
X177393Y89962D01*
X177428Y90123D01*
X177432Y90200D01*
X177440Y90244D01*
X177439Y90305D01*
X177447Y90435D01*
X177447Y91922D01*
X178636Y94793D01*
X180833Y96990D01*
X183704Y98179D01*
X186812Y98179D01*
X189683Y96990D01*
X191880Y94793D01*
X193069Y91922D01*
X193069Y88814D01*
X191880Y85944D01*
X189683Y83746D01*
X186812Y82557D01*
X185325Y82557D01*
X185161Y82542D01*
X184996Y82536D01*
X184937Y82522D01*
X184876Y82517D01*
X184717Y82474D01*
X184557Y82438D01*
X184501Y82415D01*
X184442Y82399D01*
X184294Y82328D01*
X184141Y82264D01*
X184090Y82231D01*
X184035Y82205D01*
X183902Y82109D01*
X183763Y82020D01*
X183705Y81969D01*
X183669Y81943D01*
X183627Y81899D01*
X183529Y81813D01*
X171126Y69410D01*
X171073Y69347D01*
X171014Y69290D01*
X170929Y69175D01*
X170837Y69065D01*
X170796Y68993D01*
X170748Y68927D01*
X170685Y68798D01*
X170614Y68674D01*
X170586Y68596D01*
X170550Y68522D01*
X170511Y68385D01*
X170463Y68250D01*
X170450Y68168D01*
X170427Y68089D01*
X170413Y67947D01*
X170390Y67806D01*
X170391Y67723D01*
X170383Y67641D01*
X170394Y67499D01*
X170396Y67355D01*
X170411Y67274D01*
X170418Y67192D01*
X170454Y67054D01*
X170481Y66913D01*
X170511Y66836D01*
X170532Y66757D01*
X170592Y66627D01*
X170644Y66493D01*
X170686Y66423D01*
X170721Y66348D01*
X170803Y66231D01*
X170878Y66109D01*
X170932Y66047D01*
X170979Y65979D01*
X171081Y65879D01*
X171176Y65771D01*
X171241Y65720D01*
X171299Y65662D01*
X171416Y65581D01*
X171529Y65492D01*
X171602Y65453D01*
X171669Y65406D01*
X171781Y65351D01*
X174000Y63133D01*
X175189Y60262D01*
X175189Y60243D01*
X175200Y60114D01*
X175202Y59984D01*
X175220Y59890D01*
X175229Y59795D01*
X175263Y59669D01*
X175288Y59541D01*
X175322Y59452D01*
X175347Y59360D01*
X175403Y59243D01*
X175450Y59121D01*
X175500Y59040D01*
X175541Y58954D01*
X175616Y58848D01*
X175684Y58737D01*
X175747Y58665D01*
X175803Y58587D01*
X175896Y58497D01*
X175982Y58399D01*
X176057Y58340D01*
X176126Y58273D01*
X176234Y58200D01*
X176335Y58120D01*
X176419Y58075D01*
X176499Y58021D01*
X176618Y57969D01*
X176732Y57907D01*
X176823Y57878D01*
X176910Y57839D01*
X177037Y57808D01*
X177160Y57768D01*
X177255Y57755D01*
X177348Y57732D01*
X177477Y57724D01*
X177606Y57707D01*
X177702Y57711D01*
X177797Y57705D01*
X177926Y57720D01*
X178056Y57725D01*
X178150Y57746D01*
X178244Y57757D01*
X178369Y57795D01*
X178496Y57823D01*
X178584Y57859D01*
X178675Y57887D01*
X178791Y57946D01*
X178911Y57996D01*
X178992Y58048D01*
X179077Y58091D01*
X179180Y58170D01*
X179290Y58241D01*
X179387Y58327D01*
X179436Y58363D01*
X179466Y58396D01*
X179524Y58448D01*
X236582Y115506D01*
X236604Y115533D01*
X236631Y115556D01*
X236748Y115705D01*
X236871Y115851D01*
X236888Y115882D01*
X236910Y115909D01*
X237000Y116077D01*
X237094Y116242D01*
X237106Y116275D01*
X237122Y116306D01*
X237181Y116487D01*
X237245Y116666D01*
X237251Y116701D01*
X237262Y116734D01*
X237287Y116922D01*
X237319Y117111D01*
X237318Y117146D01*
X237323Y117180D01*
X237315Y117369D01*
X237312Y117561D01*
X237306Y117595D01*
X237304Y117630D01*
X237263Y117815D01*
X237227Y118003D01*
X237214Y118036D01*
X237207Y118070D01*
X237133Y118245D01*
X237065Y118423D01*
X237046Y118453D01*
X237033Y118485D01*
X236930Y118644D01*
X236831Y118808D01*
X236808Y118834D01*
X236789Y118863D01*
X236582Y119097D01*
X236509Y119169D01*
X236383Y119275D01*
X236263Y119386D01*
X236211Y119419D01*
X236164Y119458D01*
X236021Y119540D01*
X235883Y119628D01*
X235826Y119651D01*
X235773Y119682D01*
X235618Y119737D01*
X235466Y119799D01*
X235406Y119812D01*
X235349Y119832D01*
X235187Y119859D01*
X235026Y119894D01*
X234949Y119898D01*
X234904Y119906D01*
X234844Y119905D01*
X234714Y119913D01*
X181760Y119913D01*
X181596Y119898D01*
X181432Y119891D01*
X181372Y119878D01*
X181311Y119873D01*
X181153Y119830D01*
X180992Y119794D01*
X180936Y119770D01*
X180877Y119754D01*
X180729Y119684D01*
X180577Y119620D01*
X180525Y119587D01*
X180470Y119561D01*
X180337Y119465D01*
X180199Y119376D01*
X180141Y119325D01*
X180104Y119299D01*
X180062Y119255D01*
X179964Y119169D01*
X106989Y46194D01*
X105215Y45459D01*
X90711Y45459D01*
X90581Y45448D01*
X90451Y45446D01*
X90357Y45428D01*
X90262Y45419D01*
X90137Y45385D01*
X90009Y45360D01*
X89920Y45326D01*
X89828Y45301D01*
X89711Y45245D01*
X89589Y45198D01*
X89507Y45148D01*
X89421Y45107D01*
X89316Y45032D01*
X89204Y44964D01*
X89133Y44901D01*
X89055Y44845D01*
X88964Y44752D01*
X88867Y44666D01*
X88808Y44591D01*
X88741Y44523D01*
X88668Y44415D01*
X88588Y44313D01*
X88543Y44229D01*
X88489Y44150D01*
X88436Y44031D01*
X88375Y43916D01*
X88345Y43825D01*
X88307Y43738D01*
X88276Y43611D01*
X88236Y43488D01*
X88223Y43393D01*
X88200Y43300D01*
X88192Y43171D01*
X88174Y43042D01*
X88178Y42946D01*
X88172Y42851D01*
X88187Y42722D01*
X88193Y42592D01*
X88213Y42499D01*
X88225Y42404D01*
X88262Y42279D01*
X88290Y42152D01*
X88327Y42064D01*
X88355Y41973D01*
X88414Y41857D01*
X88464Y41737D01*
X88516Y41657D01*
X88559Y41571D01*
X88638Y41468D01*
X88708Y41359D01*
X88794Y41261D01*
X88831Y41213D01*
X88864Y41182D01*
X88915Y41124D01*
X99710Y30330D01*
X99710Y30329D01*
X101425Y28615D01*
X102160Y26841D01*
X102160Y24447D01*
X102171Y24317D01*
X102173Y24187D01*
X102191Y24094D01*
X102200Y23999D01*
X102234Y23873D01*
X102259Y23745D01*
X102293Y23656D01*
X102318Y23564D01*
X102374Y23447D01*
X102421Y23325D01*
X102471Y23244D01*
X102512Y23158D01*
X102587Y23052D01*
X102655Y22941D01*
X102718Y22869D01*
X102774Y22791D01*
X102867Y22701D01*
X102953Y22603D01*
X103028Y22544D01*
X103096Y22477D01*
X103204Y22405D01*
X103306Y22324D01*
X103390Y22279D01*
X103470Y22225D01*
X103589Y22173D01*
X103703Y22111D01*
X103794Y22082D01*
X103881Y22043D01*
X104008Y22012D01*
X104131Y21972D01*
X104226Y21959D01*
X104319Y21936D01*
X104448Y21928D01*
X104577Y21911D01*
X104673Y21915D01*
X104768Y21909D01*
X104897Y21924D01*
G37*
G36*
X110024Y90873D02*
X110024Y90873D01*
X110188Y90880D01*
X110248Y90893D01*
X110308Y90898D01*
X110467Y90941D01*
X110628Y90977D01*
X110684Y91001D01*
X110743Y91017D01*
X110891Y91087D01*
X111043Y91151D01*
X111095Y91184D01*
X111149Y91210D01*
X111283Y91306D01*
X111421Y91395D01*
X111479Y91446D01*
X111515Y91472D01*
X111558Y91516D01*
X111655Y91602D01*
X152091Y132038D01*
X152175Y132137D01*
X152265Y132230D01*
X152319Y132310D01*
X152380Y132383D01*
X152444Y132496D01*
X152517Y132604D01*
X152556Y132691D01*
X152603Y132774D01*
X152647Y132896D01*
X152700Y133015D01*
X152722Y133108D01*
X152754Y133198D01*
X152775Y133327D01*
X152806Y133453D01*
X152812Y133548D01*
X152828Y133642D01*
X152826Y133773D01*
X152834Y133902D01*
X152823Y133997D01*
X152822Y134093D01*
X152797Y134220D01*
X152782Y134349D01*
X152754Y134441D01*
X152736Y134535D01*
X152689Y134656D01*
X152651Y134780D01*
X152608Y134866D01*
X152574Y134955D01*
X152506Y135066D01*
X152447Y135182D01*
X152389Y135258D01*
X152340Y135339D01*
X152254Y135437D01*
X152175Y135540D01*
X152105Y135605D01*
X152042Y135677D01*
X151940Y135757D01*
X151844Y135846D01*
X151763Y135897D01*
X151688Y135956D01*
X151574Y136018D01*
X151464Y136087D01*
X151376Y136124D01*
X151292Y136169D01*
X151168Y136209D01*
X151048Y136258D01*
X150954Y136279D01*
X150863Y136308D01*
X150735Y136326D01*
X150607Y136353D01*
X150478Y136361D01*
X150417Y136369D01*
X150372Y136368D01*
X150296Y136372D01*
X112784Y136372D01*
X112620Y136358D01*
X112456Y136351D01*
X112397Y136338D01*
X112336Y136332D01*
X112177Y136289D01*
X112016Y136254D01*
X111960Y136230D01*
X111901Y136214D01*
X111753Y136143D01*
X111601Y136080D01*
X111550Y136047D01*
X111495Y136021D01*
X111361Y135925D01*
X111223Y135836D01*
X111165Y135785D01*
X111129Y135758D01*
X111086Y135715D01*
X110989Y135629D01*
X70553Y95193D01*
X70470Y95093D01*
X70379Y95000D01*
X70325Y94921D01*
X70264Y94848D01*
X70200Y94735D01*
X70127Y94627D01*
X70088Y94540D01*
X70041Y94457D01*
X69997Y94334D01*
X69945Y94215D01*
X69922Y94122D01*
X69890Y94032D01*
X69869Y93904D01*
X69838Y93778D01*
X69832Y93683D01*
X69816Y93588D01*
X69818Y93458D01*
X69810Y93328D01*
X69821Y93234D01*
X69823Y93138D01*
X69847Y93010D01*
X69862Y92881D01*
X69890Y92790D01*
X69908Y92696D01*
X69955Y92575D01*
X69993Y92450D01*
X70036Y92365D01*
X70070Y92276D01*
X70138Y92165D01*
X70197Y92049D01*
X70255Y91973D01*
X70304Y91891D01*
X70390Y91794D01*
X70469Y91690D01*
X70539Y91625D01*
X70603Y91554D01*
X70704Y91473D01*
X70800Y91385D01*
X70881Y91334D01*
X70956Y91274D01*
X71070Y91213D01*
X71180Y91143D01*
X71268Y91107D01*
X71353Y91062D01*
X71476Y91022D01*
X71596Y90972D01*
X71690Y90952D01*
X71781Y90923D01*
X71909Y90905D01*
X72037Y90877D01*
X72166Y90869D01*
X72227Y90861D01*
X72272Y90863D01*
X72349Y90858D01*
X109860Y90858D01*
X110024Y90873D01*
G37*
%LPC*%
G36*
X351305Y-208688D02*
X351305Y-208688D01*
X343370Y-205401D01*
X337296Y-199327D01*
X334009Y-191392D01*
X334009Y-182802D01*
X337296Y-174867D01*
X343370Y-168793D01*
X351305Y-165506D01*
X359895Y-165506D01*
X367830Y-168793D01*
X373904Y-174867D01*
X377191Y-182802D01*
X377191Y-191392D01*
X373904Y-199327D01*
X367830Y-205401D01*
X359895Y-208688D01*
X351305Y-208688D01*
G37*
%LPD*%
%LPC*%
G36*
X379787Y-164694D02*
X379787Y-164694D01*
X377378Y-164422D01*
X375013Y-163883D01*
X374892Y-163840D01*
X382859Y-150041D01*
X396639Y-157997D01*
X395410Y-159227D01*
X393514Y-160739D01*
X391460Y-162029D01*
X389275Y-163082D01*
X386987Y-163883D01*
X384622Y-164422D01*
X382213Y-164694D01*
X379787Y-164694D01*
G37*
%LPD*%
%LPC*%
G36*
X387938Y-141244D02*
X387938Y-141244D01*
X395894Y-127463D01*
X397124Y-128693D01*
X398636Y-130589D01*
X399926Y-132643D01*
X400979Y-134828D01*
X401780Y-137116D01*
X402319Y-139481D01*
X402591Y-141890D01*
X402591Y-144315D01*
X402319Y-146725D01*
X401780Y-149090D01*
X401737Y-149211D01*
X387938Y-141244D01*
G37*
%LPD*%
%LPC*%
G36*
X364876Y-157512D02*
X364876Y-157512D01*
X363364Y-155617D01*
X362074Y-153563D01*
X361021Y-151378D01*
X360220Y-149090D01*
X359681Y-146725D01*
X359409Y-144315D01*
X359409Y-141890D01*
X359681Y-139481D01*
X360220Y-137116D01*
X360263Y-136995D01*
X374062Y-144962D01*
X366106Y-158742D01*
X364876Y-157512D01*
G37*
%LPD*%
%LPC*%
G36*
X365361Y-128209D02*
X365361Y-128209D01*
X366590Y-126979D01*
X368486Y-125467D01*
X370540Y-124176D01*
X372725Y-123124D01*
X375013Y-122323D01*
X377378Y-121784D01*
X379787Y-121512D01*
X382213Y-121512D01*
X384622Y-121784D01*
X386987Y-122323D01*
X387108Y-122366D01*
X379141Y-136165D01*
X365361Y-128209D01*
G37*
%LPD*%
%LPC*%
G36*
X-125864Y315029D02*
X-125864Y315029D01*
X-128460Y316104D01*
X-130446Y318090D01*
X-131521Y320686D01*
X-131521Y323494D01*
X-130446Y326090D01*
X-128460Y328076D01*
X-125864Y329151D01*
X-123056Y329151D01*
X-120460Y328076D01*
X-118474Y326090D01*
X-117399Y323494D01*
X-117399Y320686D01*
X-118474Y318090D01*
X-120460Y316104D01*
X-123056Y315029D01*
X-125864Y315029D01*
G37*
%LPD*%
%LPC*%
G36*
X130676Y208349D02*
X130676Y208349D01*
X128080Y209424D01*
X126094Y211410D01*
X125019Y214006D01*
X125019Y216814D01*
X126094Y219410D01*
X128080Y221396D01*
X130676Y222471D01*
X133484Y222471D01*
X136080Y221396D01*
X138066Y219410D01*
X139141Y216814D01*
X139141Y214006D01*
X138066Y211410D01*
X136080Y209424D01*
X133484Y208349D01*
X130676Y208349D01*
G37*
%LPD*%
%LPC*%
G36*
X-134Y-384741D02*
X-134Y-384741D01*
X-2730Y-383666D01*
X-4716Y-381680D01*
X-5791Y-379084D01*
X-5791Y-376276D01*
X-4716Y-373680D01*
X-2730Y-371694D01*
X-134Y-370619D01*
X2674Y-370619D01*
X5270Y-371694D01*
X7256Y-373680D01*
X8331Y-376276D01*
X8331Y-379084D01*
X7256Y-381680D01*
X5270Y-383666D01*
X2674Y-384741D01*
X-134Y-384741D01*
G37*
%LPD*%
%LPC*%
G36*
X407046Y-4521D02*
X407046Y-4521D01*
X404450Y-3446D01*
X402464Y-1460D01*
X401389Y1136D01*
X401389Y3944D01*
X402464Y6540D01*
X404450Y8526D01*
X407046Y9601D01*
X409854Y9601D01*
X412450Y8526D01*
X414436Y6540D01*
X415511Y3944D01*
X415511Y1136D01*
X414436Y-1460D01*
X412450Y-3446D01*
X409854Y-4521D01*
X407046Y-4521D01*
G37*
%LPD*%
%LPC*%
G36*
X380999Y-143103D02*
X380999Y-143103D01*
X381000Y-143102D01*
X381001Y-143103D01*
X381000Y-143104D01*
X380999Y-143103D01*
G37*
%LPD*%
D10*
X355600Y-187097D03*
X381000Y-143103D03*
D11*
X-271780Y-127000D02*
X-287020Y-127000D01*
X-287020Y-101600D02*
X-271780Y-101600D01*
X-271780Y-76200D02*
X-287020Y-76200D01*
X-287020Y-50800D02*
X-271780Y-50800D01*
X-271780Y-25400D02*
X-287020Y-25400D01*
X-287020Y0D02*
X-271780Y0D01*
D12*
X-50800Y269240D03*
X91440Y182880D03*
X30480Y132080D03*
X-182880Y35560D03*
X-182880Y294640D03*
X-81280Y406400D03*
X81280Y406400D03*
X162560Y386080D03*
X254000Y335280D03*
X350520Y238760D03*
X396240Y157480D03*
X416560Y91440D03*
X426720Y30480D03*
X421640Y-66040D03*
X350520Y-243840D03*
X228600Y-345440D03*
X60960Y-411480D03*
X-91440Y-406400D03*
X-177800Y-370840D03*
X-233680Y-335280D03*
X-325120Y-243840D03*
X-375920Y-157480D03*
X-401320Y-60960D03*
X-396240Y86360D03*
X-355600Y193040D03*
X-309880Y264160D03*
X-228600Y335280D03*
X-35560Y-147320D03*
X-142240Y-193040D03*
X-223520Y-86360D03*
X132080Y-279400D03*
X106680Y-60960D03*
X147320Y-66040D03*
X50800Y-152400D03*
X294640Y-76200D03*
X40640Y223520D03*
X137160Y66040D03*
X-320040Y50800D03*
X-142240Y-81280D03*
X91440Y106680D03*
D13*
X11192Y100812D02*
X11192Y30381D01*
X11192Y100812D02*
X4476Y107527D01*
X88353Y212727D02*
X102844Y212727D01*
X88353Y212727D02*
X88353Y235380D01*
X80926Y242807D01*
D12*
X11192Y30381D03*
D13*
X4476Y107527D02*
X4476Y128850D01*
X88353Y212727D01*
D12*
X80926Y242807D03*
X4476Y107527D03*
X102844Y212727D03*
D13*
X-261112Y-25400D02*
X-279400Y-25400D01*
D12*
X-191179Y-31701D03*
D13*
X-254811Y-31701D02*
X-261112Y-25400D01*
X-254811Y-31701D02*
X-191179Y-31701D01*
X-209892Y-137684D02*
X-209892Y-223603D01*
X-48700Y-384795D01*
X-19483Y-384795D01*
X-209892Y-136672D02*
X-193313Y-120093D01*
X-209892Y-136672D02*
X-209892Y-137684D01*
X-291464Y-137684D01*
X-378073Y-51075D01*
X-378073Y-34712D01*
D12*
X-19483Y-384795D03*
D13*
X-17271Y377597D02*
X-38102Y377597D01*
X-366047Y49652D01*
X-366047Y-22686D01*
X-378073Y-34712D01*
X67478Y301518D02*
X67478Y302946D01*
X-7173Y377597D01*
X-17271Y377597D01*
D12*
X-378073Y-34712D03*
D13*
X67478Y301518D02*
X77450Y301518D01*
X147994Y230974D01*
D12*
X67478Y301518D03*
D13*
X-193313Y-112000D02*
X-193313Y-120093D01*
X-193313Y-112000D02*
X-78514Y2799D01*
D12*
X-17271Y377597D03*
D13*
X147994Y230974D02*
X176302Y230974D01*
X383958Y23319D01*
D12*
X147994Y230974D03*
X-193313Y-120093D03*
X383958Y23319D03*
X-78514Y2799D03*
D13*
X86432Y10517D02*
X86432Y-176686D01*
X86432Y10517D02*
X76749Y20200D01*
D12*
X86432Y-176686D03*
X76749Y20200D03*
D13*
X69174Y35240D02*
X69174Y1420D01*
X79384Y-8789D01*
X79384Y-198237D01*
X110649Y-229502D01*
D12*
X110649Y-229502D03*
X69174Y35240D03*
D13*
X85046Y28192D02*
X85046Y22444D01*
X117697Y-10207D01*
X117697Y-255118D01*
X117602Y-255213D01*
D12*
X117602Y-255213D03*
X85046Y28192D03*
D13*
X111031Y16141D02*
X185258Y90368D01*
D12*
X111031Y16141D03*
X185258Y90368D03*
D13*
X167378Y58708D02*
X139201Y30531D01*
D12*
X139201Y30531D03*
X167378Y58708D03*
D13*
X187958Y164290D02*
X122791Y164290D01*
X56039Y97538D01*
D12*
X56039Y97538D03*
X187958Y164290D03*
D13*
X189370Y141199D02*
X109733Y141199D01*
X59024Y90490D01*
X44294Y90490D01*
X41689Y93095D01*
D12*
X41689Y93095D03*
X189370Y141199D03*
D13*
X104255Y50286D02*
X40105Y50286D01*
X104255Y50286D02*
X178709Y124740D01*
X241986Y124740D01*
D12*
X40105Y50286D03*
X241986Y124740D03*
D13*
X32646Y86032D02*
X28859Y89818D01*
X32646Y86032D02*
X112911Y86032D01*
X160862Y133982D01*
X197089Y133982D01*
X201205Y138099D01*
D12*
X28859Y89818D03*
X201205Y138099D03*
D13*
X252312Y124410D02*
X375709Y1013D01*
X376891Y1013D01*
X141111Y183288D02*
X139948Y184451D01*
X141111Y183288D02*
X193434Y183288D01*
X252312Y124410D01*
X142247Y14345D01*
D12*
X142247Y14345D03*
X139948Y184451D03*
X376891Y1013D03*
D13*
X68547Y-21058D02*
X52649Y-21058D01*
X1017Y30573D01*
X1017Y87533D01*
X-2572Y91122D01*
X-2572Y233830D01*
X45909Y282311D01*
X45909Y314509D01*
X13715Y346702D01*
X83638Y282311D02*
X84985Y280964D01*
X83638Y282311D02*
X45909Y282311D01*
D12*
X68547Y-21058D03*
X13715Y346702D03*
X84985Y280964D03*
D13*
X-65541Y130347D02*
X-219614Y130347D01*
X-65541Y130347D02*
X-65431Y130237D01*
X-63194Y130237D01*
X-15176Y82219D01*
D12*
X-120566Y285160D03*
D13*
X-219614Y186112D02*
X-219614Y130347D01*
X-219614Y186112D02*
X-120566Y285160D01*
X-219614Y115151D02*
X-358999Y-24234D01*
X-219614Y115151D02*
X-219614Y130347D01*
D12*
X-15176Y82219D03*
X-358999Y-24234D03*
D13*
X-117054Y-310681D02*
X19350Y-310681D01*
X-117054Y-310681D02*
X-168944Y-258792D01*
X-168944Y-138193D01*
X19350Y-310681D02*
X19350Y-391251D01*
X21419Y-393319D01*
X19350Y-310681D02*
X19350Y-55965D01*
D12*
X19350Y-55965D03*
X21419Y-393319D03*
X-168944Y-138193D03*
D13*
X-97317Y9433D02*
X-96755Y9995D01*
X-96755Y119208D01*
D12*
X-97317Y9433D03*
X-96755Y119208D03*
D13*
X-3985Y-3270D02*
X19206Y-26461D01*
X-3985Y-3270D02*
X-3985Y86788D01*
X-55463Y138265D01*
X-55463Y140205D01*
X-64670Y149412D01*
X-212531Y149412D01*
D12*
X-212531Y149412D03*
X19206Y-26461D03*
D13*
X-60230Y137285D02*
X-62511Y137285D01*
X-60230Y137285D02*
X-8117Y85172D01*
X-8117Y66948D01*
X-17909Y57155D01*
D12*
X-62511Y137285D03*
X-17909Y57155D03*
D13*
X7141Y-36271D02*
X45053Y-36271D01*
X7141Y-36271D02*
X-76634Y-120046D01*
X-76634Y-252972D01*
D12*
X45053Y-36271D03*
X-76634Y-252972D03*
D13*
X-16172Y-148D02*
X-16172Y45914D01*
X-16172Y-148D02*
X-122959Y-106935D01*
X-122959Y-285212D01*
D12*
X-16172Y45914D03*
X-122959Y-285212D03*
D13*
X-26070Y51683D02*
X-26070Y81588D01*
X-26070Y51683D02*
X-24431Y50044D01*
X-24431Y11372D01*
X-160409Y-124607D01*
X-160409Y-257358D01*
D12*
X-26070Y81588D03*
X-160409Y-257358D03*
D13*
X-66518Y-303614D02*
X-5031Y-242128D01*
X-5031Y-64198D01*
D12*
X-5031Y-64198D03*
X-66518Y-303614D03*
X-29201Y-23146D03*
D13*
X-112357Y-106301D02*
X-112357Y-264606D01*
X-112357Y-106301D02*
X-29201Y-23146D01*
D12*
X-112357Y-264606D03*
D13*
X-93720Y-253532D02*
X-93720Y-104245D01*
X-20421Y-30947D01*
D12*
X-20421Y-30947D03*
X-93720Y-253532D03*
X231115Y-164927D03*
D13*
X40222Y21488D02*
X61078Y42344D01*
X80869Y42344D01*
X97333Y25881D01*
X97333Y19871D01*
X231115Y-113911D01*
X231115Y-164927D01*
D12*
X40222Y21488D03*
D13*
X-31507Y24971D02*
X-66366Y24971D01*
X-218336Y-127000D01*
X-279400Y-127000D01*
D12*
X-31507Y24971D03*
D13*
X-261112Y-76200D02*
X-279400Y-76200D01*
X-232230Y-47318D02*
X-200596Y-47318D01*
X-232230Y-47318D02*
X-261112Y-76200D01*
D12*
X-200596Y-47318D03*
D13*
X-261112Y0D02*
X-134845Y126267D01*
X-69544Y126267D01*
X-35791Y92514D01*
X-261112Y0D02*
X-279400Y0D01*
D12*
X-35791Y92514D03*
D13*
X-2500Y-31569D02*
X-85841Y-114910D01*
X-85841Y-260517D01*
X-119249Y-293925D01*
X-119249Y-298518D01*
D12*
X-2500Y-31569D03*
X-119249Y-298518D03*
D13*
X-109212Y-293856D02*
X-107516Y-293856D01*
X-69535Y-255875D01*
X-69535Y-118695D01*
X-6718Y-55878D01*
X1835Y-55878D01*
D12*
X1835Y-55878D03*
X-109212Y-293856D03*
D13*
X39503Y8744D02*
X21770Y26477D01*
X21770Y92716D01*
X120618Y191563D01*
X187184Y191563D01*
X188411Y190337D01*
D12*
X39503Y8744D03*
X188411Y190337D03*
M02*
