G04 EAGLE Gerber RS-274X export*
G75*
%MOMM*%
%FSLAX34Y34*%
%LPD*%
%IN*%
%IPPOS*%
%AMOC8*
5,1,8,0,0,1.08239X$1,22.5*%
G01*
%ADD10C,0.254000*%


D10*
X444500Y-5299D02*
X444500Y5299D01*
X444240Y15895D01*
X443720Y26480D01*
X442940Y37050D01*
X441901Y47598D01*
X440604Y58116D01*
X439049Y68600D01*
X437237Y79043D01*
X435169Y89437D01*
X432847Y99778D01*
X430272Y110059D01*
X427445Y120274D01*
X424369Y130416D01*
X421044Y140480D01*
X417473Y150459D01*
X413659Y160347D01*
X409603Y170139D01*
X405308Y179828D01*
X400777Y189409D01*
X396012Y198876D01*
X391016Y208223D01*
X385792Y217444D01*
X380343Y226535D01*
X374673Y235489D01*
X368784Y244301D01*
X362682Y252967D01*
X356368Y261479D01*
X349848Y269835D01*
X343124Y278027D01*
X336201Y286053D01*
X329084Y293906D01*
X321776Y301582D01*
X314282Y309076D01*
X306606Y316384D01*
X298753Y323501D01*
X290727Y330424D01*
X282535Y337148D01*
X274179Y343668D01*
X265667Y349982D01*
X257001Y356084D01*
X248189Y361973D01*
X239235Y367643D01*
X230144Y373092D01*
X220923Y378316D01*
X211576Y383312D01*
X202109Y388077D01*
X192528Y392608D01*
X182839Y396903D01*
X173047Y400959D01*
X163159Y404773D01*
X153180Y408344D01*
X143116Y411669D01*
X132974Y414745D01*
X122759Y417572D01*
X112478Y420147D01*
X102137Y422469D01*
X91743Y424537D01*
X81300Y426349D01*
X70816Y427904D01*
X60298Y429201D01*
X49750Y430240D01*
X39180Y431020D01*
X28595Y431540D01*
X17999Y431800D01*
X7401Y431800D01*
X-3195Y431540D01*
X-13780Y431020D01*
X-24350Y430240D01*
X-34898Y429201D01*
X-45416Y427904D01*
X-55900Y426349D01*
X-66343Y424537D01*
X-76737Y422469D01*
X-87078Y420147D01*
X-97359Y417572D01*
X-107574Y414745D01*
X-117716Y411669D01*
X-127780Y408344D01*
X-137759Y404773D01*
X-147647Y400959D01*
X-157439Y396903D01*
X-167128Y392608D01*
X-176709Y388077D01*
X-186176Y383312D01*
X-195523Y378316D01*
X-204744Y373092D01*
X-213835Y367643D01*
X-222789Y361973D01*
X-231601Y356084D01*
X-240267Y349982D01*
X-248779Y343668D01*
X-257135Y337148D01*
X-265327Y330424D01*
X-273353Y323501D01*
X-281206Y316384D01*
X-288882Y309076D01*
X-296376Y301582D01*
X-303684Y293906D01*
X-310801Y286053D01*
X-317724Y278027D01*
X-324448Y269835D01*
X-330968Y261479D01*
X-337282Y252967D01*
X-343384Y244301D01*
X-349273Y235489D01*
X-354943Y226535D01*
X-360392Y217444D01*
X-365616Y208223D01*
X-370612Y198876D01*
X-375377Y189409D01*
X-379908Y179828D01*
X-384203Y170139D01*
X-388259Y160347D01*
X-392073Y150459D01*
X-395644Y140480D01*
X-398969Y130416D01*
X-402045Y120274D01*
X-404872Y110059D01*
X-407447Y99778D01*
X-409769Y89437D01*
X-411837Y79043D01*
X-413649Y68600D01*
X-415204Y58116D01*
X-416501Y47598D01*
X-417540Y37050D01*
X-418320Y26480D01*
X-418840Y15895D01*
X-419100Y5299D01*
X-419100Y-5299D01*
X-418840Y-15895D01*
X-418320Y-26480D01*
X-417540Y-37050D01*
X-416501Y-47598D01*
X-415204Y-58116D01*
X-413649Y-68600D01*
X-411837Y-79043D01*
X-409769Y-89437D01*
X-407447Y-99778D01*
X-404872Y-110059D01*
X-402045Y-120274D01*
X-398969Y-130416D01*
X-395644Y-140480D01*
X-392073Y-150459D01*
X-388259Y-160347D01*
X-384203Y-170139D01*
X-379908Y-179828D01*
X-375377Y-189409D01*
X-370612Y-198876D01*
X-365616Y-208223D01*
X-360392Y-217444D01*
X-354943Y-226535D01*
X-349273Y-235489D01*
X-343384Y-244301D01*
X-337282Y-252967D01*
X-330968Y-261479D01*
X-324448Y-269835D01*
X-317724Y-278027D01*
X-310801Y-286053D01*
X-303684Y-293906D01*
X-296376Y-301582D01*
X-288882Y-309076D01*
X-281206Y-316384D01*
X-273353Y-323501D01*
X-265327Y-330424D01*
X-257135Y-337148D01*
X-248779Y-343668D01*
X-240267Y-349982D01*
X-231601Y-356084D01*
X-222789Y-361973D01*
X-213835Y-367643D01*
X-204744Y-373092D01*
X-195523Y-378316D01*
X-186176Y-383312D01*
X-176709Y-388077D01*
X-167128Y-392608D01*
X-157439Y-396903D01*
X-147647Y-400959D01*
X-137759Y-404773D01*
X-127780Y-408344D01*
X-117716Y-411669D01*
X-107574Y-414745D01*
X-97359Y-417572D01*
X-87078Y-420147D01*
X-76737Y-422469D01*
X-66343Y-424537D01*
X-55900Y-426349D01*
X-45416Y-427904D01*
X-34898Y-429201D01*
X-24350Y-430240D01*
X-13780Y-431020D01*
X-3195Y-431540D01*
X7401Y-431800D01*
X17999Y-431800D01*
X28595Y-431540D01*
X39180Y-431020D01*
X49750Y-430240D01*
X60298Y-429201D01*
X70816Y-427904D01*
X81300Y-426349D01*
X91743Y-424537D01*
X102137Y-422469D01*
X112478Y-420147D01*
X122759Y-417572D01*
X132974Y-414745D01*
X143116Y-411669D01*
X153180Y-408344D01*
X163159Y-404773D01*
X173047Y-400959D01*
X182839Y-396903D01*
X192528Y-392608D01*
X202109Y-388077D01*
X211576Y-383312D01*
X220923Y-378316D01*
X230144Y-373092D01*
X239235Y-367643D01*
X248189Y-361973D01*
X257001Y-356084D01*
X265667Y-349982D01*
X274179Y-343668D01*
X282535Y-337148D01*
X290727Y-330424D01*
X298753Y-323501D01*
X306606Y-316384D01*
X314282Y-309076D01*
X321776Y-301582D01*
X329084Y-293906D01*
X336201Y-286053D01*
X343124Y-278027D01*
X349848Y-269835D01*
X356368Y-261479D01*
X362682Y-252967D01*
X368784Y-244301D01*
X374673Y-235489D01*
X380343Y-226535D01*
X385792Y-217444D01*
X391016Y-208223D01*
X396012Y-198876D01*
X400777Y-189409D01*
X405308Y-179828D01*
X409603Y-170139D01*
X413659Y-160347D01*
X417473Y-150459D01*
X421044Y-140480D01*
X424369Y-130416D01*
X427445Y-120274D01*
X430272Y-110059D01*
X432847Y-99778D01*
X435169Y-89437D01*
X437237Y-79043D01*
X439049Y-68600D01*
X440604Y-58116D01*
X441901Y-47598D01*
X442940Y-37050D01*
X443720Y-26480D01*
X444240Y-15895D01*
X444500Y-5299D01*
X-239000Y278864D02*
X-239076Y277796D01*
X-239229Y276735D01*
X-239457Y275688D01*
X-239759Y274660D01*
X-240133Y273656D01*
X-240578Y272681D01*
X-241092Y271741D01*
X-241671Y270840D01*
X-242313Y269982D01*
X-243015Y269172D01*
X-243772Y268415D01*
X-244582Y267713D01*
X-245440Y267071D01*
X-246341Y266492D01*
X-247281Y265978D01*
X-248256Y265533D01*
X-249260Y265159D01*
X-250288Y264857D01*
X-251335Y264629D01*
X-252396Y264476D01*
X-253464Y264400D01*
X-254536Y264400D01*
X-255604Y264476D01*
X-256665Y264629D01*
X-257712Y264857D01*
X-258740Y265159D01*
X-259744Y265533D01*
X-260719Y265978D01*
X-261659Y266492D01*
X-262560Y267071D01*
X-263418Y267713D01*
X-264228Y268415D01*
X-264985Y269172D01*
X-265687Y269982D01*
X-266329Y270840D01*
X-266908Y271741D01*
X-267422Y272681D01*
X-267867Y273656D01*
X-268241Y274660D01*
X-268543Y275688D01*
X-268771Y276735D01*
X-268924Y277796D01*
X-269000Y278864D01*
X-269000Y279936D01*
X-268924Y281004D01*
X-268771Y282065D01*
X-268543Y283112D01*
X-268241Y284140D01*
X-267867Y285144D01*
X-267422Y286119D01*
X-266908Y287059D01*
X-266329Y287960D01*
X-265687Y288818D01*
X-264985Y289628D01*
X-264228Y290385D01*
X-263418Y291087D01*
X-262560Y291729D01*
X-261659Y292308D01*
X-260719Y292822D01*
X-259744Y293267D01*
X-258740Y293641D01*
X-257712Y293943D01*
X-256665Y294171D01*
X-255604Y294324D01*
X-254536Y294400D01*
X-253464Y294400D01*
X-252396Y294324D01*
X-251335Y294171D01*
X-250288Y293943D01*
X-249260Y293641D01*
X-248256Y293267D01*
X-247281Y292822D01*
X-246341Y292308D01*
X-245440Y291729D01*
X-244582Y291087D01*
X-243772Y290385D01*
X-243015Y289628D01*
X-242313Y288818D01*
X-241671Y287960D01*
X-241092Y287059D01*
X-240578Y286119D01*
X-240133Y285144D01*
X-239759Y284140D01*
X-239457Y283112D01*
X-239229Y282065D01*
X-239076Y281004D01*
X-239000Y279936D01*
X-239000Y278864D01*
X-239000Y-279936D02*
X-239076Y-281004D01*
X-239229Y-282065D01*
X-239457Y-283112D01*
X-239759Y-284140D01*
X-240133Y-285144D01*
X-240578Y-286119D01*
X-241092Y-287059D01*
X-241671Y-287960D01*
X-242313Y-288818D01*
X-243015Y-289628D01*
X-243772Y-290385D01*
X-244582Y-291087D01*
X-245440Y-291729D01*
X-246341Y-292308D01*
X-247281Y-292822D01*
X-248256Y-293267D01*
X-249260Y-293641D01*
X-250288Y-293943D01*
X-251335Y-294171D01*
X-252396Y-294324D01*
X-253464Y-294400D01*
X-254536Y-294400D01*
X-255604Y-294324D01*
X-256665Y-294171D01*
X-257712Y-293943D01*
X-258740Y-293641D01*
X-259744Y-293267D01*
X-260719Y-292822D01*
X-261659Y-292308D01*
X-262560Y-291729D01*
X-263418Y-291087D01*
X-264228Y-290385D01*
X-264985Y-289628D01*
X-265687Y-288818D01*
X-266329Y-287960D01*
X-266908Y-287059D01*
X-267422Y-286119D01*
X-267867Y-285144D01*
X-268241Y-284140D01*
X-268543Y-283112D01*
X-268771Y-282065D01*
X-268924Y-281004D01*
X-269000Y-279936D01*
X-269000Y-278864D01*
X-268924Y-277796D01*
X-268771Y-276735D01*
X-268543Y-275688D01*
X-268241Y-274660D01*
X-267867Y-273656D01*
X-267422Y-272681D01*
X-266908Y-271741D01*
X-266329Y-270840D01*
X-265687Y-269982D01*
X-264985Y-269172D01*
X-264228Y-268415D01*
X-263418Y-267713D01*
X-262560Y-267071D01*
X-261659Y-266492D01*
X-260719Y-265978D01*
X-259744Y-265533D01*
X-258740Y-265159D01*
X-257712Y-264857D01*
X-256665Y-264629D01*
X-255604Y-264476D01*
X-254536Y-264400D01*
X-253464Y-264400D01*
X-252396Y-264476D01*
X-251335Y-264629D01*
X-250288Y-264857D01*
X-249260Y-265159D01*
X-248256Y-265533D01*
X-247281Y-265978D01*
X-246341Y-266492D01*
X-245440Y-267071D01*
X-244582Y-267713D01*
X-243772Y-268415D01*
X-243015Y-269172D01*
X-242313Y-269982D01*
X-241671Y-270840D01*
X-241092Y-271741D01*
X-240578Y-272681D01*
X-240133Y-273656D01*
X-239759Y-274660D01*
X-239457Y-275688D01*
X-239229Y-276735D01*
X-239076Y-277796D01*
X-239000Y-278864D01*
X-239000Y-279936D01*
X294400Y-279936D02*
X294324Y-281004D01*
X294171Y-282065D01*
X293943Y-283112D01*
X293641Y-284140D01*
X293267Y-285144D01*
X292822Y-286119D01*
X292308Y-287059D01*
X291729Y-287960D01*
X291087Y-288818D01*
X290385Y-289628D01*
X289628Y-290385D01*
X288818Y-291087D01*
X287960Y-291729D01*
X287059Y-292308D01*
X286119Y-292822D01*
X285144Y-293267D01*
X284140Y-293641D01*
X283112Y-293943D01*
X282065Y-294171D01*
X281004Y-294324D01*
X279936Y-294400D01*
X278864Y-294400D01*
X277796Y-294324D01*
X276735Y-294171D01*
X275688Y-293943D01*
X274660Y-293641D01*
X273656Y-293267D01*
X272681Y-292822D01*
X271741Y-292308D01*
X270840Y-291729D01*
X269982Y-291087D01*
X269172Y-290385D01*
X268415Y-289628D01*
X267713Y-288818D01*
X267071Y-287960D01*
X266492Y-287059D01*
X265978Y-286119D01*
X265533Y-285144D01*
X265159Y-284140D01*
X264857Y-283112D01*
X264629Y-282065D01*
X264476Y-281004D01*
X264400Y-279936D01*
X264400Y-278864D01*
X264476Y-277796D01*
X264629Y-276735D01*
X264857Y-275688D01*
X265159Y-274660D01*
X265533Y-273656D01*
X265978Y-272681D01*
X266492Y-271741D01*
X267071Y-270840D01*
X267713Y-269982D01*
X268415Y-269172D01*
X269172Y-268415D01*
X269982Y-267713D01*
X270840Y-267071D01*
X271741Y-266492D01*
X272681Y-265978D01*
X273656Y-265533D01*
X274660Y-265159D01*
X275688Y-264857D01*
X276735Y-264629D01*
X277796Y-264476D01*
X278864Y-264400D01*
X279936Y-264400D01*
X281004Y-264476D01*
X282065Y-264629D01*
X283112Y-264857D01*
X284140Y-265159D01*
X285144Y-265533D01*
X286119Y-265978D01*
X287059Y-266492D01*
X287960Y-267071D01*
X288818Y-267713D01*
X289628Y-268415D01*
X290385Y-269172D01*
X291087Y-269982D01*
X291729Y-270840D01*
X292308Y-271741D01*
X292822Y-272681D01*
X293267Y-273656D01*
X293641Y-274660D01*
X293943Y-275688D01*
X294171Y-276735D01*
X294324Y-277796D01*
X294400Y-278864D01*
X294400Y-279936D01*
X294400Y266164D02*
X294324Y265096D01*
X294171Y264035D01*
X293943Y262988D01*
X293641Y261960D01*
X293267Y260956D01*
X292822Y259981D01*
X292308Y259041D01*
X291729Y258140D01*
X291087Y257282D01*
X290385Y256472D01*
X289628Y255715D01*
X288818Y255013D01*
X287960Y254371D01*
X287059Y253792D01*
X286119Y253278D01*
X285144Y252833D01*
X284140Y252459D01*
X283112Y252157D01*
X282065Y251929D01*
X281004Y251776D01*
X279936Y251700D01*
X278864Y251700D01*
X277796Y251776D01*
X276735Y251929D01*
X275688Y252157D01*
X274660Y252459D01*
X273656Y252833D01*
X272681Y253278D01*
X271741Y253792D01*
X270840Y254371D01*
X269982Y255013D01*
X269172Y255715D01*
X268415Y256472D01*
X267713Y257282D01*
X267071Y258140D01*
X266492Y259041D01*
X265978Y259981D01*
X265533Y260956D01*
X265159Y261960D01*
X264857Y262988D01*
X264629Y264035D01*
X264476Y265096D01*
X264400Y266164D01*
X264400Y267236D01*
X264476Y268304D01*
X264629Y269365D01*
X264857Y270412D01*
X265159Y271440D01*
X265533Y272444D01*
X265978Y273419D01*
X266492Y274359D01*
X267071Y275260D01*
X267713Y276118D01*
X268415Y276928D01*
X269172Y277685D01*
X269982Y278387D01*
X270840Y279029D01*
X271741Y279608D01*
X272681Y280122D01*
X273656Y280567D01*
X274660Y280941D01*
X275688Y281243D01*
X276735Y281471D01*
X277796Y281624D01*
X278864Y281700D01*
X279936Y281700D01*
X281004Y281624D01*
X282065Y281471D01*
X283112Y281243D01*
X284140Y280941D01*
X285144Y280567D01*
X286119Y280122D01*
X287059Y279608D01*
X287960Y279029D01*
X288818Y278387D01*
X289628Y277685D01*
X290385Y276928D01*
X291087Y276118D01*
X291729Y275260D01*
X292308Y274359D01*
X292822Y273419D01*
X293267Y272444D01*
X293641Y271440D01*
X293943Y270412D01*
X294171Y269365D01*
X294324Y268304D01*
X294400Y267236D01*
X294400Y266164D01*
X-2430Y389373D02*
X-2374Y389795D01*
X-2264Y390207D01*
X-2101Y390601D01*
X-1888Y390969D01*
X-1629Y391307D01*
X-1327Y391609D01*
X-989Y391868D01*
X-621Y392081D01*
X-227Y392244D01*
X185Y392354D01*
X607Y392410D01*
X1033Y392410D01*
X1455Y392354D01*
X1867Y392244D01*
X2261Y392081D01*
X2629Y391868D01*
X2967Y391609D01*
X3269Y391307D01*
X3528Y390969D01*
X3741Y390601D01*
X3904Y390207D01*
X4014Y389795D01*
X4070Y389373D01*
X4070Y388947D01*
X4014Y388525D01*
X3904Y388113D01*
X3741Y387719D01*
X3528Y387351D01*
X3269Y387013D01*
X2967Y386711D01*
X2629Y386452D01*
X2261Y386239D01*
X1867Y386076D01*
X1455Y385966D01*
X1033Y385910D01*
X607Y385910D01*
X185Y385966D01*
X-227Y386076D01*
X-621Y386239D01*
X-989Y386452D01*
X-1327Y386711D01*
X-1629Y387013D01*
X-1888Y387351D01*
X-2101Y387719D01*
X-2264Y388113D01*
X-2374Y388525D01*
X-2430Y388947D01*
X-2430Y389373D01*
X408663Y5790D02*
X409085Y5734D01*
X409497Y5624D01*
X409891Y5461D01*
X410259Y5248D01*
X410597Y4989D01*
X410899Y4687D01*
X411158Y4349D01*
X411371Y3981D01*
X411534Y3587D01*
X411644Y3175D01*
X411700Y2753D01*
X411700Y2327D01*
X411644Y1905D01*
X411534Y1493D01*
X411371Y1099D01*
X411158Y731D01*
X410899Y393D01*
X410597Y91D01*
X410259Y-168D01*
X409891Y-381D01*
X409497Y-544D01*
X409085Y-654D01*
X408663Y-710D01*
X408237Y-710D01*
X407815Y-654D01*
X407403Y-544D01*
X407009Y-381D01*
X406641Y-168D01*
X406303Y91D01*
X406001Y393D01*
X405742Y731D01*
X405529Y1099D01*
X405366Y1493D01*
X405256Y1905D01*
X405200Y2327D01*
X405200Y2753D01*
X405256Y3175D01*
X405366Y3587D01*
X405529Y3981D01*
X405742Y4349D01*
X406001Y4687D01*
X406303Y4989D01*
X406641Y5248D01*
X407009Y5461D01*
X407403Y5624D01*
X407815Y5734D01*
X408237Y5790D01*
X408663Y5790D01*
X-381710Y-2817D02*
X-381654Y-2395D01*
X-381544Y-1983D01*
X-381381Y-1589D01*
X-381168Y-1221D01*
X-380909Y-883D01*
X-380607Y-581D01*
X-380269Y-322D01*
X-379901Y-109D01*
X-379507Y54D01*
X-379095Y164D01*
X-378673Y220D01*
X-378247Y220D01*
X-377825Y164D01*
X-377413Y54D01*
X-377019Y-109D01*
X-376651Y-322D01*
X-376313Y-581D01*
X-376011Y-883D01*
X-375752Y-1221D01*
X-375539Y-1589D01*
X-375376Y-1983D01*
X-375266Y-2395D01*
X-375210Y-2817D01*
X-375210Y-3243D01*
X-375266Y-3665D01*
X-375376Y-4077D01*
X-375539Y-4471D01*
X-375752Y-4839D01*
X-376011Y-5177D01*
X-376313Y-5479D01*
X-376651Y-5738D01*
X-377019Y-5951D01*
X-377413Y-6114D01*
X-377825Y-6224D01*
X-378247Y-6280D01*
X-378673Y-6280D01*
X-379095Y-6224D01*
X-379507Y-6114D01*
X-379901Y-5951D01*
X-380269Y-5738D01*
X-380607Y-5479D01*
X-380909Y-5177D01*
X-381168Y-4839D01*
X-381381Y-4471D01*
X-381544Y-4077D01*
X-381654Y-3665D01*
X-381710Y-3243D01*
X-381710Y-2817D01*
X-1980Y-377467D02*
X-1924Y-377045D01*
X-1814Y-376633D01*
X-1651Y-376239D01*
X-1438Y-375871D01*
X-1179Y-375533D01*
X-877Y-375231D01*
X-539Y-374972D01*
X-171Y-374759D01*
X223Y-374596D01*
X635Y-374486D01*
X1057Y-374430D01*
X1483Y-374430D01*
X1905Y-374486D01*
X2317Y-374596D01*
X2711Y-374759D01*
X3079Y-374972D01*
X3417Y-375231D01*
X3719Y-375533D01*
X3978Y-375871D01*
X4191Y-376239D01*
X4354Y-376633D01*
X4464Y-377045D01*
X4520Y-377467D01*
X4520Y-377893D01*
X4464Y-378315D01*
X4354Y-378727D01*
X4191Y-379121D01*
X3978Y-379489D01*
X3719Y-379827D01*
X3417Y-380129D01*
X3079Y-380388D01*
X2711Y-380601D01*
X2317Y-380764D01*
X1905Y-380874D01*
X1483Y-380930D01*
X1057Y-380930D01*
X635Y-380874D01*
X223Y-380764D01*
X-171Y-380601D01*
X-539Y-380388D01*
X-877Y-380129D01*
X-1179Y-379827D01*
X-1438Y-379489D01*
X-1651Y-379121D01*
X-1814Y-378727D01*
X-1924Y-378315D01*
X-1980Y-377893D01*
X-1980Y-377467D01*
X83110Y314683D02*
X83166Y315105D01*
X83276Y315517D01*
X83439Y315911D01*
X83652Y316279D01*
X83911Y316617D01*
X84213Y316919D01*
X84551Y317178D01*
X84919Y317391D01*
X85313Y317554D01*
X85725Y317664D01*
X86147Y317720D01*
X86573Y317720D01*
X86995Y317664D01*
X87407Y317554D01*
X87801Y317391D01*
X88169Y317178D01*
X88507Y316919D01*
X88809Y316617D01*
X89068Y316279D01*
X89281Y315911D01*
X89444Y315517D01*
X89554Y315105D01*
X89610Y314683D01*
X89610Y314257D01*
X89554Y313835D01*
X89444Y313423D01*
X89281Y313029D01*
X89068Y312661D01*
X88809Y312323D01*
X88507Y312021D01*
X88169Y311762D01*
X87801Y311549D01*
X87407Y311386D01*
X86995Y311276D01*
X86573Y311220D01*
X86147Y311220D01*
X85725Y311276D01*
X85313Y311386D01*
X84919Y311549D01*
X84551Y311762D01*
X84213Y312021D01*
X83911Y312323D01*
X83652Y312661D01*
X83439Y313029D01*
X83276Y313423D01*
X83166Y313835D01*
X83110Y314257D01*
X83110Y314683D01*
X128830Y215623D02*
X128886Y216045D01*
X128996Y216457D01*
X129159Y216851D01*
X129372Y217219D01*
X129631Y217557D01*
X129933Y217859D01*
X130271Y218118D01*
X130639Y218331D01*
X131033Y218494D01*
X131445Y218604D01*
X131867Y218660D01*
X132293Y218660D01*
X132715Y218604D01*
X133127Y218494D01*
X133521Y218331D01*
X133889Y218118D01*
X134227Y217859D01*
X134529Y217557D01*
X134788Y217219D01*
X135001Y216851D01*
X135164Y216457D01*
X135274Y216045D01*
X135330Y215623D01*
X135330Y215197D01*
X135274Y214775D01*
X135164Y214363D01*
X135001Y213969D01*
X134788Y213601D01*
X134529Y213263D01*
X134227Y212961D01*
X133889Y212702D01*
X133521Y212489D01*
X133127Y212326D01*
X132715Y212216D01*
X132293Y212160D01*
X131867Y212160D01*
X131445Y212216D01*
X131033Y212326D01*
X130639Y212489D01*
X130271Y212702D01*
X129933Y212961D01*
X129631Y213263D01*
X129372Y213601D01*
X129159Y213969D01*
X128996Y214363D01*
X128886Y214775D01*
X128830Y215197D01*
X128830Y215623D01*
X-178510Y-106957D02*
X-178454Y-106535D01*
X-178344Y-106123D01*
X-178181Y-105729D01*
X-177968Y-105361D01*
X-177709Y-105023D01*
X-177407Y-104721D01*
X-177069Y-104462D01*
X-176701Y-104249D01*
X-176307Y-104086D01*
X-175895Y-103976D01*
X-175473Y-103920D01*
X-175047Y-103920D01*
X-174625Y-103976D01*
X-174213Y-104086D01*
X-173819Y-104249D01*
X-173451Y-104462D01*
X-173113Y-104721D01*
X-172811Y-105023D01*
X-172552Y-105361D01*
X-172339Y-105729D01*
X-172176Y-106123D01*
X-172066Y-106535D01*
X-172010Y-106957D01*
X-172010Y-107383D01*
X-172066Y-107805D01*
X-172176Y-108217D01*
X-172339Y-108611D01*
X-172552Y-108979D01*
X-172811Y-109317D01*
X-173113Y-109619D01*
X-173451Y-109878D01*
X-173819Y-110091D01*
X-174213Y-110254D01*
X-174625Y-110364D01*
X-175047Y-110420D01*
X-175473Y-110420D01*
X-175895Y-110364D01*
X-176307Y-110254D01*
X-176701Y-110091D01*
X-177069Y-109878D01*
X-177407Y-109619D01*
X-177709Y-109317D01*
X-177968Y-108979D01*
X-178181Y-108611D01*
X-178344Y-108217D01*
X-178454Y-107805D01*
X-178510Y-107383D01*
X-178510Y-106957D01*
X-127710Y322303D02*
X-127654Y322725D01*
X-127544Y323137D01*
X-127381Y323531D01*
X-127168Y323899D01*
X-126909Y324237D01*
X-126607Y324539D01*
X-126269Y324798D01*
X-125901Y325011D01*
X-125507Y325174D01*
X-125095Y325284D01*
X-124673Y325340D01*
X-124247Y325340D01*
X-123825Y325284D01*
X-123413Y325174D01*
X-123019Y325011D01*
X-122651Y324798D01*
X-122313Y324539D01*
X-122011Y324237D01*
X-121752Y323899D01*
X-121539Y323531D01*
X-121376Y323137D01*
X-121266Y322725D01*
X-121210Y322303D01*
X-121210Y321877D01*
X-121266Y321455D01*
X-121376Y321043D01*
X-121539Y320649D01*
X-121752Y320281D01*
X-122011Y319943D01*
X-122313Y319641D01*
X-122651Y319382D01*
X-123019Y319169D01*
X-123413Y319006D01*
X-123825Y318896D01*
X-124247Y318840D01*
X-124673Y318840D01*
X-125095Y318896D01*
X-125507Y319006D01*
X-125901Y319169D01*
X-126269Y319382D01*
X-126607Y319641D01*
X-126909Y319943D01*
X-127168Y320281D01*
X-127381Y320649D01*
X-127544Y321043D01*
X-127654Y321455D01*
X-127710Y321877D01*
X-127710Y322303D01*
M02*
