G04 EAGLE Gerber RS-274X export*
G75*
%MOMM*%
%FSLAX34Y34*%
%LPD*%
%INSilkscreen Bottom*%
%IPPOS*%
%AMOC8*
5,1,8,0,0,1.08239X$1,22.5*%
G01*
%ADD10C,0.152400*%
%ADD11C,0.076200*%
%ADD12C,0.508000*%
%ADD13C,0.500000*%
%ADD14C,0.203200*%

G36*
X-291Y5166D02*
X-291Y5166D01*
X-125Y5165D01*
X-68Y5174D01*
X-11Y5176D01*
X152Y5211D01*
X316Y5239D01*
X370Y5259D01*
X426Y5271D01*
X579Y5335D01*
X736Y5391D01*
X785Y5420D01*
X838Y5442D01*
X978Y5532D01*
X1122Y5615D01*
X1166Y5653D01*
X1214Y5683D01*
X1401Y5845D01*
X4301Y8602D01*
X4307Y8608D01*
X4318Y8618D01*
X5755Y10011D01*
X5760Y10017D01*
X5771Y10027D01*
X8619Y12837D01*
X8627Y12847D01*
X8644Y12862D01*
X11452Y15712D01*
X11461Y15723D01*
X11482Y15743D01*
X14240Y18641D01*
X14249Y18652D01*
X14268Y18671D01*
X15624Y20142D01*
X15631Y20152D01*
X15647Y20168D01*
X16982Y21658D01*
X16991Y21670D01*
X17011Y21691D01*
X18319Y23204D01*
X18330Y23219D01*
X18356Y23247D01*
X19630Y24789D01*
X19644Y24810D01*
X19681Y24853D01*
X20904Y26435D01*
X20923Y26465D01*
X20978Y26537D01*
X22120Y28179D01*
X22133Y28200D01*
X22237Y28363D01*
X23232Y30098D01*
X23247Y30131D01*
X23300Y30225D01*
X24193Y32015D01*
X24205Y32045D01*
X24241Y32117D01*
X25052Y33945D01*
X25064Y33979D01*
X25102Y34067D01*
X25817Y35935D01*
X25827Y35971D01*
X25866Y36078D01*
X26466Y37986D01*
X26474Y38023D01*
X26511Y38149D01*
X26981Y40093D01*
X26986Y40129D01*
X27017Y40271D01*
X27344Y42244D01*
X27346Y42273D01*
X27353Y42299D01*
X27354Y42331D01*
X27368Y42427D01*
X27548Y44419D01*
X27548Y44456D01*
X27558Y44597D01*
X27597Y46596D01*
X27594Y46634D01*
X27595Y46754D01*
X27508Y48752D01*
X27503Y48789D01*
X27494Y48925D01*
X27268Y50912D01*
X27265Y50926D01*
X27231Y51144D01*
X26820Y53101D01*
X26816Y53114D01*
X26761Y53328D01*
X26168Y55238D01*
X26162Y55254D01*
X26090Y55454D01*
X25325Y57301D01*
X25315Y57321D01*
X25231Y57502D01*
X24305Y59275D01*
X24290Y59299D01*
X24199Y59458D01*
X23127Y61146D01*
X23107Y61171D01*
X23011Y61313D01*
X21805Y62908D01*
X21782Y62933D01*
X21682Y63058D01*
X20356Y64555D01*
X20336Y64575D01*
X20209Y64708D01*
X18762Y66087D01*
X18721Y66119D01*
X18685Y66157D01*
X18491Y66311D01*
X16865Y67473D01*
X16832Y67493D01*
X16801Y67517D01*
X16589Y67645D01*
X14825Y68587D01*
X14814Y68592D01*
X14803Y68598D01*
X14578Y68702D01*
X12722Y69446D01*
X12706Y69451D01*
X12504Y69522D01*
X10586Y70092D01*
X10555Y70098D01*
X10393Y70141D01*
X8436Y70555D01*
X8400Y70560D01*
X8260Y70586D01*
X6279Y70860D01*
X6242Y70862D01*
X6114Y70877D01*
X4119Y71019D01*
X4082Y71019D01*
X3959Y71026D01*
X1959Y71040D01*
X1922Y71037D01*
X1792Y71035D01*
X-204Y70916D01*
X-239Y70911D01*
X-333Y70905D01*
X-2321Y70682D01*
X-2349Y70677D01*
X-2414Y70670D01*
X-4392Y70374D01*
X-4424Y70366D01*
X-4507Y70354D01*
X-6469Y69965D01*
X-6504Y69955D01*
X-6608Y69934D01*
X-8545Y69434D01*
X-8580Y69422D01*
X-8708Y69386D01*
X-10607Y68756D01*
X-10635Y68743D01*
X-10797Y68684D01*
X-13623Y67482D01*
X-13738Y67420D01*
X-13857Y67367D01*
X-13986Y67287D01*
X-14017Y67271D01*
X-14032Y67258D01*
X-14067Y67237D01*
X-16483Y65565D01*
X-16498Y65553D01*
X-16514Y65543D01*
X-16708Y65389D01*
X-18212Y64072D01*
X-18213Y64071D01*
X-18389Y63901D01*
X-19756Y62442D01*
X-19763Y62433D01*
X-19910Y62261D01*
X-21133Y60679D01*
X-21141Y60666D01*
X-21266Y60488D01*
X-22869Y57960D01*
X-22915Y57870D01*
X-22970Y57786D01*
X-23072Y57566D01*
X-23073Y57563D01*
X-23074Y57562D01*
X-23074Y57561D01*
X-24206Y54767D01*
X-24214Y54743D01*
X-24279Y54562D01*
X-24866Y52650D01*
X-24872Y52624D01*
X-24909Y52483D01*
X-24915Y52467D01*
X-24917Y52456D01*
X-24920Y52443D01*
X-24923Y52429D01*
X-24927Y52400D01*
X-24958Y52224D01*
X-25724Y46300D01*
X-25728Y46216D01*
X-25740Y46133D01*
X-25743Y45885D01*
X-25667Y43887D01*
X-25664Y43856D01*
X-25651Y43683D01*
X-25412Y41697D01*
X-25406Y41666D01*
X-25380Y41500D01*
X-24984Y39540D01*
X-24974Y39507D01*
X-24938Y39353D01*
X-24392Y37429D01*
X-24379Y37395D01*
X-24335Y37253D01*
X-23648Y35375D01*
X-23633Y35342D01*
X-23582Y35213D01*
X-22766Y33387D01*
X-22748Y33354D01*
X-22693Y33238D01*
X-21758Y31470D01*
X-21737Y31439D01*
X-21681Y31335D01*
X-20637Y29629D01*
X-20615Y29599D01*
X-20562Y29513D01*
X-19426Y27867D01*
X-19414Y27852D01*
X-19392Y27819D01*
X-18218Y26199D01*
X-18209Y26190D01*
X-18196Y26169D01*
X-14600Y21364D01*
X-14594Y21358D01*
X-14585Y21345D01*
X-10942Y16575D01*
X-10939Y16571D01*
X-10934Y16564D01*
X-7266Y11814D01*
X-7264Y11811D01*
X-7260Y11806D01*
X-3574Y7070D01*
X-3427Y6912D01*
X-3280Y6753D01*
X-3273Y6747D01*
X-3269Y6743D01*
X-3257Y6734D01*
X-3089Y6596D01*
X-1808Y5648D01*
X-1759Y5618D01*
X-1715Y5582D01*
X-1569Y5502D01*
X-1427Y5415D01*
X-1373Y5394D01*
X-1323Y5367D01*
X-1165Y5314D01*
X-1010Y5254D01*
X-954Y5243D01*
X-900Y5225D01*
X-735Y5201D01*
X-571Y5169D01*
X-514Y5169D01*
X-457Y5161D01*
X-291Y5166D01*
G37*
G36*
X11211Y-363899D02*
X11211Y-363899D01*
X11317Y-363878D01*
X11389Y-363873D01*
X11911Y-363749D01*
X12019Y-363707D01*
X12091Y-363688D01*
X12580Y-363469D01*
X12693Y-363398D01*
X12763Y-363363D01*
X13196Y-363048D01*
X13314Y-362934D01*
X13372Y-362885D01*
X13719Y-362477D01*
X13769Y-362397D01*
X13813Y-362347D01*
X14649Y-360971D01*
X14725Y-360793D01*
X14754Y-360735D01*
X14907Y-360223D01*
X14950Y-359942D01*
X14948Y-359925D01*
X14950Y-359910D01*
X14939Y-359376D01*
X14893Y-359095D01*
X14887Y-359082D01*
X14885Y-359070D01*
X14713Y-358563D01*
X14665Y-358468D01*
X14663Y-358463D01*
X14655Y-358449D01*
X14585Y-358310D01*
X14584Y-358310D01*
X14584Y-358309D01*
X14278Y-357870D01*
X14153Y-357737D01*
X14109Y-357683D01*
X13703Y-357333D01*
X13584Y-357256D01*
X13521Y-357208D01*
X13050Y-356954D01*
X12937Y-356912D01*
X12877Y-356882D01*
X12872Y-356879D01*
X12870Y-356878D01*
X12358Y-356719D01*
X12248Y-356701D01*
X12178Y-356680D01*
X11646Y-356616D01*
X11539Y-356618D01*
X11467Y-356610D01*
X10932Y-356641D01*
X10826Y-356662D01*
X10754Y-356667D01*
X10232Y-356791D01*
X10125Y-356833D01*
X10052Y-356852D01*
X9563Y-357071D01*
X9451Y-357142D01*
X9381Y-357176D01*
X8948Y-357492D01*
X8830Y-357606D01*
X8771Y-357655D01*
X8425Y-358063D01*
X8374Y-358143D01*
X8331Y-358193D01*
X7494Y-359569D01*
X7418Y-359746D01*
X7389Y-359805D01*
X7236Y-360317D01*
X7193Y-360598D01*
X7195Y-360615D01*
X7193Y-360629D01*
X7204Y-361164D01*
X7250Y-361444D01*
X7256Y-361458D01*
X7258Y-361470D01*
X7430Y-361976D01*
X7559Y-362230D01*
X7866Y-362669D01*
X7990Y-362803D01*
X8035Y-362857D01*
X8440Y-363207D01*
X8560Y-363284D01*
X8622Y-363332D01*
X9094Y-363586D01*
X9206Y-363627D01*
X9274Y-363662D01*
X9786Y-363821D01*
X9895Y-363838D01*
X9965Y-363859D01*
X10498Y-363923D01*
X10605Y-363921D01*
X10676Y-363929D01*
X11211Y-363899D01*
G37*
G36*
X-10376Y-363616D02*
X-10376Y-363616D01*
X-10164Y-363587D01*
X-10128Y-363572D01*
X-10098Y-363567D01*
X-9596Y-363388D01*
X-9591Y-363386D01*
X-9585Y-363385D01*
X-9549Y-363364D01*
X-9344Y-363257D01*
X-9318Y-363232D01*
X-9293Y-363218D01*
X-8880Y-362881D01*
X-8687Y-362672D01*
X-8680Y-362658D01*
X-8672Y-362649D01*
X-8380Y-362202D01*
X-8309Y-362050D01*
X-8298Y-362033D01*
X-8291Y-362012D01*
X-8285Y-361998D01*
X-8264Y-361957D01*
X-8101Y-361448D01*
X-8074Y-361293D01*
X-8056Y-361218D01*
X-8014Y-360686D01*
X-8022Y-360552D01*
X-8019Y-360474D01*
X-8088Y-359944D01*
X-8122Y-359822D01*
X-8135Y-359746D01*
X-8308Y-359240D01*
X-8327Y-359203D01*
X-8335Y-359173D01*
X-8369Y-359115D01*
X-8388Y-359063D01*
X-8655Y-358600D01*
X-8672Y-358578D01*
X-8681Y-358557D01*
X-9260Y-357656D01*
X-9282Y-357629D01*
X-9295Y-357604D01*
X-9611Y-357173D01*
X-9710Y-357071D01*
X-9760Y-357010D01*
X-10161Y-356657D01*
X-10324Y-356551D01*
X-10376Y-356513D01*
X-10853Y-356273D01*
X-11122Y-356182D01*
X-11130Y-356182D01*
X-11136Y-356180D01*
X-11661Y-356089D01*
X-11663Y-356089D01*
X-11664Y-356088D01*
X-11680Y-356088D01*
X-11946Y-356080D01*
X-11975Y-356088D01*
X-12000Y-356088D01*
X-12526Y-356175D01*
X-12536Y-356178D01*
X-12546Y-356178D01*
X-12600Y-356198D01*
X-12797Y-356260D01*
X-12831Y-356282D01*
X-12861Y-356294D01*
X-13325Y-356557D01*
X-13550Y-356730D01*
X-13565Y-356751D01*
X-13582Y-356764D01*
X-13936Y-357163D01*
X-14094Y-357400D01*
X-14095Y-357404D01*
X-14097Y-357407D01*
X-14324Y-357891D01*
X-14377Y-358063D01*
X-14402Y-358129D01*
X-14503Y-358654D01*
X-14510Y-358796D01*
X-14521Y-358874D01*
X-14506Y-359409D01*
X-14485Y-359535D01*
X-14480Y-359613D01*
X-14358Y-360134D01*
X-14312Y-360251D01*
X-14292Y-360325D01*
X-14069Y-360811D01*
X-14024Y-360881D01*
X-14000Y-360937D01*
X-13130Y-362288D01*
X-13066Y-362362D01*
X-13030Y-362419D01*
X-12671Y-362816D01*
X-12544Y-362922D01*
X-12489Y-362974D01*
X-12048Y-363275D01*
X-11826Y-363384D01*
X-11799Y-363398D01*
X-11293Y-363568D01*
X-11014Y-363620D01*
X-10994Y-363618D01*
X-10979Y-363621D01*
X-10445Y-363625D01*
X-10437Y-363624D01*
X-10428Y-363625D01*
X-10376Y-363616D01*
G37*
G36*
X-61553Y-376689D02*
X-61553Y-376689D01*
X-61412Y-376681D01*
X-61349Y-376658D01*
X-61299Y-376651D01*
X-60810Y-376491D01*
X-60781Y-376476D01*
X-60749Y-376469D01*
X-60682Y-376428D01*
X-60555Y-376365D01*
X-60506Y-376321D01*
X-60462Y-376294D01*
X-60073Y-375958D01*
X-60052Y-375934D01*
X-60025Y-375915D01*
X-59979Y-375851D01*
X-59886Y-375744D01*
X-59858Y-375684D01*
X-59828Y-375643D01*
X-59598Y-375183D01*
X-59588Y-375152D01*
X-59571Y-375125D01*
X-59553Y-375048D01*
X-59508Y-374914D01*
X-59505Y-374852D01*
X-59501Y-374838D01*
X-59501Y-374829D01*
X-59493Y-374798D01*
X-59459Y-374285D01*
X-59460Y-374270D01*
X-59457Y-374255D01*
X-59466Y-374187D01*
X-59479Y-374001D01*
X-59495Y-373958D01*
X-59500Y-373922D01*
X-59800Y-372932D01*
X-59855Y-372813D01*
X-59881Y-372739D01*
X-60128Y-372288D01*
X-60148Y-372262D01*
X-60161Y-372232D01*
X-60214Y-372173D01*
X-60298Y-372060D01*
X-60351Y-372020D01*
X-60385Y-371982D01*
X-60787Y-371661D01*
X-60815Y-371645D01*
X-60838Y-371623D01*
X-60909Y-371589D01*
X-61032Y-371517D01*
X-61096Y-371500D01*
X-61141Y-371479D01*
X-61636Y-371337D01*
X-61669Y-371333D01*
X-61700Y-371321D01*
X-61778Y-371317D01*
X-61917Y-371298D01*
X-61984Y-371308D01*
X-62035Y-371305D01*
X-62546Y-371366D01*
X-62577Y-371374D01*
X-62608Y-371376D01*
X-62683Y-371402D01*
X-62821Y-371439D01*
X-62877Y-371473D01*
X-62924Y-371490D01*
X-63372Y-371742D01*
X-63398Y-371762D01*
X-63429Y-371776D01*
X-63486Y-371830D01*
X-63598Y-371915D01*
X-63622Y-371947D01*
X-63642Y-371964D01*
X-63657Y-371986D01*
X-63676Y-372004D01*
X-63991Y-372410D01*
X-64007Y-372438D01*
X-64028Y-372461D01*
X-64061Y-372532D01*
X-64132Y-372657D01*
X-64148Y-372720D01*
X-64169Y-372766D01*
X-64304Y-373262D01*
X-64308Y-373295D01*
X-64319Y-373326D01*
X-64322Y-373405D01*
X-64340Y-373544D01*
X-64329Y-373611D01*
X-64331Y-373662D01*
X-64264Y-374172D01*
X-64233Y-374281D01*
X-64222Y-374354D01*
X-64062Y-374846D01*
X-64051Y-374868D01*
X-64047Y-374887D01*
X-63866Y-375371D01*
X-63864Y-375375D01*
X-63863Y-375379D01*
X-63846Y-375408D01*
X-63730Y-375621D01*
X-63706Y-375645D01*
X-63692Y-375668D01*
X-63361Y-376062D01*
X-63337Y-376084D01*
X-63318Y-376110D01*
X-63255Y-376157D01*
X-63150Y-376252D01*
X-63090Y-376281D01*
X-63049Y-376311D01*
X-62592Y-376547D01*
X-62562Y-376557D01*
X-62534Y-376574D01*
X-62458Y-376594D01*
X-62324Y-376640D01*
X-62258Y-376644D01*
X-62209Y-376656D01*
X-61696Y-376698D01*
X-61663Y-376696D01*
X-61631Y-376701D01*
X-61553Y-376689D01*
G37*
G36*
X50560Y-359883D02*
X50560Y-359883D01*
X50701Y-359874D01*
X50764Y-359852D01*
X50814Y-359844D01*
X51303Y-359685D01*
X51332Y-359670D01*
X51364Y-359663D01*
X51431Y-359622D01*
X51558Y-359559D01*
X51608Y-359515D01*
X51651Y-359488D01*
X52040Y-359152D01*
X52062Y-359128D01*
X52088Y-359109D01*
X52134Y-359045D01*
X52227Y-358938D01*
X52256Y-358878D01*
X52285Y-358837D01*
X52515Y-358377D01*
X52525Y-358346D01*
X52542Y-358319D01*
X52560Y-358242D01*
X52605Y-358108D01*
X52608Y-358046D01*
X52612Y-358032D01*
X52612Y-358023D01*
X52620Y-357992D01*
X52655Y-357479D01*
X52653Y-357464D01*
X52656Y-357449D01*
X52647Y-357381D01*
X52634Y-357195D01*
X52618Y-357152D01*
X52613Y-357116D01*
X52313Y-356126D01*
X52258Y-356007D01*
X52232Y-355933D01*
X51985Y-355482D01*
X51966Y-355456D01*
X51952Y-355426D01*
X51900Y-355367D01*
X51815Y-355254D01*
X51762Y-355214D01*
X51728Y-355176D01*
X51326Y-354855D01*
X51298Y-354839D01*
X51275Y-354817D01*
X51204Y-354783D01*
X51081Y-354711D01*
X51017Y-354694D01*
X50972Y-354673D01*
X50478Y-354531D01*
X50445Y-354527D01*
X50413Y-354515D01*
X50335Y-354511D01*
X50196Y-354492D01*
X50129Y-354502D01*
X50078Y-354499D01*
X49567Y-354560D01*
X49537Y-354568D01*
X49505Y-354569D01*
X49431Y-354596D01*
X49293Y-354633D01*
X49236Y-354666D01*
X49189Y-354684D01*
X48741Y-354936D01*
X48715Y-354956D01*
X48685Y-354970D01*
X48627Y-355023D01*
X48515Y-355109D01*
X48492Y-355141D01*
X48471Y-355158D01*
X48457Y-355180D01*
X48438Y-355198D01*
X48122Y-355604D01*
X48106Y-355631D01*
X48085Y-355655D01*
X48052Y-355727D01*
X47981Y-355850D01*
X47965Y-355914D01*
X47944Y-355960D01*
X47809Y-356456D01*
X47805Y-356489D01*
X47794Y-356520D01*
X47791Y-356599D01*
X47774Y-356738D01*
X47784Y-356804D01*
X47782Y-356856D01*
X47849Y-357366D01*
X47880Y-357475D01*
X47891Y-357548D01*
X48052Y-358040D01*
X48062Y-358062D01*
X48066Y-358081D01*
X48247Y-358565D01*
X48249Y-358569D01*
X48250Y-358573D01*
X48268Y-358603D01*
X48384Y-358815D01*
X48407Y-358839D01*
X48421Y-358862D01*
X48752Y-359256D01*
X48776Y-359278D01*
X48795Y-359304D01*
X48858Y-359351D01*
X48964Y-359446D01*
X49023Y-359475D01*
X49064Y-359505D01*
X49521Y-359741D01*
X49552Y-359751D01*
X49579Y-359768D01*
X49655Y-359787D01*
X49789Y-359834D01*
X49856Y-359838D01*
X49905Y-359850D01*
X50417Y-359891D01*
X50450Y-359889D01*
X50482Y-359895D01*
X50560Y-359883D01*
G37*
G36*
X-53650Y-377483D02*
X-53650Y-377483D01*
X-53508Y-377474D01*
X-53446Y-377451D01*
X-53396Y-377443D01*
X-52908Y-377281D01*
X-52879Y-377266D01*
X-52847Y-377258D01*
X-52780Y-377217D01*
X-52653Y-377154D01*
X-52604Y-377109D01*
X-52561Y-377082D01*
X-52174Y-376744D01*
X-52164Y-376732D01*
X-52152Y-376724D01*
X-52110Y-376670D01*
X-51988Y-376529D01*
X-51969Y-376487D01*
X-51947Y-376458D01*
X-51459Y-375546D01*
X-51414Y-375423D01*
X-51380Y-375352D01*
X-51235Y-374859D01*
X-51230Y-374826D01*
X-51219Y-374795D01*
X-51214Y-374717D01*
X-51194Y-374577D01*
X-51203Y-374511D01*
X-51201Y-374460D01*
X-51215Y-374334D01*
X-51215Y-374333D01*
X-51258Y-373949D01*
X-51266Y-373918D01*
X-51267Y-373886D01*
X-51294Y-373812D01*
X-51329Y-373674D01*
X-51363Y-373617D01*
X-51379Y-373570D01*
X-51629Y-373120D01*
X-51649Y-373094D01*
X-51663Y-373063D01*
X-51716Y-373005D01*
X-51800Y-372893D01*
X-51854Y-372853D01*
X-51889Y-372815D01*
X-52293Y-372497D01*
X-52320Y-372481D01*
X-52344Y-372459D01*
X-52415Y-372426D01*
X-52539Y-372354D01*
X-52602Y-372338D01*
X-52648Y-372317D01*
X-53143Y-372179D01*
X-53176Y-372174D01*
X-53207Y-372163D01*
X-53286Y-372160D01*
X-53425Y-372141D01*
X-53491Y-372151D01*
X-53543Y-372149D01*
X-54053Y-372213D01*
X-54084Y-372222D01*
X-54116Y-372223D01*
X-54189Y-372250D01*
X-54327Y-372288D01*
X-54383Y-372322D01*
X-54430Y-372339D01*
X-54877Y-372595D01*
X-54903Y-372615D01*
X-54933Y-372629D01*
X-54990Y-372683D01*
X-55101Y-372769D01*
X-55141Y-372823D01*
X-55178Y-372858D01*
X-55491Y-373266D01*
X-55547Y-373365D01*
X-55591Y-373424D01*
X-55826Y-373886D01*
X-55833Y-373909D01*
X-55844Y-373925D01*
X-56058Y-374396D01*
X-56060Y-374400D01*
X-56062Y-374403D01*
X-56070Y-374436D01*
X-56139Y-374668D01*
X-56139Y-374702D01*
X-56146Y-374729D01*
X-56190Y-375241D01*
X-56188Y-375273D01*
X-56193Y-375305D01*
X-56182Y-375383D01*
X-56175Y-375525D01*
X-56153Y-375587D01*
X-56146Y-375637D01*
X-55989Y-376127D01*
X-55975Y-376157D01*
X-55967Y-376188D01*
X-55927Y-376256D01*
X-55865Y-376383D01*
X-55821Y-376433D01*
X-55795Y-376476D01*
X-55462Y-376868D01*
X-55437Y-376890D01*
X-55418Y-376916D01*
X-55355Y-376963D01*
X-55249Y-377057D01*
X-55189Y-377085D01*
X-55148Y-377115D01*
X-54689Y-377348D01*
X-54658Y-377359D01*
X-54631Y-377375D01*
X-54554Y-377394D01*
X-54420Y-377440D01*
X-54354Y-377443D01*
X-54304Y-377455D01*
X-53792Y-377493D01*
X-53759Y-377491D01*
X-53727Y-377496D01*
X-53650Y-377483D01*
G37*
D10*
X-300482Y-9398D02*
X-300482Y6858D01*
X-304998Y6858D01*
X-305131Y6856D01*
X-305263Y6850D01*
X-305395Y6840D01*
X-305527Y6827D01*
X-305659Y6809D01*
X-305789Y6788D01*
X-305920Y6763D01*
X-306049Y6734D01*
X-306177Y6701D01*
X-306305Y6665D01*
X-306431Y6625D01*
X-306556Y6581D01*
X-306680Y6533D01*
X-306802Y6482D01*
X-306923Y6427D01*
X-307042Y6369D01*
X-307160Y6307D01*
X-307275Y6242D01*
X-307389Y6173D01*
X-307500Y6102D01*
X-307609Y6026D01*
X-307716Y5948D01*
X-307821Y5867D01*
X-307923Y5782D01*
X-308023Y5695D01*
X-308120Y5605D01*
X-308215Y5512D01*
X-308306Y5416D01*
X-308395Y5318D01*
X-308481Y5217D01*
X-308564Y5113D01*
X-308644Y5007D01*
X-308720Y4899D01*
X-308794Y4789D01*
X-308864Y4676D01*
X-308931Y4562D01*
X-308994Y4445D01*
X-309054Y4327D01*
X-309111Y4207D01*
X-309164Y4085D01*
X-309213Y3962D01*
X-309259Y3838D01*
X-309301Y3712D01*
X-309339Y3585D01*
X-309374Y3457D01*
X-309405Y3328D01*
X-309432Y3199D01*
X-309455Y3068D01*
X-309475Y2937D01*
X-309490Y2805D01*
X-309502Y2673D01*
X-309510Y2541D01*
X-309514Y2408D01*
X-309514Y2276D01*
X-309510Y2143D01*
X-309502Y2011D01*
X-309490Y1879D01*
X-309475Y1747D01*
X-309455Y1616D01*
X-309432Y1485D01*
X-309405Y1356D01*
X-309374Y1227D01*
X-309339Y1099D01*
X-309301Y972D01*
X-309259Y846D01*
X-309213Y722D01*
X-309164Y599D01*
X-309111Y477D01*
X-309054Y357D01*
X-308994Y239D01*
X-308931Y122D01*
X-308864Y8D01*
X-308794Y-105D01*
X-308720Y-215D01*
X-308644Y-323D01*
X-308564Y-429D01*
X-308481Y-533D01*
X-308395Y-634D01*
X-308306Y-732D01*
X-308215Y-828D01*
X-308120Y-921D01*
X-308023Y-1011D01*
X-307923Y-1098D01*
X-307821Y-1183D01*
X-307716Y-1264D01*
X-307609Y-1342D01*
X-307500Y-1418D01*
X-307389Y-1489D01*
X-307275Y-1558D01*
X-307160Y-1623D01*
X-307042Y-1685D01*
X-306923Y-1743D01*
X-306802Y-1798D01*
X-306680Y-1849D01*
X-306556Y-1897D01*
X-306431Y-1941D01*
X-306305Y-1981D01*
X-306177Y-2017D01*
X-306049Y-2050D01*
X-305920Y-2079D01*
X-305789Y-2104D01*
X-305659Y-2125D01*
X-305527Y-2143D01*
X-305395Y-2156D01*
X-305263Y-2166D01*
X-305131Y-2172D01*
X-304998Y-2174D01*
X-304998Y-2173D02*
X-300482Y-2173D01*
X-316113Y-9398D02*
X-316113Y6858D01*
X-320629Y6858D01*
X-320762Y6856D01*
X-320894Y6850D01*
X-321026Y6840D01*
X-321158Y6827D01*
X-321290Y6809D01*
X-321420Y6788D01*
X-321551Y6763D01*
X-321680Y6734D01*
X-321808Y6701D01*
X-321936Y6665D01*
X-322062Y6625D01*
X-322187Y6581D01*
X-322311Y6533D01*
X-322433Y6482D01*
X-322554Y6427D01*
X-322673Y6369D01*
X-322791Y6307D01*
X-322906Y6242D01*
X-323020Y6173D01*
X-323131Y6102D01*
X-323240Y6026D01*
X-323347Y5948D01*
X-323452Y5867D01*
X-323554Y5782D01*
X-323654Y5695D01*
X-323751Y5605D01*
X-323846Y5512D01*
X-323937Y5416D01*
X-324026Y5318D01*
X-324112Y5217D01*
X-324195Y5113D01*
X-324275Y5007D01*
X-324351Y4899D01*
X-324425Y4789D01*
X-324495Y4676D01*
X-324562Y4562D01*
X-324625Y4445D01*
X-324685Y4327D01*
X-324742Y4207D01*
X-324795Y4085D01*
X-324844Y3962D01*
X-324890Y3838D01*
X-324932Y3712D01*
X-324970Y3585D01*
X-325005Y3457D01*
X-325036Y3328D01*
X-325063Y3199D01*
X-325086Y3068D01*
X-325106Y2937D01*
X-325121Y2805D01*
X-325133Y2673D01*
X-325141Y2541D01*
X-325145Y2408D01*
X-325145Y2276D01*
X-325141Y2143D01*
X-325133Y2011D01*
X-325121Y1879D01*
X-325106Y1747D01*
X-325086Y1616D01*
X-325063Y1485D01*
X-325036Y1356D01*
X-325005Y1227D01*
X-324970Y1099D01*
X-324932Y972D01*
X-324890Y846D01*
X-324844Y722D01*
X-324795Y599D01*
X-324742Y477D01*
X-324685Y357D01*
X-324625Y239D01*
X-324562Y122D01*
X-324495Y8D01*
X-324425Y-105D01*
X-324351Y-215D01*
X-324275Y-323D01*
X-324195Y-429D01*
X-324112Y-533D01*
X-324026Y-634D01*
X-323937Y-732D01*
X-323846Y-828D01*
X-323751Y-921D01*
X-323654Y-1011D01*
X-323554Y-1098D01*
X-323452Y-1183D01*
X-323347Y-1264D01*
X-323240Y-1342D01*
X-323131Y-1418D01*
X-323020Y-1489D01*
X-322906Y-1558D01*
X-322791Y-1623D01*
X-322673Y-1685D01*
X-322554Y-1743D01*
X-322433Y-1798D01*
X-322311Y-1849D01*
X-322187Y-1897D01*
X-322062Y-1941D01*
X-321936Y-1981D01*
X-321808Y-2017D01*
X-321680Y-2050D01*
X-321551Y-2079D01*
X-321420Y-2104D01*
X-321290Y-2125D01*
X-321158Y-2143D01*
X-321026Y-2156D01*
X-320894Y-2166D01*
X-320762Y-2172D01*
X-320629Y-2174D01*
X-320629Y-2173D02*
X-316113Y-2173D01*
X-335910Y-9398D02*
X-336028Y-9396D01*
X-336146Y-9390D01*
X-336264Y-9381D01*
X-336381Y-9367D01*
X-336498Y-9350D01*
X-336615Y-9329D01*
X-336730Y-9304D01*
X-336845Y-9275D01*
X-336959Y-9242D01*
X-337071Y-9206D01*
X-337182Y-9166D01*
X-337292Y-9123D01*
X-337401Y-9076D01*
X-337508Y-9026D01*
X-337613Y-8971D01*
X-337716Y-8914D01*
X-337817Y-8853D01*
X-337917Y-8789D01*
X-338014Y-8722D01*
X-338109Y-8652D01*
X-338201Y-8578D01*
X-338292Y-8502D01*
X-338379Y-8422D01*
X-338464Y-8340D01*
X-338546Y-8255D01*
X-338626Y-8168D01*
X-338702Y-8077D01*
X-338776Y-7985D01*
X-338846Y-7890D01*
X-338913Y-7793D01*
X-338977Y-7693D01*
X-339038Y-7592D01*
X-339095Y-7489D01*
X-339150Y-7384D01*
X-339200Y-7277D01*
X-339247Y-7168D01*
X-339290Y-7058D01*
X-339330Y-6947D01*
X-339366Y-6835D01*
X-339399Y-6721D01*
X-339428Y-6606D01*
X-339453Y-6491D01*
X-339474Y-6374D01*
X-339491Y-6257D01*
X-339505Y-6140D01*
X-339514Y-6022D01*
X-339520Y-5904D01*
X-339522Y-5786D01*
X-335910Y-9398D02*
X-335727Y-9396D01*
X-335545Y-9389D01*
X-335363Y-9378D01*
X-335181Y-9363D01*
X-334999Y-9343D01*
X-334818Y-9320D01*
X-334638Y-9291D01*
X-334458Y-9259D01*
X-334279Y-9222D01*
X-334102Y-9181D01*
X-333925Y-9135D01*
X-333749Y-9086D01*
X-333575Y-9032D01*
X-333401Y-8974D01*
X-333230Y-8912D01*
X-333060Y-8846D01*
X-332891Y-8775D01*
X-332724Y-8701D01*
X-332559Y-8623D01*
X-332396Y-8541D01*
X-332235Y-8455D01*
X-332076Y-8365D01*
X-331919Y-8271D01*
X-331765Y-8174D01*
X-331613Y-8073D01*
X-331463Y-7968D01*
X-331316Y-7860D01*
X-331172Y-7749D01*
X-331030Y-7634D01*
X-330891Y-7515D01*
X-330755Y-7393D01*
X-330622Y-7268D01*
X-330492Y-7140D01*
X-330943Y3246D02*
X-330945Y3364D01*
X-330951Y3482D01*
X-330960Y3600D01*
X-330974Y3717D01*
X-330991Y3834D01*
X-331012Y3951D01*
X-331037Y4066D01*
X-331066Y4181D01*
X-331099Y4295D01*
X-331135Y4407D01*
X-331175Y4518D01*
X-331218Y4628D01*
X-331265Y4737D01*
X-331315Y4844D01*
X-331370Y4949D01*
X-331427Y5052D01*
X-331488Y5153D01*
X-331552Y5253D01*
X-331619Y5350D01*
X-331689Y5445D01*
X-331763Y5537D01*
X-331839Y5628D01*
X-331919Y5715D01*
X-332001Y5800D01*
X-332086Y5882D01*
X-332173Y5962D01*
X-332264Y6038D01*
X-332356Y6112D01*
X-332451Y6182D01*
X-332548Y6249D01*
X-332648Y6313D01*
X-332749Y6374D01*
X-332852Y6432D01*
X-332957Y6486D01*
X-333064Y6536D01*
X-333173Y6583D01*
X-333283Y6627D01*
X-333394Y6666D01*
X-333507Y6702D01*
X-333620Y6735D01*
X-333735Y6764D01*
X-333850Y6789D01*
X-333967Y6810D01*
X-334084Y6827D01*
X-334201Y6841D01*
X-334319Y6850D01*
X-334437Y6856D01*
X-334555Y6858D01*
X-334716Y6856D01*
X-334878Y6850D01*
X-335039Y6841D01*
X-335200Y6827D01*
X-335360Y6810D01*
X-335520Y6789D01*
X-335680Y6764D01*
X-335839Y6735D01*
X-335997Y6703D01*
X-336154Y6667D01*
X-336310Y6627D01*
X-336466Y6583D01*
X-336620Y6535D01*
X-336773Y6484D01*
X-336925Y6430D01*
X-337076Y6371D01*
X-337225Y6310D01*
X-337372Y6244D01*
X-337518Y6175D01*
X-337663Y6103D01*
X-337805Y6027D01*
X-337946Y5948D01*
X-338085Y5866D01*
X-338221Y5780D01*
X-338356Y5691D01*
X-338489Y5599D01*
X-338619Y5503D01*
X-332749Y85D02*
X-332648Y147D01*
X-332548Y212D01*
X-332451Y281D01*
X-332356Y353D01*
X-332263Y427D01*
X-332173Y505D01*
X-332085Y586D01*
X-332000Y669D01*
X-331918Y755D01*
X-331839Y844D01*
X-331762Y935D01*
X-331689Y1029D01*
X-331618Y1125D01*
X-331551Y1223D01*
X-331487Y1323D01*
X-331426Y1426D01*
X-331369Y1530D01*
X-331315Y1636D01*
X-331265Y1744D01*
X-331218Y1853D01*
X-331174Y1964D01*
X-331134Y2076D01*
X-331098Y2190D01*
X-331066Y2304D01*
X-331037Y2420D01*
X-331012Y2536D01*
X-330991Y2653D01*
X-330974Y2771D01*
X-330960Y2889D01*
X-330951Y3008D01*
X-330945Y3127D01*
X-330943Y3246D01*
X-337717Y-2625D02*
X-337818Y-2687D01*
X-337918Y-2752D01*
X-338015Y-2821D01*
X-338110Y-2893D01*
X-338203Y-2967D01*
X-338293Y-3045D01*
X-338381Y-3126D01*
X-338466Y-3209D01*
X-338548Y-3295D01*
X-338627Y-3384D01*
X-338704Y-3475D01*
X-338777Y-3569D01*
X-338848Y-3665D01*
X-338915Y-3763D01*
X-338979Y-3863D01*
X-339040Y-3966D01*
X-339097Y-4070D01*
X-339151Y-4176D01*
X-339201Y-4284D01*
X-339248Y-4393D01*
X-339292Y-4504D01*
X-339332Y-4616D01*
X-339368Y-4730D01*
X-339400Y-4844D01*
X-339429Y-4960D01*
X-339454Y-5076D01*
X-339475Y-5193D01*
X-339492Y-5311D01*
X-339506Y-5429D01*
X-339515Y-5548D01*
X-339521Y-5667D01*
X-339523Y-5786D01*
X-337716Y-2625D02*
X-332749Y85D01*
X-311319Y-28476D02*
X-300482Y-28476D01*
X-305901Y-23058D02*
X-305901Y-33895D01*
X-318058Y-34798D02*
X-322574Y-34798D01*
X-322707Y-34796D01*
X-322839Y-34790D01*
X-322971Y-34780D01*
X-323103Y-34767D01*
X-323235Y-34749D01*
X-323365Y-34728D01*
X-323496Y-34703D01*
X-323625Y-34674D01*
X-323753Y-34641D01*
X-323881Y-34605D01*
X-324007Y-34565D01*
X-324132Y-34521D01*
X-324256Y-34473D01*
X-324378Y-34422D01*
X-324499Y-34367D01*
X-324618Y-34309D01*
X-324736Y-34247D01*
X-324851Y-34182D01*
X-324965Y-34113D01*
X-325076Y-34042D01*
X-325185Y-33966D01*
X-325292Y-33888D01*
X-325397Y-33807D01*
X-325499Y-33722D01*
X-325599Y-33635D01*
X-325696Y-33545D01*
X-325791Y-33452D01*
X-325882Y-33356D01*
X-325971Y-33258D01*
X-326057Y-33157D01*
X-326140Y-33053D01*
X-326220Y-32947D01*
X-326296Y-32839D01*
X-326370Y-32729D01*
X-326440Y-32616D01*
X-326507Y-32502D01*
X-326570Y-32385D01*
X-326630Y-32267D01*
X-326687Y-32147D01*
X-326740Y-32025D01*
X-326789Y-31902D01*
X-326835Y-31778D01*
X-326877Y-31652D01*
X-326915Y-31525D01*
X-326950Y-31397D01*
X-326981Y-31268D01*
X-327008Y-31139D01*
X-327031Y-31008D01*
X-327051Y-30877D01*
X-327066Y-30745D01*
X-327078Y-30613D01*
X-327086Y-30481D01*
X-327090Y-30348D01*
X-327090Y-30216D01*
X-327086Y-30083D01*
X-327078Y-29951D01*
X-327066Y-29819D01*
X-327051Y-29687D01*
X-327031Y-29556D01*
X-327008Y-29425D01*
X-326981Y-29296D01*
X-326950Y-29167D01*
X-326915Y-29039D01*
X-326877Y-28912D01*
X-326835Y-28786D01*
X-326789Y-28662D01*
X-326740Y-28539D01*
X-326687Y-28417D01*
X-326630Y-28297D01*
X-326570Y-28179D01*
X-326507Y-28062D01*
X-326440Y-27948D01*
X-326370Y-27835D01*
X-326296Y-27725D01*
X-326220Y-27617D01*
X-326140Y-27511D01*
X-326057Y-27407D01*
X-325971Y-27306D01*
X-325882Y-27208D01*
X-325791Y-27112D01*
X-325696Y-27019D01*
X-325599Y-26929D01*
X-325499Y-26842D01*
X-325397Y-26757D01*
X-325292Y-26676D01*
X-325185Y-26598D01*
X-325076Y-26522D01*
X-324965Y-26451D01*
X-324851Y-26382D01*
X-324736Y-26317D01*
X-324618Y-26255D01*
X-324499Y-26197D01*
X-324378Y-26142D01*
X-324256Y-26091D01*
X-324132Y-26043D01*
X-324007Y-25999D01*
X-323881Y-25959D01*
X-323753Y-25923D01*
X-323625Y-25890D01*
X-323496Y-25861D01*
X-323365Y-25836D01*
X-323235Y-25815D01*
X-323103Y-25797D01*
X-322971Y-25784D01*
X-322839Y-25774D01*
X-322707Y-25768D01*
X-322574Y-25766D01*
X-323477Y-18542D02*
X-318058Y-18542D01*
X-323477Y-18542D02*
X-323596Y-18544D01*
X-323716Y-18550D01*
X-323835Y-18560D01*
X-323953Y-18574D01*
X-324072Y-18591D01*
X-324189Y-18613D01*
X-324306Y-18638D01*
X-324421Y-18668D01*
X-324536Y-18701D01*
X-324650Y-18738D01*
X-324762Y-18778D01*
X-324873Y-18823D01*
X-324982Y-18871D01*
X-325090Y-18922D01*
X-325196Y-18977D01*
X-325300Y-19036D01*
X-325402Y-19098D01*
X-325502Y-19163D01*
X-325600Y-19232D01*
X-325696Y-19304D01*
X-325789Y-19379D01*
X-325879Y-19456D01*
X-325967Y-19537D01*
X-326052Y-19621D01*
X-326134Y-19708D01*
X-326214Y-19797D01*
X-326290Y-19889D01*
X-326364Y-19983D01*
X-326434Y-20080D01*
X-326501Y-20178D01*
X-326565Y-20279D01*
X-326625Y-20383D01*
X-326682Y-20488D01*
X-326735Y-20595D01*
X-326785Y-20703D01*
X-326831Y-20813D01*
X-326873Y-20925D01*
X-326912Y-21038D01*
X-326947Y-21152D01*
X-326978Y-21267D01*
X-327006Y-21384D01*
X-327029Y-21501D01*
X-327049Y-21618D01*
X-327065Y-21737D01*
X-327077Y-21856D01*
X-327085Y-21975D01*
X-327089Y-22094D01*
X-327089Y-22214D01*
X-327085Y-22333D01*
X-327077Y-22452D01*
X-327065Y-22571D01*
X-327049Y-22690D01*
X-327029Y-22807D01*
X-327006Y-22924D01*
X-326978Y-23041D01*
X-326947Y-23156D01*
X-326912Y-23270D01*
X-326873Y-23383D01*
X-326831Y-23495D01*
X-326785Y-23605D01*
X-326735Y-23713D01*
X-326682Y-23820D01*
X-326625Y-23925D01*
X-326565Y-24029D01*
X-326501Y-24130D01*
X-326434Y-24228D01*
X-326364Y-24325D01*
X-326290Y-24419D01*
X-326214Y-24511D01*
X-326134Y-24600D01*
X-326052Y-24687D01*
X-325967Y-24771D01*
X-325879Y-24852D01*
X-325789Y-24929D01*
X-325696Y-25004D01*
X-325600Y-25076D01*
X-325502Y-25145D01*
X-325402Y-25210D01*
X-325300Y-25272D01*
X-325196Y-25331D01*
X-325090Y-25386D01*
X-324982Y-25437D01*
X-324873Y-25485D01*
X-324762Y-25530D01*
X-324650Y-25570D01*
X-324536Y-25607D01*
X-324421Y-25640D01*
X-324306Y-25670D01*
X-324189Y-25695D01*
X-324072Y-25717D01*
X-323953Y-25734D01*
X-323835Y-25748D01*
X-323716Y-25758D01*
X-323596Y-25764D01*
X-323477Y-25766D01*
X-323477Y-25767D02*
X-319865Y-25767D01*
X-332787Y-18542D02*
X-338205Y-34798D01*
X-343624Y-18542D01*
X-309513Y-51167D02*
X-306804Y-51167D01*
X-309513Y-51167D02*
X-309513Y-60198D01*
X-304094Y-60198D01*
X-303976Y-60196D01*
X-303858Y-60190D01*
X-303740Y-60181D01*
X-303623Y-60167D01*
X-303506Y-60150D01*
X-303389Y-60129D01*
X-303274Y-60104D01*
X-303159Y-60075D01*
X-303045Y-60042D01*
X-302933Y-60006D01*
X-302822Y-59966D01*
X-302712Y-59923D01*
X-302603Y-59876D01*
X-302496Y-59826D01*
X-302391Y-59771D01*
X-302288Y-59714D01*
X-302187Y-59653D01*
X-302087Y-59589D01*
X-301990Y-59522D01*
X-301895Y-59452D01*
X-301803Y-59378D01*
X-301712Y-59302D01*
X-301625Y-59222D01*
X-301540Y-59140D01*
X-301458Y-59055D01*
X-301378Y-58968D01*
X-301302Y-58877D01*
X-301228Y-58785D01*
X-301158Y-58690D01*
X-301091Y-58593D01*
X-301027Y-58493D01*
X-300966Y-58392D01*
X-300909Y-58289D01*
X-300854Y-58184D01*
X-300804Y-58077D01*
X-300757Y-57968D01*
X-300714Y-57858D01*
X-300674Y-57747D01*
X-300638Y-57635D01*
X-300605Y-57521D01*
X-300576Y-57406D01*
X-300551Y-57291D01*
X-300530Y-57174D01*
X-300513Y-57057D01*
X-300499Y-56940D01*
X-300490Y-56822D01*
X-300484Y-56704D01*
X-300482Y-56586D01*
X-300482Y-47554D01*
X-300484Y-47436D01*
X-300490Y-47318D01*
X-300499Y-47200D01*
X-300513Y-47082D01*
X-300530Y-46965D01*
X-300551Y-46849D01*
X-300576Y-46734D01*
X-300605Y-46619D01*
X-300638Y-46505D01*
X-300674Y-46393D01*
X-300714Y-46281D01*
X-300757Y-46171D01*
X-300804Y-46063D01*
X-300855Y-45956D01*
X-300909Y-45851D01*
X-300966Y-45748D01*
X-301027Y-45646D01*
X-301091Y-45547D01*
X-301158Y-45450D01*
X-301229Y-45355D01*
X-301302Y-45262D01*
X-301379Y-45172D01*
X-301458Y-45084D01*
X-301540Y-44999D01*
X-301625Y-44917D01*
X-301713Y-44838D01*
X-301803Y-44761D01*
X-301896Y-44688D01*
X-301990Y-44617D01*
X-302088Y-44550D01*
X-302187Y-44486D01*
X-302288Y-44425D01*
X-302392Y-44368D01*
X-302497Y-44314D01*
X-302604Y-44263D01*
X-302712Y-44216D01*
X-302822Y-44173D01*
X-302934Y-44133D01*
X-303046Y-44097D01*
X-303160Y-44064D01*
X-303275Y-44035D01*
X-303390Y-44010D01*
X-303506Y-43989D01*
X-303623Y-43972D01*
X-303741Y-43958D01*
X-303859Y-43949D01*
X-303977Y-43943D01*
X-304095Y-43941D01*
X-304094Y-43942D02*
X-309513Y-43942D01*
X-317366Y-43942D02*
X-317366Y-60198D01*
X-317366Y-43942D02*
X-321882Y-43942D01*
X-322015Y-43944D01*
X-322147Y-43950D01*
X-322279Y-43960D01*
X-322411Y-43973D01*
X-322543Y-43991D01*
X-322673Y-44012D01*
X-322804Y-44037D01*
X-322933Y-44066D01*
X-323061Y-44099D01*
X-323189Y-44135D01*
X-323315Y-44175D01*
X-323440Y-44219D01*
X-323564Y-44267D01*
X-323686Y-44318D01*
X-323807Y-44373D01*
X-323926Y-44431D01*
X-324044Y-44493D01*
X-324159Y-44558D01*
X-324273Y-44627D01*
X-324384Y-44698D01*
X-324493Y-44774D01*
X-324600Y-44852D01*
X-324705Y-44933D01*
X-324807Y-45018D01*
X-324907Y-45105D01*
X-325004Y-45195D01*
X-325099Y-45288D01*
X-325190Y-45384D01*
X-325279Y-45482D01*
X-325365Y-45583D01*
X-325448Y-45687D01*
X-325528Y-45793D01*
X-325604Y-45901D01*
X-325678Y-46011D01*
X-325748Y-46124D01*
X-325815Y-46238D01*
X-325878Y-46355D01*
X-325938Y-46473D01*
X-325995Y-46593D01*
X-326048Y-46715D01*
X-326097Y-46838D01*
X-326143Y-46962D01*
X-326185Y-47088D01*
X-326223Y-47215D01*
X-326258Y-47343D01*
X-326289Y-47472D01*
X-326316Y-47601D01*
X-326339Y-47732D01*
X-326359Y-47863D01*
X-326374Y-47995D01*
X-326386Y-48127D01*
X-326394Y-48259D01*
X-326398Y-48392D01*
X-326398Y-48524D01*
X-326394Y-48657D01*
X-326386Y-48789D01*
X-326374Y-48921D01*
X-326359Y-49053D01*
X-326339Y-49184D01*
X-326316Y-49315D01*
X-326289Y-49444D01*
X-326258Y-49573D01*
X-326223Y-49701D01*
X-326185Y-49828D01*
X-326143Y-49954D01*
X-326097Y-50078D01*
X-326048Y-50201D01*
X-325995Y-50323D01*
X-325938Y-50443D01*
X-325878Y-50561D01*
X-325815Y-50678D01*
X-325748Y-50792D01*
X-325678Y-50905D01*
X-325604Y-51015D01*
X-325528Y-51123D01*
X-325448Y-51229D01*
X-325365Y-51333D01*
X-325279Y-51434D01*
X-325190Y-51532D01*
X-325099Y-51628D01*
X-325004Y-51721D01*
X-324907Y-51811D01*
X-324807Y-51898D01*
X-324705Y-51983D01*
X-324600Y-52064D01*
X-324493Y-52142D01*
X-324384Y-52218D01*
X-324273Y-52289D01*
X-324159Y-52358D01*
X-324044Y-52423D01*
X-323926Y-52485D01*
X-323807Y-52543D01*
X-323686Y-52598D01*
X-323564Y-52649D01*
X-323440Y-52697D01*
X-323315Y-52741D01*
X-323189Y-52781D01*
X-323061Y-52817D01*
X-322933Y-52850D01*
X-322804Y-52879D01*
X-322673Y-52904D01*
X-322543Y-52925D01*
X-322411Y-52943D01*
X-322279Y-52956D01*
X-322147Y-52966D01*
X-322015Y-52972D01*
X-321882Y-52974D01*
X-321882Y-52973D02*
X-317366Y-52973D01*
X-337163Y-60198D02*
X-337281Y-60196D01*
X-337399Y-60190D01*
X-337517Y-60181D01*
X-337634Y-60167D01*
X-337751Y-60150D01*
X-337868Y-60129D01*
X-337983Y-60104D01*
X-338098Y-60075D01*
X-338212Y-60042D01*
X-338324Y-60006D01*
X-338435Y-59966D01*
X-338545Y-59923D01*
X-338654Y-59876D01*
X-338761Y-59826D01*
X-338866Y-59771D01*
X-338969Y-59714D01*
X-339070Y-59653D01*
X-339170Y-59589D01*
X-339267Y-59522D01*
X-339362Y-59452D01*
X-339454Y-59378D01*
X-339545Y-59302D01*
X-339632Y-59222D01*
X-339717Y-59140D01*
X-339799Y-59055D01*
X-339879Y-58968D01*
X-339955Y-58877D01*
X-340029Y-58785D01*
X-340099Y-58690D01*
X-340166Y-58593D01*
X-340230Y-58493D01*
X-340291Y-58392D01*
X-340348Y-58289D01*
X-340403Y-58184D01*
X-340453Y-58077D01*
X-340500Y-57968D01*
X-340543Y-57858D01*
X-340583Y-57747D01*
X-340619Y-57635D01*
X-340652Y-57521D01*
X-340681Y-57406D01*
X-340706Y-57291D01*
X-340727Y-57174D01*
X-340744Y-57057D01*
X-340758Y-56940D01*
X-340767Y-56822D01*
X-340773Y-56704D01*
X-340775Y-56586D01*
X-337163Y-60198D02*
X-336980Y-60196D01*
X-336798Y-60189D01*
X-336616Y-60178D01*
X-336434Y-60163D01*
X-336252Y-60143D01*
X-336071Y-60120D01*
X-335891Y-60091D01*
X-335711Y-60059D01*
X-335532Y-60022D01*
X-335355Y-59981D01*
X-335178Y-59935D01*
X-335002Y-59886D01*
X-334828Y-59832D01*
X-334654Y-59774D01*
X-334483Y-59712D01*
X-334313Y-59646D01*
X-334144Y-59575D01*
X-333977Y-59501D01*
X-333812Y-59423D01*
X-333649Y-59341D01*
X-333488Y-59255D01*
X-333329Y-59165D01*
X-333172Y-59071D01*
X-333018Y-58974D01*
X-332866Y-58873D01*
X-332716Y-58768D01*
X-332569Y-58660D01*
X-332425Y-58549D01*
X-332283Y-58434D01*
X-332144Y-58315D01*
X-332008Y-58193D01*
X-331875Y-58068D01*
X-331745Y-57940D01*
X-332197Y-47554D02*
X-332199Y-47436D01*
X-332205Y-47318D01*
X-332214Y-47200D01*
X-332228Y-47083D01*
X-332245Y-46966D01*
X-332266Y-46849D01*
X-332291Y-46734D01*
X-332320Y-46619D01*
X-332353Y-46505D01*
X-332389Y-46393D01*
X-332429Y-46282D01*
X-332472Y-46172D01*
X-332519Y-46063D01*
X-332569Y-45956D01*
X-332624Y-45851D01*
X-332681Y-45748D01*
X-332742Y-45647D01*
X-332806Y-45547D01*
X-332873Y-45450D01*
X-332943Y-45355D01*
X-333017Y-45263D01*
X-333093Y-45172D01*
X-333173Y-45085D01*
X-333255Y-45000D01*
X-333340Y-44918D01*
X-333427Y-44838D01*
X-333518Y-44762D01*
X-333610Y-44688D01*
X-333705Y-44618D01*
X-333802Y-44551D01*
X-333902Y-44487D01*
X-334003Y-44426D01*
X-334106Y-44369D01*
X-334211Y-44314D01*
X-334318Y-44264D01*
X-334427Y-44217D01*
X-334537Y-44174D01*
X-334648Y-44134D01*
X-334760Y-44098D01*
X-334874Y-44065D01*
X-334989Y-44036D01*
X-335104Y-44011D01*
X-335221Y-43990D01*
X-335338Y-43973D01*
X-335455Y-43959D01*
X-335573Y-43950D01*
X-335691Y-43944D01*
X-335809Y-43942D01*
X-335970Y-43944D01*
X-336132Y-43950D01*
X-336293Y-43959D01*
X-336454Y-43973D01*
X-336614Y-43990D01*
X-336774Y-44011D01*
X-336934Y-44036D01*
X-337093Y-44065D01*
X-337251Y-44097D01*
X-337408Y-44133D01*
X-337564Y-44173D01*
X-337720Y-44217D01*
X-337874Y-44265D01*
X-338027Y-44316D01*
X-338179Y-44370D01*
X-338330Y-44429D01*
X-338479Y-44490D01*
X-338626Y-44556D01*
X-338772Y-44625D01*
X-338917Y-44697D01*
X-339059Y-44773D01*
X-339200Y-44852D01*
X-339339Y-44934D01*
X-339475Y-45020D01*
X-339610Y-45109D01*
X-339743Y-45201D01*
X-339873Y-45297D01*
X-334002Y-50715D02*
X-333901Y-50653D01*
X-333801Y-50588D01*
X-333704Y-50519D01*
X-333609Y-50447D01*
X-333516Y-50373D01*
X-333426Y-50295D01*
X-333338Y-50214D01*
X-333253Y-50131D01*
X-333171Y-50045D01*
X-333092Y-49956D01*
X-333015Y-49865D01*
X-332942Y-49771D01*
X-332871Y-49675D01*
X-332804Y-49577D01*
X-332740Y-49477D01*
X-332679Y-49374D01*
X-332622Y-49270D01*
X-332568Y-49164D01*
X-332518Y-49056D01*
X-332471Y-48947D01*
X-332427Y-48836D01*
X-332387Y-48724D01*
X-332351Y-48610D01*
X-332319Y-48496D01*
X-332290Y-48380D01*
X-332265Y-48264D01*
X-332244Y-48147D01*
X-332227Y-48029D01*
X-332213Y-47911D01*
X-332204Y-47792D01*
X-332198Y-47673D01*
X-332196Y-47554D01*
X-338970Y-53425D02*
X-339071Y-53487D01*
X-339171Y-53552D01*
X-339268Y-53621D01*
X-339363Y-53693D01*
X-339456Y-53767D01*
X-339546Y-53845D01*
X-339634Y-53926D01*
X-339719Y-54009D01*
X-339801Y-54095D01*
X-339880Y-54184D01*
X-339957Y-54275D01*
X-340030Y-54369D01*
X-340101Y-54465D01*
X-340168Y-54563D01*
X-340232Y-54663D01*
X-340293Y-54766D01*
X-340350Y-54870D01*
X-340404Y-54976D01*
X-340454Y-55084D01*
X-340501Y-55193D01*
X-340545Y-55304D01*
X-340585Y-55416D01*
X-340621Y-55530D01*
X-340653Y-55644D01*
X-340682Y-55760D01*
X-340707Y-55876D01*
X-340728Y-55993D01*
X-340745Y-56111D01*
X-340759Y-56229D01*
X-340768Y-56348D01*
X-340774Y-56467D01*
X-340776Y-56586D01*
X-338969Y-53425D02*
X-334002Y-50715D01*
X-346195Y-62004D02*
X-353420Y-62004D01*
X-362833Y-60198D02*
X-362833Y-43942D01*
X-358318Y-43942D02*
X-367349Y-43942D01*
X-382841Y-43942D02*
X-372004Y-60198D01*
X-382841Y-60198D02*
X-372004Y-43942D01*
X-309513Y-76567D02*
X-306804Y-76567D01*
X-309513Y-76567D02*
X-309513Y-85598D01*
X-304094Y-85598D01*
X-303976Y-85596D01*
X-303858Y-85590D01*
X-303740Y-85581D01*
X-303623Y-85567D01*
X-303506Y-85550D01*
X-303389Y-85529D01*
X-303274Y-85504D01*
X-303159Y-85475D01*
X-303045Y-85442D01*
X-302933Y-85406D01*
X-302822Y-85366D01*
X-302712Y-85323D01*
X-302603Y-85276D01*
X-302496Y-85226D01*
X-302391Y-85171D01*
X-302288Y-85114D01*
X-302187Y-85053D01*
X-302087Y-84989D01*
X-301990Y-84922D01*
X-301895Y-84852D01*
X-301803Y-84778D01*
X-301712Y-84702D01*
X-301625Y-84622D01*
X-301540Y-84540D01*
X-301458Y-84455D01*
X-301378Y-84368D01*
X-301302Y-84277D01*
X-301228Y-84185D01*
X-301158Y-84090D01*
X-301091Y-83993D01*
X-301027Y-83893D01*
X-300966Y-83792D01*
X-300909Y-83689D01*
X-300854Y-83584D01*
X-300804Y-83477D01*
X-300757Y-83368D01*
X-300714Y-83258D01*
X-300674Y-83147D01*
X-300638Y-83035D01*
X-300605Y-82921D01*
X-300576Y-82806D01*
X-300551Y-82691D01*
X-300530Y-82574D01*
X-300513Y-82457D01*
X-300499Y-82340D01*
X-300490Y-82222D01*
X-300484Y-82104D01*
X-300482Y-81986D01*
X-300482Y-72954D01*
X-300484Y-72836D01*
X-300490Y-72718D01*
X-300499Y-72600D01*
X-300513Y-72482D01*
X-300530Y-72365D01*
X-300551Y-72249D01*
X-300576Y-72134D01*
X-300605Y-72019D01*
X-300638Y-71905D01*
X-300674Y-71793D01*
X-300714Y-71681D01*
X-300757Y-71571D01*
X-300804Y-71463D01*
X-300855Y-71356D01*
X-300909Y-71251D01*
X-300966Y-71148D01*
X-301027Y-71046D01*
X-301091Y-70947D01*
X-301158Y-70850D01*
X-301229Y-70755D01*
X-301302Y-70662D01*
X-301379Y-70572D01*
X-301458Y-70484D01*
X-301540Y-70399D01*
X-301625Y-70317D01*
X-301713Y-70238D01*
X-301803Y-70161D01*
X-301896Y-70088D01*
X-301990Y-70017D01*
X-302088Y-69950D01*
X-302187Y-69886D01*
X-302288Y-69825D01*
X-302392Y-69768D01*
X-302497Y-69714D01*
X-302604Y-69663D01*
X-302712Y-69616D01*
X-302822Y-69573D01*
X-302934Y-69533D01*
X-303046Y-69497D01*
X-303160Y-69464D01*
X-303275Y-69435D01*
X-303390Y-69410D01*
X-303506Y-69389D01*
X-303623Y-69372D01*
X-303741Y-69358D01*
X-303859Y-69349D01*
X-303977Y-69343D01*
X-304095Y-69341D01*
X-304094Y-69342D02*
X-309513Y-69342D01*
X-317366Y-69342D02*
X-317366Y-85598D01*
X-317366Y-69342D02*
X-321882Y-69342D01*
X-322015Y-69344D01*
X-322147Y-69350D01*
X-322279Y-69360D01*
X-322411Y-69373D01*
X-322543Y-69391D01*
X-322673Y-69412D01*
X-322804Y-69437D01*
X-322933Y-69466D01*
X-323061Y-69499D01*
X-323189Y-69535D01*
X-323315Y-69575D01*
X-323440Y-69619D01*
X-323564Y-69667D01*
X-323686Y-69718D01*
X-323807Y-69773D01*
X-323926Y-69831D01*
X-324044Y-69893D01*
X-324159Y-69958D01*
X-324273Y-70027D01*
X-324384Y-70098D01*
X-324493Y-70174D01*
X-324600Y-70252D01*
X-324705Y-70333D01*
X-324807Y-70418D01*
X-324907Y-70505D01*
X-325004Y-70595D01*
X-325099Y-70688D01*
X-325190Y-70784D01*
X-325279Y-70882D01*
X-325365Y-70983D01*
X-325448Y-71087D01*
X-325528Y-71193D01*
X-325604Y-71301D01*
X-325678Y-71411D01*
X-325748Y-71524D01*
X-325815Y-71638D01*
X-325878Y-71755D01*
X-325938Y-71873D01*
X-325995Y-71993D01*
X-326048Y-72115D01*
X-326097Y-72238D01*
X-326143Y-72362D01*
X-326185Y-72488D01*
X-326223Y-72615D01*
X-326258Y-72743D01*
X-326289Y-72872D01*
X-326316Y-73001D01*
X-326339Y-73132D01*
X-326359Y-73263D01*
X-326374Y-73395D01*
X-326386Y-73527D01*
X-326394Y-73659D01*
X-326398Y-73792D01*
X-326398Y-73924D01*
X-326394Y-74057D01*
X-326386Y-74189D01*
X-326374Y-74321D01*
X-326359Y-74453D01*
X-326339Y-74584D01*
X-326316Y-74715D01*
X-326289Y-74844D01*
X-326258Y-74973D01*
X-326223Y-75101D01*
X-326185Y-75228D01*
X-326143Y-75354D01*
X-326097Y-75478D01*
X-326048Y-75601D01*
X-325995Y-75723D01*
X-325938Y-75843D01*
X-325878Y-75961D01*
X-325815Y-76078D01*
X-325748Y-76192D01*
X-325678Y-76305D01*
X-325604Y-76415D01*
X-325528Y-76523D01*
X-325448Y-76629D01*
X-325365Y-76733D01*
X-325279Y-76834D01*
X-325190Y-76932D01*
X-325099Y-77028D01*
X-325004Y-77121D01*
X-324907Y-77211D01*
X-324807Y-77298D01*
X-324705Y-77383D01*
X-324600Y-77464D01*
X-324493Y-77542D01*
X-324384Y-77618D01*
X-324273Y-77689D01*
X-324159Y-77758D01*
X-324044Y-77823D01*
X-323926Y-77885D01*
X-323807Y-77943D01*
X-323686Y-77998D01*
X-323564Y-78049D01*
X-323440Y-78097D01*
X-323315Y-78141D01*
X-323189Y-78181D01*
X-323061Y-78217D01*
X-322933Y-78250D01*
X-322804Y-78279D01*
X-322673Y-78304D01*
X-322543Y-78325D01*
X-322411Y-78343D01*
X-322279Y-78356D01*
X-322147Y-78366D01*
X-322015Y-78372D01*
X-321882Y-78374D01*
X-321882Y-78373D02*
X-317366Y-78373D01*
X-337163Y-85598D02*
X-337281Y-85596D01*
X-337399Y-85590D01*
X-337517Y-85581D01*
X-337634Y-85567D01*
X-337751Y-85550D01*
X-337868Y-85529D01*
X-337983Y-85504D01*
X-338098Y-85475D01*
X-338212Y-85442D01*
X-338324Y-85406D01*
X-338435Y-85366D01*
X-338545Y-85323D01*
X-338654Y-85276D01*
X-338761Y-85226D01*
X-338866Y-85171D01*
X-338969Y-85114D01*
X-339070Y-85053D01*
X-339170Y-84989D01*
X-339267Y-84922D01*
X-339362Y-84852D01*
X-339454Y-84778D01*
X-339545Y-84702D01*
X-339632Y-84622D01*
X-339717Y-84540D01*
X-339799Y-84455D01*
X-339879Y-84368D01*
X-339955Y-84277D01*
X-340029Y-84185D01*
X-340099Y-84090D01*
X-340166Y-83993D01*
X-340230Y-83893D01*
X-340291Y-83792D01*
X-340348Y-83689D01*
X-340403Y-83584D01*
X-340453Y-83477D01*
X-340500Y-83368D01*
X-340543Y-83258D01*
X-340583Y-83147D01*
X-340619Y-83035D01*
X-340652Y-82921D01*
X-340681Y-82806D01*
X-340706Y-82691D01*
X-340727Y-82574D01*
X-340744Y-82457D01*
X-340758Y-82340D01*
X-340767Y-82222D01*
X-340773Y-82104D01*
X-340775Y-81986D01*
X-337163Y-85598D02*
X-336980Y-85596D01*
X-336798Y-85589D01*
X-336616Y-85578D01*
X-336434Y-85563D01*
X-336252Y-85543D01*
X-336071Y-85520D01*
X-335891Y-85491D01*
X-335711Y-85459D01*
X-335532Y-85422D01*
X-335355Y-85381D01*
X-335178Y-85335D01*
X-335002Y-85286D01*
X-334828Y-85232D01*
X-334654Y-85174D01*
X-334483Y-85112D01*
X-334313Y-85046D01*
X-334144Y-84975D01*
X-333977Y-84901D01*
X-333812Y-84823D01*
X-333649Y-84741D01*
X-333488Y-84655D01*
X-333329Y-84565D01*
X-333172Y-84471D01*
X-333018Y-84374D01*
X-332866Y-84273D01*
X-332716Y-84168D01*
X-332569Y-84060D01*
X-332425Y-83949D01*
X-332283Y-83834D01*
X-332144Y-83715D01*
X-332008Y-83593D01*
X-331875Y-83468D01*
X-331745Y-83340D01*
X-332197Y-72954D02*
X-332199Y-72836D01*
X-332205Y-72718D01*
X-332214Y-72600D01*
X-332228Y-72483D01*
X-332245Y-72366D01*
X-332266Y-72249D01*
X-332291Y-72134D01*
X-332320Y-72019D01*
X-332353Y-71905D01*
X-332389Y-71793D01*
X-332429Y-71682D01*
X-332472Y-71572D01*
X-332519Y-71463D01*
X-332569Y-71356D01*
X-332624Y-71251D01*
X-332681Y-71148D01*
X-332742Y-71047D01*
X-332806Y-70947D01*
X-332873Y-70850D01*
X-332943Y-70755D01*
X-333017Y-70663D01*
X-333093Y-70572D01*
X-333173Y-70485D01*
X-333255Y-70400D01*
X-333340Y-70318D01*
X-333427Y-70238D01*
X-333518Y-70162D01*
X-333610Y-70088D01*
X-333705Y-70018D01*
X-333802Y-69951D01*
X-333902Y-69887D01*
X-334003Y-69826D01*
X-334106Y-69769D01*
X-334211Y-69714D01*
X-334318Y-69664D01*
X-334427Y-69617D01*
X-334537Y-69574D01*
X-334648Y-69534D01*
X-334760Y-69498D01*
X-334874Y-69465D01*
X-334989Y-69436D01*
X-335104Y-69411D01*
X-335221Y-69390D01*
X-335338Y-69373D01*
X-335455Y-69359D01*
X-335573Y-69350D01*
X-335691Y-69344D01*
X-335809Y-69342D01*
X-335970Y-69344D01*
X-336132Y-69350D01*
X-336293Y-69359D01*
X-336454Y-69373D01*
X-336614Y-69390D01*
X-336774Y-69411D01*
X-336934Y-69436D01*
X-337093Y-69465D01*
X-337251Y-69497D01*
X-337408Y-69533D01*
X-337564Y-69573D01*
X-337720Y-69617D01*
X-337874Y-69665D01*
X-338027Y-69716D01*
X-338179Y-69770D01*
X-338330Y-69829D01*
X-338479Y-69890D01*
X-338626Y-69956D01*
X-338772Y-70025D01*
X-338917Y-70097D01*
X-339059Y-70173D01*
X-339200Y-70252D01*
X-339339Y-70334D01*
X-339475Y-70420D01*
X-339610Y-70509D01*
X-339743Y-70601D01*
X-339873Y-70697D01*
X-334002Y-76115D02*
X-333901Y-76053D01*
X-333801Y-75988D01*
X-333704Y-75919D01*
X-333609Y-75847D01*
X-333516Y-75773D01*
X-333426Y-75695D01*
X-333338Y-75614D01*
X-333253Y-75531D01*
X-333171Y-75445D01*
X-333092Y-75356D01*
X-333015Y-75265D01*
X-332942Y-75171D01*
X-332871Y-75075D01*
X-332804Y-74977D01*
X-332740Y-74877D01*
X-332679Y-74774D01*
X-332622Y-74670D01*
X-332568Y-74564D01*
X-332518Y-74456D01*
X-332471Y-74347D01*
X-332427Y-74236D01*
X-332387Y-74124D01*
X-332351Y-74010D01*
X-332319Y-73896D01*
X-332290Y-73780D01*
X-332265Y-73664D01*
X-332244Y-73547D01*
X-332227Y-73429D01*
X-332213Y-73311D01*
X-332204Y-73192D01*
X-332198Y-73073D01*
X-332196Y-72954D01*
X-338970Y-78825D02*
X-339071Y-78887D01*
X-339171Y-78952D01*
X-339268Y-79021D01*
X-339363Y-79093D01*
X-339456Y-79167D01*
X-339546Y-79245D01*
X-339634Y-79326D01*
X-339719Y-79409D01*
X-339801Y-79495D01*
X-339880Y-79584D01*
X-339957Y-79675D01*
X-340030Y-79769D01*
X-340101Y-79865D01*
X-340168Y-79963D01*
X-340232Y-80063D01*
X-340293Y-80166D01*
X-340350Y-80270D01*
X-340404Y-80376D01*
X-340454Y-80484D01*
X-340501Y-80593D01*
X-340545Y-80704D01*
X-340585Y-80816D01*
X-340621Y-80930D01*
X-340653Y-81044D01*
X-340682Y-81160D01*
X-340707Y-81276D01*
X-340728Y-81393D01*
X-340745Y-81511D01*
X-340759Y-81629D01*
X-340768Y-81748D01*
X-340774Y-81867D01*
X-340776Y-81986D01*
X-338969Y-78825D02*
X-334002Y-76115D01*
X-346195Y-87404D02*
X-353420Y-87404D01*
X-359972Y-85598D02*
X-359972Y-69342D01*
X-364488Y-69342D01*
X-364621Y-69344D01*
X-364753Y-69350D01*
X-364885Y-69360D01*
X-365017Y-69373D01*
X-365149Y-69391D01*
X-365279Y-69412D01*
X-365410Y-69437D01*
X-365539Y-69466D01*
X-365667Y-69499D01*
X-365795Y-69535D01*
X-365921Y-69575D01*
X-366046Y-69619D01*
X-366170Y-69667D01*
X-366292Y-69718D01*
X-366413Y-69773D01*
X-366532Y-69831D01*
X-366650Y-69893D01*
X-366765Y-69958D01*
X-366879Y-70027D01*
X-366990Y-70098D01*
X-367099Y-70174D01*
X-367206Y-70252D01*
X-367311Y-70333D01*
X-367413Y-70418D01*
X-367513Y-70505D01*
X-367610Y-70595D01*
X-367705Y-70688D01*
X-367796Y-70784D01*
X-367885Y-70882D01*
X-367971Y-70983D01*
X-368054Y-71087D01*
X-368134Y-71193D01*
X-368210Y-71301D01*
X-368284Y-71411D01*
X-368354Y-71524D01*
X-368421Y-71638D01*
X-368484Y-71755D01*
X-368544Y-71873D01*
X-368601Y-71993D01*
X-368654Y-72115D01*
X-368703Y-72238D01*
X-368749Y-72362D01*
X-368791Y-72488D01*
X-368829Y-72615D01*
X-368864Y-72743D01*
X-368895Y-72872D01*
X-368922Y-73001D01*
X-368945Y-73132D01*
X-368965Y-73263D01*
X-368980Y-73395D01*
X-368992Y-73527D01*
X-369000Y-73659D01*
X-369004Y-73792D01*
X-369004Y-73924D01*
X-369000Y-74057D01*
X-368992Y-74189D01*
X-368980Y-74321D01*
X-368965Y-74453D01*
X-368945Y-74584D01*
X-368922Y-74715D01*
X-368895Y-74844D01*
X-368864Y-74973D01*
X-368829Y-75101D01*
X-368791Y-75228D01*
X-368749Y-75354D01*
X-368703Y-75478D01*
X-368654Y-75601D01*
X-368601Y-75723D01*
X-368544Y-75843D01*
X-368484Y-75961D01*
X-368421Y-76078D01*
X-368354Y-76192D01*
X-368284Y-76305D01*
X-368210Y-76415D01*
X-368134Y-76523D01*
X-368054Y-76629D01*
X-367971Y-76733D01*
X-367885Y-76834D01*
X-367796Y-76932D01*
X-367705Y-77028D01*
X-367610Y-77121D01*
X-367513Y-77211D01*
X-367413Y-77298D01*
X-367311Y-77383D01*
X-367206Y-77464D01*
X-367099Y-77542D01*
X-366990Y-77618D01*
X-366879Y-77689D01*
X-366765Y-77758D01*
X-366650Y-77823D01*
X-366532Y-77885D01*
X-366413Y-77943D01*
X-366292Y-77998D01*
X-366170Y-78049D01*
X-366046Y-78097D01*
X-365921Y-78141D01*
X-365795Y-78181D01*
X-365667Y-78217D01*
X-365539Y-78250D01*
X-365410Y-78279D01*
X-365279Y-78304D01*
X-365149Y-78325D01*
X-365017Y-78343D01*
X-364885Y-78356D01*
X-364753Y-78366D01*
X-364621Y-78372D01*
X-364488Y-78374D01*
X-364488Y-78373D02*
X-359972Y-78373D01*
X-365391Y-78373D02*
X-369003Y-85598D01*
X-374609Y-85598D02*
X-385446Y-69342D01*
X-374609Y-69342D02*
X-385446Y-85598D01*
X-309513Y-101967D02*
X-306804Y-101967D01*
X-309513Y-101967D02*
X-309513Y-110998D01*
X-304094Y-110998D01*
X-303976Y-110996D01*
X-303858Y-110990D01*
X-303740Y-110981D01*
X-303623Y-110967D01*
X-303506Y-110950D01*
X-303389Y-110929D01*
X-303274Y-110904D01*
X-303159Y-110875D01*
X-303045Y-110842D01*
X-302933Y-110806D01*
X-302822Y-110766D01*
X-302712Y-110723D01*
X-302603Y-110676D01*
X-302496Y-110626D01*
X-302391Y-110571D01*
X-302288Y-110514D01*
X-302187Y-110453D01*
X-302087Y-110389D01*
X-301990Y-110322D01*
X-301895Y-110252D01*
X-301803Y-110178D01*
X-301712Y-110102D01*
X-301625Y-110022D01*
X-301540Y-109940D01*
X-301458Y-109855D01*
X-301378Y-109768D01*
X-301302Y-109677D01*
X-301228Y-109585D01*
X-301158Y-109490D01*
X-301091Y-109393D01*
X-301027Y-109293D01*
X-300966Y-109192D01*
X-300909Y-109089D01*
X-300854Y-108984D01*
X-300804Y-108877D01*
X-300757Y-108768D01*
X-300714Y-108658D01*
X-300674Y-108547D01*
X-300638Y-108435D01*
X-300605Y-108321D01*
X-300576Y-108206D01*
X-300551Y-108091D01*
X-300530Y-107974D01*
X-300513Y-107857D01*
X-300499Y-107740D01*
X-300490Y-107622D01*
X-300484Y-107504D01*
X-300482Y-107386D01*
X-300482Y-98354D01*
X-300484Y-98236D01*
X-300490Y-98118D01*
X-300499Y-98000D01*
X-300513Y-97882D01*
X-300530Y-97765D01*
X-300551Y-97649D01*
X-300576Y-97534D01*
X-300605Y-97419D01*
X-300638Y-97305D01*
X-300674Y-97193D01*
X-300714Y-97081D01*
X-300757Y-96971D01*
X-300804Y-96863D01*
X-300855Y-96756D01*
X-300909Y-96651D01*
X-300966Y-96548D01*
X-301027Y-96446D01*
X-301091Y-96347D01*
X-301158Y-96250D01*
X-301229Y-96155D01*
X-301302Y-96062D01*
X-301379Y-95972D01*
X-301458Y-95884D01*
X-301540Y-95799D01*
X-301625Y-95717D01*
X-301713Y-95638D01*
X-301803Y-95561D01*
X-301896Y-95488D01*
X-301990Y-95417D01*
X-302088Y-95350D01*
X-302187Y-95286D01*
X-302288Y-95225D01*
X-302392Y-95168D01*
X-302497Y-95114D01*
X-302604Y-95063D01*
X-302712Y-95016D01*
X-302822Y-94973D01*
X-302934Y-94933D01*
X-303046Y-94897D01*
X-303160Y-94864D01*
X-303275Y-94835D01*
X-303390Y-94810D01*
X-303506Y-94789D01*
X-303623Y-94772D01*
X-303741Y-94758D01*
X-303859Y-94749D01*
X-303977Y-94743D01*
X-304095Y-94741D01*
X-304094Y-94742D02*
X-309513Y-94742D01*
X-317155Y-94742D02*
X-317155Y-110998D01*
X-326186Y-110998D02*
X-317155Y-94742D01*
X-326186Y-94742D02*
X-326186Y-110998D01*
X-333829Y-110998D02*
X-333829Y-94742D01*
X-338344Y-94742D01*
X-338475Y-94744D01*
X-338607Y-94750D01*
X-338738Y-94759D01*
X-338868Y-94773D01*
X-338999Y-94790D01*
X-339128Y-94811D01*
X-339257Y-94835D01*
X-339385Y-94864D01*
X-339513Y-94896D01*
X-339639Y-94932D01*
X-339764Y-94971D01*
X-339889Y-95014D01*
X-340011Y-95061D01*
X-340133Y-95111D01*
X-340253Y-95165D01*
X-340371Y-95222D01*
X-340487Y-95283D01*
X-340602Y-95347D01*
X-340715Y-95414D01*
X-340826Y-95485D01*
X-340934Y-95559D01*
X-341041Y-95636D01*
X-341145Y-95716D01*
X-341247Y-95799D01*
X-341346Y-95884D01*
X-341443Y-95973D01*
X-341537Y-96065D01*
X-341629Y-96159D01*
X-341718Y-96256D01*
X-341803Y-96355D01*
X-341886Y-96457D01*
X-341966Y-96561D01*
X-342043Y-96668D01*
X-342117Y-96776D01*
X-342188Y-96887D01*
X-342255Y-97000D01*
X-342319Y-97115D01*
X-342380Y-97231D01*
X-342437Y-97349D01*
X-342491Y-97469D01*
X-342541Y-97591D01*
X-342588Y-97713D01*
X-342631Y-97838D01*
X-342670Y-97963D01*
X-342706Y-98089D01*
X-342738Y-98217D01*
X-342767Y-98345D01*
X-342791Y-98474D01*
X-342812Y-98603D01*
X-342829Y-98734D01*
X-342843Y-98864D01*
X-342852Y-98995D01*
X-342858Y-99127D01*
X-342860Y-99258D01*
X-342860Y-106482D01*
X-342858Y-106613D01*
X-342852Y-106745D01*
X-342843Y-106876D01*
X-342829Y-107006D01*
X-342812Y-107137D01*
X-342791Y-107266D01*
X-342767Y-107395D01*
X-342738Y-107523D01*
X-342706Y-107651D01*
X-342670Y-107777D01*
X-342631Y-107902D01*
X-342588Y-108027D01*
X-342541Y-108149D01*
X-342491Y-108271D01*
X-342437Y-108391D01*
X-342380Y-108509D01*
X-342319Y-108625D01*
X-342255Y-108740D01*
X-342188Y-108853D01*
X-342117Y-108964D01*
X-342043Y-109072D01*
X-341966Y-109179D01*
X-341886Y-109283D01*
X-341803Y-109385D01*
X-341718Y-109484D01*
X-341629Y-109581D01*
X-341537Y-109675D01*
X-341443Y-109767D01*
X-341346Y-109856D01*
X-341247Y-109941D01*
X-341145Y-110024D01*
X-341041Y-110104D01*
X-340934Y-110181D01*
X-340826Y-110255D01*
X-340715Y-110326D01*
X-340602Y-110393D01*
X-340487Y-110457D01*
X-340371Y-110518D01*
X-340253Y-110575D01*
X-340133Y-110629D01*
X-340011Y-110679D01*
X-339889Y-110726D01*
X-339764Y-110769D01*
X-339639Y-110808D01*
X-339513Y-110844D01*
X-339385Y-110876D01*
X-339257Y-110905D01*
X-339128Y-110929D01*
X-338998Y-110950D01*
X-338868Y-110967D01*
X-338738Y-110981D01*
X-338607Y-110990D01*
X-338475Y-110996D01*
X-338344Y-110998D01*
X-333829Y-110998D01*
X-309513Y-127367D02*
X-306804Y-127367D01*
X-309513Y-127367D02*
X-309513Y-136398D01*
X-304094Y-136398D01*
X-303976Y-136396D01*
X-303858Y-136390D01*
X-303740Y-136381D01*
X-303623Y-136367D01*
X-303506Y-136350D01*
X-303389Y-136329D01*
X-303274Y-136304D01*
X-303159Y-136275D01*
X-303045Y-136242D01*
X-302933Y-136206D01*
X-302822Y-136166D01*
X-302712Y-136123D01*
X-302603Y-136076D01*
X-302496Y-136026D01*
X-302391Y-135971D01*
X-302288Y-135914D01*
X-302187Y-135853D01*
X-302087Y-135789D01*
X-301990Y-135722D01*
X-301895Y-135652D01*
X-301803Y-135578D01*
X-301712Y-135502D01*
X-301625Y-135422D01*
X-301540Y-135340D01*
X-301458Y-135255D01*
X-301378Y-135168D01*
X-301302Y-135077D01*
X-301228Y-134985D01*
X-301158Y-134890D01*
X-301091Y-134793D01*
X-301027Y-134693D01*
X-300966Y-134592D01*
X-300909Y-134489D01*
X-300854Y-134384D01*
X-300804Y-134277D01*
X-300757Y-134168D01*
X-300714Y-134058D01*
X-300674Y-133947D01*
X-300638Y-133835D01*
X-300605Y-133721D01*
X-300576Y-133606D01*
X-300551Y-133491D01*
X-300530Y-133374D01*
X-300513Y-133257D01*
X-300499Y-133140D01*
X-300490Y-133022D01*
X-300484Y-132904D01*
X-300482Y-132786D01*
X-300482Y-123754D01*
X-300484Y-123636D01*
X-300490Y-123518D01*
X-300499Y-123400D01*
X-300513Y-123282D01*
X-300530Y-123165D01*
X-300551Y-123049D01*
X-300576Y-122934D01*
X-300605Y-122819D01*
X-300638Y-122705D01*
X-300674Y-122593D01*
X-300714Y-122481D01*
X-300757Y-122371D01*
X-300804Y-122263D01*
X-300855Y-122156D01*
X-300909Y-122051D01*
X-300966Y-121948D01*
X-301027Y-121846D01*
X-301091Y-121747D01*
X-301158Y-121650D01*
X-301229Y-121555D01*
X-301302Y-121462D01*
X-301379Y-121372D01*
X-301458Y-121284D01*
X-301540Y-121199D01*
X-301625Y-121117D01*
X-301713Y-121038D01*
X-301803Y-120961D01*
X-301896Y-120888D01*
X-301990Y-120817D01*
X-302088Y-120750D01*
X-302187Y-120686D01*
X-302288Y-120625D01*
X-302392Y-120568D01*
X-302497Y-120514D01*
X-302604Y-120463D01*
X-302712Y-120416D01*
X-302822Y-120373D01*
X-302934Y-120333D01*
X-303046Y-120297D01*
X-303160Y-120264D01*
X-303275Y-120235D01*
X-303390Y-120210D01*
X-303506Y-120189D01*
X-303623Y-120172D01*
X-303741Y-120158D01*
X-303859Y-120149D01*
X-303977Y-120143D01*
X-304095Y-120141D01*
X-304094Y-120142D02*
X-309513Y-120142D01*
X-317366Y-120142D02*
X-317366Y-136398D01*
X-317366Y-120142D02*
X-321882Y-120142D01*
X-322015Y-120144D01*
X-322147Y-120150D01*
X-322279Y-120160D01*
X-322411Y-120173D01*
X-322543Y-120191D01*
X-322673Y-120212D01*
X-322804Y-120237D01*
X-322933Y-120266D01*
X-323061Y-120299D01*
X-323189Y-120335D01*
X-323315Y-120375D01*
X-323440Y-120419D01*
X-323564Y-120467D01*
X-323686Y-120518D01*
X-323807Y-120573D01*
X-323926Y-120631D01*
X-324044Y-120693D01*
X-324159Y-120758D01*
X-324273Y-120827D01*
X-324384Y-120898D01*
X-324493Y-120974D01*
X-324600Y-121052D01*
X-324705Y-121133D01*
X-324807Y-121218D01*
X-324907Y-121305D01*
X-325004Y-121395D01*
X-325099Y-121488D01*
X-325190Y-121584D01*
X-325279Y-121682D01*
X-325365Y-121783D01*
X-325448Y-121887D01*
X-325528Y-121993D01*
X-325604Y-122101D01*
X-325678Y-122211D01*
X-325748Y-122324D01*
X-325815Y-122438D01*
X-325878Y-122555D01*
X-325938Y-122673D01*
X-325995Y-122793D01*
X-326048Y-122915D01*
X-326097Y-123038D01*
X-326143Y-123162D01*
X-326185Y-123288D01*
X-326223Y-123415D01*
X-326258Y-123543D01*
X-326289Y-123672D01*
X-326316Y-123801D01*
X-326339Y-123932D01*
X-326359Y-124063D01*
X-326374Y-124195D01*
X-326386Y-124327D01*
X-326394Y-124459D01*
X-326398Y-124592D01*
X-326398Y-124724D01*
X-326394Y-124857D01*
X-326386Y-124989D01*
X-326374Y-125121D01*
X-326359Y-125253D01*
X-326339Y-125384D01*
X-326316Y-125515D01*
X-326289Y-125644D01*
X-326258Y-125773D01*
X-326223Y-125901D01*
X-326185Y-126028D01*
X-326143Y-126154D01*
X-326097Y-126278D01*
X-326048Y-126401D01*
X-325995Y-126523D01*
X-325938Y-126643D01*
X-325878Y-126761D01*
X-325815Y-126878D01*
X-325748Y-126992D01*
X-325678Y-127105D01*
X-325604Y-127215D01*
X-325528Y-127323D01*
X-325448Y-127429D01*
X-325365Y-127533D01*
X-325279Y-127634D01*
X-325190Y-127732D01*
X-325099Y-127828D01*
X-325004Y-127921D01*
X-324907Y-128011D01*
X-324807Y-128098D01*
X-324705Y-128183D01*
X-324600Y-128264D01*
X-324493Y-128342D01*
X-324384Y-128418D01*
X-324273Y-128489D01*
X-324159Y-128558D01*
X-324044Y-128623D01*
X-323926Y-128685D01*
X-323807Y-128743D01*
X-323686Y-128798D01*
X-323564Y-128849D01*
X-323440Y-128897D01*
X-323315Y-128941D01*
X-323189Y-128981D01*
X-323061Y-129017D01*
X-322933Y-129050D01*
X-322804Y-129079D01*
X-322673Y-129104D01*
X-322543Y-129125D01*
X-322411Y-129143D01*
X-322279Y-129156D01*
X-322147Y-129166D01*
X-322015Y-129172D01*
X-321882Y-129174D01*
X-321882Y-129173D02*
X-317366Y-129173D01*
X-337163Y-136398D02*
X-337281Y-136396D01*
X-337399Y-136390D01*
X-337517Y-136381D01*
X-337634Y-136367D01*
X-337751Y-136350D01*
X-337868Y-136329D01*
X-337983Y-136304D01*
X-338098Y-136275D01*
X-338212Y-136242D01*
X-338324Y-136206D01*
X-338435Y-136166D01*
X-338545Y-136123D01*
X-338654Y-136076D01*
X-338761Y-136026D01*
X-338866Y-135971D01*
X-338969Y-135914D01*
X-339070Y-135853D01*
X-339170Y-135789D01*
X-339267Y-135722D01*
X-339362Y-135652D01*
X-339454Y-135578D01*
X-339545Y-135502D01*
X-339632Y-135422D01*
X-339717Y-135340D01*
X-339799Y-135255D01*
X-339879Y-135168D01*
X-339955Y-135077D01*
X-340029Y-134985D01*
X-340099Y-134890D01*
X-340166Y-134793D01*
X-340230Y-134693D01*
X-340291Y-134592D01*
X-340348Y-134489D01*
X-340403Y-134384D01*
X-340453Y-134277D01*
X-340500Y-134168D01*
X-340543Y-134058D01*
X-340583Y-133947D01*
X-340619Y-133835D01*
X-340652Y-133721D01*
X-340681Y-133606D01*
X-340706Y-133491D01*
X-340727Y-133374D01*
X-340744Y-133257D01*
X-340758Y-133140D01*
X-340767Y-133022D01*
X-340773Y-132904D01*
X-340775Y-132786D01*
X-337163Y-136398D02*
X-336980Y-136396D01*
X-336798Y-136389D01*
X-336616Y-136378D01*
X-336434Y-136363D01*
X-336252Y-136343D01*
X-336071Y-136320D01*
X-335891Y-136291D01*
X-335711Y-136259D01*
X-335532Y-136222D01*
X-335355Y-136181D01*
X-335178Y-136135D01*
X-335002Y-136086D01*
X-334828Y-136032D01*
X-334654Y-135974D01*
X-334483Y-135912D01*
X-334313Y-135846D01*
X-334144Y-135775D01*
X-333977Y-135701D01*
X-333812Y-135623D01*
X-333649Y-135541D01*
X-333488Y-135455D01*
X-333329Y-135365D01*
X-333172Y-135271D01*
X-333018Y-135174D01*
X-332866Y-135073D01*
X-332716Y-134968D01*
X-332569Y-134860D01*
X-332425Y-134749D01*
X-332283Y-134634D01*
X-332144Y-134515D01*
X-332008Y-134393D01*
X-331875Y-134268D01*
X-331745Y-134140D01*
X-332197Y-123754D02*
X-332199Y-123636D01*
X-332205Y-123518D01*
X-332214Y-123400D01*
X-332228Y-123283D01*
X-332245Y-123166D01*
X-332266Y-123049D01*
X-332291Y-122934D01*
X-332320Y-122819D01*
X-332353Y-122705D01*
X-332389Y-122593D01*
X-332429Y-122482D01*
X-332472Y-122372D01*
X-332519Y-122263D01*
X-332569Y-122156D01*
X-332624Y-122051D01*
X-332681Y-121948D01*
X-332742Y-121847D01*
X-332806Y-121747D01*
X-332873Y-121650D01*
X-332943Y-121555D01*
X-333017Y-121463D01*
X-333093Y-121372D01*
X-333173Y-121285D01*
X-333255Y-121200D01*
X-333340Y-121118D01*
X-333427Y-121038D01*
X-333518Y-120962D01*
X-333610Y-120888D01*
X-333705Y-120818D01*
X-333802Y-120751D01*
X-333902Y-120687D01*
X-334003Y-120626D01*
X-334106Y-120569D01*
X-334211Y-120514D01*
X-334318Y-120464D01*
X-334427Y-120417D01*
X-334537Y-120374D01*
X-334648Y-120334D01*
X-334760Y-120298D01*
X-334874Y-120265D01*
X-334989Y-120236D01*
X-335104Y-120211D01*
X-335221Y-120190D01*
X-335338Y-120173D01*
X-335455Y-120159D01*
X-335573Y-120150D01*
X-335691Y-120144D01*
X-335809Y-120142D01*
X-335970Y-120144D01*
X-336132Y-120150D01*
X-336293Y-120159D01*
X-336454Y-120173D01*
X-336614Y-120190D01*
X-336774Y-120211D01*
X-336934Y-120236D01*
X-337093Y-120265D01*
X-337251Y-120297D01*
X-337408Y-120333D01*
X-337564Y-120373D01*
X-337720Y-120417D01*
X-337874Y-120465D01*
X-338027Y-120516D01*
X-338179Y-120570D01*
X-338330Y-120629D01*
X-338479Y-120690D01*
X-338626Y-120756D01*
X-338772Y-120825D01*
X-338917Y-120897D01*
X-339059Y-120973D01*
X-339200Y-121052D01*
X-339339Y-121134D01*
X-339475Y-121220D01*
X-339610Y-121309D01*
X-339743Y-121401D01*
X-339873Y-121497D01*
X-334002Y-126915D02*
X-333901Y-126853D01*
X-333801Y-126788D01*
X-333704Y-126719D01*
X-333609Y-126647D01*
X-333516Y-126573D01*
X-333426Y-126495D01*
X-333338Y-126414D01*
X-333253Y-126331D01*
X-333171Y-126245D01*
X-333092Y-126156D01*
X-333015Y-126065D01*
X-332942Y-125971D01*
X-332871Y-125875D01*
X-332804Y-125777D01*
X-332740Y-125677D01*
X-332679Y-125574D01*
X-332622Y-125470D01*
X-332568Y-125364D01*
X-332518Y-125256D01*
X-332471Y-125147D01*
X-332427Y-125036D01*
X-332387Y-124924D01*
X-332351Y-124810D01*
X-332319Y-124696D01*
X-332290Y-124580D01*
X-332265Y-124464D01*
X-332244Y-124347D01*
X-332227Y-124229D01*
X-332213Y-124111D01*
X-332204Y-123992D01*
X-332198Y-123873D01*
X-332196Y-123754D01*
X-338970Y-129625D02*
X-339071Y-129687D01*
X-339171Y-129752D01*
X-339268Y-129821D01*
X-339363Y-129893D01*
X-339456Y-129967D01*
X-339546Y-130045D01*
X-339634Y-130126D01*
X-339719Y-130209D01*
X-339801Y-130295D01*
X-339880Y-130384D01*
X-339957Y-130475D01*
X-340030Y-130569D01*
X-340101Y-130665D01*
X-340168Y-130763D01*
X-340232Y-130863D01*
X-340293Y-130966D01*
X-340350Y-131070D01*
X-340404Y-131176D01*
X-340454Y-131284D01*
X-340501Y-131393D01*
X-340545Y-131504D01*
X-340585Y-131616D01*
X-340621Y-131730D01*
X-340653Y-131844D01*
X-340682Y-131960D01*
X-340707Y-132076D01*
X-340728Y-132193D01*
X-340745Y-132311D01*
X-340759Y-132429D01*
X-340768Y-132548D01*
X-340774Y-132667D01*
X-340776Y-132786D01*
X-338969Y-129625D02*
X-334002Y-126915D01*
X-346195Y-138204D02*
X-353420Y-138204D01*
X-359910Y-136398D02*
X-367135Y-136398D01*
X-359910Y-136398D02*
X-359910Y-120142D01*
X-367135Y-120142D01*
X-365329Y-127367D02*
X-359910Y-127367D01*
X-373428Y-120142D02*
X-373428Y-136398D01*
X-382459Y-136398D02*
X-373428Y-120142D01*
X-382459Y-120142D02*
X-382459Y-136398D01*
D11*
X-35941Y-259461D02*
X-35941Y-268859D01*
X-35941Y-259461D02*
X-38552Y-259461D01*
X-38653Y-259463D01*
X-38754Y-259469D01*
X-38855Y-259479D01*
X-38955Y-259492D01*
X-39055Y-259510D01*
X-39154Y-259531D01*
X-39252Y-259557D01*
X-39349Y-259586D01*
X-39445Y-259618D01*
X-39539Y-259655D01*
X-39632Y-259695D01*
X-39724Y-259739D01*
X-39813Y-259786D01*
X-39901Y-259837D01*
X-39987Y-259891D01*
X-40070Y-259948D01*
X-40152Y-260008D01*
X-40230Y-260072D01*
X-40307Y-260138D01*
X-40380Y-260208D01*
X-40451Y-260280D01*
X-40519Y-260355D01*
X-40584Y-260433D01*
X-40646Y-260513D01*
X-40705Y-260595D01*
X-40761Y-260680D01*
X-40813Y-260767D01*
X-40862Y-260855D01*
X-40908Y-260946D01*
X-40949Y-261038D01*
X-40988Y-261132D01*
X-41022Y-261227D01*
X-41053Y-261323D01*
X-41080Y-261421D01*
X-41104Y-261519D01*
X-41123Y-261619D01*
X-41139Y-261719D01*
X-41151Y-261819D01*
X-41159Y-261920D01*
X-41163Y-262021D01*
X-41163Y-262123D01*
X-41159Y-262224D01*
X-41151Y-262325D01*
X-41139Y-262425D01*
X-41123Y-262525D01*
X-41104Y-262625D01*
X-41080Y-262723D01*
X-41053Y-262821D01*
X-41022Y-262917D01*
X-40988Y-263012D01*
X-40949Y-263106D01*
X-40908Y-263198D01*
X-40862Y-263289D01*
X-40813Y-263378D01*
X-40761Y-263464D01*
X-40705Y-263549D01*
X-40646Y-263631D01*
X-40584Y-263711D01*
X-40519Y-263789D01*
X-40451Y-263864D01*
X-40380Y-263936D01*
X-40307Y-264006D01*
X-40230Y-264072D01*
X-40152Y-264136D01*
X-40070Y-264196D01*
X-39987Y-264253D01*
X-39901Y-264307D01*
X-39813Y-264358D01*
X-39724Y-264405D01*
X-39632Y-264449D01*
X-39539Y-264489D01*
X-39445Y-264526D01*
X-39349Y-264558D01*
X-39252Y-264587D01*
X-39154Y-264613D01*
X-39055Y-264634D01*
X-38955Y-264652D01*
X-38855Y-264665D01*
X-38754Y-264675D01*
X-38653Y-264681D01*
X-38552Y-264683D01*
X-38552Y-264682D02*
X-35941Y-264682D01*
X-45085Y-263638D02*
X-47696Y-263638D01*
X-47696Y-263637D02*
X-47797Y-263639D01*
X-47898Y-263645D01*
X-47999Y-263655D01*
X-48099Y-263668D01*
X-48199Y-263686D01*
X-48298Y-263707D01*
X-48396Y-263733D01*
X-48493Y-263762D01*
X-48589Y-263794D01*
X-48683Y-263831D01*
X-48776Y-263871D01*
X-48868Y-263915D01*
X-48957Y-263962D01*
X-49045Y-264013D01*
X-49131Y-264067D01*
X-49214Y-264124D01*
X-49296Y-264184D01*
X-49374Y-264248D01*
X-49451Y-264314D01*
X-49524Y-264384D01*
X-49595Y-264456D01*
X-49663Y-264531D01*
X-49728Y-264609D01*
X-49790Y-264689D01*
X-49849Y-264771D01*
X-49905Y-264856D01*
X-49957Y-264943D01*
X-50006Y-265031D01*
X-50052Y-265122D01*
X-50093Y-265214D01*
X-50132Y-265308D01*
X-50166Y-265403D01*
X-50197Y-265499D01*
X-50224Y-265597D01*
X-50248Y-265695D01*
X-50267Y-265795D01*
X-50283Y-265895D01*
X-50295Y-265995D01*
X-50303Y-266096D01*
X-50307Y-266197D01*
X-50307Y-266299D01*
X-50303Y-266400D01*
X-50295Y-266501D01*
X-50283Y-266601D01*
X-50267Y-266701D01*
X-50248Y-266801D01*
X-50224Y-266899D01*
X-50197Y-266997D01*
X-50166Y-267093D01*
X-50132Y-267188D01*
X-50093Y-267282D01*
X-50052Y-267374D01*
X-50006Y-267465D01*
X-49957Y-267554D01*
X-49905Y-267640D01*
X-49849Y-267725D01*
X-49790Y-267807D01*
X-49728Y-267887D01*
X-49663Y-267965D01*
X-49595Y-268040D01*
X-49524Y-268112D01*
X-49451Y-268182D01*
X-49374Y-268248D01*
X-49296Y-268312D01*
X-49214Y-268372D01*
X-49131Y-268429D01*
X-49045Y-268483D01*
X-48957Y-268534D01*
X-48868Y-268581D01*
X-48776Y-268625D01*
X-48683Y-268665D01*
X-48589Y-268702D01*
X-48493Y-268734D01*
X-48396Y-268763D01*
X-48298Y-268789D01*
X-48199Y-268810D01*
X-48099Y-268828D01*
X-47999Y-268841D01*
X-47898Y-268851D01*
X-47797Y-268857D01*
X-47696Y-268859D01*
X-45085Y-268859D01*
X-45085Y-259461D01*
X-47696Y-259461D01*
X-47786Y-259463D01*
X-47875Y-259469D01*
X-47965Y-259478D01*
X-48054Y-259492D01*
X-48142Y-259509D01*
X-48229Y-259530D01*
X-48316Y-259555D01*
X-48401Y-259584D01*
X-48485Y-259616D01*
X-48567Y-259651D01*
X-48648Y-259691D01*
X-48727Y-259733D01*
X-48804Y-259779D01*
X-48879Y-259829D01*
X-48952Y-259881D01*
X-49023Y-259937D01*
X-49091Y-259995D01*
X-49156Y-260057D01*
X-49219Y-260121D01*
X-49279Y-260188D01*
X-49336Y-260257D01*
X-49390Y-260329D01*
X-49441Y-260403D01*
X-49489Y-260479D01*
X-49533Y-260557D01*
X-49574Y-260637D01*
X-49612Y-260719D01*
X-49646Y-260802D01*
X-49676Y-260887D01*
X-49703Y-260973D01*
X-49726Y-261059D01*
X-49745Y-261147D01*
X-49760Y-261236D01*
X-49772Y-261325D01*
X-49780Y-261414D01*
X-49784Y-261504D01*
X-49784Y-261594D01*
X-49780Y-261684D01*
X-49772Y-261773D01*
X-49760Y-261862D01*
X-49745Y-261951D01*
X-49726Y-262039D01*
X-49703Y-262125D01*
X-49676Y-262211D01*
X-49646Y-262296D01*
X-49612Y-262379D01*
X-49574Y-262461D01*
X-49533Y-262541D01*
X-49489Y-262619D01*
X-49441Y-262695D01*
X-49390Y-262769D01*
X-49336Y-262841D01*
X-49279Y-262910D01*
X-49219Y-262977D01*
X-49156Y-263041D01*
X-49091Y-263103D01*
X-49023Y-263161D01*
X-48952Y-263217D01*
X-48879Y-263269D01*
X-48804Y-263319D01*
X-48727Y-263365D01*
X-48648Y-263407D01*
X-48567Y-263447D01*
X-48485Y-263482D01*
X-48401Y-263514D01*
X-48316Y-263543D01*
X-48229Y-263568D01*
X-48142Y-263589D01*
X-48054Y-263606D01*
X-47965Y-263620D01*
X-47875Y-263629D01*
X-47786Y-263635D01*
X-47696Y-263637D01*
X-53793Y-261549D02*
X-56403Y-259461D01*
X-56403Y-268859D01*
X-53793Y-268859D02*
X-59014Y-268859D01*
X-62937Y-268859D02*
X-66070Y-268859D01*
X-66159Y-268857D01*
X-66247Y-268851D01*
X-66335Y-268842D01*
X-66423Y-268829D01*
X-66510Y-268812D01*
X-66596Y-268792D01*
X-66681Y-268767D01*
X-66766Y-268740D01*
X-66849Y-268708D01*
X-66930Y-268674D01*
X-67010Y-268635D01*
X-67088Y-268594D01*
X-67165Y-268549D01*
X-67239Y-268501D01*
X-67312Y-268450D01*
X-67382Y-268396D01*
X-67449Y-268338D01*
X-67515Y-268278D01*
X-67577Y-268216D01*
X-67637Y-268150D01*
X-67695Y-268083D01*
X-67749Y-268013D01*
X-67800Y-267940D01*
X-67848Y-267866D01*
X-67893Y-267789D01*
X-67934Y-267711D01*
X-67973Y-267631D01*
X-68007Y-267550D01*
X-68039Y-267467D01*
X-68066Y-267382D01*
X-68091Y-267297D01*
X-68111Y-267211D01*
X-68128Y-267124D01*
X-68141Y-267036D01*
X-68150Y-266948D01*
X-68156Y-266860D01*
X-68158Y-266771D01*
X-68158Y-265726D01*
X-68156Y-265637D01*
X-68150Y-265549D01*
X-68141Y-265461D01*
X-68128Y-265373D01*
X-68111Y-265286D01*
X-68091Y-265200D01*
X-68066Y-265115D01*
X-68039Y-265030D01*
X-68007Y-264947D01*
X-67973Y-264866D01*
X-67934Y-264786D01*
X-67893Y-264708D01*
X-67848Y-264631D01*
X-67800Y-264557D01*
X-67749Y-264484D01*
X-67695Y-264414D01*
X-67637Y-264347D01*
X-67577Y-264281D01*
X-67515Y-264219D01*
X-67449Y-264159D01*
X-67382Y-264101D01*
X-67312Y-264047D01*
X-67239Y-263996D01*
X-67165Y-263948D01*
X-67088Y-263903D01*
X-67010Y-263862D01*
X-66930Y-263823D01*
X-66849Y-263789D01*
X-66766Y-263757D01*
X-66681Y-263730D01*
X-66596Y-263705D01*
X-66510Y-263685D01*
X-66423Y-263668D01*
X-66335Y-263655D01*
X-66247Y-263646D01*
X-66159Y-263640D01*
X-66070Y-263638D01*
X-62937Y-263638D01*
X-62937Y-259461D01*
X-68158Y-259461D01*
X-20842Y-282011D02*
X-20840Y-282100D01*
X-20834Y-282188D01*
X-20825Y-282276D01*
X-20812Y-282364D01*
X-20795Y-282451D01*
X-20775Y-282537D01*
X-20750Y-282622D01*
X-20723Y-282707D01*
X-20691Y-282790D01*
X-20657Y-282871D01*
X-20618Y-282951D01*
X-20577Y-283029D01*
X-20532Y-283106D01*
X-20484Y-283180D01*
X-20433Y-283253D01*
X-20379Y-283323D01*
X-20321Y-283390D01*
X-20261Y-283456D01*
X-20199Y-283518D01*
X-20133Y-283578D01*
X-20066Y-283636D01*
X-19996Y-283690D01*
X-19923Y-283741D01*
X-19849Y-283789D01*
X-19772Y-283834D01*
X-19694Y-283875D01*
X-19614Y-283914D01*
X-19533Y-283948D01*
X-19450Y-283980D01*
X-19365Y-284007D01*
X-19280Y-284032D01*
X-19194Y-284052D01*
X-19107Y-284069D01*
X-19019Y-284082D01*
X-18931Y-284091D01*
X-18843Y-284097D01*
X-18754Y-284099D01*
X-18625Y-284097D01*
X-18496Y-284091D01*
X-18367Y-284082D01*
X-18239Y-284069D01*
X-18111Y-284052D01*
X-17984Y-284031D01*
X-17857Y-284007D01*
X-17731Y-283979D01*
X-17606Y-283947D01*
X-17482Y-283912D01*
X-17359Y-283873D01*
X-17237Y-283830D01*
X-17117Y-283784D01*
X-16998Y-283734D01*
X-16880Y-283681D01*
X-16764Y-283625D01*
X-16650Y-283565D01*
X-16537Y-283502D01*
X-16427Y-283435D01*
X-16318Y-283366D01*
X-16212Y-283293D01*
X-16107Y-283217D01*
X-16005Y-283138D01*
X-15906Y-283056D01*
X-15808Y-282972D01*
X-15713Y-282884D01*
X-15621Y-282794D01*
X-15883Y-276789D02*
X-15885Y-276700D01*
X-15891Y-276612D01*
X-15900Y-276524D01*
X-15913Y-276436D01*
X-15930Y-276349D01*
X-15950Y-276263D01*
X-15975Y-276178D01*
X-16002Y-276093D01*
X-16034Y-276010D01*
X-16068Y-275929D01*
X-16107Y-275849D01*
X-16148Y-275771D01*
X-16193Y-275694D01*
X-16241Y-275620D01*
X-16292Y-275547D01*
X-16346Y-275477D01*
X-16404Y-275410D01*
X-16464Y-275344D01*
X-16526Y-275282D01*
X-16592Y-275222D01*
X-16659Y-275164D01*
X-16729Y-275110D01*
X-16802Y-275059D01*
X-16876Y-275011D01*
X-16953Y-274966D01*
X-17031Y-274925D01*
X-17111Y-274886D01*
X-17192Y-274852D01*
X-17275Y-274820D01*
X-17360Y-274793D01*
X-17445Y-274768D01*
X-17531Y-274748D01*
X-17618Y-274731D01*
X-17706Y-274718D01*
X-17794Y-274709D01*
X-17882Y-274703D01*
X-17971Y-274701D01*
X-18091Y-274703D01*
X-18211Y-274708D01*
X-18330Y-274718D01*
X-18450Y-274730D01*
X-18569Y-274747D01*
X-18687Y-274767D01*
X-18805Y-274791D01*
X-18921Y-274818D01*
X-19037Y-274849D01*
X-19152Y-274883D01*
X-19266Y-274921D01*
X-19379Y-274963D01*
X-19490Y-275008D01*
X-19600Y-275056D01*
X-19708Y-275107D01*
X-19815Y-275162D01*
X-19920Y-275220D01*
X-20023Y-275282D01*
X-20124Y-275346D01*
X-20224Y-275414D01*
X-20321Y-275484D01*
X-16926Y-278616D02*
X-16848Y-278568D01*
X-16772Y-278516D01*
X-16699Y-278462D01*
X-16628Y-278404D01*
X-16559Y-278343D01*
X-16493Y-278279D01*
X-16430Y-278212D01*
X-16370Y-278143D01*
X-16313Y-278071D01*
X-16259Y-277997D01*
X-16209Y-277920D01*
X-16161Y-277841D01*
X-16118Y-277761D01*
X-16077Y-277678D01*
X-16041Y-277594D01*
X-16008Y-277509D01*
X-15979Y-277422D01*
X-15953Y-277333D01*
X-15931Y-277244D01*
X-15914Y-277154D01*
X-15900Y-277064D01*
X-15890Y-276972D01*
X-15884Y-276881D01*
X-15882Y-276789D01*
X-19798Y-280184D02*
X-19876Y-280232D01*
X-19952Y-280284D01*
X-20025Y-280338D01*
X-20096Y-280396D01*
X-20165Y-280457D01*
X-20231Y-280521D01*
X-20294Y-280588D01*
X-20354Y-280657D01*
X-20411Y-280729D01*
X-20465Y-280803D01*
X-20515Y-280880D01*
X-20563Y-280959D01*
X-20606Y-281039D01*
X-20647Y-281122D01*
X-20683Y-281206D01*
X-20716Y-281291D01*
X-20745Y-281378D01*
X-20771Y-281467D01*
X-20793Y-281556D01*
X-20810Y-281646D01*
X-20824Y-281736D01*
X-20834Y-281828D01*
X-20840Y-281919D01*
X-20842Y-282011D01*
X-19798Y-280183D02*
X-16926Y-278617D01*
X-24896Y-274701D02*
X-24896Y-284099D01*
X-24896Y-274701D02*
X-27507Y-274701D01*
X-27608Y-274703D01*
X-27709Y-274709D01*
X-27810Y-274719D01*
X-27910Y-274732D01*
X-28010Y-274750D01*
X-28109Y-274771D01*
X-28207Y-274797D01*
X-28304Y-274826D01*
X-28400Y-274858D01*
X-28494Y-274895D01*
X-28587Y-274935D01*
X-28679Y-274979D01*
X-28768Y-275026D01*
X-28856Y-275077D01*
X-28942Y-275131D01*
X-29025Y-275188D01*
X-29107Y-275248D01*
X-29185Y-275312D01*
X-29262Y-275378D01*
X-29335Y-275448D01*
X-29406Y-275520D01*
X-29474Y-275595D01*
X-29539Y-275673D01*
X-29601Y-275753D01*
X-29660Y-275835D01*
X-29716Y-275920D01*
X-29768Y-276007D01*
X-29817Y-276095D01*
X-29863Y-276186D01*
X-29904Y-276278D01*
X-29943Y-276372D01*
X-29977Y-276467D01*
X-30008Y-276563D01*
X-30035Y-276661D01*
X-30059Y-276759D01*
X-30078Y-276859D01*
X-30094Y-276959D01*
X-30106Y-277059D01*
X-30114Y-277160D01*
X-30118Y-277261D01*
X-30118Y-277363D01*
X-30114Y-277464D01*
X-30106Y-277565D01*
X-30094Y-277665D01*
X-30078Y-277765D01*
X-30059Y-277865D01*
X-30035Y-277963D01*
X-30008Y-278061D01*
X-29977Y-278157D01*
X-29943Y-278252D01*
X-29904Y-278346D01*
X-29863Y-278438D01*
X-29817Y-278529D01*
X-29768Y-278618D01*
X-29716Y-278704D01*
X-29660Y-278789D01*
X-29601Y-278871D01*
X-29539Y-278951D01*
X-29474Y-279029D01*
X-29406Y-279104D01*
X-29335Y-279176D01*
X-29262Y-279246D01*
X-29185Y-279312D01*
X-29107Y-279376D01*
X-29025Y-279436D01*
X-28942Y-279493D01*
X-28856Y-279547D01*
X-28768Y-279598D01*
X-28679Y-279645D01*
X-28587Y-279689D01*
X-28494Y-279729D01*
X-28400Y-279766D01*
X-28304Y-279798D01*
X-28207Y-279827D01*
X-28109Y-279853D01*
X-28010Y-279874D01*
X-27910Y-279892D01*
X-27810Y-279905D01*
X-27709Y-279915D01*
X-27608Y-279921D01*
X-27507Y-279923D01*
X-27507Y-279922D02*
X-24896Y-279922D01*
X-34386Y-284099D02*
X-34386Y-274701D01*
X-33342Y-284099D02*
X-35430Y-284099D01*
X-35430Y-274701D02*
X-33342Y-274701D01*
X-38698Y-285143D02*
X-42875Y-285143D01*
X-49233Y-284099D02*
X-49322Y-284097D01*
X-49410Y-284091D01*
X-49498Y-284082D01*
X-49586Y-284069D01*
X-49673Y-284052D01*
X-49759Y-284032D01*
X-49844Y-284007D01*
X-49929Y-283980D01*
X-50012Y-283948D01*
X-50093Y-283914D01*
X-50173Y-283875D01*
X-50251Y-283834D01*
X-50328Y-283789D01*
X-50402Y-283741D01*
X-50475Y-283690D01*
X-50545Y-283636D01*
X-50612Y-283578D01*
X-50678Y-283518D01*
X-50740Y-283456D01*
X-50800Y-283390D01*
X-50858Y-283323D01*
X-50912Y-283253D01*
X-50963Y-283180D01*
X-51011Y-283106D01*
X-51056Y-283029D01*
X-51097Y-282951D01*
X-51136Y-282871D01*
X-51170Y-282790D01*
X-51202Y-282707D01*
X-51229Y-282622D01*
X-51254Y-282537D01*
X-51274Y-282451D01*
X-51291Y-282364D01*
X-51304Y-282276D01*
X-51313Y-282188D01*
X-51319Y-282100D01*
X-51321Y-282011D01*
X-49233Y-284099D02*
X-49104Y-284097D01*
X-48975Y-284091D01*
X-48846Y-284082D01*
X-48718Y-284069D01*
X-48590Y-284052D01*
X-48463Y-284031D01*
X-48336Y-284007D01*
X-48210Y-283979D01*
X-48085Y-283947D01*
X-47961Y-283912D01*
X-47838Y-283873D01*
X-47716Y-283830D01*
X-47596Y-283784D01*
X-47477Y-283734D01*
X-47359Y-283681D01*
X-47243Y-283625D01*
X-47129Y-283565D01*
X-47016Y-283502D01*
X-46906Y-283435D01*
X-46797Y-283366D01*
X-46691Y-283293D01*
X-46586Y-283217D01*
X-46484Y-283138D01*
X-46385Y-283056D01*
X-46287Y-282972D01*
X-46192Y-282884D01*
X-46100Y-282794D01*
X-46362Y-276789D02*
X-46364Y-276700D01*
X-46370Y-276612D01*
X-46379Y-276524D01*
X-46392Y-276436D01*
X-46409Y-276349D01*
X-46429Y-276263D01*
X-46454Y-276178D01*
X-46481Y-276093D01*
X-46513Y-276010D01*
X-46547Y-275929D01*
X-46586Y-275849D01*
X-46627Y-275771D01*
X-46672Y-275694D01*
X-46720Y-275620D01*
X-46771Y-275547D01*
X-46825Y-275477D01*
X-46883Y-275410D01*
X-46943Y-275344D01*
X-47005Y-275282D01*
X-47071Y-275222D01*
X-47138Y-275164D01*
X-47208Y-275110D01*
X-47281Y-275059D01*
X-47355Y-275011D01*
X-47432Y-274966D01*
X-47510Y-274925D01*
X-47590Y-274886D01*
X-47671Y-274852D01*
X-47754Y-274820D01*
X-47839Y-274793D01*
X-47924Y-274768D01*
X-48010Y-274748D01*
X-48097Y-274731D01*
X-48185Y-274718D01*
X-48273Y-274709D01*
X-48361Y-274703D01*
X-48450Y-274701D01*
X-48570Y-274703D01*
X-48690Y-274708D01*
X-48809Y-274718D01*
X-48929Y-274730D01*
X-49048Y-274747D01*
X-49166Y-274767D01*
X-49284Y-274791D01*
X-49400Y-274818D01*
X-49516Y-274849D01*
X-49631Y-274883D01*
X-49745Y-274921D01*
X-49858Y-274963D01*
X-49969Y-275008D01*
X-50079Y-275056D01*
X-50187Y-275107D01*
X-50294Y-275162D01*
X-50399Y-275220D01*
X-50502Y-275282D01*
X-50603Y-275346D01*
X-50703Y-275414D01*
X-50800Y-275484D01*
X-47406Y-278616D02*
X-47328Y-278568D01*
X-47252Y-278516D01*
X-47179Y-278462D01*
X-47108Y-278404D01*
X-47039Y-278343D01*
X-46973Y-278279D01*
X-46910Y-278212D01*
X-46850Y-278143D01*
X-46793Y-278071D01*
X-46739Y-277997D01*
X-46689Y-277920D01*
X-46641Y-277841D01*
X-46598Y-277761D01*
X-46557Y-277678D01*
X-46521Y-277594D01*
X-46488Y-277509D01*
X-46459Y-277422D01*
X-46433Y-277333D01*
X-46411Y-277244D01*
X-46394Y-277154D01*
X-46380Y-277064D01*
X-46370Y-276972D01*
X-46364Y-276881D01*
X-46362Y-276789D01*
X-50278Y-280184D02*
X-50356Y-280232D01*
X-50432Y-280284D01*
X-50505Y-280338D01*
X-50576Y-280396D01*
X-50645Y-280457D01*
X-50711Y-280521D01*
X-50774Y-280588D01*
X-50834Y-280657D01*
X-50891Y-280729D01*
X-50945Y-280803D01*
X-50995Y-280880D01*
X-51043Y-280959D01*
X-51086Y-281039D01*
X-51127Y-281122D01*
X-51163Y-281206D01*
X-51196Y-281291D01*
X-51225Y-281378D01*
X-51251Y-281467D01*
X-51273Y-281556D01*
X-51290Y-281646D01*
X-51304Y-281736D01*
X-51314Y-281828D01*
X-51320Y-281919D01*
X-51322Y-282011D01*
X-50278Y-280183D02*
X-47406Y-278617D01*
X-57003Y-284099D02*
X-59091Y-284099D01*
X-57003Y-284099D02*
X-56914Y-284097D01*
X-56826Y-284091D01*
X-56738Y-284082D01*
X-56650Y-284069D01*
X-56563Y-284052D01*
X-56477Y-284032D01*
X-56392Y-284007D01*
X-56307Y-283980D01*
X-56224Y-283948D01*
X-56143Y-283914D01*
X-56063Y-283875D01*
X-55985Y-283834D01*
X-55908Y-283789D01*
X-55834Y-283741D01*
X-55761Y-283690D01*
X-55691Y-283636D01*
X-55624Y-283578D01*
X-55558Y-283518D01*
X-55496Y-283456D01*
X-55436Y-283390D01*
X-55378Y-283323D01*
X-55324Y-283253D01*
X-55273Y-283180D01*
X-55225Y-283106D01*
X-55180Y-283029D01*
X-55139Y-282951D01*
X-55100Y-282871D01*
X-55066Y-282790D01*
X-55034Y-282707D01*
X-55007Y-282622D01*
X-54982Y-282537D01*
X-54962Y-282451D01*
X-54945Y-282364D01*
X-54932Y-282276D01*
X-54923Y-282188D01*
X-54917Y-282100D01*
X-54915Y-282011D01*
X-54914Y-282011D02*
X-54914Y-276789D01*
X-54916Y-276698D01*
X-54922Y-276607D01*
X-54932Y-276516D01*
X-54946Y-276426D01*
X-54964Y-276337D01*
X-54985Y-276248D01*
X-55011Y-276161D01*
X-55040Y-276075D01*
X-55073Y-275990D01*
X-55110Y-275906D01*
X-55150Y-275824D01*
X-55194Y-275745D01*
X-55241Y-275667D01*
X-55292Y-275591D01*
X-55346Y-275517D01*
X-55403Y-275446D01*
X-55463Y-275378D01*
X-55526Y-275312D01*
X-55592Y-275249D01*
X-55660Y-275189D01*
X-55731Y-275132D01*
X-55805Y-275078D01*
X-55881Y-275027D01*
X-55958Y-274980D01*
X-56038Y-274936D01*
X-56120Y-274896D01*
X-56204Y-274859D01*
X-56288Y-274826D01*
X-56375Y-274797D01*
X-56462Y-274771D01*
X-56551Y-274750D01*
X-56640Y-274732D01*
X-56730Y-274718D01*
X-56821Y-274708D01*
X-56912Y-274702D01*
X-57003Y-274700D01*
X-57003Y-274701D02*
X-59091Y-274701D01*
X-62996Y-274701D02*
X-62996Y-284099D01*
X-62996Y-280444D02*
X-68217Y-274701D01*
X-65084Y-278356D02*
X-68217Y-284099D01*
X-10682Y-297251D02*
X-10680Y-297340D01*
X-10674Y-297428D01*
X-10665Y-297516D01*
X-10652Y-297604D01*
X-10635Y-297691D01*
X-10615Y-297777D01*
X-10590Y-297862D01*
X-10563Y-297947D01*
X-10531Y-298030D01*
X-10497Y-298111D01*
X-10458Y-298191D01*
X-10417Y-298269D01*
X-10372Y-298346D01*
X-10324Y-298420D01*
X-10273Y-298493D01*
X-10219Y-298563D01*
X-10161Y-298630D01*
X-10101Y-298696D01*
X-10039Y-298758D01*
X-9973Y-298818D01*
X-9906Y-298876D01*
X-9836Y-298930D01*
X-9763Y-298981D01*
X-9689Y-299029D01*
X-9612Y-299074D01*
X-9534Y-299115D01*
X-9454Y-299154D01*
X-9373Y-299188D01*
X-9290Y-299220D01*
X-9205Y-299247D01*
X-9120Y-299272D01*
X-9034Y-299292D01*
X-8947Y-299309D01*
X-8859Y-299322D01*
X-8771Y-299331D01*
X-8683Y-299337D01*
X-8594Y-299339D01*
X-8465Y-299337D01*
X-8336Y-299331D01*
X-8207Y-299322D01*
X-8079Y-299309D01*
X-7951Y-299292D01*
X-7824Y-299271D01*
X-7697Y-299247D01*
X-7571Y-299219D01*
X-7446Y-299187D01*
X-7322Y-299152D01*
X-7199Y-299113D01*
X-7077Y-299070D01*
X-6957Y-299024D01*
X-6838Y-298974D01*
X-6720Y-298921D01*
X-6604Y-298865D01*
X-6490Y-298805D01*
X-6377Y-298742D01*
X-6267Y-298675D01*
X-6158Y-298606D01*
X-6052Y-298533D01*
X-5947Y-298457D01*
X-5845Y-298378D01*
X-5746Y-298296D01*
X-5648Y-298212D01*
X-5553Y-298124D01*
X-5461Y-298034D01*
X-5723Y-292029D02*
X-5725Y-291940D01*
X-5731Y-291852D01*
X-5740Y-291764D01*
X-5753Y-291676D01*
X-5770Y-291589D01*
X-5790Y-291503D01*
X-5815Y-291418D01*
X-5842Y-291333D01*
X-5874Y-291250D01*
X-5908Y-291169D01*
X-5947Y-291089D01*
X-5988Y-291011D01*
X-6033Y-290934D01*
X-6081Y-290860D01*
X-6132Y-290787D01*
X-6186Y-290717D01*
X-6244Y-290650D01*
X-6304Y-290584D01*
X-6366Y-290522D01*
X-6432Y-290462D01*
X-6499Y-290404D01*
X-6569Y-290350D01*
X-6642Y-290299D01*
X-6716Y-290251D01*
X-6793Y-290206D01*
X-6871Y-290165D01*
X-6951Y-290126D01*
X-7032Y-290092D01*
X-7115Y-290060D01*
X-7200Y-290033D01*
X-7285Y-290008D01*
X-7371Y-289988D01*
X-7458Y-289971D01*
X-7546Y-289958D01*
X-7634Y-289949D01*
X-7722Y-289943D01*
X-7811Y-289941D01*
X-7931Y-289943D01*
X-8051Y-289948D01*
X-8170Y-289958D01*
X-8290Y-289970D01*
X-8409Y-289987D01*
X-8527Y-290007D01*
X-8645Y-290031D01*
X-8761Y-290058D01*
X-8877Y-290089D01*
X-8992Y-290123D01*
X-9106Y-290161D01*
X-9219Y-290203D01*
X-9330Y-290248D01*
X-9440Y-290296D01*
X-9548Y-290347D01*
X-9655Y-290402D01*
X-9760Y-290460D01*
X-9863Y-290522D01*
X-9964Y-290586D01*
X-10064Y-290654D01*
X-10161Y-290724D01*
X-6766Y-293856D02*
X-6688Y-293808D01*
X-6612Y-293756D01*
X-6539Y-293702D01*
X-6468Y-293644D01*
X-6399Y-293583D01*
X-6333Y-293519D01*
X-6270Y-293452D01*
X-6210Y-293383D01*
X-6153Y-293311D01*
X-6099Y-293237D01*
X-6049Y-293160D01*
X-6001Y-293081D01*
X-5958Y-293001D01*
X-5917Y-292918D01*
X-5881Y-292834D01*
X-5848Y-292749D01*
X-5819Y-292662D01*
X-5793Y-292573D01*
X-5771Y-292484D01*
X-5754Y-292394D01*
X-5740Y-292304D01*
X-5730Y-292212D01*
X-5724Y-292121D01*
X-5722Y-292029D01*
X-9638Y-295424D02*
X-9716Y-295472D01*
X-9792Y-295524D01*
X-9865Y-295578D01*
X-9936Y-295636D01*
X-10005Y-295697D01*
X-10071Y-295761D01*
X-10134Y-295828D01*
X-10194Y-295897D01*
X-10251Y-295969D01*
X-10305Y-296043D01*
X-10355Y-296120D01*
X-10403Y-296199D01*
X-10446Y-296279D01*
X-10487Y-296362D01*
X-10523Y-296446D01*
X-10556Y-296531D01*
X-10585Y-296618D01*
X-10611Y-296707D01*
X-10633Y-296796D01*
X-10650Y-296886D01*
X-10664Y-296976D01*
X-10674Y-297068D01*
X-10680Y-297159D01*
X-10682Y-297251D01*
X-9638Y-295423D02*
X-6766Y-293857D01*
X-14736Y-289941D02*
X-14736Y-299339D01*
X-14736Y-289941D02*
X-17347Y-289941D01*
X-17448Y-289943D01*
X-17549Y-289949D01*
X-17650Y-289959D01*
X-17750Y-289972D01*
X-17850Y-289990D01*
X-17949Y-290011D01*
X-18047Y-290037D01*
X-18144Y-290066D01*
X-18240Y-290098D01*
X-18334Y-290135D01*
X-18427Y-290175D01*
X-18519Y-290219D01*
X-18608Y-290266D01*
X-18696Y-290317D01*
X-18782Y-290371D01*
X-18865Y-290428D01*
X-18947Y-290488D01*
X-19025Y-290552D01*
X-19102Y-290618D01*
X-19175Y-290688D01*
X-19246Y-290760D01*
X-19314Y-290835D01*
X-19379Y-290913D01*
X-19441Y-290993D01*
X-19500Y-291075D01*
X-19556Y-291160D01*
X-19608Y-291247D01*
X-19657Y-291335D01*
X-19703Y-291426D01*
X-19744Y-291518D01*
X-19783Y-291612D01*
X-19817Y-291707D01*
X-19848Y-291803D01*
X-19875Y-291901D01*
X-19899Y-291999D01*
X-19918Y-292099D01*
X-19934Y-292199D01*
X-19946Y-292299D01*
X-19954Y-292400D01*
X-19958Y-292501D01*
X-19958Y-292603D01*
X-19954Y-292704D01*
X-19946Y-292805D01*
X-19934Y-292905D01*
X-19918Y-293005D01*
X-19899Y-293105D01*
X-19875Y-293203D01*
X-19848Y-293301D01*
X-19817Y-293397D01*
X-19783Y-293492D01*
X-19744Y-293586D01*
X-19703Y-293678D01*
X-19657Y-293769D01*
X-19608Y-293858D01*
X-19556Y-293944D01*
X-19500Y-294029D01*
X-19441Y-294111D01*
X-19379Y-294191D01*
X-19314Y-294269D01*
X-19246Y-294344D01*
X-19175Y-294416D01*
X-19102Y-294486D01*
X-19025Y-294552D01*
X-18947Y-294616D01*
X-18865Y-294676D01*
X-18782Y-294733D01*
X-18696Y-294787D01*
X-18608Y-294838D01*
X-18519Y-294885D01*
X-18427Y-294929D01*
X-18334Y-294969D01*
X-18240Y-295006D01*
X-18144Y-295038D01*
X-18047Y-295067D01*
X-17949Y-295093D01*
X-17850Y-295114D01*
X-17750Y-295132D01*
X-17650Y-295145D01*
X-17549Y-295155D01*
X-17448Y-295161D01*
X-17347Y-295163D01*
X-17347Y-295162D02*
X-14736Y-295162D01*
X-24226Y-299339D02*
X-24226Y-289941D01*
X-23182Y-299339D02*
X-25270Y-299339D01*
X-25270Y-289941D02*
X-23182Y-289941D01*
X-28538Y-300383D02*
X-32715Y-300383D01*
X-36638Y-299339D02*
X-36638Y-289941D01*
X-39771Y-295162D01*
X-42903Y-289941D01*
X-42903Y-299339D01*
X-48000Y-299339D02*
X-48000Y-289941D01*
X-46956Y-299339D02*
X-49044Y-299339D01*
X-49044Y-289941D02*
X-46956Y-289941D01*
X-55533Y-299339D02*
X-55622Y-299337D01*
X-55710Y-299331D01*
X-55798Y-299322D01*
X-55886Y-299309D01*
X-55973Y-299292D01*
X-56059Y-299272D01*
X-56144Y-299247D01*
X-56229Y-299220D01*
X-56312Y-299188D01*
X-56393Y-299154D01*
X-56473Y-299115D01*
X-56551Y-299074D01*
X-56628Y-299029D01*
X-56702Y-298981D01*
X-56775Y-298930D01*
X-56845Y-298876D01*
X-56912Y-298818D01*
X-56978Y-298758D01*
X-57040Y-298696D01*
X-57100Y-298630D01*
X-57158Y-298563D01*
X-57212Y-298493D01*
X-57263Y-298420D01*
X-57311Y-298346D01*
X-57356Y-298269D01*
X-57397Y-298191D01*
X-57436Y-298111D01*
X-57470Y-298030D01*
X-57502Y-297947D01*
X-57529Y-297862D01*
X-57554Y-297777D01*
X-57574Y-297691D01*
X-57591Y-297604D01*
X-57604Y-297516D01*
X-57613Y-297428D01*
X-57619Y-297340D01*
X-57621Y-297251D01*
X-55533Y-299339D02*
X-55404Y-299337D01*
X-55275Y-299331D01*
X-55146Y-299322D01*
X-55018Y-299309D01*
X-54890Y-299292D01*
X-54763Y-299271D01*
X-54636Y-299247D01*
X-54510Y-299219D01*
X-54385Y-299187D01*
X-54261Y-299152D01*
X-54138Y-299113D01*
X-54016Y-299070D01*
X-53896Y-299024D01*
X-53777Y-298974D01*
X-53659Y-298921D01*
X-53543Y-298865D01*
X-53429Y-298805D01*
X-53316Y-298742D01*
X-53206Y-298675D01*
X-53097Y-298606D01*
X-52991Y-298533D01*
X-52886Y-298457D01*
X-52784Y-298378D01*
X-52685Y-298296D01*
X-52587Y-298212D01*
X-52492Y-298124D01*
X-52400Y-298034D01*
X-52661Y-292029D02*
X-52663Y-291940D01*
X-52669Y-291852D01*
X-52678Y-291764D01*
X-52691Y-291676D01*
X-52708Y-291589D01*
X-52728Y-291503D01*
X-52753Y-291418D01*
X-52780Y-291333D01*
X-52812Y-291250D01*
X-52846Y-291169D01*
X-52885Y-291089D01*
X-52926Y-291011D01*
X-52971Y-290934D01*
X-53019Y-290860D01*
X-53070Y-290787D01*
X-53124Y-290717D01*
X-53182Y-290650D01*
X-53242Y-290584D01*
X-53304Y-290522D01*
X-53370Y-290462D01*
X-53437Y-290404D01*
X-53507Y-290350D01*
X-53580Y-290299D01*
X-53654Y-290251D01*
X-53731Y-290206D01*
X-53809Y-290165D01*
X-53889Y-290126D01*
X-53970Y-290092D01*
X-54053Y-290060D01*
X-54138Y-290033D01*
X-54223Y-290008D01*
X-54309Y-289988D01*
X-54396Y-289971D01*
X-54484Y-289958D01*
X-54572Y-289949D01*
X-54660Y-289943D01*
X-54749Y-289941D01*
X-54869Y-289943D01*
X-54989Y-289948D01*
X-55108Y-289958D01*
X-55228Y-289970D01*
X-55347Y-289987D01*
X-55465Y-290007D01*
X-55583Y-290031D01*
X-55699Y-290058D01*
X-55815Y-290089D01*
X-55930Y-290123D01*
X-56044Y-290161D01*
X-56157Y-290203D01*
X-56268Y-290248D01*
X-56378Y-290296D01*
X-56486Y-290347D01*
X-56593Y-290402D01*
X-56698Y-290460D01*
X-56801Y-290522D01*
X-56902Y-290586D01*
X-57002Y-290654D01*
X-57099Y-290724D01*
X-53705Y-293856D02*
X-53627Y-293808D01*
X-53551Y-293756D01*
X-53478Y-293702D01*
X-53407Y-293644D01*
X-53338Y-293583D01*
X-53272Y-293519D01*
X-53209Y-293452D01*
X-53149Y-293383D01*
X-53092Y-293311D01*
X-53038Y-293237D01*
X-52988Y-293160D01*
X-52940Y-293081D01*
X-52897Y-293001D01*
X-52856Y-292918D01*
X-52820Y-292834D01*
X-52787Y-292749D01*
X-52758Y-292662D01*
X-52732Y-292573D01*
X-52710Y-292484D01*
X-52693Y-292394D01*
X-52679Y-292304D01*
X-52669Y-292212D01*
X-52663Y-292121D01*
X-52661Y-292029D01*
X-56577Y-295424D02*
X-56655Y-295472D01*
X-56731Y-295524D01*
X-56804Y-295578D01*
X-56875Y-295636D01*
X-56944Y-295697D01*
X-57010Y-295761D01*
X-57073Y-295828D01*
X-57133Y-295897D01*
X-57190Y-295969D01*
X-57244Y-296043D01*
X-57294Y-296120D01*
X-57342Y-296199D01*
X-57385Y-296279D01*
X-57426Y-296362D01*
X-57462Y-296446D01*
X-57495Y-296531D01*
X-57524Y-296618D01*
X-57550Y-296707D01*
X-57572Y-296796D01*
X-57589Y-296886D01*
X-57603Y-296976D01*
X-57613Y-297068D01*
X-57619Y-297159D01*
X-57621Y-297251D01*
X-56577Y-295423D02*
X-53705Y-293857D01*
X-61239Y-292552D02*
X-61239Y-296728D01*
X-61239Y-292552D02*
X-61241Y-292451D01*
X-61247Y-292350D01*
X-61257Y-292249D01*
X-61270Y-292149D01*
X-61288Y-292049D01*
X-61309Y-291950D01*
X-61335Y-291852D01*
X-61364Y-291755D01*
X-61396Y-291659D01*
X-61433Y-291565D01*
X-61473Y-291472D01*
X-61517Y-291380D01*
X-61564Y-291291D01*
X-61615Y-291203D01*
X-61669Y-291117D01*
X-61726Y-291034D01*
X-61786Y-290952D01*
X-61850Y-290874D01*
X-61916Y-290797D01*
X-61986Y-290724D01*
X-62058Y-290653D01*
X-62133Y-290585D01*
X-62211Y-290520D01*
X-62291Y-290458D01*
X-62373Y-290399D01*
X-62458Y-290343D01*
X-62545Y-290291D01*
X-62633Y-290242D01*
X-62724Y-290196D01*
X-62816Y-290155D01*
X-62910Y-290116D01*
X-63005Y-290082D01*
X-63101Y-290051D01*
X-63199Y-290024D01*
X-63297Y-290000D01*
X-63397Y-289981D01*
X-63497Y-289965D01*
X-63597Y-289953D01*
X-63698Y-289945D01*
X-63799Y-289941D01*
X-63901Y-289941D01*
X-64002Y-289945D01*
X-64103Y-289953D01*
X-64203Y-289965D01*
X-64303Y-289981D01*
X-64403Y-290000D01*
X-64501Y-290024D01*
X-64599Y-290051D01*
X-64695Y-290082D01*
X-64790Y-290116D01*
X-64884Y-290155D01*
X-64976Y-290196D01*
X-65067Y-290242D01*
X-65156Y-290291D01*
X-65242Y-290343D01*
X-65327Y-290399D01*
X-65409Y-290458D01*
X-65489Y-290520D01*
X-65567Y-290585D01*
X-65642Y-290653D01*
X-65714Y-290724D01*
X-65784Y-290797D01*
X-65850Y-290874D01*
X-65914Y-290952D01*
X-65974Y-291034D01*
X-66031Y-291117D01*
X-66085Y-291203D01*
X-66136Y-291291D01*
X-66183Y-291380D01*
X-66227Y-291472D01*
X-66267Y-291565D01*
X-66304Y-291659D01*
X-66336Y-291755D01*
X-66365Y-291852D01*
X-66391Y-291950D01*
X-66412Y-292049D01*
X-66430Y-292149D01*
X-66443Y-292249D01*
X-66453Y-292350D01*
X-66459Y-292451D01*
X-66461Y-292552D01*
X-66460Y-292552D02*
X-66460Y-296728D01*
X-66461Y-296728D02*
X-66459Y-296829D01*
X-66453Y-296930D01*
X-66443Y-297031D01*
X-66430Y-297131D01*
X-66412Y-297231D01*
X-66391Y-297330D01*
X-66365Y-297428D01*
X-66336Y-297525D01*
X-66304Y-297621D01*
X-66267Y-297715D01*
X-66227Y-297808D01*
X-66183Y-297900D01*
X-66136Y-297989D01*
X-66085Y-298077D01*
X-66031Y-298163D01*
X-65974Y-298246D01*
X-65914Y-298328D01*
X-65850Y-298406D01*
X-65784Y-298483D01*
X-65714Y-298556D01*
X-65642Y-298627D01*
X-65567Y-298695D01*
X-65489Y-298760D01*
X-65409Y-298822D01*
X-65327Y-298881D01*
X-65242Y-298937D01*
X-65156Y-298989D01*
X-65067Y-299038D01*
X-64976Y-299084D01*
X-64884Y-299125D01*
X-64790Y-299164D01*
X-64695Y-299198D01*
X-64599Y-299229D01*
X-64501Y-299256D01*
X-64403Y-299280D01*
X-64303Y-299299D01*
X-64203Y-299315D01*
X-64103Y-299327D01*
X-64002Y-299335D01*
X-63901Y-299339D01*
X-63799Y-299339D01*
X-63698Y-299335D01*
X-63597Y-299327D01*
X-63497Y-299315D01*
X-63397Y-299299D01*
X-63297Y-299280D01*
X-63199Y-299256D01*
X-63101Y-299229D01*
X-63005Y-299198D01*
X-62910Y-299164D01*
X-62816Y-299125D01*
X-62724Y-299084D01*
X-62633Y-299038D01*
X-62545Y-298989D01*
X-62458Y-298937D01*
X-62373Y-298881D01*
X-62291Y-298822D01*
X-62211Y-298760D01*
X-62133Y-298695D01*
X-62058Y-298627D01*
X-61986Y-298556D01*
X-61916Y-298483D01*
X-61850Y-298406D01*
X-61786Y-298328D01*
X-61726Y-298246D01*
X-61669Y-298163D01*
X-61615Y-298077D01*
X-61564Y-297989D01*
X-61517Y-297900D01*
X-61473Y-297808D01*
X-61433Y-297715D01*
X-61396Y-297621D01*
X-61364Y-297525D01*
X-61335Y-297428D01*
X-61309Y-297330D01*
X-61288Y-297231D01*
X-61270Y-297131D01*
X-61257Y-297031D01*
X-61247Y-296930D01*
X-61241Y-296829D01*
X-61239Y-296728D01*
X-10682Y-312491D02*
X-10680Y-312580D01*
X-10674Y-312668D01*
X-10665Y-312756D01*
X-10652Y-312844D01*
X-10635Y-312931D01*
X-10615Y-313017D01*
X-10590Y-313102D01*
X-10563Y-313187D01*
X-10531Y-313270D01*
X-10497Y-313351D01*
X-10458Y-313431D01*
X-10417Y-313509D01*
X-10372Y-313586D01*
X-10324Y-313660D01*
X-10273Y-313733D01*
X-10219Y-313803D01*
X-10161Y-313870D01*
X-10101Y-313936D01*
X-10039Y-313998D01*
X-9973Y-314058D01*
X-9906Y-314116D01*
X-9836Y-314170D01*
X-9763Y-314221D01*
X-9689Y-314269D01*
X-9612Y-314314D01*
X-9534Y-314355D01*
X-9454Y-314394D01*
X-9373Y-314428D01*
X-9290Y-314460D01*
X-9205Y-314487D01*
X-9120Y-314512D01*
X-9034Y-314532D01*
X-8947Y-314549D01*
X-8859Y-314562D01*
X-8771Y-314571D01*
X-8683Y-314577D01*
X-8594Y-314579D01*
X-8465Y-314577D01*
X-8336Y-314571D01*
X-8207Y-314562D01*
X-8079Y-314549D01*
X-7951Y-314532D01*
X-7824Y-314511D01*
X-7697Y-314487D01*
X-7571Y-314459D01*
X-7446Y-314427D01*
X-7322Y-314392D01*
X-7199Y-314353D01*
X-7077Y-314310D01*
X-6957Y-314264D01*
X-6838Y-314214D01*
X-6720Y-314161D01*
X-6604Y-314105D01*
X-6490Y-314045D01*
X-6377Y-313982D01*
X-6267Y-313915D01*
X-6158Y-313846D01*
X-6052Y-313773D01*
X-5947Y-313697D01*
X-5845Y-313618D01*
X-5746Y-313536D01*
X-5648Y-313452D01*
X-5553Y-313364D01*
X-5461Y-313274D01*
X-5723Y-307269D02*
X-5725Y-307180D01*
X-5731Y-307092D01*
X-5740Y-307004D01*
X-5753Y-306916D01*
X-5770Y-306829D01*
X-5790Y-306743D01*
X-5815Y-306658D01*
X-5842Y-306573D01*
X-5874Y-306490D01*
X-5908Y-306409D01*
X-5947Y-306329D01*
X-5988Y-306251D01*
X-6033Y-306174D01*
X-6081Y-306100D01*
X-6132Y-306027D01*
X-6186Y-305957D01*
X-6244Y-305890D01*
X-6304Y-305824D01*
X-6366Y-305762D01*
X-6432Y-305702D01*
X-6499Y-305644D01*
X-6569Y-305590D01*
X-6642Y-305539D01*
X-6716Y-305491D01*
X-6793Y-305446D01*
X-6871Y-305405D01*
X-6951Y-305366D01*
X-7032Y-305332D01*
X-7115Y-305300D01*
X-7200Y-305273D01*
X-7285Y-305248D01*
X-7371Y-305228D01*
X-7458Y-305211D01*
X-7546Y-305198D01*
X-7634Y-305189D01*
X-7722Y-305183D01*
X-7811Y-305181D01*
X-7931Y-305183D01*
X-8051Y-305188D01*
X-8170Y-305198D01*
X-8290Y-305210D01*
X-8409Y-305227D01*
X-8527Y-305247D01*
X-8645Y-305271D01*
X-8761Y-305298D01*
X-8877Y-305329D01*
X-8992Y-305363D01*
X-9106Y-305401D01*
X-9219Y-305443D01*
X-9330Y-305488D01*
X-9440Y-305536D01*
X-9548Y-305587D01*
X-9655Y-305642D01*
X-9760Y-305700D01*
X-9863Y-305762D01*
X-9964Y-305826D01*
X-10064Y-305894D01*
X-10161Y-305964D01*
X-6766Y-309096D02*
X-6688Y-309048D01*
X-6612Y-308996D01*
X-6539Y-308942D01*
X-6468Y-308884D01*
X-6399Y-308823D01*
X-6333Y-308759D01*
X-6270Y-308692D01*
X-6210Y-308623D01*
X-6153Y-308551D01*
X-6099Y-308477D01*
X-6049Y-308400D01*
X-6001Y-308321D01*
X-5958Y-308241D01*
X-5917Y-308158D01*
X-5881Y-308074D01*
X-5848Y-307989D01*
X-5819Y-307902D01*
X-5793Y-307813D01*
X-5771Y-307724D01*
X-5754Y-307634D01*
X-5740Y-307544D01*
X-5730Y-307452D01*
X-5724Y-307361D01*
X-5722Y-307269D01*
X-9638Y-310664D02*
X-9716Y-310712D01*
X-9792Y-310764D01*
X-9865Y-310818D01*
X-9936Y-310876D01*
X-10005Y-310937D01*
X-10071Y-311001D01*
X-10134Y-311068D01*
X-10194Y-311137D01*
X-10251Y-311209D01*
X-10305Y-311283D01*
X-10355Y-311360D01*
X-10403Y-311439D01*
X-10446Y-311519D01*
X-10487Y-311602D01*
X-10523Y-311686D01*
X-10556Y-311771D01*
X-10585Y-311858D01*
X-10611Y-311947D01*
X-10633Y-312036D01*
X-10650Y-312126D01*
X-10664Y-312216D01*
X-10674Y-312308D01*
X-10680Y-312399D01*
X-10682Y-312491D01*
X-9638Y-310663D02*
X-6766Y-309097D01*
X-14736Y-305181D02*
X-14736Y-314579D01*
X-14736Y-305181D02*
X-17347Y-305181D01*
X-17448Y-305183D01*
X-17549Y-305189D01*
X-17650Y-305199D01*
X-17750Y-305212D01*
X-17850Y-305230D01*
X-17949Y-305251D01*
X-18047Y-305277D01*
X-18144Y-305306D01*
X-18240Y-305338D01*
X-18334Y-305375D01*
X-18427Y-305415D01*
X-18519Y-305459D01*
X-18608Y-305506D01*
X-18696Y-305557D01*
X-18782Y-305611D01*
X-18865Y-305668D01*
X-18947Y-305728D01*
X-19025Y-305792D01*
X-19102Y-305858D01*
X-19175Y-305928D01*
X-19246Y-306000D01*
X-19314Y-306075D01*
X-19379Y-306153D01*
X-19441Y-306233D01*
X-19500Y-306315D01*
X-19556Y-306400D01*
X-19608Y-306487D01*
X-19657Y-306575D01*
X-19703Y-306666D01*
X-19744Y-306758D01*
X-19783Y-306852D01*
X-19817Y-306947D01*
X-19848Y-307043D01*
X-19875Y-307141D01*
X-19899Y-307239D01*
X-19918Y-307339D01*
X-19934Y-307439D01*
X-19946Y-307539D01*
X-19954Y-307640D01*
X-19958Y-307741D01*
X-19958Y-307843D01*
X-19954Y-307944D01*
X-19946Y-308045D01*
X-19934Y-308145D01*
X-19918Y-308245D01*
X-19899Y-308345D01*
X-19875Y-308443D01*
X-19848Y-308541D01*
X-19817Y-308637D01*
X-19783Y-308732D01*
X-19744Y-308826D01*
X-19703Y-308918D01*
X-19657Y-309009D01*
X-19608Y-309098D01*
X-19556Y-309184D01*
X-19500Y-309269D01*
X-19441Y-309351D01*
X-19379Y-309431D01*
X-19314Y-309509D01*
X-19246Y-309584D01*
X-19175Y-309656D01*
X-19102Y-309726D01*
X-19025Y-309792D01*
X-18947Y-309856D01*
X-18865Y-309916D01*
X-18782Y-309973D01*
X-18696Y-310027D01*
X-18608Y-310078D01*
X-18519Y-310125D01*
X-18427Y-310169D01*
X-18334Y-310209D01*
X-18240Y-310246D01*
X-18144Y-310278D01*
X-18047Y-310307D01*
X-17949Y-310333D01*
X-17850Y-310354D01*
X-17750Y-310372D01*
X-17650Y-310385D01*
X-17549Y-310395D01*
X-17448Y-310401D01*
X-17347Y-310403D01*
X-17347Y-310402D02*
X-14736Y-310402D01*
X-24226Y-314579D02*
X-24226Y-305181D01*
X-23182Y-314579D02*
X-25270Y-314579D01*
X-25270Y-305181D02*
X-23182Y-305181D01*
X-28538Y-315623D02*
X-32715Y-315623D01*
X-36638Y-314579D02*
X-36638Y-305181D01*
X-39771Y-310402D01*
X-42903Y-305181D01*
X-42903Y-314579D01*
X-47218Y-311968D02*
X-47218Y-307792D01*
X-47220Y-307691D01*
X-47226Y-307590D01*
X-47236Y-307489D01*
X-47249Y-307389D01*
X-47267Y-307289D01*
X-47288Y-307190D01*
X-47314Y-307092D01*
X-47343Y-306995D01*
X-47375Y-306899D01*
X-47412Y-306805D01*
X-47452Y-306712D01*
X-47496Y-306620D01*
X-47543Y-306531D01*
X-47594Y-306443D01*
X-47648Y-306357D01*
X-47705Y-306274D01*
X-47765Y-306192D01*
X-47829Y-306114D01*
X-47895Y-306037D01*
X-47965Y-305964D01*
X-48037Y-305893D01*
X-48112Y-305825D01*
X-48190Y-305760D01*
X-48270Y-305698D01*
X-48352Y-305639D01*
X-48437Y-305583D01*
X-48524Y-305531D01*
X-48612Y-305482D01*
X-48703Y-305436D01*
X-48795Y-305395D01*
X-48889Y-305356D01*
X-48984Y-305322D01*
X-49080Y-305291D01*
X-49178Y-305264D01*
X-49276Y-305240D01*
X-49376Y-305221D01*
X-49476Y-305205D01*
X-49576Y-305193D01*
X-49677Y-305185D01*
X-49778Y-305181D01*
X-49880Y-305181D01*
X-49981Y-305185D01*
X-50082Y-305193D01*
X-50182Y-305205D01*
X-50282Y-305221D01*
X-50382Y-305240D01*
X-50480Y-305264D01*
X-50578Y-305291D01*
X-50674Y-305322D01*
X-50769Y-305356D01*
X-50863Y-305395D01*
X-50955Y-305436D01*
X-51046Y-305482D01*
X-51135Y-305531D01*
X-51221Y-305583D01*
X-51306Y-305639D01*
X-51388Y-305698D01*
X-51468Y-305760D01*
X-51546Y-305825D01*
X-51621Y-305893D01*
X-51693Y-305964D01*
X-51763Y-306037D01*
X-51829Y-306114D01*
X-51893Y-306192D01*
X-51953Y-306274D01*
X-52010Y-306357D01*
X-52064Y-306443D01*
X-52115Y-306531D01*
X-52162Y-306620D01*
X-52206Y-306712D01*
X-52246Y-306805D01*
X-52283Y-306899D01*
X-52315Y-306995D01*
X-52344Y-307092D01*
X-52370Y-307190D01*
X-52391Y-307289D01*
X-52409Y-307389D01*
X-52422Y-307489D01*
X-52432Y-307590D01*
X-52438Y-307691D01*
X-52440Y-307792D01*
X-52439Y-307792D02*
X-52439Y-311968D01*
X-52440Y-311968D02*
X-52438Y-312069D01*
X-52432Y-312170D01*
X-52422Y-312271D01*
X-52409Y-312371D01*
X-52391Y-312471D01*
X-52370Y-312570D01*
X-52344Y-312668D01*
X-52315Y-312765D01*
X-52283Y-312861D01*
X-52246Y-312955D01*
X-52206Y-313048D01*
X-52162Y-313140D01*
X-52115Y-313229D01*
X-52064Y-313317D01*
X-52010Y-313403D01*
X-51953Y-313486D01*
X-51893Y-313568D01*
X-51829Y-313646D01*
X-51763Y-313723D01*
X-51693Y-313796D01*
X-51621Y-313867D01*
X-51546Y-313935D01*
X-51468Y-314000D01*
X-51388Y-314062D01*
X-51306Y-314121D01*
X-51221Y-314177D01*
X-51135Y-314229D01*
X-51046Y-314278D01*
X-50955Y-314324D01*
X-50863Y-314365D01*
X-50769Y-314404D01*
X-50674Y-314438D01*
X-50578Y-314469D01*
X-50480Y-314496D01*
X-50382Y-314520D01*
X-50282Y-314539D01*
X-50182Y-314555D01*
X-50082Y-314567D01*
X-49981Y-314575D01*
X-49880Y-314579D01*
X-49778Y-314579D01*
X-49677Y-314575D01*
X-49576Y-314567D01*
X-49476Y-314555D01*
X-49376Y-314539D01*
X-49276Y-314520D01*
X-49178Y-314496D01*
X-49080Y-314469D01*
X-48984Y-314438D01*
X-48889Y-314404D01*
X-48795Y-314365D01*
X-48703Y-314324D01*
X-48612Y-314278D01*
X-48524Y-314229D01*
X-48437Y-314177D01*
X-48352Y-314121D01*
X-48270Y-314062D01*
X-48190Y-314000D01*
X-48112Y-313935D01*
X-48037Y-313867D01*
X-47965Y-313796D01*
X-47895Y-313723D01*
X-47829Y-313646D01*
X-47765Y-313568D01*
X-47705Y-313486D01*
X-47648Y-313403D01*
X-47594Y-313317D01*
X-47543Y-313229D01*
X-47496Y-313140D01*
X-47452Y-313048D01*
X-47412Y-312955D01*
X-47375Y-312861D01*
X-47343Y-312765D01*
X-47314Y-312668D01*
X-47288Y-312570D01*
X-47267Y-312471D01*
X-47249Y-312371D01*
X-47236Y-312271D01*
X-47226Y-312170D01*
X-47220Y-312069D01*
X-47218Y-311968D01*
X-59190Y-314579D02*
X-59279Y-314577D01*
X-59367Y-314571D01*
X-59455Y-314562D01*
X-59543Y-314549D01*
X-59630Y-314532D01*
X-59716Y-314512D01*
X-59801Y-314487D01*
X-59886Y-314460D01*
X-59969Y-314428D01*
X-60050Y-314394D01*
X-60130Y-314355D01*
X-60208Y-314314D01*
X-60285Y-314269D01*
X-60359Y-314221D01*
X-60432Y-314170D01*
X-60502Y-314116D01*
X-60569Y-314058D01*
X-60635Y-313998D01*
X-60697Y-313936D01*
X-60757Y-313870D01*
X-60815Y-313803D01*
X-60869Y-313733D01*
X-60920Y-313660D01*
X-60968Y-313586D01*
X-61013Y-313509D01*
X-61054Y-313431D01*
X-61093Y-313351D01*
X-61127Y-313270D01*
X-61159Y-313187D01*
X-61186Y-313102D01*
X-61211Y-313017D01*
X-61231Y-312931D01*
X-61248Y-312844D01*
X-61261Y-312756D01*
X-61270Y-312668D01*
X-61276Y-312580D01*
X-61278Y-312491D01*
X-59190Y-314579D02*
X-59061Y-314577D01*
X-58932Y-314571D01*
X-58803Y-314562D01*
X-58675Y-314549D01*
X-58547Y-314532D01*
X-58420Y-314511D01*
X-58293Y-314487D01*
X-58167Y-314459D01*
X-58042Y-314427D01*
X-57918Y-314392D01*
X-57795Y-314353D01*
X-57673Y-314310D01*
X-57553Y-314264D01*
X-57434Y-314214D01*
X-57316Y-314161D01*
X-57200Y-314105D01*
X-57086Y-314045D01*
X-56973Y-313982D01*
X-56863Y-313915D01*
X-56754Y-313846D01*
X-56648Y-313773D01*
X-56543Y-313697D01*
X-56441Y-313618D01*
X-56342Y-313536D01*
X-56244Y-313452D01*
X-56149Y-313364D01*
X-56057Y-313274D01*
X-56319Y-307269D02*
X-56321Y-307180D01*
X-56327Y-307092D01*
X-56336Y-307004D01*
X-56349Y-306916D01*
X-56366Y-306829D01*
X-56386Y-306743D01*
X-56411Y-306658D01*
X-56438Y-306573D01*
X-56470Y-306490D01*
X-56504Y-306409D01*
X-56543Y-306329D01*
X-56584Y-306251D01*
X-56629Y-306174D01*
X-56677Y-306100D01*
X-56728Y-306027D01*
X-56782Y-305957D01*
X-56840Y-305890D01*
X-56900Y-305824D01*
X-56962Y-305762D01*
X-57028Y-305702D01*
X-57095Y-305644D01*
X-57165Y-305590D01*
X-57238Y-305539D01*
X-57312Y-305491D01*
X-57389Y-305446D01*
X-57467Y-305405D01*
X-57547Y-305366D01*
X-57628Y-305332D01*
X-57711Y-305300D01*
X-57796Y-305273D01*
X-57881Y-305248D01*
X-57967Y-305228D01*
X-58054Y-305211D01*
X-58142Y-305198D01*
X-58230Y-305189D01*
X-58318Y-305183D01*
X-58407Y-305181D01*
X-58527Y-305183D01*
X-58647Y-305188D01*
X-58766Y-305198D01*
X-58886Y-305210D01*
X-59005Y-305227D01*
X-59123Y-305247D01*
X-59241Y-305271D01*
X-59357Y-305298D01*
X-59473Y-305329D01*
X-59588Y-305363D01*
X-59702Y-305401D01*
X-59815Y-305443D01*
X-59926Y-305488D01*
X-60036Y-305536D01*
X-60144Y-305587D01*
X-60251Y-305642D01*
X-60356Y-305700D01*
X-60459Y-305762D01*
X-60560Y-305826D01*
X-60660Y-305894D01*
X-60757Y-305964D01*
X-57363Y-309096D02*
X-57285Y-309048D01*
X-57209Y-308996D01*
X-57136Y-308942D01*
X-57065Y-308884D01*
X-56996Y-308823D01*
X-56930Y-308759D01*
X-56867Y-308692D01*
X-56807Y-308623D01*
X-56750Y-308551D01*
X-56696Y-308477D01*
X-56646Y-308400D01*
X-56598Y-308321D01*
X-56555Y-308241D01*
X-56514Y-308158D01*
X-56478Y-308074D01*
X-56445Y-307989D01*
X-56416Y-307902D01*
X-56390Y-307813D01*
X-56368Y-307724D01*
X-56351Y-307634D01*
X-56337Y-307544D01*
X-56327Y-307452D01*
X-56321Y-307361D01*
X-56319Y-307269D01*
X-60235Y-310664D02*
X-60313Y-310712D01*
X-60389Y-310764D01*
X-60462Y-310818D01*
X-60533Y-310876D01*
X-60602Y-310937D01*
X-60668Y-311001D01*
X-60731Y-311068D01*
X-60791Y-311137D01*
X-60848Y-311209D01*
X-60902Y-311283D01*
X-60952Y-311360D01*
X-61000Y-311439D01*
X-61043Y-311519D01*
X-61084Y-311602D01*
X-61120Y-311686D01*
X-61153Y-311771D01*
X-61182Y-311858D01*
X-61208Y-311947D01*
X-61230Y-312036D01*
X-61247Y-312126D01*
X-61261Y-312216D01*
X-61271Y-312308D01*
X-61277Y-312399D01*
X-61279Y-312491D01*
X-60234Y-310663D02*
X-57363Y-309097D01*
X-65678Y-305181D02*
X-65678Y-314579D01*
X-64634Y-314579D02*
X-66723Y-314579D01*
X-66723Y-305181D02*
X-64634Y-305181D01*
X-47286Y-326164D02*
X-41021Y-326164D01*
X-44154Y-329297D02*
X-44154Y-323032D01*
X-51297Y-329819D02*
X-53907Y-329819D01*
X-54008Y-329817D01*
X-54109Y-329811D01*
X-54210Y-329801D01*
X-54310Y-329788D01*
X-54410Y-329770D01*
X-54509Y-329749D01*
X-54607Y-329723D01*
X-54704Y-329694D01*
X-54800Y-329662D01*
X-54894Y-329625D01*
X-54987Y-329585D01*
X-55079Y-329541D01*
X-55168Y-329494D01*
X-55256Y-329443D01*
X-55342Y-329389D01*
X-55425Y-329332D01*
X-55507Y-329272D01*
X-55585Y-329208D01*
X-55662Y-329142D01*
X-55735Y-329072D01*
X-55806Y-329000D01*
X-55874Y-328925D01*
X-55939Y-328847D01*
X-56001Y-328767D01*
X-56060Y-328685D01*
X-56116Y-328600D01*
X-56168Y-328514D01*
X-56217Y-328425D01*
X-56263Y-328334D01*
X-56304Y-328242D01*
X-56343Y-328148D01*
X-56377Y-328053D01*
X-56408Y-327957D01*
X-56435Y-327859D01*
X-56459Y-327761D01*
X-56478Y-327661D01*
X-56494Y-327561D01*
X-56506Y-327461D01*
X-56514Y-327360D01*
X-56518Y-327259D01*
X-56518Y-327157D01*
X-56514Y-327056D01*
X-56506Y-326955D01*
X-56494Y-326855D01*
X-56478Y-326755D01*
X-56459Y-326655D01*
X-56435Y-326557D01*
X-56408Y-326459D01*
X-56377Y-326363D01*
X-56343Y-326268D01*
X-56304Y-326174D01*
X-56263Y-326082D01*
X-56217Y-325991D01*
X-56168Y-325903D01*
X-56116Y-325816D01*
X-56060Y-325731D01*
X-56001Y-325649D01*
X-55939Y-325569D01*
X-55874Y-325491D01*
X-55806Y-325416D01*
X-55735Y-325344D01*
X-55662Y-325274D01*
X-55585Y-325208D01*
X-55507Y-325144D01*
X-55425Y-325084D01*
X-55342Y-325027D01*
X-55256Y-324973D01*
X-55168Y-324922D01*
X-55079Y-324875D01*
X-54987Y-324831D01*
X-54894Y-324791D01*
X-54800Y-324754D01*
X-54704Y-324722D01*
X-54607Y-324693D01*
X-54509Y-324667D01*
X-54410Y-324646D01*
X-54310Y-324628D01*
X-54210Y-324615D01*
X-54109Y-324605D01*
X-54008Y-324599D01*
X-53907Y-324597D01*
X-54429Y-320421D02*
X-51297Y-320421D01*
X-54429Y-320421D02*
X-54519Y-320423D01*
X-54608Y-320429D01*
X-54698Y-320438D01*
X-54787Y-320452D01*
X-54875Y-320469D01*
X-54962Y-320490D01*
X-55049Y-320515D01*
X-55134Y-320544D01*
X-55218Y-320576D01*
X-55300Y-320611D01*
X-55381Y-320651D01*
X-55460Y-320693D01*
X-55537Y-320739D01*
X-55612Y-320789D01*
X-55685Y-320841D01*
X-55756Y-320897D01*
X-55824Y-320955D01*
X-55889Y-321017D01*
X-55952Y-321081D01*
X-56012Y-321148D01*
X-56069Y-321217D01*
X-56123Y-321289D01*
X-56174Y-321363D01*
X-56222Y-321439D01*
X-56266Y-321517D01*
X-56307Y-321597D01*
X-56345Y-321679D01*
X-56379Y-321762D01*
X-56409Y-321847D01*
X-56436Y-321933D01*
X-56459Y-322019D01*
X-56478Y-322107D01*
X-56493Y-322196D01*
X-56505Y-322285D01*
X-56513Y-322374D01*
X-56517Y-322464D01*
X-56517Y-322554D01*
X-56513Y-322644D01*
X-56505Y-322733D01*
X-56493Y-322822D01*
X-56478Y-322911D01*
X-56459Y-322999D01*
X-56436Y-323085D01*
X-56409Y-323171D01*
X-56379Y-323256D01*
X-56345Y-323339D01*
X-56307Y-323421D01*
X-56266Y-323501D01*
X-56222Y-323579D01*
X-56174Y-323655D01*
X-56123Y-323729D01*
X-56069Y-323801D01*
X-56012Y-323870D01*
X-55952Y-323937D01*
X-55889Y-324001D01*
X-55824Y-324063D01*
X-55756Y-324121D01*
X-55685Y-324177D01*
X-55612Y-324229D01*
X-55537Y-324279D01*
X-55460Y-324325D01*
X-55381Y-324367D01*
X-55300Y-324407D01*
X-55218Y-324442D01*
X-55134Y-324474D01*
X-55049Y-324503D01*
X-54962Y-324528D01*
X-54875Y-324549D01*
X-54787Y-324566D01*
X-54698Y-324580D01*
X-54608Y-324589D01*
X-54519Y-324595D01*
X-54429Y-324597D01*
X-54429Y-324598D02*
X-52341Y-324598D01*
X-59919Y-320421D02*
X-63051Y-329819D01*
X-66184Y-320421D01*
X-161516Y-263638D02*
X-163082Y-263638D01*
X-163082Y-268859D01*
X-159949Y-268859D01*
X-159860Y-268857D01*
X-159772Y-268851D01*
X-159684Y-268842D01*
X-159596Y-268829D01*
X-159509Y-268812D01*
X-159423Y-268792D01*
X-159338Y-268767D01*
X-159253Y-268740D01*
X-159170Y-268708D01*
X-159089Y-268674D01*
X-159009Y-268635D01*
X-158931Y-268594D01*
X-158854Y-268549D01*
X-158780Y-268501D01*
X-158707Y-268450D01*
X-158637Y-268396D01*
X-158570Y-268338D01*
X-158504Y-268278D01*
X-158442Y-268216D01*
X-158382Y-268150D01*
X-158324Y-268083D01*
X-158270Y-268013D01*
X-158219Y-267940D01*
X-158171Y-267866D01*
X-158126Y-267789D01*
X-158085Y-267711D01*
X-158046Y-267631D01*
X-158012Y-267550D01*
X-157980Y-267467D01*
X-157953Y-267382D01*
X-157928Y-267297D01*
X-157908Y-267211D01*
X-157891Y-267124D01*
X-157878Y-267036D01*
X-157869Y-266948D01*
X-157863Y-266860D01*
X-157861Y-266771D01*
X-157861Y-261549D01*
X-157863Y-261458D01*
X-157869Y-261367D01*
X-157879Y-261276D01*
X-157893Y-261186D01*
X-157911Y-261097D01*
X-157932Y-261008D01*
X-157958Y-260921D01*
X-157987Y-260835D01*
X-158020Y-260750D01*
X-158057Y-260666D01*
X-158097Y-260584D01*
X-158141Y-260505D01*
X-158188Y-260427D01*
X-158239Y-260351D01*
X-158293Y-260277D01*
X-158350Y-260206D01*
X-158410Y-260138D01*
X-158473Y-260072D01*
X-158539Y-260009D01*
X-158607Y-259949D01*
X-158678Y-259892D01*
X-158752Y-259838D01*
X-158828Y-259787D01*
X-158905Y-259740D01*
X-158985Y-259696D01*
X-159067Y-259656D01*
X-159151Y-259619D01*
X-159235Y-259586D01*
X-159322Y-259557D01*
X-159409Y-259531D01*
X-159498Y-259510D01*
X-159587Y-259492D01*
X-159677Y-259478D01*
X-159768Y-259468D01*
X-159859Y-259462D01*
X-159950Y-259460D01*
X-159949Y-259461D02*
X-163082Y-259461D01*
X-167615Y-259461D02*
X-167615Y-268859D01*
X-172836Y-268859D02*
X-167615Y-259461D01*
X-172836Y-259461D02*
X-172836Y-268859D01*
X-177368Y-268859D02*
X-177368Y-259461D01*
X-179979Y-259461D01*
X-180079Y-259463D01*
X-180179Y-259469D01*
X-180278Y-259478D01*
X-180378Y-259492D01*
X-180476Y-259509D01*
X-180574Y-259530D01*
X-180671Y-259554D01*
X-180767Y-259583D01*
X-180862Y-259615D01*
X-180955Y-259650D01*
X-181047Y-259689D01*
X-181138Y-259732D01*
X-181226Y-259778D01*
X-181313Y-259828D01*
X-181398Y-259880D01*
X-181481Y-259936D01*
X-181562Y-259995D01*
X-181640Y-260058D01*
X-181716Y-260123D01*
X-181790Y-260191D01*
X-181860Y-260261D01*
X-181928Y-260335D01*
X-181993Y-260411D01*
X-182056Y-260489D01*
X-182115Y-260570D01*
X-182171Y-260653D01*
X-182223Y-260738D01*
X-182273Y-260825D01*
X-182319Y-260913D01*
X-182362Y-261004D01*
X-182401Y-261096D01*
X-182436Y-261189D01*
X-182468Y-261284D01*
X-182497Y-261380D01*
X-182521Y-261477D01*
X-182542Y-261575D01*
X-182559Y-261673D01*
X-182573Y-261773D01*
X-182582Y-261872D01*
X-182588Y-261972D01*
X-182590Y-262072D01*
X-182589Y-262072D02*
X-182589Y-266248D01*
X-182590Y-266248D02*
X-182588Y-266348D01*
X-182582Y-266448D01*
X-182573Y-266547D01*
X-182559Y-266647D01*
X-182542Y-266745D01*
X-182521Y-266843D01*
X-182497Y-266940D01*
X-182468Y-267036D01*
X-182436Y-267131D01*
X-182401Y-267224D01*
X-182362Y-267316D01*
X-182319Y-267407D01*
X-182273Y-267495D01*
X-182223Y-267582D01*
X-182171Y-267667D01*
X-182115Y-267750D01*
X-182056Y-267831D01*
X-181993Y-267909D01*
X-181928Y-267985D01*
X-181860Y-268059D01*
X-181790Y-268129D01*
X-181716Y-268197D01*
X-181640Y-268262D01*
X-181562Y-268325D01*
X-181481Y-268384D01*
X-181398Y-268440D01*
X-181313Y-268492D01*
X-181226Y-268542D01*
X-181138Y-268588D01*
X-181047Y-268631D01*
X-180955Y-268670D01*
X-180862Y-268705D01*
X-180767Y-268737D01*
X-180671Y-268766D01*
X-180574Y-268790D01*
X-180476Y-268811D01*
X-180378Y-268828D01*
X-180278Y-268842D01*
X-180179Y-268851D01*
X-180079Y-268857D01*
X-179979Y-268859D01*
X-177368Y-268859D01*
X-153825Y-274701D02*
X-153825Y-284099D01*
X-152781Y-284099D02*
X-154869Y-284099D01*
X-154869Y-274701D02*
X-152781Y-274701D01*
X-161401Y-274701D02*
X-161496Y-274703D01*
X-161590Y-274709D01*
X-161684Y-274718D01*
X-161778Y-274731D01*
X-161871Y-274748D01*
X-161963Y-274769D01*
X-162055Y-274794D01*
X-162145Y-274822D01*
X-162234Y-274854D01*
X-162322Y-274889D01*
X-162408Y-274928D01*
X-162493Y-274970D01*
X-162576Y-275016D01*
X-162657Y-275065D01*
X-162736Y-275117D01*
X-162813Y-275172D01*
X-162887Y-275231D01*
X-162959Y-275292D01*
X-163029Y-275356D01*
X-163096Y-275423D01*
X-163160Y-275493D01*
X-163221Y-275565D01*
X-163280Y-275639D01*
X-163335Y-275716D01*
X-163387Y-275795D01*
X-163436Y-275876D01*
X-163482Y-275959D01*
X-163524Y-276044D01*
X-163563Y-276130D01*
X-163598Y-276218D01*
X-163630Y-276307D01*
X-163658Y-276397D01*
X-163683Y-276489D01*
X-163704Y-276581D01*
X-163721Y-276674D01*
X-163734Y-276768D01*
X-163743Y-276862D01*
X-163749Y-276956D01*
X-163751Y-277051D01*
X-161401Y-274701D02*
X-161293Y-274703D01*
X-161184Y-274709D01*
X-161076Y-274719D01*
X-160969Y-274732D01*
X-160862Y-274750D01*
X-160755Y-274771D01*
X-160650Y-274796D01*
X-160545Y-274825D01*
X-160442Y-274857D01*
X-160340Y-274894D01*
X-160239Y-274934D01*
X-160140Y-274977D01*
X-160042Y-275024D01*
X-159946Y-275075D01*
X-159852Y-275129D01*
X-159760Y-275186D01*
X-159670Y-275247D01*
X-159582Y-275311D01*
X-159497Y-275377D01*
X-159414Y-275447D01*
X-159334Y-275520D01*
X-159256Y-275596D01*
X-159181Y-275674D01*
X-159109Y-275755D01*
X-159040Y-275839D01*
X-158974Y-275925D01*
X-158911Y-276013D01*
X-158852Y-276104D01*
X-158795Y-276196D01*
X-158742Y-276291D01*
X-158693Y-276388D01*
X-158647Y-276486D01*
X-158604Y-276585D01*
X-158565Y-276687D01*
X-158530Y-276789D01*
X-162968Y-278879D02*
X-163037Y-278810D01*
X-163103Y-278739D01*
X-163167Y-278666D01*
X-163228Y-278590D01*
X-163286Y-278511D01*
X-163340Y-278431D01*
X-163392Y-278348D01*
X-163440Y-278264D01*
X-163486Y-278178D01*
X-163527Y-278090D01*
X-163566Y-278000D01*
X-163601Y-277909D01*
X-163632Y-277817D01*
X-163660Y-277724D01*
X-163684Y-277630D01*
X-163704Y-277535D01*
X-163721Y-277439D01*
X-163734Y-277342D01*
X-163743Y-277245D01*
X-163749Y-277148D01*
X-163751Y-277051D01*
X-162968Y-278878D02*
X-158530Y-284099D01*
X-163751Y-284099D01*
X-169737Y-284099D02*
X-171825Y-284099D01*
X-169737Y-284099D02*
X-169648Y-284097D01*
X-169560Y-284091D01*
X-169472Y-284082D01*
X-169384Y-284069D01*
X-169297Y-284052D01*
X-169211Y-284032D01*
X-169126Y-284007D01*
X-169041Y-283980D01*
X-168958Y-283948D01*
X-168877Y-283914D01*
X-168797Y-283875D01*
X-168719Y-283834D01*
X-168642Y-283789D01*
X-168568Y-283741D01*
X-168495Y-283690D01*
X-168425Y-283636D01*
X-168358Y-283578D01*
X-168292Y-283518D01*
X-168230Y-283456D01*
X-168170Y-283390D01*
X-168112Y-283323D01*
X-168058Y-283253D01*
X-168007Y-283180D01*
X-167959Y-283106D01*
X-167914Y-283029D01*
X-167873Y-282951D01*
X-167834Y-282871D01*
X-167800Y-282790D01*
X-167768Y-282707D01*
X-167741Y-282622D01*
X-167716Y-282537D01*
X-167696Y-282451D01*
X-167679Y-282364D01*
X-167666Y-282276D01*
X-167657Y-282188D01*
X-167651Y-282100D01*
X-167649Y-282011D01*
X-167648Y-282011D02*
X-167648Y-276789D01*
X-167650Y-276698D01*
X-167656Y-276607D01*
X-167666Y-276516D01*
X-167680Y-276426D01*
X-167698Y-276337D01*
X-167719Y-276248D01*
X-167745Y-276161D01*
X-167774Y-276075D01*
X-167807Y-275990D01*
X-167844Y-275906D01*
X-167884Y-275824D01*
X-167928Y-275745D01*
X-167975Y-275667D01*
X-168026Y-275591D01*
X-168080Y-275517D01*
X-168137Y-275446D01*
X-168197Y-275378D01*
X-168260Y-275312D01*
X-168326Y-275249D01*
X-168394Y-275189D01*
X-168465Y-275132D01*
X-168539Y-275078D01*
X-168615Y-275027D01*
X-168692Y-274980D01*
X-168772Y-274936D01*
X-168854Y-274896D01*
X-168938Y-274859D01*
X-169022Y-274826D01*
X-169109Y-274797D01*
X-169196Y-274771D01*
X-169285Y-274750D01*
X-169374Y-274732D01*
X-169464Y-274718D01*
X-169555Y-274708D01*
X-169646Y-274702D01*
X-169737Y-274700D01*
X-169737Y-274701D02*
X-171825Y-274701D01*
X-174901Y-285143D02*
X-179078Y-285143D01*
X-185437Y-284099D02*
X-185526Y-284097D01*
X-185614Y-284091D01*
X-185702Y-284082D01*
X-185790Y-284069D01*
X-185877Y-284052D01*
X-185963Y-284032D01*
X-186048Y-284007D01*
X-186133Y-283980D01*
X-186216Y-283948D01*
X-186297Y-283914D01*
X-186377Y-283875D01*
X-186455Y-283834D01*
X-186532Y-283789D01*
X-186606Y-283741D01*
X-186679Y-283690D01*
X-186749Y-283636D01*
X-186816Y-283578D01*
X-186882Y-283518D01*
X-186944Y-283456D01*
X-187004Y-283390D01*
X-187062Y-283323D01*
X-187116Y-283253D01*
X-187167Y-283180D01*
X-187215Y-283106D01*
X-187260Y-283029D01*
X-187301Y-282951D01*
X-187340Y-282871D01*
X-187374Y-282790D01*
X-187406Y-282707D01*
X-187433Y-282622D01*
X-187458Y-282537D01*
X-187478Y-282451D01*
X-187495Y-282364D01*
X-187508Y-282276D01*
X-187517Y-282188D01*
X-187523Y-282100D01*
X-187525Y-282011D01*
X-185437Y-284099D02*
X-185308Y-284097D01*
X-185179Y-284091D01*
X-185050Y-284082D01*
X-184922Y-284069D01*
X-184794Y-284052D01*
X-184667Y-284031D01*
X-184540Y-284007D01*
X-184414Y-283979D01*
X-184289Y-283947D01*
X-184165Y-283912D01*
X-184042Y-283873D01*
X-183920Y-283830D01*
X-183800Y-283784D01*
X-183681Y-283734D01*
X-183563Y-283681D01*
X-183447Y-283625D01*
X-183333Y-283565D01*
X-183220Y-283502D01*
X-183110Y-283435D01*
X-183001Y-283366D01*
X-182895Y-283293D01*
X-182790Y-283217D01*
X-182688Y-283138D01*
X-182589Y-283056D01*
X-182491Y-282972D01*
X-182396Y-282884D01*
X-182304Y-282794D01*
X-182566Y-276789D02*
X-182568Y-276700D01*
X-182574Y-276612D01*
X-182583Y-276524D01*
X-182596Y-276436D01*
X-182613Y-276349D01*
X-182633Y-276263D01*
X-182658Y-276178D01*
X-182685Y-276093D01*
X-182717Y-276010D01*
X-182751Y-275929D01*
X-182790Y-275849D01*
X-182831Y-275771D01*
X-182876Y-275694D01*
X-182924Y-275620D01*
X-182975Y-275547D01*
X-183029Y-275477D01*
X-183087Y-275410D01*
X-183147Y-275344D01*
X-183209Y-275282D01*
X-183275Y-275222D01*
X-183342Y-275164D01*
X-183412Y-275110D01*
X-183485Y-275059D01*
X-183559Y-275011D01*
X-183636Y-274966D01*
X-183714Y-274925D01*
X-183794Y-274886D01*
X-183875Y-274852D01*
X-183958Y-274820D01*
X-184043Y-274793D01*
X-184128Y-274768D01*
X-184214Y-274748D01*
X-184301Y-274731D01*
X-184389Y-274718D01*
X-184477Y-274709D01*
X-184565Y-274703D01*
X-184654Y-274701D01*
X-184774Y-274703D01*
X-184894Y-274708D01*
X-185013Y-274718D01*
X-185133Y-274730D01*
X-185252Y-274747D01*
X-185370Y-274767D01*
X-185488Y-274791D01*
X-185604Y-274818D01*
X-185720Y-274849D01*
X-185835Y-274883D01*
X-185949Y-274921D01*
X-186062Y-274963D01*
X-186173Y-275008D01*
X-186283Y-275056D01*
X-186391Y-275107D01*
X-186498Y-275162D01*
X-186603Y-275220D01*
X-186706Y-275282D01*
X-186807Y-275346D01*
X-186907Y-275414D01*
X-187004Y-275484D01*
X-183609Y-278616D02*
X-183531Y-278568D01*
X-183455Y-278516D01*
X-183382Y-278462D01*
X-183311Y-278404D01*
X-183242Y-278343D01*
X-183176Y-278279D01*
X-183113Y-278212D01*
X-183053Y-278143D01*
X-182996Y-278071D01*
X-182942Y-277997D01*
X-182892Y-277920D01*
X-182844Y-277841D01*
X-182801Y-277761D01*
X-182760Y-277678D01*
X-182724Y-277594D01*
X-182691Y-277509D01*
X-182662Y-277422D01*
X-182636Y-277333D01*
X-182614Y-277244D01*
X-182597Y-277154D01*
X-182583Y-277064D01*
X-182573Y-276972D01*
X-182567Y-276881D01*
X-182565Y-276789D01*
X-186481Y-280184D02*
X-186559Y-280232D01*
X-186635Y-280284D01*
X-186708Y-280338D01*
X-186779Y-280396D01*
X-186848Y-280457D01*
X-186914Y-280521D01*
X-186977Y-280588D01*
X-187037Y-280657D01*
X-187094Y-280729D01*
X-187148Y-280803D01*
X-187198Y-280880D01*
X-187246Y-280959D01*
X-187289Y-281039D01*
X-187330Y-281122D01*
X-187366Y-281206D01*
X-187399Y-281291D01*
X-187428Y-281378D01*
X-187454Y-281467D01*
X-187476Y-281556D01*
X-187493Y-281646D01*
X-187507Y-281736D01*
X-187517Y-281828D01*
X-187523Y-281919D01*
X-187525Y-282011D01*
X-186481Y-280183D02*
X-183609Y-278617D01*
X-193206Y-284099D02*
X-195294Y-284099D01*
X-193206Y-284099D02*
X-193117Y-284097D01*
X-193029Y-284091D01*
X-192941Y-284082D01*
X-192853Y-284069D01*
X-192766Y-284052D01*
X-192680Y-284032D01*
X-192595Y-284007D01*
X-192510Y-283980D01*
X-192427Y-283948D01*
X-192346Y-283914D01*
X-192266Y-283875D01*
X-192188Y-283834D01*
X-192111Y-283789D01*
X-192037Y-283741D01*
X-191964Y-283690D01*
X-191894Y-283636D01*
X-191827Y-283578D01*
X-191761Y-283518D01*
X-191699Y-283456D01*
X-191639Y-283390D01*
X-191581Y-283323D01*
X-191527Y-283253D01*
X-191476Y-283180D01*
X-191428Y-283106D01*
X-191383Y-283029D01*
X-191342Y-282951D01*
X-191303Y-282871D01*
X-191269Y-282790D01*
X-191237Y-282707D01*
X-191210Y-282622D01*
X-191185Y-282537D01*
X-191165Y-282451D01*
X-191148Y-282364D01*
X-191135Y-282276D01*
X-191126Y-282188D01*
X-191120Y-282100D01*
X-191118Y-282011D01*
X-191117Y-282011D02*
X-191117Y-276789D01*
X-191119Y-276698D01*
X-191125Y-276607D01*
X-191135Y-276516D01*
X-191149Y-276426D01*
X-191167Y-276337D01*
X-191188Y-276248D01*
X-191214Y-276161D01*
X-191243Y-276075D01*
X-191276Y-275990D01*
X-191313Y-275906D01*
X-191353Y-275824D01*
X-191397Y-275745D01*
X-191444Y-275667D01*
X-191495Y-275591D01*
X-191549Y-275517D01*
X-191606Y-275446D01*
X-191666Y-275378D01*
X-191729Y-275312D01*
X-191795Y-275249D01*
X-191863Y-275189D01*
X-191934Y-275132D01*
X-192008Y-275078D01*
X-192084Y-275027D01*
X-192161Y-274980D01*
X-192241Y-274936D01*
X-192323Y-274896D01*
X-192407Y-274859D01*
X-192491Y-274826D01*
X-192578Y-274797D01*
X-192665Y-274771D01*
X-192754Y-274750D01*
X-192843Y-274732D01*
X-192933Y-274718D01*
X-193024Y-274708D01*
X-193115Y-274702D01*
X-193206Y-274700D01*
X-193206Y-274701D02*
X-195294Y-274701D01*
X-199085Y-274701D02*
X-199085Y-284099D01*
X-203262Y-284099D01*
X-153825Y-289941D02*
X-153825Y-299339D01*
X-152781Y-299339D02*
X-154869Y-299339D01*
X-154869Y-289941D02*
X-152781Y-289941D01*
X-161401Y-289941D02*
X-161496Y-289943D01*
X-161590Y-289949D01*
X-161684Y-289958D01*
X-161778Y-289971D01*
X-161871Y-289988D01*
X-161963Y-290009D01*
X-162055Y-290034D01*
X-162145Y-290062D01*
X-162234Y-290094D01*
X-162322Y-290129D01*
X-162408Y-290168D01*
X-162493Y-290210D01*
X-162576Y-290256D01*
X-162657Y-290305D01*
X-162736Y-290357D01*
X-162813Y-290412D01*
X-162887Y-290471D01*
X-162959Y-290532D01*
X-163029Y-290596D01*
X-163096Y-290663D01*
X-163160Y-290733D01*
X-163221Y-290805D01*
X-163280Y-290879D01*
X-163335Y-290956D01*
X-163387Y-291035D01*
X-163436Y-291116D01*
X-163482Y-291199D01*
X-163524Y-291284D01*
X-163563Y-291370D01*
X-163598Y-291458D01*
X-163630Y-291547D01*
X-163658Y-291637D01*
X-163683Y-291729D01*
X-163704Y-291821D01*
X-163721Y-291914D01*
X-163734Y-292008D01*
X-163743Y-292102D01*
X-163749Y-292196D01*
X-163751Y-292291D01*
X-161401Y-289941D02*
X-161293Y-289943D01*
X-161184Y-289949D01*
X-161076Y-289959D01*
X-160969Y-289972D01*
X-160862Y-289990D01*
X-160755Y-290011D01*
X-160650Y-290036D01*
X-160545Y-290065D01*
X-160442Y-290097D01*
X-160340Y-290134D01*
X-160239Y-290174D01*
X-160140Y-290217D01*
X-160042Y-290264D01*
X-159946Y-290315D01*
X-159852Y-290369D01*
X-159760Y-290426D01*
X-159670Y-290487D01*
X-159582Y-290551D01*
X-159497Y-290617D01*
X-159414Y-290687D01*
X-159334Y-290760D01*
X-159256Y-290836D01*
X-159181Y-290914D01*
X-159109Y-290995D01*
X-159040Y-291079D01*
X-158974Y-291165D01*
X-158911Y-291253D01*
X-158852Y-291344D01*
X-158795Y-291436D01*
X-158742Y-291531D01*
X-158693Y-291628D01*
X-158647Y-291726D01*
X-158604Y-291825D01*
X-158565Y-291927D01*
X-158530Y-292029D01*
X-162968Y-294119D02*
X-163037Y-294050D01*
X-163103Y-293979D01*
X-163167Y-293906D01*
X-163228Y-293830D01*
X-163286Y-293751D01*
X-163340Y-293671D01*
X-163392Y-293588D01*
X-163440Y-293504D01*
X-163486Y-293418D01*
X-163527Y-293330D01*
X-163566Y-293240D01*
X-163601Y-293149D01*
X-163632Y-293057D01*
X-163660Y-292964D01*
X-163684Y-292870D01*
X-163704Y-292775D01*
X-163721Y-292679D01*
X-163734Y-292582D01*
X-163743Y-292485D01*
X-163749Y-292388D01*
X-163751Y-292291D01*
X-162968Y-294118D02*
X-158530Y-299339D01*
X-163751Y-299339D01*
X-169737Y-299339D02*
X-171825Y-299339D01*
X-169737Y-299339D02*
X-169648Y-299337D01*
X-169560Y-299331D01*
X-169472Y-299322D01*
X-169384Y-299309D01*
X-169297Y-299292D01*
X-169211Y-299272D01*
X-169126Y-299247D01*
X-169041Y-299220D01*
X-168958Y-299188D01*
X-168877Y-299154D01*
X-168797Y-299115D01*
X-168719Y-299074D01*
X-168642Y-299029D01*
X-168568Y-298981D01*
X-168495Y-298930D01*
X-168425Y-298876D01*
X-168358Y-298818D01*
X-168292Y-298758D01*
X-168230Y-298696D01*
X-168170Y-298630D01*
X-168112Y-298563D01*
X-168058Y-298493D01*
X-168007Y-298420D01*
X-167959Y-298346D01*
X-167914Y-298269D01*
X-167873Y-298191D01*
X-167834Y-298111D01*
X-167800Y-298030D01*
X-167768Y-297947D01*
X-167741Y-297862D01*
X-167716Y-297777D01*
X-167696Y-297691D01*
X-167679Y-297604D01*
X-167666Y-297516D01*
X-167657Y-297428D01*
X-167651Y-297340D01*
X-167649Y-297251D01*
X-167648Y-297251D02*
X-167648Y-292029D01*
X-167650Y-291938D01*
X-167656Y-291847D01*
X-167666Y-291756D01*
X-167680Y-291666D01*
X-167698Y-291577D01*
X-167719Y-291488D01*
X-167745Y-291401D01*
X-167774Y-291315D01*
X-167807Y-291230D01*
X-167844Y-291146D01*
X-167884Y-291064D01*
X-167928Y-290985D01*
X-167975Y-290907D01*
X-168026Y-290831D01*
X-168080Y-290757D01*
X-168137Y-290686D01*
X-168197Y-290618D01*
X-168260Y-290552D01*
X-168326Y-290489D01*
X-168394Y-290429D01*
X-168465Y-290372D01*
X-168539Y-290318D01*
X-168615Y-290267D01*
X-168692Y-290220D01*
X-168772Y-290176D01*
X-168854Y-290136D01*
X-168938Y-290099D01*
X-169022Y-290066D01*
X-169109Y-290037D01*
X-169196Y-290011D01*
X-169285Y-289990D01*
X-169374Y-289972D01*
X-169464Y-289958D01*
X-169555Y-289948D01*
X-169646Y-289942D01*
X-169737Y-289940D01*
X-169737Y-289941D02*
X-171825Y-289941D01*
X-174901Y-300383D02*
X-179078Y-300383D01*
X-185437Y-299339D02*
X-185526Y-299337D01*
X-185614Y-299331D01*
X-185702Y-299322D01*
X-185790Y-299309D01*
X-185877Y-299292D01*
X-185963Y-299272D01*
X-186048Y-299247D01*
X-186133Y-299220D01*
X-186216Y-299188D01*
X-186297Y-299154D01*
X-186377Y-299115D01*
X-186455Y-299074D01*
X-186532Y-299029D01*
X-186606Y-298981D01*
X-186679Y-298930D01*
X-186749Y-298876D01*
X-186816Y-298818D01*
X-186882Y-298758D01*
X-186944Y-298696D01*
X-187004Y-298630D01*
X-187062Y-298563D01*
X-187116Y-298493D01*
X-187167Y-298420D01*
X-187215Y-298346D01*
X-187260Y-298269D01*
X-187301Y-298191D01*
X-187340Y-298111D01*
X-187374Y-298030D01*
X-187406Y-297947D01*
X-187433Y-297862D01*
X-187458Y-297777D01*
X-187478Y-297691D01*
X-187495Y-297604D01*
X-187508Y-297516D01*
X-187517Y-297428D01*
X-187523Y-297340D01*
X-187525Y-297251D01*
X-185437Y-299339D02*
X-185308Y-299337D01*
X-185179Y-299331D01*
X-185050Y-299322D01*
X-184922Y-299309D01*
X-184794Y-299292D01*
X-184667Y-299271D01*
X-184540Y-299247D01*
X-184414Y-299219D01*
X-184289Y-299187D01*
X-184165Y-299152D01*
X-184042Y-299113D01*
X-183920Y-299070D01*
X-183800Y-299024D01*
X-183681Y-298974D01*
X-183563Y-298921D01*
X-183447Y-298865D01*
X-183333Y-298805D01*
X-183220Y-298742D01*
X-183110Y-298675D01*
X-183001Y-298606D01*
X-182895Y-298533D01*
X-182790Y-298457D01*
X-182688Y-298378D01*
X-182589Y-298296D01*
X-182491Y-298212D01*
X-182396Y-298124D01*
X-182304Y-298034D01*
X-182566Y-292029D02*
X-182568Y-291940D01*
X-182574Y-291852D01*
X-182583Y-291764D01*
X-182596Y-291676D01*
X-182613Y-291589D01*
X-182633Y-291503D01*
X-182658Y-291418D01*
X-182685Y-291333D01*
X-182717Y-291250D01*
X-182751Y-291169D01*
X-182790Y-291089D01*
X-182831Y-291011D01*
X-182876Y-290934D01*
X-182924Y-290860D01*
X-182975Y-290787D01*
X-183029Y-290717D01*
X-183087Y-290650D01*
X-183147Y-290584D01*
X-183209Y-290522D01*
X-183275Y-290462D01*
X-183342Y-290404D01*
X-183412Y-290350D01*
X-183485Y-290299D01*
X-183559Y-290251D01*
X-183636Y-290206D01*
X-183714Y-290165D01*
X-183794Y-290126D01*
X-183875Y-290092D01*
X-183958Y-290060D01*
X-184043Y-290033D01*
X-184128Y-290008D01*
X-184214Y-289988D01*
X-184301Y-289971D01*
X-184389Y-289958D01*
X-184477Y-289949D01*
X-184565Y-289943D01*
X-184654Y-289941D01*
X-184774Y-289943D01*
X-184894Y-289948D01*
X-185013Y-289958D01*
X-185133Y-289970D01*
X-185252Y-289987D01*
X-185370Y-290007D01*
X-185488Y-290031D01*
X-185604Y-290058D01*
X-185720Y-290089D01*
X-185835Y-290123D01*
X-185949Y-290161D01*
X-186062Y-290203D01*
X-186173Y-290248D01*
X-186283Y-290296D01*
X-186391Y-290347D01*
X-186498Y-290402D01*
X-186603Y-290460D01*
X-186706Y-290522D01*
X-186807Y-290586D01*
X-186907Y-290654D01*
X-187004Y-290724D01*
X-183609Y-293856D02*
X-183531Y-293808D01*
X-183455Y-293756D01*
X-183382Y-293702D01*
X-183311Y-293644D01*
X-183242Y-293583D01*
X-183176Y-293519D01*
X-183113Y-293452D01*
X-183053Y-293383D01*
X-182996Y-293311D01*
X-182942Y-293237D01*
X-182892Y-293160D01*
X-182844Y-293081D01*
X-182801Y-293001D01*
X-182760Y-292918D01*
X-182724Y-292834D01*
X-182691Y-292749D01*
X-182662Y-292662D01*
X-182636Y-292573D01*
X-182614Y-292484D01*
X-182597Y-292394D01*
X-182583Y-292304D01*
X-182573Y-292212D01*
X-182567Y-292121D01*
X-182565Y-292029D01*
X-186481Y-295424D02*
X-186559Y-295472D01*
X-186635Y-295524D01*
X-186708Y-295578D01*
X-186779Y-295636D01*
X-186848Y-295697D01*
X-186914Y-295761D01*
X-186977Y-295828D01*
X-187037Y-295897D01*
X-187094Y-295969D01*
X-187148Y-296043D01*
X-187198Y-296120D01*
X-187246Y-296199D01*
X-187289Y-296279D01*
X-187330Y-296362D01*
X-187366Y-296446D01*
X-187399Y-296531D01*
X-187428Y-296618D01*
X-187454Y-296707D01*
X-187476Y-296796D01*
X-187493Y-296886D01*
X-187507Y-296976D01*
X-187517Y-297068D01*
X-187523Y-297159D01*
X-187525Y-297251D01*
X-186481Y-295423D02*
X-183609Y-293857D01*
X-191448Y-289941D02*
X-191448Y-299339D01*
X-191448Y-289941D02*
X-194059Y-289941D01*
X-194159Y-289943D01*
X-194259Y-289949D01*
X-194358Y-289958D01*
X-194458Y-289972D01*
X-194556Y-289989D01*
X-194654Y-290010D01*
X-194751Y-290034D01*
X-194847Y-290063D01*
X-194942Y-290095D01*
X-195035Y-290130D01*
X-195127Y-290169D01*
X-195218Y-290212D01*
X-195306Y-290258D01*
X-195393Y-290308D01*
X-195478Y-290360D01*
X-195561Y-290416D01*
X-195642Y-290475D01*
X-195720Y-290538D01*
X-195796Y-290603D01*
X-195870Y-290671D01*
X-195940Y-290741D01*
X-196008Y-290815D01*
X-196073Y-290891D01*
X-196136Y-290969D01*
X-196195Y-291050D01*
X-196251Y-291133D01*
X-196303Y-291218D01*
X-196353Y-291305D01*
X-196399Y-291393D01*
X-196442Y-291484D01*
X-196481Y-291576D01*
X-196516Y-291669D01*
X-196548Y-291764D01*
X-196577Y-291860D01*
X-196601Y-291957D01*
X-196622Y-292055D01*
X-196639Y-292153D01*
X-196653Y-292253D01*
X-196662Y-292352D01*
X-196668Y-292452D01*
X-196670Y-292552D01*
X-196669Y-292552D02*
X-196669Y-296728D01*
X-196670Y-296728D02*
X-196668Y-296828D01*
X-196662Y-296928D01*
X-196653Y-297027D01*
X-196639Y-297127D01*
X-196622Y-297225D01*
X-196601Y-297323D01*
X-196577Y-297420D01*
X-196548Y-297516D01*
X-196516Y-297611D01*
X-196481Y-297704D01*
X-196442Y-297796D01*
X-196399Y-297887D01*
X-196353Y-297975D01*
X-196303Y-298062D01*
X-196251Y-298147D01*
X-196195Y-298230D01*
X-196136Y-298311D01*
X-196073Y-298389D01*
X-196008Y-298465D01*
X-195940Y-298539D01*
X-195870Y-298609D01*
X-195796Y-298677D01*
X-195720Y-298742D01*
X-195642Y-298805D01*
X-195561Y-298864D01*
X-195478Y-298920D01*
X-195393Y-298972D01*
X-195306Y-299022D01*
X-195218Y-299068D01*
X-195127Y-299111D01*
X-195035Y-299150D01*
X-194942Y-299185D01*
X-194847Y-299217D01*
X-194751Y-299246D01*
X-194654Y-299270D01*
X-194556Y-299291D01*
X-194458Y-299308D01*
X-194358Y-299322D01*
X-194259Y-299331D01*
X-194159Y-299337D01*
X-194059Y-299339D01*
X-191448Y-299339D01*
X-200375Y-299339D02*
X-203507Y-289941D01*
X-206640Y-299339D01*
X-205857Y-296990D02*
X-201158Y-296990D01*
X-152781Y-305181D02*
X-152781Y-314579D01*
X-156958Y-314579D01*
X-160383Y-311968D02*
X-160383Y-307792D01*
X-160385Y-307691D01*
X-160391Y-307590D01*
X-160401Y-307489D01*
X-160414Y-307389D01*
X-160432Y-307289D01*
X-160453Y-307190D01*
X-160479Y-307092D01*
X-160508Y-306995D01*
X-160540Y-306899D01*
X-160577Y-306805D01*
X-160617Y-306712D01*
X-160661Y-306620D01*
X-160708Y-306531D01*
X-160759Y-306443D01*
X-160813Y-306357D01*
X-160870Y-306274D01*
X-160930Y-306192D01*
X-160994Y-306114D01*
X-161060Y-306037D01*
X-161130Y-305964D01*
X-161202Y-305893D01*
X-161277Y-305825D01*
X-161355Y-305760D01*
X-161435Y-305698D01*
X-161517Y-305639D01*
X-161602Y-305583D01*
X-161689Y-305531D01*
X-161777Y-305482D01*
X-161868Y-305436D01*
X-161960Y-305395D01*
X-162054Y-305356D01*
X-162149Y-305322D01*
X-162245Y-305291D01*
X-162343Y-305264D01*
X-162441Y-305240D01*
X-162541Y-305221D01*
X-162641Y-305205D01*
X-162741Y-305193D01*
X-162842Y-305185D01*
X-162943Y-305181D01*
X-163045Y-305181D01*
X-163146Y-305185D01*
X-163247Y-305193D01*
X-163347Y-305205D01*
X-163447Y-305221D01*
X-163547Y-305240D01*
X-163645Y-305264D01*
X-163743Y-305291D01*
X-163839Y-305322D01*
X-163934Y-305356D01*
X-164028Y-305395D01*
X-164120Y-305436D01*
X-164211Y-305482D01*
X-164300Y-305531D01*
X-164386Y-305583D01*
X-164471Y-305639D01*
X-164553Y-305698D01*
X-164633Y-305760D01*
X-164711Y-305825D01*
X-164786Y-305893D01*
X-164858Y-305964D01*
X-164928Y-306037D01*
X-164994Y-306114D01*
X-165058Y-306192D01*
X-165118Y-306274D01*
X-165175Y-306357D01*
X-165229Y-306443D01*
X-165280Y-306531D01*
X-165327Y-306620D01*
X-165371Y-306712D01*
X-165411Y-306805D01*
X-165448Y-306899D01*
X-165480Y-306995D01*
X-165509Y-307092D01*
X-165535Y-307190D01*
X-165556Y-307289D01*
X-165574Y-307389D01*
X-165587Y-307489D01*
X-165597Y-307590D01*
X-165603Y-307691D01*
X-165605Y-307792D01*
X-165605Y-311968D01*
X-165603Y-312069D01*
X-165597Y-312170D01*
X-165587Y-312271D01*
X-165574Y-312371D01*
X-165556Y-312471D01*
X-165535Y-312570D01*
X-165509Y-312668D01*
X-165480Y-312765D01*
X-165448Y-312861D01*
X-165411Y-312955D01*
X-165371Y-313048D01*
X-165327Y-313140D01*
X-165280Y-313229D01*
X-165229Y-313317D01*
X-165175Y-313403D01*
X-165118Y-313486D01*
X-165058Y-313568D01*
X-164994Y-313646D01*
X-164928Y-313723D01*
X-164858Y-313796D01*
X-164786Y-313867D01*
X-164711Y-313935D01*
X-164633Y-314000D01*
X-164553Y-314062D01*
X-164471Y-314121D01*
X-164386Y-314177D01*
X-164300Y-314229D01*
X-164211Y-314278D01*
X-164120Y-314324D01*
X-164028Y-314365D01*
X-163934Y-314404D01*
X-163839Y-314438D01*
X-163743Y-314469D01*
X-163645Y-314496D01*
X-163547Y-314520D01*
X-163447Y-314539D01*
X-163347Y-314555D01*
X-163247Y-314567D01*
X-163146Y-314575D01*
X-163045Y-314579D01*
X-162943Y-314579D01*
X-162842Y-314575D01*
X-162741Y-314567D01*
X-162641Y-314555D01*
X-162541Y-314539D01*
X-162441Y-314520D01*
X-162343Y-314496D01*
X-162245Y-314469D01*
X-162149Y-314438D01*
X-162054Y-314404D01*
X-161960Y-314365D01*
X-161868Y-314324D01*
X-161777Y-314278D01*
X-161689Y-314229D01*
X-161602Y-314177D01*
X-161517Y-314121D01*
X-161435Y-314062D01*
X-161355Y-314000D01*
X-161277Y-313935D01*
X-161202Y-313867D01*
X-161130Y-313796D01*
X-161060Y-313723D01*
X-160994Y-313646D01*
X-160930Y-313568D01*
X-160870Y-313486D01*
X-160813Y-313403D01*
X-160759Y-313317D01*
X-160708Y-313229D01*
X-160661Y-313140D01*
X-160617Y-313048D01*
X-160577Y-312955D01*
X-160540Y-312861D01*
X-160508Y-312765D01*
X-160479Y-312668D01*
X-160453Y-312570D01*
X-160432Y-312471D01*
X-160414Y-312371D01*
X-160401Y-312271D01*
X-160391Y-312170D01*
X-160385Y-312069D01*
X-160383Y-311968D01*
X-169889Y-314579D02*
X-169889Y-305181D01*
X-172500Y-305181D01*
X-172601Y-305183D01*
X-172702Y-305189D01*
X-172803Y-305199D01*
X-172903Y-305212D01*
X-173003Y-305230D01*
X-173102Y-305251D01*
X-173200Y-305277D01*
X-173297Y-305306D01*
X-173393Y-305338D01*
X-173487Y-305375D01*
X-173580Y-305415D01*
X-173672Y-305459D01*
X-173761Y-305506D01*
X-173849Y-305557D01*
X-173935Y-305611D01*
X-174018Y-305668D01*
X-174100Y-305728D01*
X-174178Y-305792D01*
X-174255Y-305858D01*
X-174328Y-305928D01*
X-174399Y-306000D01*
X-174467Y-306075D01*
X-174532Y-306153D01*
X-174594Y-306233D01*
X-174653Y-306315D01*
X-174709Y-306400D01*
X-174761Y-306487D01*
X-174810Y-306575D01*
X-174856Y-306666D01*
X-174897Y-306758D01*
X-174936Y-306852D01*
X-174970Y-306947D01*
X-175001Y-307043D01*
X-175028Y-307141D01*
X-175052Y-307239D01*
X-175071Y-307339D01*
X-175087Y-307439D01*
X-175099Y-307539D01*
X-175107Y-307640D01*
X-175111Y-307741D01*
X-175111Y-307843D01*
X-175107Y-307944D01*
X-175099Y-308045D01*
X-175087Y-308145D01*
X-175071Y-308245D01*
X-175052Y-308345D01*
X-175028Y-308443D01*
X-175001Y-308541D01*
X-174970Y-308637D01*
X-174936Y-308732D01*
X-174897Y-308826D01*
X-174856Y-308918D01*
X-174810Y-309009D01*
X-174761Y-309098D01*
X-174709Y-309184D01*
X-174653Y-309269D01*
X-174594Y-309351D01*
X-174532Y-309431D01*
X-174467Y-309509D01*
X-174399Y-309584D01*
X-174328Y-309656D01*
X-174255Y-309726D01*
X-174178Y-309792D01*
X-174100Y-309856D01*
X-174018Y-309916D01*
X-173935Y-309973D01*
X-173849Y-310027D01*
X-173761Y-310078D01*
X-173672Y-310125D01*
X-173580Y-310169D01*
X-173487Y-310209D01*
X-173393Y-310246D01*
X-173297Y-310278D01*
X-173200Y-310307D01*
X-173102Y-310333D01*
X-173003Y-310354D01*
X-172903Y-310372D01*
X-172803Y-310385D01*
X-172702Y-310395D01*
X-172601Y-310401D01*
X-172500Y-310403D01*
X-172500Y-310402D02*
X-169889Y-310402D01*
X-173022Y-310402D02*
X-175110Y-314579D01*
X-178454Y-314579D02*
X-181587Y-305181D01*
X-184719Y-314579D01*
X-183936Y-312230D02*
X-179237Y-312230D01*
X-187728Y-315623D02*
X-191905Y-315623D01*
X-195797Y-314579D02*
X-195797Y-305181D01*
X-198408Y-305181D01*
X-198509Y-305183D01*
X-198610Y-305189D01*
X-198711Y-305199D01*
X-198811Y-305212D01*
X-198911Y-305230D01*
X-199010Y-305251D01*
X-199108Y-305277D01*
X-199205Y-305306D01*
X-199301Y-305338D01*
X-199395Y-305375D01*
X-199488Y-305415D01*
X-199580Y-305459D01*
X-199669Y-305506D01*
X-199757Y-305557D01*
X-199843Y-305611D01*
X-199926Y-305668D01*
X-200008Y-305728D01*
X-200086Y-305792D01*
X-200163Y-305858D01*
X-200236Y-305928D01*
X-200307Y-306000D01*
X-200375Y-306075D01*
X-200440Y-306153D01*
X-200502Y-306233D01*
X-200561Y-306315D01*
X-200617Y-306400D01*
X-200669Y-306487D01*
X-200718Y-306575D01*
X-200764Y-306666D01*
X-200805Y-306758D01*
X-200844Y-306852D01*
X-200878Y-306947D01*
X-200909Y-307043D01*
X-200936Y-307141D01*
X-200960Y-307239D01*
X-200979Y-307339D01*
X-200995Y-307439D01*
X-201007Y-307539D01*
X-201015Y-307640D01*
X-201019Y-307741D01*
X-201019Y-307843D01*
X-201015Y-307944D01*
X-201007Y-308045D01*
X-200995Y-308145D01*
X-200979Y-308245D01*
X-200960Y-308345D01*
X-200936Y-308443D01*
X-200909Y-308541D01*
X-200878Y-308637D01*
X-200844Y-308732D01*
X-200805Y-308826D01*
X-200764Y-308918D01*
X-200718Y-309009D01*
X-200669Y-309098D01*
X-200617Y-309184D01*
X-200561Y-309269D01*
X-200502Y-309351D01*
X-200440Y-309431D01*
X-200375Y-309509D01*
X-200307Y-309584D01*
X-200236Y-309656D01*
X-200163Y-309726D01*
X-200086Y-309792D01*
X-200008Y-309856D01*
X-199926Y-309916D01*
X-199843Y-309973D01*
X-199757Y-310027D01*
X-199669Y-310078D01*
X-199580Y-310125D01*
X-199488Y-310169D01*
X-199395Y-310209D01*
X-199301Y-310246D01*
X-199205Y-310278D01*
X-199108Y-310307D01*
X-199010Y-310333D01*
X-198911Y-310354D01*
X-198811Y-310372D01*
X-198711Y-310385D01*
X-198610Y-310395D01*
X-198509Y-310401D01*
X-198408Y-310403D01*
X-198408Y-310402D02*
X-195797Y-310402D01*
X-198930Y-310402D02*
X-201018Y-314579D01*
X-204362Y-314579D02*
X-210627Y-305181D01*
X-204362Y-305181D02*
X-210627Y-314579D01*
X-152781Y-320421D02*
X-152781Y-329819D01*
X-156958Y-329819D01*
X-160383Y-327208D02*
X-160383Y-323032D01*
X-160385Y-322931D01*
X-160391Y-322830D01*
X-160401Y-322729D01*
X-160414Y-322629D01*
X-160432Y-322529D01*
X-160453Y-322430D01*
X-160479Y-322332D01*
X-160508Y-322235D01*
X-160540Y-322139D01*
X-160577Y-322045D01*
X-160617Y-321952D01*
X-160661Y-321860D01*
X-160708Y-321771D01*
X-160759Y-321683D01*
X-160813Y-321597D01*
X-160870Y-321514D01*
X-160930Y-321432D01*
X-160994Y-321354D01*
X-161060Y-321277D01*
X-161130Y-321204D01*
X-161202Y-321133D01*
X-161277Y-321065D01*
X-161355Y-321000D01*
X-161435Y-320938D01*
X-161517Y-320879D01*
X-161602Y-320823D01*
X-161689Y-320771D01*
X-161777Y-320722D01*
X-161868Y-320676D01*
X-161960Y-320635D01*
X-162054Y-320596D01*
X-162149Y-320562D01*
X-162245Y-320531D01*
X-162343Y-320504D01*
X-162441Y-320480D01*
X-162541Y-320461D01*
X-162641Y-320445D01*
X-162741Y-320433D01*
X-162842Y-320425D01*
X-162943Y-320421D01*
X-163045Y-320421D01*
X-163146Y-320425D01*
X-163247Y-320433D01*
X-163347Y-320445D01*
X-163447Y-320461D01*
X-163547Y-320480D01*
X-163645Y-320504D01*
X-163743Y-320531D01*
X-163839Y-320562D01*
X-163934Y-320596D01*
X-164028Y-320635D01*
X-164120Y-320676D01*
X-164211Y-320722D01*
X-164300Y-320771D01*
X-164386Y-320823D01*
X-164471Y-320879D01*
X-164553Y-320938D01*
X-164633Y-321000D01*
X-164711Y-321065D01*
X-164786Y-321133D01*
X-164858Y-321204D01*
X-164928Y-321277D01*
X-164994Y-321354D01*
X-165058Y-321432D01*
X-165118Y-321514D01*
X-165175Y-321597D01*
X-165229Y-321683D01*
X-165280Y-321771D01*
X-165327Y-321860D01*
X-165371Y-321952D01*
X-165411Y-322045D01*
X-165448Y-322139D01*
X-165480Y-322235D01*
X-165509Y-322332D01*
X-165535Y-322430D01*
X-165556Y-322529D01*
X-165574Y-322629D01*
X-165587Y-322729D01*
X-165597Y-322830D01*
X-165603Y-322931D01*
X-165605Y-323032D01*
X-165605Y-327208D01*
X-165603Y-327309D01*
X-165597Y-327410D01*
X-165587Y-327511D01*
X-165574Y-327611D01*
X-165556Y-327711D01*
X-165535Y-327810D01*
X-165509Y-327908D01*
X-165480Y-328005D01*
X-165448Y-328101D01*
X-165411Y-328195D01*
X-165371Y-328288D01*
X-165327Y-328380D01*
X-165280Y-328469D01*
X-165229Y-328557D01*
X-165175Y-328643D01*
X-165118Y-328726D01*
X-165058Y-328808D01*
X-164994Y-328886D01*
X-164928Y-328963D01*
X-164858Y-329036D01*
X-164786Y-329107D01*
X-164711Y-329175D01*
X-164633Y-329240D01*
X-164553Y-329302D01*
X-164471Y-329361D01*
X-164386Y-329417D01*
X-164300Y-329469D01*
X-164211Y-329518D01*
X-164120Y-329564D01*
X-164028Y-329605D01*
X-163934Y-329644D01*
X-163839Y-329678D01*
X-163743Y-329709D01*
X-163645Y-329736D01*
X-163547Y-329760D01*
X-163447Y-329779D01*
X-163347Y-329795D01*
X-163247Y-329807D01*
X-163146Y-329815D01*
X-163045Y-329819D01*
X-162943Y-329819D01*
X-162842Y-329815D01*
X-162741Y-329807D01*
X-162641Y-329795D01*
X-162541Y-329779D01*
X-162441Y-329760D01*
X-162343Y-329736D01*
X-162245Y-329709D01*
X-162149Y-329678D01*
X-162054Y-329644D01*
X-161960Y-329605D01*
X-161868Y-329564D01*
X-161777Y-329518D01*
X-161689Y-329469D01*
X-161602Y-329417D01*
X-161517Y-329361D01*
X-161435Y-329302D01*
X-161355Y-329240D01*
X-161277Y-329175D01*
X-161202Y-329107D01*
X-161130Y-329036D01*
X-161060Y-328963D01*
X-160994Y-328886D01*
X-160930Y-328808D01*
X-160870Y-328726D01*
X-160813Y-328643D01*
X-160759Y-328557D01*
X-160708Y-328469D01*
X-160661Y-328380D01*
X-160617Y-328288D01*
X-160577Y-328195D01*
X-160540Y-328101D01*
X-160508Y-328005D01*
X-160479Y-327908D01*
X-160453Y-327810D01*
X-160432Y-327711D01*
X-160414Y-327611D01*
X-160401Y-327511D01*
X-160391Y-327410D01*
X-160385Y-327309D01*
X-160383Y-327208D01*
X-169889Y-329819D02*
X-169889Y-320421D01*
X-172500Y-320421D01*
X-172601Y-320423D01*
X-172702Y-320429D01*
X-172803Y-320439D01*
X-172903Y-320452D01*
X-173003Y-320470D01*
X-173102Y-320491D01*
X-173200Y-320517D01*
X-173297Y-320546D01*
X-173393Y-320578D01*
X-173487Y-320615D01*
X-173580Y-320655D01*
X-173672Y-320699D01*
X-173761Y-320746D01*
X-173849Y-320797D01*
X-173935Y-320851D01*
X-174018Y-320908D01*
X-174100Y-320968D01*
X-174178Y-321032D01*
X-174255Y-321098D01*
X-174328Y-321168D01*
X-174399Y-321240D01*
X-174467Y-321315D01*
X-174532Y-321393D01*
X-174594Y-321473D01*
X-174653Y-321555D01*
X-174709Y-321640D01*
X-174761Y-321727D01*
X-174810Y-321815D01*
X-174856Y-321906D01*
X-174897Y-321998D01*
X-174936Y-322092D01*
X-174970Y-322187D01*
X-175001Y-322283D01*
X-175028Y-322381D01*
X-175052Y-322479D01*
X-175071Y-322579D01*
X-175087Y-322679D01*
X-175099Y-322779D01*
X-175107Y-322880D01*
X-175111Y-322981D01*
X-175111Y-323083D01*
X-175107Y-323184D01*
X-175099Y-323285D01*
X-175087Y-323385D01*
X-175071Y-323485D01*
X-175052Y-323585D01*
X-175028Y-323683D01*
X-175001Y-323781D01*
X-174970Y-323877D01*
X-174936Y-323972D01*
X-174897Y-324066D01*
X-174856Y-324158D01*
X-174810Y-324249D01*
X-174761Y-324338D01*
X-174709Y-324424D01*
X-174653Y-324509D01*
X-174594Y-324591D01*
X-174532Y-324671D01*
X-174467Y-324749D01*
X-174399Y-324824D01*
X-174328Y-324896D01*
X-174255Y-324966D01*
X-174178Y-325032D01*
X-174100Y-325096D01*
X-174018Y-325156D01*
X-173935Y-325213D01*
X-173849Y-325267D01*
X-173761Y-325318D01*
X-173672Y-325365D01*
X-173580Y-325409D01*
X-173487Y-325449D01*
X-173393Y-325486D01*
X-173297Y-325518D01*
X-173200Y-325547D01*
X-173102Y-325573D01*
X-173003Y-325594D01*
X-172903Y-325612D01*
X-172803Y-325625D01*
X-172702Y-325635D01*
X-172601Y-325641D01*
X-172500Y-325643D01*
X-172500Y-325642D02*
X-169889Y-325642D01*
X-173022Y-325642D02*
X-175110Y-329819D01*
X-178454Y-329819D02*
X-181587Y-320421D01*
X-184719Y-329819D01*
X-183936Y-327470D02*
X-179237Y-327470D01*
X-187728Y-330863D02*
X-191905Y-330863D01*
X-197436Y-329819D02*
X-197436Y-320421D01*
X-194826Y-320421D02*
X-200047Y-320421D01*
X-209103Y-320421D02*
X-202838Y-329819D01*
X-209103Y-329819D02*
X-202838Y-320421D01*
D12*
X128524Y-78740D02*
X141732Y-78740D01*
X142051Y-78736D01*
X142370Y-78725D01*
X142689Y-78705D01*
X143007Y-78678D01*
X143324Y-78644D01*
X143640Y-78601D01*
X143956Y-78551D01*
X144270Y-78494D01*
X144582Y-78429D01*
X144893Y-78356D01*
X145202Y-78276D01*
X145509Y-78189D01*
X145813Y-78094D01*
X146116Y-77991D01*
X146416Y-77882D01*
X146713Y-77765D01*
X147007Y-77641D01*
X147298Y-77510D01*
X147586Y-77372D01*
X147870Y-77227D01*
X148151Y-77075D01*
X148428Y-76917D01*
X148701Y-76752D01*
X148970Y-76580D01*
X149235Y-76402D01*
X149495Y-76217D01*
X149751Y-76027D01*
X150003Y-75830D01*
X150249Y-75627D01*
X150491Y-75418D01*
X150727Y-75204D01*
X150958Y-74984D01*
X151184Y-74758D01*
X151404Y-74527D01*
X151618Y-74291D01*
X151827Y-74049D01*
X152030Y-73803D01*
X152227Y-73551D01*
X152417Y-73295D01*
X152602Y-73035D01*
X152780Y-72770D01*
X152952Y-72501D01*
X153117Y-72228D01*
X153275Y-71951D01*
X153427Y-71670D01*
X153572Y-71386D01*
X153710Y-71098D01*
X153841Y-70807D01*
X153965Y-70513D01*
X154082Y-70216D01*
X154191Y-69916D01*
X154294Y-69613D01*
X154389Y-69309D01*
X154476Y-69002D01*
X154556Y-68693D01*
X154629Y-68382D01*
X154694Y-68070D01*
X154751Y-67756D01*
X154801Y-67440D01*
X154844Y-67124D01*
X154878Y-66807D01*
X154905Y-66489D01*
X154925Y-66170D01*
X154936Y-65851D01*
X154940Y-65532D01*
X154940Y-32512D01*
X154936Y-32193D01*
X154925Y-31874D01*
X154905Y-31555D01*
X154878Y-31237D01*
X154844Y-30920D01*
X154801Y-30604D01*
X154751Y-30288D01*
X154694Y-29974D01*
X154629Y-29662D01*
X154556Y-29351D01*
X154476Y-29042D01*
X154389Y-28735D01*
X154294Y-28431D01*
X154191Y-28128D01*
X154082Y-27828D01*
X153965Y-27531D01*
X153841Y-27237D01*
X153710Y-26946D01*
X153572Y-26658D01*
X153427Y-26374D01*
X153275Y-26093D01*
X153117Y-25816D01*
X152952Y-25543D01*
X152780Y-25274D01*
X152602Y-25009D01*
X152417Y-24749D01*
X152227Y-24493D01*
X152030Y-24241D01*
X151827Y-23995D01*
X151618Y-23753D01*
X151404Y-23517D01*
X151184Y-23286D01*
X150958Y-23060D01*
X150727Y-22840D01*
X150491Y-22626D01*
X150249Y-22417D01*
X150003Y-22214D01*
X149751Y-22017D01*
X149495Y-21827D01*
X149235Y-21642D01*
X148970Y-21464D01*
X148701Y-21292D01*
X148428Y-21127D01*
X148151Y-20969D01*
X147870Y-20817D01*
X147586Y-20672D01*
X147298Y-20534D01*
X147007Y-20403D01*
X146713Y-20279D01*
X146416Y-20162D01*
X146116Y-20053D01*
X145813Y-19950D01*
X145509Y-19855D01*
X145202Y-19768D01*
X144893Y-19688D01*
X144582Y-19615D01*
X144270Y-19550D01*
X143956Y-19493D01*
X143640Y-19443D01*
X143324Y-19400D01*
X143007Y-19366D01*
X142689Y-19339D01*
X142370Y-19319D01*
X142051Y-19308D01*
X141732Y-19304D01*
X128524Y-19304D01*
X98123Y-19304D02*
X117935Y-78740D01*
X78311Y-78740D02*
X98123Y-19304D01*
X83264Y-63881D02*
X112982Y-63881D01*
X64687Y-78740D02*
X64687Y-19304D01*
X48177Y-19304D01*
X47775Y-19309D01*
X47373Y-19324D01*
X46972Y-19348D01*
X46571Y-19382D01*
X46172Y-19426D01*
X45773Y-19480D01*
X45376Y-19543D01*
X44981Y-19616D01*
X44587Y-19699D01*
X44196Y-19791D01*
X43807Y-19893D01*
X43420Y-20004D01*
X43037Y-20125D01*
X42656Y-20254D01*
X42279Y-20393D01*
X41905Y-20542D01*
X41535Y-20699D01*
X41169Y-20865D01*
X40807Y-21040D01*
X40450Y-21224D01*
X40097Y-21416D01*
X39749Y-21617D01*
X39405Y-21827D01*
X39067Y-22045D01*
X38735Y-22271D01*
X38408Y-22505D01*
X38087Y-22746D01*
X37771Y-22996D01*
X37462Y-23253D01*
X37160Y-23518D01*
X36863Y-23790D01*
X36574Y-24069D01*
X36291Y-24355D01*
X36016Y-24648D01*
X35748Y-24947D01*
X35487Y-25253D01*
X35233Y-25565D01*
X34987Y-25883D01*
X34750Y-26208D01*
X34520Y-26537D01*
X34298Y-26873D01*
X34084Y-27213D01*
X33879Y-27559D01*
X33682Y-27910D01*
X33494Y-28265D01*
X33314Y-28625D01*
X33144Y-28989D01*
X32982Y-29357D01*
X32829Y-29729D01*
X32686Y-30104D01*
X32551Y-30483D01*
X32426Y-30865D01*
X32310Y-31250D01*
X32204Y-31638D01*
X32107Y-32028D01*
X32019Y-32421D01*
X31942Y-32815D01*
X31873Y-33211D01*
X31815Y-33609D01*
X31766Y-34008D01*
X31727Y-34408D01*
X31698Y-34809D01*
X31678Y-35211D01*
X31668Y-35613D01*
X31668Y-36015D01*
X31678Y-36417D01*
X31698Y-36819D01*
X31727Y-37220D01*
X31766Y-37620D01*
X31815Y-38019D01*
X31873Y-38417D01*
X31942Y-38813D01*
X32019Y-39207D01*
X32107Y-39600D01*
X32204Y-39990D01*
X32310Y-40378D01*
X32426Y-40763D01*
X32551Y-41145D01*
X32686Y-41524D01*
X32829Y-41899D01*
X32982Y-42271D01*
X33144Y-42639D01*
X33314Y-43003D01*
X33494Y-43363D01*
X33682Y-43718D01*
X33879Y-44069D01*
X34084Y-44415D01*
X34298Y-44755D01*
X34520Y-45091D01*
X34750Y-45420D01*
X34987Y-45745D01*
X35233Y-46063D01*
X35487Y-46375D01*
X35748Y-46681D01*
X36016Y-46980D01*
X36291Y-47273D01*
X36574Y-47559D01*
X36863Y-47838D01*
X37160Y-48110D01*
X37462Y-48375D01*
X37771Y-48632D01*
X38087Y-48882D01*
X38408Y-49123D01*
X38735Y-49357D01*
X39067Y-49583D01*
X39405Y-49801D01*
X39749Y-50011D01*
X40097Y-50212D01*
X40450Y-50404D01*
X40807Y-50588D01*
X41169Y-50763D01*
X41535Y-50929D01*
X41905Y-51086D01*
X42279Y-51235D01*
X42656Y-51374D01*
X43037Y-51503D01*
X43420Y-51624D01*
X43807Y-51735D01*
X44196Y-51837D01*
X44587Y-51929D01*
X44981Y-52012D01*
X45376Y-52085D01*
X45773Y-52148D01*
X46172Y-52202D01*
X46571Y-52246D01*
X46972Y-52280D01*
X47373Y-52304D01*
X47775Y-52319D01*
X48177Y-52324D01*
X64687Y-52324D01*
X44875Y-52324D02*
X31667Y-78740D01*
X19548Y-78740D02*
X-264Y-19304D01*
X-20076Y-78740D01*
X-15123Y-63881D02*
X14595Y-63881D01*
X-45364Y-78740D02*
X-58572Y-78740D01*
X-45364Y-78740D02*
X-45045Y-78736D01*
X-44726Y-78725D01*
X-44407Y-78705D01*
X-44089Y-78678D01*
X-43772Y-78644D01*
X-43456Y-78601D01*
X-43140Y-78551D01*
X-42826Y-78494D01*
X-42514Y-78429D01*
X-42203Y-78356D01*
X-41894Y-78276D01*
X-41587Y-78189D01*
X-41283Y-78094D01*
X-40980Y-77991D01*
X-40680Y-77882D01*
X-40383Y-77765D01*
X-40089Y-77641D01*
X-39798Y-77510D01*
X-39510Y-77372D01*
X-39226Y-77227D01*
X-38945Y-77075D01*
X-38668Y-76917D01*
X-38395Y-76752D01*
X-38126Y-76580D01*
X-37861Y-76402D01*
X-37601Y-76217D01*
X-37345Y-76027D01*
X-37093Y-75830D01*
X-36847Y-75627D01*
X-36605Y-75418D01*
X-36369Y-75204D01*
X-36138Y-74984D01*
X-35912Y-74758D01*
X-35692Y-74527D01*
X-35478Y-74291D01*
X-35269Y-74049D01*
X-35066Y-73803D01*
X-34869Y-73551D01*
X-34679Y-73295D01*
X-34494Y-73035D01*
X-34316Y-72770D01*
X-34144Y-72501D01*
X-33979Y-72228D01*
X-33821Y-71951D01*
X-33669Y-71670D01*
X-33524Y-71386D01*
X-33386Y-71098D01*
X-33255Y-70807D01*
X-33131Y-70513D01*
X-33014Y-70216D01*
X-32905Y-69916D01*
X-32802Y-69613D01*
X-32707Y-69309D01*
X-32620Y-69002D01*
X-32540Y-68693D01*
X-32467Y-68382D01*
X-32402Y-68070D01*
X-32345Y-67756D01*
X-32295Y-67440D01*
X-32252Y-67124D01*
X-32218Y-66807D01*
X-32191Y-66489D01*
X-32171Y-66170D01*
X-32160Y-65851D01*
X-32156Y-65532D01*
X-32156Y-32512D01*
X-32160Y-32193D01*
X-32171Y-31874D01*
X-32191Y-31555D01*
X-32218Y-31237D01*
X-32252Y-30920D01*
X-32295Y-30604D01*
X-32345Y-30288D01*
X-32402Y-29974D01*
X-32467Y-29662D01*
X-32540Y-29351D01*
X-32620Y-29042D01*
X-32707Y-28735D01*
X-32802Y-28431D01*
X-32905Y-28128D01*
X-33014Y-27828D01*
X-33131Y-27531D01*
X-33255Y-27237D01*
X-33386Y-26946D01*
X-33524Y-26658D01*
X-33669Y-26374D01*
X-33821Y-26093D01*
X-33979Y-25816D01*
X-34144Y-25543D01*
X-34316Y-25274D01*
X-34494Y-25009D01*
X-34679Y-24749D01*
X-34869Y-24493D01*
X-35066Y-24241D01*
X-35269Y-23995D01*
X-35478Y-23753D01*
X-35692Y-23517D01*
X-35912Y-23286D01*
X-36138Y-23060D01*
X-36369Y-22840D01*
X-36605Y-22626D01*
X-36847Y-22417D01*
X-37093Y-22214D01*
X-37345Y-22017D01*
X-37601Y-21827D01*
X-37861Y-21642D01*
X-38126Y-21464D01*
X-38395Y-21292D01*
X-38668Y-21127D01*
X-38945Y-20969D01*
X-39226Y-20817D01*
X-39510Y-20672D01*
X-39798Y-20534D01*
X-40089Y-20403D01*
X-40383Y-20279D01*
X-40680Y-20162D01*
X-40980Y-20053D01*
X-41283Y-19950D01*
X-41587Y-19855D01*
X-41894Y-19768D01*
X-42203Y-19688D01*
X-42514Y-19615D01*
X-42826Y-19550D01*
X-43140Y-19493D01*
X-43456Y-19443D01*
X-43772Y-19400D01*
X-44089Y-19366D01*
X-44407Y-19339D01*
X-44726Y-19319D01*
X-45045Y-19308D01*
X-45364Y-19304D01*
X-58572Y-19304D01*
X-88974Y-19304D02*
X-69162Y-78740D01*
X-108786Y-78740D02*
X-88974Y-19304D01*
X-103833Y-63881D02*
X-74115Y-63881D01*
X-122438Y-78740D02*
X-122438Y-19304D01*
X-122438Y-78740D02*
X-148854Y-78740D01*
D13*
X-144076Y676D02*
X-147856Y12050D01*
X-151564Y23447D01*
X-154601Y32962D01*
X-157584Y42494D01*
X-160502Y52046D01*
X-161648Y55873D01*
X-163340Y61622D01*
X-165534Y69306D01*
X-166598Y73157D01*
X-167634Y77015D01*
X-169123Y82820D01*
X-170056Y86704D01*
X-170499Y88652D01*
X-170922Y90604D01*
X-171319Y92562D01*
X-171685Y94526D01*
X-172007Y96497D01*
X-172266Y98478D01*
X-172421Y100469D01*
X-172351Y102463D01*
X-171315Y103964D01*
X-169631Y102963D01*
X-168297Y101478D01*
X-167036Y99929D01*
X-165795Y98364D01*
X-163361Y95196D01*
X-162164Y93596D01*
X-159805Y90372D01*
X-157483Y87121D01*
X-155192Y83848D01*
X-152928Y80556D01*
X-150688Y77248D01*
X-146266Y70593D01*
X-141910Y63895D01*
X-139752Y60533D01*
X-136539Y55474D01*
X-131237Y47009D01*
X-125994Y38508D01*
X-120803Y29975D01*
X-114636Y19698D01*
X-109546Y11104D01*
X-104509Y2480D01*
X-106153Y2206D01*
X-144076Y676D01*
X-98645Y20116D02*
X-85932Y2252D01*
X-98645Y20116D02*
X-109082Y34706D01*
X-119552Y49273D01*
X-131231Y65426D01*
X-140617Y78317D01*
X-148871Y89566D01*
X-155989Y99176D01*
X-159568Y103967D01*
X-163165Y108744D01*
X-166787Y113502D01*
X-168037Y115054D01*
X-169345Y116557D01*
X-170731Y117989D01*
X-172226Y119307D01*
X-173880Y120415D01*
X-175760Y121036D01*
X-177643Y120535D01*
X-178887Y119000D01*
X-179605Y117144D01*
X-180042Y115201D01*
X-180311Y113226D01*
X-180469Y111239D01*
X-180546Y109247D01*
X-180561Y107254D01*
X-180529Y105261D01*
X-180457Y103270D01*
X-180352Y101279D01*
X-180220Y99290D01*
X-180062Y97303D01*
X-179884Y95318D01*
X-179472Y91353D01*
X-179000Y87394D01*
X-178477Y83442D01*
X-177911Y79496D01*
X-176996Y73587D01*
X-176014Y67689D01*
X-175326Y63762D01*
X-174253Y57879D01*
X-173134Y52005D01*
X-171975Y46139D01*
X-170781Y40280D01*
X-169137Y32478D01*
X-167869Y26634D01*
X-166572Y20797D01*
X-164800Y13023D01*
X-163437Y7201D01*
X-162039Y1387D01*
X-168738Y115837D02*
X-202555Y162848D01*
X-222579Y139764D02*
X-177607Y121602D01*
X18181Y49769D02*
X18290Y47770D01*
X18181Y49769D02*
X16554Y55514D01*
X16550Y55524D01*
X15587Y57280D01*
X14432Y58916D01*
X13098Y60408D01*
X11599Y61736D01*
X9956Y62880D01*
X8188Y63819D01*
X6319Y64538D01*
X4376Y65022D01*
X2389Y65265D01*
X-627Y65265D01*
X-3543Y64538D01*
X-5412Y63819D01*
X-7180Y62880D01*
X-8823Y61736D01*
X-10321Y60408D01*
X-11656Y58916D01*
X-12811Y57280D01*
X-13774Y55524D01*
X-14532Y53671D01*
X-15077Y51745D01*
X-15405Y49769D01*
X-15514Y47770D01*
X-15405Y45770D01*
X-13777Y40024D01*
X-13774Y40015D01*
X-12811Y38259D01*
X-11656Y36624D01*
X-10321Y35132D01*
X-8063Y33129D01*
X-5412Y31720D01*
X-3543Y31002D01*
X-1600Y30517D01*
X387Y30274D01*
X6299Y30997D01*
X6319Y31002D01*
X8188Y31720D01*
X9956Y32660D01*
X11599Y33803D01*
X13098Y35132D01*
X14432Y36624D01*
X15587Y38260D01*
X16550Y40015D01*
X17308Y41869D01*
X17854Y43795D01*
X18181Y45770D01*
X18290Y47770D01*
X15475Y38100D02*
X-12699Y38100D01*
X-15234Y50800D02*
X17889Y50800D01*
X8789Y63500D02*
X-6013Y63500D01*
X-12700Y57437D02*
X-12700Y38102D01*
X0Y30322D02*
X0Y65265D01*
X12700Y60760D02*
X12700Y34779D01*
X-36628Y74860D02*
X-34329Y78133D01*
X-36628Y74860D02*
X-38890Y71562D01*
X-39994Y69894D01*
X-41070Y68209D01*
X-42114Y66503D01*
X-43116Y64772D01*
X-44067Y63013D01*
X-44955Y61222D01*
X-45767Y59394D01*
X-46486Y57529D01*
X-47094Y55624D01*
X-47567Y53681D01*
X-47880Y51707D01*
X-48007Y49712D01*
X-47929Y47715D01*
X-47650Y45735D01*
X-47192Y43789D01*
X-46578Y41887D01*
X-45834Y40031D01*
X-44981Y38223D01*
X-44038Y36459D01*
X-43022Y34737D01*
X-41947Y33051D01*
X-40823Y31396D01*
X-39662Y29769D01*
X-38470Y28163D01*
X-37254Y26575D01*
X-36022Y25000D01*
X-33532Y21870D01*
X-54664Y84590D02*
X-51424Y89642D01*
X-54664Y84590D02*
X-56794Y81204D01*
X-58877Y77787D01*
X-59894Y76064D01*
X-60889Y74329D01*
X-61861Y72580D01*
X-62804Y70816D01*
X-63714Y69035D01*
X-64587Y67235D01*
X-65415Y65414D01*
X-66193Y63571D01*
X-66913Y61704D01*
X-67566Y59813D01*
X-68142Y57898D01*
X-68629Y55958D01*
X-69015Y53995D01*
X-69285Y52013D01*
X-69425Y50018D01*
X-69420Y48018D01*
X-69259Y46024D01*
X-68942Y44049D01*
X-68480Y42103D01*
X-67885Y40194D01*
X-67172Y38325D01*
X-66354Y36500D01*
X-65444Y34718D01*
X-64455Y32980D01*
X-63397Y31282D01*
X-62281Y29622D01*
X-61114Y27997D01*
X-59904Y26404D01*
X-58657Y24840D01*
X-57378Y23301D01*
X-56074Y21784D01*
X-54748Y20286D01*
X-53403Y18805D01*
X-50674Y15880D01*
X-46524Y11544D01*
X-127297Y41236D02*
X-149470Y18177D01*
X-157008Y35028D02*
X-137053Y55427D01*
X-144148Y68287D02*
X-160556Y52322D01*
X-164769Y68287D02*
X-152352Y78930D01*
X-160556Y90903D02*
X-168981Y83364D01*
X-120645Y28376D02*
X-144148Y4430D01*
X-128184Y882D02*
X-112663Y18177D01*
X142696Y52D02*
X146476Y11426D01*
X150184Y22823D01*
X153221Y32338D01*
X156204Y41870D01*
X159122Y51422D01*
X160269Y55249D01*
X161960Y60999D01*
X164154Y68682D01*
X165218Y72533D01*
X166255Y76391D01*
X167744Y82196D01*
X168676Y86080D01*
X169119Y88028D01*
X169542Y89981D01*
X169940Y91938D01*
X170305Y93902D01*
X170627Y95873D01*
X170886Y97854D01*
X171041Y99845D01*
X170972Y101839D01*
X169935Y103340D01*
X168251Y102339D01*
X166918Y100854D01*
X165656Y99305D01*
X164415Y97740D01*
X161981Y94572D01*
X160785Y92972D01*
X158425Y89748D01*
X156103Y86497D01*
X153813Y83224D01*
X151549Y79932D01*
X149309Y76624D01*
X144887Y69969D01*
X140530Y63271D01*
X138372Y59909D01*
X135159Y54850D01*
X129857Y46386D01*
X124614Y37884D01*
X119423Y29351D01*
X113256Y19074D01*
X108167Y10480D01*
X103129Y1856D01*
X104773Y1582D01*
X142696Y52D01*
X97265Y19492D02*
X84552Y1628D01*
X97265Y19492D02*
X107703Y34082D01*
X120504Y51882D01*
X129851Y64802D01*
X138061Y76083D01*
X147491Y88942D01*
X154610Y98552D01*
X158188Y103343D01*
X161785Y108120D01*
X165407Y112878D01*
X166658Y114430D01*
X167966Y115934D01*
X169352Y117366D01*
X170846Y118684D01*
X172501Y119791D01*
X174381Y120412D01*
X176264Y119911D01*
X177507Y118376D01*
X178225Y116520D01*
X178662Y114577D01*
X178931Y112602D01*
X179089Y110615D01*
X179166Y108624D01*
X179182Y106630D01*
X179150Y104638D01*
X179078Y102646D01*
X178973Y100655D01*
X178840Y98666D01*
X178683Y96679D01*
X178504Y94694D01*
X178093Y90729D01*
X177620Y86771D01*
X177097Y82819D01*
X176532Y78872D01*
X175617Y72963D01*
X174635Y67065D01*
X173947Y63138D01*
X172873Y57255D01*
X171755Y51381D01*
X170596Y45515D01*
X169401Y39656D01*
X168173Y33803D01*
X166489Y26010D01*
X165193Y20173D01*
X163421Y12399D01*
X162057Y6577D01*
X160660Y763D01*
X167358Y115213D02*
X201176Y162224D01*
X221200Y139140D02*
X176227Y120978D01*
X35249Y74236D02*
X32949Y77509D01*
X35249Y74236D02*
X37511Y70938D01*
X38614Y69270D01*
X39691Y67585D01*
X40734Y65879D01*
X41736Y64148D01*
X42687Y62389D01*
X43576Y60598D01*
X44388Y58771D01*
X45107Y56905D01*
X45715Y55000D01*
X46187Y53057D01*
X46500Y51083D01*
X46628Y49088D01*
X46550Y47091D01*
X46271Y45111D01*
X45812Y43166D01*
X45199Y41263D01*
X44454Y39407D01*
X43601Y37599D01*
X42659Y35835D01*
X41643Y34113D01*
X40567Y32427D01*
X39444Y30773D01*
X38282Y29145D01*
X37090Y27539D01*
X34643Y24376D01*
X32152Y21246D01*
X53285Y83967D02*
X50045Y89018D01*
X53285Y83967D02*
X55415Y80580D01*
X57497Y77163D01*
X58514Y75440D01*
X59510Y73705D01*
X60481Y71957D01*
X61424Y70192D01*
X62335Y68411D01*
X63207Y66611D01*
X64036Y64790D01*
X64814Y62947D01*
X65534Y61081D01*
X66186Y59190D01*
X66762Y57274D01*
X67249Y55334D01*
X67635Y53371D01*
X67905Y51389D01*
X68045Y49394D01*
X68041Y47394D01*
X67879Y45400D01*
X67563Y43426D01*
X67101Y41480D01*
X66506Y39570D01*
X65792Y37701D01*
X64974Y35876D01*
X64064Y34094D01*
X63075Y32356D01*
X62018Y30658D01*
X60901Y28998D01*
X59734Y27373D01*
X58524Y25780D01*
X57277Y24216D01*
X55999Y22677D01*
X54695Y21160D01*
X53368Y19663D01*
X52024Y18181D01*
X49294Y15256D01*
X45144Y10920D01*
X125917Y40612D02*
X148090Y17553D01*
X155629Y34404D02*
X135673Y54803D01*
X142769Y67663D02*
X159176Y51699D01*
X163389Y67663D02*
X150973Y78306D01*
X159176Y90279D02*
X167602Y82740D01*
X119266Y27752D02*
X142769Y3806D01*
X126804Y258D02*
X111284Y17553D01*
D14*
X36050Y-361739D02*
X35800Y-362206D01*
X36050Y-361739D02*
X36320Y-361283D01*
X36609Y-360840D01*
X36918Y-360410D01*
X37246Y-359993D01*
X37591Y-359592D01*
X37952Y-359205D01*
X38331Y-358834D01*
X38724Y-358480D01*
X39133Y-358143D01*
X39556Y-357824D01*
X39992Y-357524D01*
X40440Y-357242D01*
X40900Y-356980D01*
X41372Y-356738D01*
X41853Y-356518D01*
X42344Y-356318D01*
X42843Y-356141D01*
X42941Y-355700D01*
X42948Y-355170D01*
X42997Y-354643D01*
X43087Y-354121D01*
X43218Y-353608D01*
X43389Y-353107D01*
X43599Y-352621D01*
X43846Y-352153D01*
X44130Y-351706D01*
X44448Y-351282D01*
X44798Y-350885D01*
X45179Y-350517D01*
X45587Y-350180D01*
X46021Y-349876D01*
X46477Y-349607D01*
X46953Y-349375D01*
X47445Y-349181D01*
X47951Y-349025D01*
X48468Y-348910D01*
X48992Y-348835D01*
X49521Y-348802D01*
X50050Y-348811D01*
X50577Y-348862D01*
X51099Y-348955D01*
X51611Y-349088D01*
X52112Y-349260D01*
X52597Y-349472D01*
X53065Y-349720D01*
X53512Y-350004D01*
X53935Y-350322D01*
X54332Y-350673D01*
X54700Y-351053D01*
X55037Y-351461D01*
X55341Y-351895D01*
X55609Y-352351D01*
X55841Y-352828D01*
X56034Y-353321D01*
X59174Y-362881D01*
X59560Y-361975D01*
X59784Y-361495D01*
X60290Y-360565D01*
X60870Y-359679D01*
X61521Y-358844D01*
X61871Y-358447D01*
X62620Y-357698D01*
X63017Y-357348D01*
X63853Y-356698D01*
X64741Y-356120D01*
X65202Y-355859D01*
X66154Y-355397D01*
X67142Y-355016D01*
X91800Y-346921D01*
X92324Y-346887D01*
X92820Y-347062D01*
X93207Y-347418D01*
X93429Y-347897D01*
X93922Y-349407D01*
X94193Y-350431D01*
X94377Y-351473D01*
X94474Y-352528D01*
X94483Y-353587D01*
X94404Y-354643D01*
X94239Y-355689D01*
X94125Y-356206D01*
X93832Y-357224D01*
X93457Y-358214D01*
X93002Y-359170D01*
X92745Y-359633D01*
X92174Y-360525D01*
X91861Y-360952D01*
X91689Y-361417D01*
X91701Y-362476D01*
X91673Y-363005D01*
X91551Y-364057D01*
X91342Y-365095D01*
X91205Y-365607D01*
X90868Y-366611D01*
X90450Y-367583D01*
X89953Y-368518D01*
X89380Y-369409D01*
X88737Y-370250D01*
X88026Y-371036D01*
X87647Y-371406D01*
X86845Y-372097D01*
X86423Y-372417D01*
X85541Y-373003D01*
X85083Y-373268D01*
X84613Y-373513D01*
X83646Y-373944D01*
X82647Y-374297D01*
X65036Y-380080D01*
X64943Y-380453D01*
X74194Y-408632D01*
X74308Y-409147D01*
X74218Y-409665D01*
X73932Y-410107D01*
X73495Y-410399D01*
X72978Y-410496D01*
X72464Y-410381D01*
X72038Y-410073D01*
X71767Y-409622D01*
X68463Y-399558D01*
X68197Y-399228D01*
X67676Y-399322D01*
X67151Y-399393D01*
X66624Y-399442D01*
X66095Y-399467D01*
X65565Y-399468D01*
X65036Y-399446D01*
X64508Y-399400D01*
X63983Y-399331D01*
X63462Y-399240D01*
X62945Y-399125D01*
X62433Y-398988D01*
X61928Y-398828D01*
X61430Y-398647D01*
X60941Y-398445D01*
X60461Y-398222D01*
X59990Y-397978D01*
X59531Y-397715D01*
X59083Y-397432D01*
X58648Y-397130D01*
X58227Y-396810D01*
X57820Y-396471D01*
X57428Y-396114D01*
X57052Y-395741D01*
X56693Y-395352D01*
X56352Y-394947D01*
X56029Y-394527D01*
X55441Y-393710D01*
X54246Y-396073D01*
X54874Y-396883D01*
X55160Y-397329D01*
X55401Y-397801D01*
X55597Y-398292D01*
X55689Y-398811D01*
X55570Y-399323D01*
X55260Y-399748D01*
X54807Y-400015D01*
X54285Y-400083D01*
X53779Y-399940D01*
X53370Y-399609D01*
X53124Y-399144D01*
X52908Y-398661D01*
X52609Y-398225D01*
X52236Y-397850D01*
X51802Y-397548D01*
X51321Y-397328D01*
X50809Y-397196D01*
X50281Y-397159D01*
X49755Y-397218D01*
X49243Y-397352D01*
X48717Y-397338D01*
X48240Y-397118D01*
X47887Y-396728D01*
X47717Y-396230D01*
X47757Y-395705D01*
X48000Y-395239D01*
X48408Y-394906D01*
X48907Y-394733D01*
X49424Y-394620D01*
X49950Y-394557D01*
X50479Y-394545D01*
X51007Y-394583D01*
X51529Y-394673D01*
X52001Y-394719D01*
X53913Y-390938D01*
X54052Y-390457D01*
X43645Y-358755D01*
X43221Y-358784D01*
X42732Y-358989D01*
X42256Y-359222D01*
X41794Y-359480D01*
X41347Y-359763D01*
X40915Y-360070D01*
X40501Y-360400D01*
X40106Y-360753D01*
X39731Y-361127D01*
X39377Y-361520D01*
X39044Y-361933D01*
X38736Y-362363D01*
X38451Y-362810D01*
X38193Y-363272D01*
X37902Y-363711D01*
X37465Y-364005D01*
X36949Y-364104D01*
X36435Y-363991D01*
X36007Y-363685D01*
X35735Y-363234D01*
X35662Y-362714D01*
X35800Y-362206D01*
X10326Y-392197D02*
X9506Y-407799D01*
X-7754Y-408004D02*
X-6934Y-396695D01*
X19448Y-372885D02*
X21569Y-372998D01*
X19448Y-372885D02*
X17861Y-372757D01*
X16804Y-372651D01*
X14697Y-372388D01*
X12600Y-372053D01*
X10517Y-371639D01*
X9483Y-371398D01*
X8455Y-371134D01*
X6926Y-370688D01*
X5917Y-370356D01*
X4418Y-369817D01*
X3910Y-369663D01*
X3396Y-369530D01*
X2877Y-369419D01*
X2354Y-369330D01*
X1827Y-369263D01*
X1298Y-369218D01*
X768Y-369196D01*
X237Y-369196D01*
X-293Y-369218D01*
X-822Y-369263D01*
X-1349Y-369330D01*
X-1872Y-369419D01*
X-2391Y-369530D01*
X-2905Y-369663D01*
X-3413Y-369817D01*
X-4912Y-370355D01*
X-5921Y-370688D01*
X-7450Y-371133D01*
X-8478Y-371398D01*
X-9512Y-371638D01*
X-11595Y-372053D01*
X-13692Y-372388D01*
X-15799Y-372651D01*
X-16856Y-372757D01*
X-18443Y-372885D01*
X-20564Y-372998D01*
X-28835Y-394837D02*
X-28092Y-396240D01*
X-28835Y-394837D02*
X-29289Y-393881D01*
X-29905Y-392418D01*
X-30266Y-391423D01*
X-30584Y-390414D01*
X-30854Y-389391D01*
X-31070Y-388354D01*
X-31223Y-387307D01*
X-31302Y-386252D01*
X-31309Y-385723D01*
X-31293Y-385194D01*
X-31249Y-384667D01*
X-31175Y-384143D01*
X-31067Y-383625D01*
X-30921Y-383116D01*
X-30733Y-382622D01*
X-30497Y-382148D01*
X-30212Y-381703D01*
X-29874Y-381296D01*
X-29485Y-380938D01*
X-29051Y-380636D01*
X-28579Y-380398D01*
X-28078Y-380228D01*
X-27559Y-380127D01*
X-27032Y-380092D01*
X-26503Y-380117D01*
X-25980Y-380196D01*
X-25466Y-380321D01*
X-24963Y-380486D01*
X-24473Y-380684D01*
X-23995Y-380912D01*
X-23530Y-381165D01*
X-23078Y-381439D01*
X-22209Y-382044D01*
X-21793Y-382370D01*
X-20992Y-383062D01*
X-20607Y-383425D01*
X-19866Y-384181D01*
X-19510Y-384572D01*
X-18825Y-385379D01*
X-17862Y-386641D01*
X-16972Y-387956D01*
X-16152Y-389315D01*
X-15896Y-389778D01*
X-15430Y-390728D01*
X-15400Y-390342D01*
X-15397Y-387696D01*
X-15378Y-387167D01*
X-15288Y-386113D01*
X-15216Y-385588D01*
X-15021Y-384548D01*
X-14758Y-383523D01*
X-14426Y-382519D01*
X-14028Y-381538D01*
X-13804Y-381058D01*
X-13896Y-380710D01*
X-15353Y-380081D01*
X-16773Y-379370D01*
X-17693Y-378848D01*
X-18144Y-378571D01*
X-19026Y-377986D01*
X-19455Y-377677D01*
X-20288Y-377024D01*
X-21081Y-376324D01*
X-21828Y-375574D01*
X-22520Y-374773D01*
X-23148Y-373922D01*
X-23435Y-373477D01*
X-23703Y-373020D01*
X-23949Y-372552D01*
X-24171Y-372072D01*
X-24371Y-371582D01*
X-24545Y-371082D01*
X-24693Y-370574D01*
X-24813Y-370059D01*
X-24904Y-369537D01*
X-24965Y-369012D01*
X-24996Y-368484D01*
X-24998Y-367955D01*
X-24969Y-367426D01*
X-25137Y-366999D01*
X-25554Y-366673D01*
X-25952Y-366324D01*
X-26331Y-365955D01*
X-26689Y-365565D01*
X-27025Y-365157D01*
X-27339Y-364731D01*
X-27629Y-364288D01*
X-27894Y-363830D01*
X-28135Y-363359D01*
X-28350Y-362875D01*
X-28537Y-362381D01*
X-28698Y-361877D01*
X-28831Y-361365D01*
X-28936Y-360846D01*
X-29012Y-360322D01*
X-29060Y-359795D01*
X-29078Y-359266D01*
X-29068Y-358737D01*
X-29029Y-358210D01*
X-28961Y-357685D01*
X-28865Y-357165D01*
X-28740Y-356650D01*
X-28587Y-356144D01*
X-28406Y-355646D01*
X-28199Y-355160D01*
X-27965Y-354685D01*
X-27705Y-354224D01*
X-27421Y-353778D01*
X-27113Y-353347D01*
X-26782Y-352934D01*
X-26430Y-352540D01*
X-26056Y-352165D01*
X-25663Y-351811D01*
X-25251Y-351479D01*
X-24822Y-351169D01*
X-24377Y-350883D01*
X-23916Y-350622D01*
X-23443Y-350387D01*
X-22957Y-350178D01*
X-22460Y-349995D01*
X-21954Y-349841D01*
X-21440Y-349714D01*
X-20920Y-349616D01*
X-20396Y-349546D01*
X-19868Y-349505D01*
X-19339Y-349493D01*
X-18810Y-349510D01*
X-18283Y-349556D01*
X-17759Y-349631D01*
X-17240Y-349734D01*
X-16728Y-349866D01*
X-16224Y-350026D01*
X-15729Y-350213D01*
X-15245Y-350427D01*
X-14773Y-350666D01*
X-14314Y-350931D01*
X-13871Y-351220D01*
X-13444Y-351532D01*
X-13034Y-351867D01*
X-12643Y-352223D01*
X-12271Y-352600D01*
X-11921Y-352996D01*
X-11593Y-353411D01*
X-11287Y-353843D01*
X-11006Y-354292D01*
X-10678Y-354584D01*
X-9656Y-354309D01*
X-8109Y-353952D01*
X-6549Y-353658D01*
X-4978Y-353427D01*
X-3927Y-353305D01*
X-2345Y-353173D01*
X-759Y-353098D01*
X828Y-353081D01*
X2415Y-353122D01*
X4000Y-353220D01*
X5580Y-353377D01*
X6629Y-353514D01*
X8196Y-353771D01*
X9234Y-353977D01*
X10779Y-354339D01*
X11800Y-354618D01*
X12361Y-353742D01*
X12671Y-353313D01*
X13005Y-352903D01*
X13360Y-352510D01*
X13736Y-352138D01*
X14132Y-351787D01*
X14545Y-351457D01*
X14977Y-351150D01*
X15424Y-350867D01*
X15885Y-350608D01*
X16360Y-350375D01*
X16847Y-350167D01*
X17344Y-349987D01*
X17850Y-349833D01*
X18364Y-349708D01*
X18885Y-349611D01*
X19409Y-349542D01*
X19937Y-349503D01*
X20466Y-349493D01*
X20995Y-349512D01*
X21522Y-349560D01*
X22045Y-349636D01*
X22564Y-349741D01*
X23076Y-349874D01*
X23580Y-350035D01*
X24075Y-350224D01*
X24558Y-350439D01*
X25029Y-350681D01*
X25486Y-350948D01*
X25927Y-351239D01*
X26352Y-351554D01*
X26760Y-351891D01*
X27149Y-352250D01*
X27518Y-352630D01*
X27865Y-353029D01*
X28191Y-353446D01*
X28493Y-353880D01*
X28772Y-354330D01*
X29026Y-354794D01*
X29253Y-355272D01*
X29455Y-355761D01*
X29629Y-356261D01*
X29775Y-356769D01*
X29894Y-357285D01*
X29983Y-357807D01*
X30044Y-358332D01*
X30077Y-358860D01*
X30080Y-359389D01*
X30055Y-359918D01*
X30001Y-360444D01*
X29918Y-360967D01*
X29807Y-361484D01*
X29668Y-361995D01*
X29500Y-362497D01*
X29306Y-362989D01*
X29086Y-363470D01*
X28839Y-363938D01*
X28568Y-364392D01*
X28272Y-364831D01*
X27953Y-365254D01*
X27612Y-365658D01*
X27249Y-366043D01*
X26866Y-366408D01*
X26463Y-366751D01*
X26042Y-367072D01*
X25984Y-367549D01*
X26006Y-368078D01*
X25997Y-368607D01*
X25959Y-369135D01*
X25891Y-369660D01*
X25794Y-370180D01*
X25668Y-370694D01*
X25514Y-371200D01*
X25334Y-371698D01*
X25128Y-372185D01*
X24899Y-372662D01*
X24648Y-373128D01*
X24376Y-373582D01*
X24084Y-374023D01*
X23448Y-374869D01*
X23106Y-375272D01*
X22379Y-376042D01*
X21997Y-376407D01*
X21198Y-377102D01*
X20784Y-377431D01*
X19930Y-378056D01*
X19045Y-378636D01*
X18133Y-379174D01*
X16725Y-379907D01*
X15763Y-380348D01*
X14786Y-380755D01*
X14862Y-381168D01*
X15285Y-382138D01*
X15642Y-383134D01*
X15932Y-384152D01*
X16154Y-385187D01*
X16238Y-385709D01*
X16355Y-386761D01*
X16402Y-387818D01*
X16404Y-390464D01*
X16485Y-390615D01*
X16958Y-389668D01*
X17217Y-389207D01*
X18042Y-387851D01*
X18631Y-386971D01*
X19252Y-386115D01*
X20247Y-384877D01*
X20954Y-384090D01*
X21321Y-383709D01*
X22086Y-382978D01*
X22484Y-382629D01*
X23312Y-381969D01*
X23743Y-381662D01*
X24185Y-381373D01*
X24641Y-381103D01*
X25109Y-380856D01*
X25589Y-380635D01*
X26083Y-380444D01*
X26589Y-380289D01*
X27105Y-380174D01*
X27630Y-380107D01*
X28159Y-380095D01*
X28685Y-380145D01*
X29201Y-380262D01*
X29696Y-380448D01*
X30160Y-380702D01*
X30584Y-381017D01*
X30961Y-381388D01*
X31286Y-381805D01*
X31560Y-382258D01*
X31783Y-382737D01*
X31961Y-383236D01*
X32098Y-383747D01*
X32197Y-384266D01*
X32264Y-384791D01*
X32301Y-385319D01*
X32312Y-385848D01*
X32299Y-386377D01*
X32264Y-386905D01*
X32138Y-387956D01*
X32049Y-388478D01*
X31827Y-389512D01*
X31551Y-390534D01*
X31228Y-391542D01*
X30663Y-393025D01*
X30239Y-393995D01*
X29781Y-394949D01*
X29032Y-396349D01*
X28761Y-396803D01*
X28176Y-397685D01*
X27865Y-398113D01*
X27210Y-398945D01*
X26162Y-400137D01*
X25426Y-400898D01*
X24666Y-401634D01*
X23885Y-402348D01*
X23085Y-403041D01*
X22269Y-403715D01*
X21438Y-404370D01*
X19736Y-405629D01*
X19885Y-405749D01*
X27294Y-405749D01*
X27821Y-405778D01*
X28303Y-405987D01*
X28665Y-406369D01*
X28848Y-406861D01*
X28824Y-407387D01*
X28595Y-407860D01*
X28200Y-408206D01*
X27701Y-408370D01*
X27172Y-408379D01*
X-26278Y-408379D01*
X-26806Y-408352D01*
X-27288Y-408144D01*
X-27652Y-407764D01*
X-27837Y-407272D01*
X-27815Y-406747D01*
X-27588Y-406272D01*
X-27194Y-405924D01*
X-26695Y-405759D01*
X-18758Y-405749D01*
X-18837Y-405556D01*
X-20535Y-404293D01*
X-21365Y-403636D01*
X-22180Y-402960D01*
X-23369Y-401909D01*
X-24513Y-400808D01*
X-25602Y-399653D01*
X-26289Y-398848D01*
X-26619Y-398434D01*
X-27247Y-397582D01*
X-27543Y-397144D01*
X-28092Y-396240D01*
X-57031Y-378988D02*
X-57549Y-379103D01*
X-57031Y-378988D02*
X-56509Y-379085D01*
X-56031Y-379323D01*
X-55577Y-379605D01*
X-55155Y-379932D01*
X-54778Y-380311D01*
X-54469Y-380746D01*
X-54258Y-381235D01*
X-54173Y-381761D01*
X-54255Y-382286D01*
X-54537Y-382736D01*
X-54973Y-383039D01*
X-55492Y-383146D01*
X-56013Y-383041D01*
X-56449Y-382739D01*
X-56991Y-381852D01*
X-57270Y-382248D01*
X-57538Y-382706D01*
X-57964Y-383023D01*
X-58480Y-383146D01*
X-59003Y-383056D01*
X-59449Y-382768D01*
X-59746Y-382328D01*
X-59845Y-381806D01*
X-59772Y-381278D01*
X-59570Y-380785D01*
X-59268Y-380345D01*
X-58896Y-379962D01*
X-58477Y-379631D01*
X-58026Y-379345D01*
X-57549Y-379103D01*
X-66866Y-367481D02*
X-67729Y-368093D01*
X-66866Y-367481D02*
X-67776Y-365570D01*
X-68850Y-363151D01*
X-69873Y-360711D01*
X-70629Y-358734D01*
X-70976Y-357734D01*
X-71298Y-356726D01*
X-71724Y-355197D01*
X-71962Y-354166D01*
X-72063Y-353646D01*
X-72225Y-352600D01*
X-72319Y-351546D01*
X-72334Y-351017D01*
X-72323Y-350488D01*
X-72281Y-349961D01*
X-72205Y-349437D01*
X-72087Y-348922D01*
X-71921Y-348419D01*
X-71700Y-347939D01*
X-71422Y-347489D01*
X-71086Y-347081D01*
X-70695Y-346724D01*
X-70257Y-346429D01*
X-69781Y-346199D01*
X-69278Y-346036D01*
X-68757Y-345943D01*
X-68229Y-345926D01*
X-67704Y-345985D01*
X-67192Y-346119D01*
X-66703Y-346320D01*
X-66243Y-346581D01*
X-65814Y-346891D01*
X-65416Y-347240D01*
X-65048Y-347619D01*
X-64705Y-348022D01*
X-64387Y-348445D01*
X-64089Y-348882D01*
X-63548Y-349792D01*
X-63300Y-350259D01*
X-62845Y-351215D01*
X-62242Y-352683D01*
X-61715Y-354181D01*
X-61399Y-355191D01*
X-61106Y-356208D01*
X-60579Y-358258D01*
X-60105Y-360321D01*
X-59770Y-361873D01*
X-59268Y-364471D01*
X-58953Y-364694D01*
X-58426Y-364648D01*
X-57369Y-364599D01*
X-56311Y-364608D01*
X-55255Y-364676D01*
X-54783Y-364659D01*
X-54495Y-363098D01*
X-54178Y-361542D01*
X-53722Y-359475D01*
X-53360Y-357929D01*
X-52963Y-356392D01*
X-52674Y-355374D01*
X-52362Y-354363D01*
X-52024Y-353360D01*
X-51655Y-352368D01*
X-51251Y-351390D01*
X-50804Y-350430D01*
X-50561Y-349960D01*
X-50032Y-349044D01*
X-49741Y-348601D01*
X-49431Y-348173D01*
X-49097Y-347762D01*
X-48738Y-347374D01*
X-48351Y-347013D01*
X-47934Y-346688D01*
X-47485Y-346408D01*
X-47006Y-346184D01*
X-46501Y-346025D01*
X-45980Y-345938D01*
X-45451Y-345928D01*
X-44927Y-345994D01*
X-44416Y-346132D01*
X-43929Y-346338D01*
X-43476Y-346610D01*
X-43067Y-346946D01*
X-42711Y-347336D01*
X-42411Y-347772D01*
X-42170Y-348243D01*
X-41985Y-348738D01*
X-41851Y-349250D01*
X-41760Y-349771D01*
X-41707Y-350298D01*
X-41685Y-350826D01*
X-41691Y-351355D01*
X-41770Y-352411D01*
X-41921Y-353458D01*
X-42127Y-354496D01*
X-42378Y-355524D01*
X-42820Y-357049D01*
X-43325Y-358554D01*
X-43879Y-360042D01*
X-44474Y-361514D01*
X-45514Y-363947D01*
X-46384Y-365877D01*
X-47068Y-367310D01*
X-46871Y-367670D01*
X-46021Y-368300D01*
X-45216Y-368987D01*
X-44460Y-369728D01*
X-44103Y-370118D01*
X-43433Y-370937D01*
X-42828Y-371805D01*
X-42292Y-372718D01*
X-42052Y-373189D01*
X-41631Y-374160D01*
X-41451Y-374658D01*
X-41292Y-375162D01*
X-41155Y-375673D01*
X-41040Y-376190D01*
X-40947Y-376711D01*
X-40876Y-377235D01*
X-40828Y-377762D01*
X-40803Y-378291D01*
X-40800Y-378820D01*
X-40821Y-379349D01*
X-40864Y-379876D01*
X-40929Y-380401D01*
X-41017Y-380923D01*
X-41127Y-381441D01*
X-41260Y-381953D01*
X-41414Y-382459D01*
X-41785Y-383450D01*
X-42001Y-383933D01*
X-42490Y-384871D01*
X-43053Y-385767D01*
X-43684Y-386617D01*
X-44022Y-387024D01*
X-44743Y-387798D01*
X-45124Y-388166D01*
X-45923Y-388859D01*
X-46768Y-389496D01*
X-47654Y-390076D01*
X-48575Y-390597D01*
X-49047Y-390835D01*
X-50013Y-391268D01*
X-50077Y-391622D01*
X-49854Y-392102D01*
X-49665Y-392596D01*
X-49510Y-393102D01*
X-49391Y-393617D01*
X-49306Y-394140D01*
X-49258Y-394667D01*
X-49245Y-396254D01*
X-49209Y-396754D01*
X-48693Y-396869D01*
X-48186Y-397022D01*
X-47692Y-397210D01*
X-47212Y-397434D01*
X-46750Y-397691D01*
X-46307Y-397981D01*
X-45886Y-398302D01*
X-45489Y-398651D01*
X-45118Y-399028D01*
X-44774Y-399430D01*
X-44460Y-399855D01*
X-44176Y-400302D01*
X-43925Y-400768D01*
X-43709Y-401251D01*
X-43528Y-401748D01*
X-43383Y-402257D01*
X-43275Y-402775D01*
X-43204Y-403299D01*
X-43172Y-403827D01*
X-43169Y-406473D01*
X-43066Y-406899D01*
X-40420Y-406899D01*
X-39892Y-406920D01*
X-39403Y-407113D01*
X-39028Y-407482D01*
X-38826Y-407967D01*
X-38830Y-408493D01*
X-39038Y-408976D01*
X-39417Y-409340D01*
X-39908Y-409527D01*
X-40436Y-409544D01*
X-73777Y-409544D01*
X-74299Y-409481D01*
X-74757Y-409223D01*
X-75080Y-408808D01*
X-75214Y-408300D01*
X-75140Y-407779D01*
X-74869Y-407329D01*
X-74444Y-407019D01*
X-73933Y-406900D01*
X-71287Y-406899D01*
X-70849Y-406808D01*
X-70839Y-403633D01*
X-70792Y-403106D01*
X-70708Y-402583D01*
X-70586Y-402068D01*
X-70428Y-401563D01*
X-70233Y-401071D01*
X-70004Y-400595D01*
X-69741Y-400135D01*
X-69446Y-399696D01*
X-69121Y-399279D01*
X-68767Y-398886D01*
X-68386Y-398519D01*
X-67979Y-398180D01*
X-67550Y-397871D01*
X-67100Y-397593D01*
X-66631Y-397348D01*
X-66146Y-397137D01*
X-65647Y-396961D01*
X-65136Y-396822D01*
X-64773Y-396588D01*
X-64772Y-395001D01*
X-64746Y-394472D01*
X-64685Y-393947D01*
X-64587Y-393427D01*
X-64455Y-392914D01*
X-64287Y-392413D01*
X-64086Y-391923D01*
X-63851Y-391449D01*
X-64184Y-391192D01*
X-65145Y-390749D01*
X-66076Y-390247D01*
X-66973Y-389685D01*
X-67832Y-389066D01*
X-68646Y-388391D01*
X-69411Y-387660D01*
X-69774Y-387274D01*
X-70455Y-386464D01*
X-71073Y-385606D01*
X-71623Y-384701D01*
X-72099Y-383756D01*
X-72307Y-383270D01*
X-72663Y-382274D01*
X-72809Y-381765D01*
X-72934Y-381251D01*
X-73036Y-380731D01*
X-73116Y-380208D01*
X-73173Y-379682D01*
X-73207Y-379154D01*
X-73219Y-378625D01*
X-73203Y-378096D01*
X-73154Y-377569D01*
X-73074Y-377046D01*
X-72966Y-376528D01*
X-72832Y-376016D01*
X-72675Y-375511D01*
X-72496Y-375013D01*
X-72080Y-374040D01*
X-71847Y-373565D01*
X-71337Y-372638D01*
X-70775Y-371741D01*
X-70167Y-370874D01*
X-69520Y-370037D01*
X-68836Y-369230D01*
X-68113Y-368457D01*
X-67729Y-368093D01*
X-53286Y-397136D02*
X-54105Y-409267D01*
X-61894Y-409375D02*
X-61074Y-400507D01*
X35800Y-362206D02*
X36050Y-361739D01*
X36320Y-361283D01*
X36609Y-360840D01*
X36918Y-360410D01*
X37246Y-359993D01*
X37591Y-359592D01*
X37952Y-359205D01*
X38331Y-358834D01*
X38724Y-358480D01*
X39133Y-358143D01*
X39556Y-357824D01*
X39992Y-357524D01*
X40440Y-357242D01*
X40900Y-356980D01*
X41372Y-356738D01*
X41853Y-356518D01*
X42344Y-356318D01*
X42843Y-356141D01*
X42941Y-355700D01*
X42948Y-355170D01*
X42997Y-354643D01*
X43087Y-354121D01*
X43218Y-353608D01*
X43389Y-353107D01*
X43599Y-352621D01*
X43846Y-352153D01*
X44130Y-351706D01*
X44448Y-351282D01*
X44798Y-350885D01*
X45179Y-350517D01*
X45587Y-350180D01*
X46021Y-349876D01*
X46477Y-349607D01*
X46953Y-349375D01*
X47445Y-349181D01*
X47951Y-349025D01*
X48468Y-348910D01*
X48992Y-348835D01*
X49521Y-348802D01*
X50050Y-348811D01*
X50577Y-348862D01*
X51099Y-348955D01*
X51611Y-349088D01*
X52112Y-349260D01*
X52597Y-349472D01*
X53065Y-349720D01*
X53512Y-350004D01*
X53935Y-350322D01*
X54332Y-350673D01*
X54700Y-351053D01*
X55037Y-351461D01*
X55341Y-351895D01*
X55609Y-352351D01*
X55841Y-352828D01*
X56034Y-353321D01*
X59174Y-362881D01*
X59560Y-361975D01*
X59784Y-361495D01*
X60290Y-360565D01*
X60870Y-359679D01*
X61521Y-358844D01*
X61871Y-358447D01*
X62620Y-357698D01*
X63017Y-357348D01*
X63853Y-356698D01*
X64741Y-356120D01*
X65202Y-355859D01*
X66154Y-355397D01*
X67142Y-355016D01*
X91800Y-346921D01*
X92324Y-346887D01*
X92820Y-347062D01*
X93207Y-347418D01*
X93429Y-347897D01*
X93922Y-349407D01*
X94193Y-350431D01*
X94377Y-351473D01*
X94474Y-352528D01*
X94483Y-353587D01*
X94404Y-354643D01*
X94239Y-355689D01*
X94125Y-356206D01*
X93832Y-357224D01*
X93457Y-358214D01*
X93002Y-359170D01*
X92745Y-359633D01*
X92174Y-360525D01*
X91861Y-360952D01*
X91689Y-361417D01*
X91701Y-362476D01*
X91673Y-363005D01*
X91551Y-364057D01*
X91342Y-365095D01*
X91205Y-365607D01*
X90868Y-366611D01*
X90450Y-367583D01*
X89953Y-368518D01*
X89380Y-369409D01*
X88737Y-370250D01*
X88026Y-371036D01*
X87647Y-371406D01*
X86845Y-372097D01*
X86423Y-372417D01*
X85541Y-373003D01*
X85083Y-373268D01*
X84613Y-373513D01*
X83646Y-373944D01*
X82647Y-374297D01*
X65036Y-380080D01*
X64943Y-380453D01*
X74194Y-408632D01*
X74308Y-409147D01*
X74218Y-409665D01*
X73932Y-410107D01*
X73495Y-410399D01*
X72978Y-410496D01*
X72464Y-410381D01*
X72038Y-410073D01*
X71767Y-409622D01*
X68463Y-399558D01*
X68197Y-399228D01*
X67676Y-399322D01*
X67151Y-399393D01*
X66624Y-399442D01*
X66095Y-399467D01*
X65565Y-399468D01*
X65036Y-399446D01*
X64508Y-399400D01*
X63983Y-399331D01*
X63462Y-399240D01*
X62945Y-399125D01*
X62433Y-398988D01*
X61928Y-398828D01*
X61430Y-398647D01*
X60941Y-398445D01*
X60461Y-398222D01*
X59990Y-397978D01*
X59531Y-397715D01*
X59083Y-397432D01*
X58648Y-397130D01*
X58227Y-396810D01*
X57820Y-396471D01*
X57428Y-396114D01*
X57052Y-395741D01*
X56693Y-395352D01*
X56352Y-394947D01*
X56029Y-394527D01*
X55441Y-393710D01*
X54246Y-396073D01*
X54874Y-396883D01*
X55160Y-397329D01*
X55401Y-397801D01*
X55597Y-398292D01*
X55689Y-398811D01*
X55570Y-399323D01*
X55260Y-399748D01*
X54807Y-400015D01*
X54285Y-400083D01*
X53779Y-399940D01*
X53370Y-399609D01*
X53124Y-399144D01*
X52908Y-398661D01*
X52609Y-398225D01*
X52236Y-397850D01*
X51802Y-397548D01*
X51321Y-397328D01*
X50809Y-397196D01*
X50281Y-397159D01*
X49755Y-397218D01*
X49243Y-397352D01*
X48717Y-397338D01*
X48240Y-397118D01*
X47887Y-396728D01*
X47717Y-396230D01*
X47757Y-395705D01*
X48000Y-395239D01*
X48408Y-394906D01*
X48907Y-394733D01*
X49424Y-394620D01*
X49950Y-394557D01*
X50479Y-394545D01*
X51007Y-394583D01*
X51529Y-394673D01*
X52001Y-394719D01*
X53913Y-390938D01*
X54052Y-390457D01*
X43645Y-358755D01*
X43221Y-358784D01*
X42732Y-358989D01*
X42256Y-359222D01*
X41794Y-359480D01*
X41347Y-359763D01*
X40915Y-360070D01*
X40501Y-360400D01*
X40106Y-360753D01*
X39731Y-361127D01*
X39377Y-361520D01*
X39044Y-361933D01*
X38736Y-362363D01*
X38451Y-362810D01*
X38193Y-363272D01*
X37902Y-363711D01*
X37465Y-364005D01*
X36949Y-364104D01*
X36435Y-363991D01*
X36007Y-363685D01*
X35735Y-363234D01*
X35662Y-362714D01*
X35800Y-362206D01*
X10326Y-392197D02*
X9506Y-407799D01*
X-7754Y-408004D02*
X-6934Y-396695D01*
X19448Y-372885D02*
X21569Y-372998D01*
X19448Y-372885D02*
X17861Y-372757D01*
X16804Y-372651D01*
X14697Y-372388D01*
X12600Y-372053D01*
X10517Y-371639D01*
X9483Y-371398D01*
X8455Y-371134D01*
X6926Y-370688D01*
X5917Y-370356D01*
X4418Y-369817D01*
X3910Y-369663D01*
X3396Y-369530D01*
X2877Y-369419D01*
X2354Y-369330D01*
X1827Y-369263D01*
X1298Y-369218D01*
X768Y-369196D01*
X237Y-369196D01*
X-293Y-369218D01*
X-822Y-369263D01*
X-1349Y-369330D01*
X-1872Y-369419D01*
X-2391Y-369530D01*
X-2905Y-369663D01*
X-3413Y-369817D01*
X-4912Y-370355D01*
X-5921Y-370688D01*
X-7450Y-371133D01*
X-8478Y-371398D01*
X-9512Y-371638D01*
X-11595Y-372053D01*
X-13692Y-372388D01*
X-15799Y-372651D01*
X-16856Y-372757D01*
X-18443Y-372885D01*
X-20564Y-372998D01*
X-28835Y-394837D02*
X-28092Y-396240D01*
X-28835Y-394837D02*
X-29289Y-393881D01*
X-29905Y-392418D01*
X-30266Y-391423D01*
X-30584Y-390414D01*
X-30854Y-389391D01*
X-31070Y-388354D01*
X-31223Y-387307D01*
X-31302Y-386252D01*
X-31309Y-385723D01*
X-31293Y-385194D01*
X-31249Y-384667D01*
X-31175Y-384143D01*
X-31067Y-383625D01*
X-30921Y-383116D01*
X-30733Y-382622D01*
X-30497Y-382148D01*
X-30212Y-381703D01*
X-29874Y-381296D01*
X-29485Y-380938D01*
X-29051Y-380636D01*
X-28579Y-380398D01*
X-28078Y-380228D01*
X-27559Y-380127D01*
X-27032Y-380092D01*
X-26503Y-380117D01*
X-25980Y-380196D01*
X-25466Y-380321D01*
X-24963Y-380486D01*
X-24473Y-380684D01*
X-23995Y-380912D01*
X-23530Y-381165D01*
X-23078Y-381439D01*
X-22209Y-382044D01*
X-21793Y-382370D01*
X-20992Y-383062D01*
X-20607Y-383425D01*
X-19866Y-384181D01*
X-19510Y-384572D01*
X-18825Y-385379D01*
X-17862Y-386641D01*
X-16972Y-387956D01*
X-16152Y-389315D01*
X-15896Y-389778D01*
X-15430Y-390728D01*
X-15400Y-390342D01*
X-15397Y-387696D01*
X-15378Y-387167D01*
X-15288Y-386113D01*
X-15216Y-385588D01*
X-15021Y-384548D01*
X-14758Y-383523D01*
X-14426Y-382519D01*
X-14028Y-381538D01*
X-13804Y-381058D01*
X-13896Y-380710D01*
X-15353Y-380081D01*
X-16773Y-379370D01*
X-17693Y-378848D01*
X-18144Y-378571D01*
X-19026Y-377986D01*
X-19455Y-377677D01*
X-20288Y-377024D01*
X-21081Y-376324D01*
X-21828Y-375574D01*
X-22520Y-374773D01*
X-23148Y-373922D01*
X-23435Y-373477D01*
X-23703Y-373020D01*
X-23949Y-372552D01*
X-24171Y-372072D01*
X-24371Y-371582D01*
X-24545Y-371082D01*
X-24693Y-370574D01*
X-24813Y-370059D01*
X-24904Y-369537D01*
X-24965Y-369012D01*
X-24996Y-368484D01*
X-24998Y-367955D01*
X-24969Y-367426D01*
X-25137Y-366999D01*
X-25554Y-366673D01*
X-25952Y-366324D01*
X-26331Y-365955D01*
X-26689Y-365565D01*
X-27025Y-365157D01*
X-27339Y-364731D01*
X-27629Y-364288D01*
X-27894Y-363830D01*
X-28135Y-363359D01*
X-28350Y-362875D01*
X-28537Y-362381D01*
X-28698Y-361877D01*
X-28831Y-361365D01*
X-28936Y-360846D01*
X-29012Y-360322D01*
X-29060Y-359795D01*
X-29078Y-359266D01*
X-29068Y-358737D01*
X-29029Y-358210D01*
X-28961Y-357685D01*
X-28865Y-357165D01*
X-28740Y-356650D01*
X-28587Y-356144D01*
X-28406Y-355646D01*
X-28199Y-355160D01*
X-27965Y-354685D01*
X-27705Y-354224D01*
X-27421Y-353778D01*
X-27113Y-353347D01*
X-26782Y-352934D01*
X-26430Y-352540D01*
X-26056Y-352165D01*
X-25663Y-351811D01*
X-25251Y-351479D01*
X-24822Y-351169D01*
X-24377Y-350883D01*
X-23916Y-350622D01*
X-23443Y-350387D01*
X-22957Y-350178D01*
X-22460Y-349995D01*
X-21954Y-349841D01*
X-21440Y-349714D01*
X-20920Y-349616D01*
X-20396Y-349546D01*
X-19868Y-349505D01*
X-19339Y-349493D01*
X-18810Y-349510D01*
X-18283Y-349556D01*
X-17759Y-349631D01*
X-17240Y-349734D01*
X-16728Y-349866D01*
X-16224Y-350026D01*
X-15729Y-350213D01*
X-15245Y-350427D01*
X-14773Y-350666D01*
X-14314Y-350931D01*
X-13871Y-351220D01*
X-13444Y-351532D01*
X-13034Y-351867D01*
X-12643Y-352223D01*
X-12271Y-352600D01*
X-11921Y-352996D01*
X-11593Y-353411D01*
X-11287Y-353843D01*
X-11006Y-354292D01*
X-10678Y-354584D01*
X-9656Y-354309D01*
X-8109Y-353952D01*
X-6549Y-353658D01*
X-4978Y-353427D01*
X-3927Y-353305D01*
X-2345Y-353173D01*
X-759Y-353098D01*
X828Y-353081D01*
X2415Y-353122D01*
X4000Y-353220D01*
X5580Y-353377D01*
X6629Y-353514D01*
X8196Y-353771D01*
X9234Y-353977D01*
X10779Y-354339D01*
X11800Y-354618D01*
X12361Y-353742D01*
X12671Y-353313D01*
X13005Y-352903D01*
X13360Y-352510D01*
X13736Y-352138D01*
X14132Y-351787D01*
X14545Y-351457D01*
X14977Y-351150D01*
X15424Y-350867D01*
X15885Y-350608D01*
X16360Y-350375D01*
X16847Y-350167D01*
X17344Y-349987D01*
X17850Y-349833D01*
X18364Y-349708D01*
X18885Y-349611D01*
X19409Y-349542D01*
X19937Y-349503D01*
X20466Y-349493D01*
X20995Y-349512D01*
X21522Y-349560D01*
X22045Y-349636D01*
X22564Y-349741D01*
X23076Y-349874D01*
X23580Y-350035D01*
X24075Y-350224D01*
X24558Y-350439D01*
X25029Y-350681D01*
X25486Y-350948D01*
X25927Y-351239D01*
X26352Y-351554D01*
X26760Y-351891D01*
X27149Y-352250D01*
X27518Y-352630D01*
X27865Y-353029D01*
X28191Y-353446D01*
X28493Y-353880D01*
X28772Y-354330D01*
X29026Y-354794D01*
X29253Y-355272D01*
X29455Y-355761D01*
X29629Y-356261D01*
X29775Y-356769D01*
X29894Y-357285D01*
X29983Y-357807D01*
X30044Y-358332D01*
X30077Y-358860D01*
X30080Y-359389D01*
X30055Y-359918D01*
X30001Y-360444D01*
X29918Y-360967D01*
X29807Y-361484D01*
X29668Y-361995D01*
X29500Y-362497D01*
X29306Y-362989D01*
X29086Y-363470D01*
X28839Y-363938D01*
X28568Y-364392D01*
X28272Y-364831D01*
X27953Y-365254D01*
X27612Y-365658D01*
X27249Y-366043D01*
X26866Y-366408D01*
X26463Y-366751D01*
X26042Y-367072D01*
X25984Y-367549D01*
X26006Y-368078D01*
X25997Y-368607D01*
X25959Y-369135D01*
X25891Y-369660D01*
X25794Y-370180D01*
X25668Y-370694D01*
X25514Y-371200D01*
X25334Y-371698D01*
X25128Y-372185D01*
X24899Y-372662D01*
X24648Y-373128D01*
X24376Y-373582D01*
X24084Y-374023D01*
X23448Y-374869D01*
X23106Y-375272D01*
X22379Y-376042D01*
X21997Y-376407D01*
X21198Y-377102D01*
X20784Y-377431D01*
X19930Y-378056D01*
X19045Y-378636D01*
X18133Y-379174D01*
X16725Y-379907D01*
X15763Y-380348D01*
X14786Y-380755D01*
X14862Y-381168D01*
X15285Y-382138D01*
X15642Y-383134D01*
X15932Y-384152D01*
X16154Y-385187D01*
X16238Y-385709D01*
X16355Y-386761D01*
X16402Y-387818D01*
X16404Y-390464D01*
X16485Y-390615D01*
X16958Y-389668D01*
X17217Y-389207D01*
X18042Y-387851D01*
X18631Y-386971D01*
X19252Y-386115D01*
X20247Y-384877D01*
X20954Y-384090D01*
X21321Y-383709D01*
X22086Y-382978D01*
X22484Y-382629D01*
X23312Y-381969D01*
X23743Y-381662D01*
X24185Y-381373D01*
X24641Y-381103D01*
X25109Y-380856D01*
X25589Y-380635D01*
X26083Y-380444D01*
X26589Y-380289D01*
X27105Y-380174D01*
X27630Y-380107D01*
X28159Y-380095D01*
X28685Y-380145D01*
X29201Y-380262D01*
X29696Y-380448D01*
X30160Y-380702D01*
X30584Y-381017D01*
X30961Y-381388D01*
X31286Y-381805D01*
X31560Y-382258D01*
X31783Y-382737D01*
X31961Y-383236D01*
X32098Y-383747D01*
X32197Y-384266D01*
X32264Y-384791D01*
X32301Y-385319D01*
X32312Y-385848D01*
X32299Y-386377D01*
X32264Y-386905D01*
X32138Y-387956D01*
X32049Y-388478D01*
X31827Y-389512D01*
X31551Y-390534D01*
X31228Y-391542D01*
X30663Y-393025D01*
X30239Y-393995D01*
X29781Y-394949D01*
X29032Y-396349D01*
X28761Y-396803D01*
X28176Y-397685D01*
X27865Y-398113D01*
X27210Y-398945D01*
X26162Y-400137D01*
X25426Y-400898D01*
X24666Y-401634D01*
X23885Y-402348D01*
X23085Y-403041D01*
X22269Y-403715D01*
X21438Y-404370D01*
X19736Y-405629D01*
X19885Y-405749D01*
X27294Y-405749D01*
X27821Y-405778D01*
X28303Y-405987D01*
X28665Y-406369D01*
X28848Y-406861D01*
X28824Y-407387D01*
X28595Y-407860D01*
X28200Y-408206D01*
X27701Y-408370D01*
X27172Y-408379D01*
X-26278Y-408379D01*
X-26806Y-408352D01*
X-27288Y-408144D01*
X-27652Y-407764D01*
X-27837Y-407272D01*
X-27815Y-406747D01*
X-27588Y-406272D01*
X-27194Y-405924D01*
X-26695Y-405759D01*
X-18758Y-405749D01*
X-18837Y-405556D01*
X-20535Y-404293D01*
X-21365Y-403636D01*
X-22180Y-402960D01*
X-23369Y-401909D01*
X-24513Y-400808D01*
X-25602Y-399653D01*
X-26289Y-398848D01*
X-26619Y-398434D01*
X-27247Y-397582D01*
X-27543Y-397144D01*
X-28092Y-396240D01*
X-57031Y-378988D02*
X-57549Y-379103D01*
X-57031Y-378988D02*
X-56509Y-379085D01*
X-56031Y-379323D01*
X-55577Y-379605D01*
X-55155Y-379932D01*
X-54778Y-380311D01*
X-54469Y-380746D01*
X-54258Y-381235D01*
X-54173Y-381761D01*
X-54255Y-382286D01*
X-54537Y-382736D01*
X-54973Y-383039D01*
X-55492Y-383146D01*
X-56013Y-383041D01*
X-56449Y-382739D01*
X-56991Y-381852D01*
X-57270Y-382248D01*
X-57538Y-382706D01*
X-57964Y-383023D01*
X-58480Y-383146D01*
X-59003Y-383056D01*
X-59449Y-382768D01*
X-59746Y-382328D01*
X-59845Y-381806D01*
X-59772Y-381278D01*
X-59570Y-380785D01*
X-59268Y-380345D01*
X-58896Y-379962D01*
X-58477Y-379631D01*
X-58026Y-379345D01*
X-57549Y-379103D01*
X-66866Y-367481D02*
X-67729Y-368093D01*
X-66866Y-367481D02*
X-67776Y-365570D01*
X-68850Y-363151D01*
X-69873Y-360711D01*
X-70629Y-358734D01*
X-70976Y-357734D01*
X-71298Y-356726D01*
X-71724Y-355197D01*
X-71962Y-354166D01*
X-72063Y-353646D01*
X-72225Y-352600D01*
X-72319Y-351546D01*
X-72334Y-351017D01*
X-72323Y-350488D01*
X-72281Y-349961D01*
X-72205Y-349437D01*
X-72087Y-348922D01*
X-71921Y-348419D01*
X-71700Y-347939D01*
X-71422Y-347489D01*
X-71086Y-347081D01*
X-70695Y-346724D01*
X-70257Y-346429D01*
X-69781Y-346199D01*
X-69278Y-346036D01*
X-68757Y-345943D01*
X-68229Y-345926D01*
X-67704Y-345985D01*
X-67192Y-346119D01*
X-66703Y-346320D01*
X-66243Y-346581D01*
X-65814Y-346891D01*
X-65416Y-347240D01*
X-65048Y-347619D01*
X-64705Y-348022D01*
X-64387Y-348445D01*
X-64089Y-348882D01*
X-63548Y-349792D01*
X-63300Y-350259D01*
X-62845Y-351215D01*
X-62242Y-352683D01*
X-61715Y-354181D01*
X-61399Y-355191D01*
X-61106Y-356208D01*
X-60579Y-358258D01*
X-60105Y-360321D01*
X-59770Y-361873D01*
X-59268Y-364471D01*
X-58953Y-364694D01*
X-58426Y-364648D01*
X-57369Y-364599D01*
X-56311Y-364608D01*
X-55255Y-364676D01*
X-54783Y-364659D01*
X-54495Y-363098D01*
X-54178Y-361542D01*
X-53722Y-359475D01*
X-53360Y-357929D01*
X-52963Y-356392D01*
X-52674Y-355374D01*
X-52362Y-354363D01*
X-52024Y-353360D01*
X-51655Y-352368D01*
X-51251Y-351390D01*
X-50804Y-350430D01*
X-50561Y-349960D01*
X-50032Y-349044D01*
X-49741Y-348601D01*
X-49431Y-348173D01*
X-49097Y-347762D01*
X-48738Y-347374D01*
X-48351Y-347013D01*
X-47934Y-346688D01*
X-47485Y-346408D01*
X-47006Y-346184D01*
X-46501Y-346025D01*
X-45980Y-345938D01*
X-45451Y-345928D01*
X-44927Y-345994D01*
X-44416Y-346132D01*
X-43929Y-346338D01*
X-43476Y-346610D01*
X-43067Y-346946D01*
X-42711Y-347336D01*
X-42411Y-347772D01*
X-42170Y-348243D01*
X-41985Y-348738D01*
X-41851Y-349250D01*
X-41760Y-349771D01*
X-41707Y-350298D01*
X-41685Y-350826D01*
X-41691Y-351355D01*
X-41770Y-352411D01*
X-41921Y-353458D01*
X-42127Y-354496D01*
X-42378Y-355524D01*
X-42820Y-357049D01*
X-43325Y-358554D01*
X-43879Y-360042D01*
X-44474Y-361514D01*
X-45514Y-363947D01*
X-46384Y-365877D01*
X-47068Y-367310D01*
X-46871Y-367670D01*
X-46021Y-368300D01*
X-45216Y-368987D01*
X-44460Y-369728D01*
X-44103Y-370118D01*
X-43433Y-370937D01*
X-42828Y-371805D01*
X-42292Y-372718D01*
X-42052Y-373189D01*
X-41631Y-374160D01*
X-41451Y-374658D01*
X-41292Y-375162D01*
X-41155Y-375673D01*
X-41040Y-376190D01*
X-40947Y-376711D01*
X-40876Y-377235D01*
X-40828Y-377762D01*
X-40803Y-378291D01*
X-40800Y-378820D01*
X-40821Y-379349D01*
X-40864Y-379876D01*
X-40929Y-380401D01*
X-41017Y-380923D01*
X-41127Y-381441D01*
X-41260Y-381953D01*
X-41414Y-382459D01*
X-41785Y-383450D01*
X-42001Y-383933D01*
X-42490Y-384871D01*
X-43053Y-385767D01*
X-43684Y-386617D01*
X-44022Y-387024D01*
X-44743Y-387798D01*
X-45124Y-388166D01*
X-45923Y-388859D01*
X-46768Y-389496D01*
X-47654Y-390076D01*
X-48575Y-390597D01*
X-49047Y-390835D01*
X-50013Y-391268D01*
X-50077Y-391622D01*
X-49854Y-392102D01*
X-49665Y-392596D01*
X-49510Y-393102D01*
X-49391Y-393617D01*
X-49306Y-394140D01*
X-49258Y-394667D01*
X-49245Y-396254D01*
X-49209Y-396754D01*
X-48693Y-396869D01*
X-48186Y-397022D01*
X-47692Y-397210D01*
X-47212Y-397434D01*
X-46750Y-397691D01*
X-46307Y-397981D01*
X-45886Y-398302D01*
X-45489Y-398651D01*
X-45118Y-399028D01*
X-44774Y-399430D01*
X-44460Y-399855D01*
X-44176Y-400302D01*
X-43925Y-400768D01*
X-43709Y-401251D01*
X-43528Y-401748D01*
X-43383Y-402257D01*
X-43275Y-402775D01*
X-43204Y-403299D01*
X-43172Y-403827D01*
X-43169Y-406473D01*
X-43066Y-406899D01*
X-40420Y-406899D01*
X-39892Y-406920D01*
X-39403Y-407113D01*
X-39028Y-407482D01*
X-38826Y-407967D01*
X-38830Y-408493D01*
X-39038Y-408976D01*
X-39417Y-409340D01*
X-39908Y-409527D01*
X-40436Y-409544D01*
X-73777Y-409544D01*
X-74299Y-409481D01*
X-74757Y-409223D01*
X-75080Y-408808D01*
X-75214Y-408300D01*
X-75140Y-407779D01*
X-74869Y-407329D01*
X-74444Y-407019D01*
X-73933Y-406900D01*
X-71287Y-406899D01*
X-70849Y-406808D01*
X-70839Y-403633D01*
X-70792Y-403106D01*
X-70708Y-402583D01*
X-70586Y-402068D01*
X-70428Y-401563D01*
X-70233Y-401071D01*
X-70004Y-400595D01*
X-69741Y-400135D01*
X-69446Y-399696D01*
X-69121Y-399279D01*
X-68767Y-398886D01*
X-68386Y-398519D01*
X-67979Y-398180D01*
X-67550Y-397871D01*
X-67100Y-397593D01*
X-66631Y-397348D01*
X-66146Y-397137D01*
X-65647Y-396961D01*
X-65136Y-396822D01*
X-64773Y-396588D01*
X-64772Y-395001D01*
X-64746Y-394472D01*
X-64685Y-393947D01*
X-64587Y-393427D01*
X-64455Y-392914D01*
X-64287Y-392413D01*
X-64086Y-391923D01*
X-63851Y-391449D01*
X-64184Y-391192D01*
X-65145Y-390749D01*
X-66076Y-390247D01*
X-66973Y-389685D01*
X-67832Y-389066D01*
X-68646Y-388391D01*
X-69411Y-387660D01*
X-69774Y-387274D01*
X-70455Y-386464D01*
X-71073Y-385606D01*
X-71623Y-384701D01*
X-72099Y-383756D01*
X-72307Y-383270D01*
X-72663Y-382274D01*
X-72809Y-381765D01*
X-72934Y-381251D01*
X-73036Y-380731D01*
X-73116Y-380208D01*
X-73173Y-379682D01*
X-73207Y-379154D01*
X-73219Y-378625D01*
X-73203Y-378096D01*
X-73154Y-377569D01*
X-73074Y-377046D01*
X-72966Y-376528D01*
X-72832Y-376016D01*
X-72675Y-375511D01*
X-72496Y-375013D01*
X-72080Y-374040D01*
X-71847Y-373565D01*
X-71337Y-372638D01*
X-70775Y-371741D01*
X-70167Y-370874D01*
X-69520Y-370037D01*
X-68836Y-369230D01*
X-68113Y-368457D01*
X-67729Y-368093D01*
X-53286Y-397136D02*
X-54105Y-409267D01*
X-61894Y-409375D02*
X-61074Y-400507D01*
M02*
