G04 EAGLE Gerber RS-274X export*
G75*
%MOMM*%
%FSLAX34Y34*%
%LPD*%
%INSolderpaste Top*%
%IPPOS*%
%AMOC8*
5,1,8,0,0,1.08239X$1,22.5*%
G01*
%ADD10R,1.100000X1.000000*%
%ADD11R,1.000000X1.100000*%
%ADD12C,0.300000*%
%ADD13R,0.630000X0.830000*%
%ADD14R,0.750000X0.400000*%
%ADD15R,1.350000X0.400000*%
%ADD16R,1.800000X1.800000*%
%ADD17R,2.300000X1.300000*%
%ADD18R,1.600000X1.600000*%
%ADD19R,1.200000X1.600000*%
%ADD20R,1.250000X0.600000*%
%ADD21R,3.800000X1.200000*%
%ADD22R,1.400000X1.450000*%
%ADD23R,0.600000X1.000000*%
%ADD24R,0.850000X0.950000*%
%ADD25R,1.200000X0.280000*%
%ADD26R,0.280000X1.200000*%
%ADD27R,2.400000X0.760000*%
%ADD28R,0.900000X0.750000*%
%ADD29R,3.200000X1.200000*%
%ADD30R,3.812800X3.000000*%

G36*
X-112956Y307459D02*
X-112956Y307459D01*
X-112956Y307460D01*
X-112956Y311680D01*
X-112959Y311684D01*
X-112960Y311684D01*
X-119210Y311684D01*
X-119214Y311681D01*
X-119214Y311680D01*
X-119214Y307460D01*
X-119211Y307456D01*
X-119210Y307456D01*
X-112960Y307456D01*
X-112956Y307459D01*
G37*
G36*
X-163756Y-130021D02*
X-163756Y-130021D01*
X-163756Y-130020D01*
X-163756Y-125800D01*
X-163759Y-125796D01*
X-163760Y-125796D01*
X-170010Y-125796D01*
X-170014Y-125799D01*
X-170014Y-125800D01*
X-170014Y-130020D01*
X-170011Y-130024D01*
X-170010Y-130024D01*
X-163760Y-130024D01*
X-163756Y-130021D01*
G37*
G36*
X398044Y7789D02*
X398044Y7789D01*
X398044Y7790D01*
X398044Y14040D01*
X398041Y14044D01*
X398040Y14044D01*
X393820Y14044D01*
X393816Y14041D01*
X393816Y14040D01*
X393816Y7790D01*
X393819Y7786D01*
X393820Y7786D01*
X398040Y7786D01*
X398044Y7789D01*
G37*
G36*
X389824Y-8961D02*
X389824Y-8961D01*
X389824Y-8960D01*
X389824Y-2710D01*
X389821Y-2706D01*
X389820Y-2706D01*
X385600Y-2706D01*
X385596Y-2709D01*
X385596Y-2710D01*
X385596Y-8960D01*
X385599Y-8964D01*
X385600Y-8964D01*
X389820Y-8964D01*
X389824Y-8961D01*
G37*
G36*
X-4426Y374529D02*
X-4426Y374529D01*
X-4426Y374530D01*
X-4426Y378750D01*
X-4429Y378754D01*
X-4430Y378754D01*
X-10680Y378754D01*
X-10684Y378751D01*
X-10684Y378750D01*
X-10684Y374530D01*
X-10681Y374526D01*
X-10680Y374526D01*
X-4430Y374526D01*
X-4426Y374529D01*
G37*
G36*
X12324Y374529D02*
X12324Y374529D01*
X12324Y374530D01*
X12324Y378750D01*
X12321Y378754D01*
X12320Y378754D01*
X6070Y378754D01*
X6066Y378751D01*
X6066Y378750D01*
X6066Y374530D01*
X6069Y374526D01*
X6070Y374526D01*
X12320Y374526D01*
X12324Y374529D01*
G37*
G36*
X-4426Y366309D02*
X-4426Y366309D01*
X-4426Y366310D01*
X-4426Y370530D01*
X-4429Y370534D01*
X-4430Y370534D01*
X-10680Y370534D01*
X-10684Y370531D01*
X-10684Y370530D01*
X-10684Y366310D01*
X-10681Y366306D01*
X-10680Y366306D01*
X-4430Y366306D01*
X-4426Y366309D01*
G37*
G36*
X12324Y366309D02*
X12324Y366309D01*
X12324Y366310D01*
X12324Y370530D01*
X12321Y370534D01*
X12320Y370534D01*
X6070Y370534D01*
X6066Y370531D01*
X6066Y370530D01*
X6066Y366310D01*
X6069Y366306D01*
X6070Y366306D01*
X12320Y366306D01*
X12324Y366309D01*
G37*
G36*
X398044Y-8961D02*
X398044Y-8961D01*
X398044Y-8960D01*
X398044Y-2710D01*
X398041Y-2706D01*
X398040Y-2706D01*
X393820Y-2706D01*
X393816Y-2709D01*
X393816Y-2710D01*
X393816Y-8960D01*
X393819Y-8964D01*
X393820Y-8964D01*
X398040Y-8964D01*
X398044Y-8961D01*
G37*
G36*
X-383706Y-17661D02*
X-383706Y-17661D01*
X-383706Y-17660D01*
X-383706Y-13440D01*
X-383709Y-13436D01*
X-383710Y-13436D01*
X-389960Y-13436D01*
X-389964Y-13439D01*
X-389964Y-13440D01*
X-389964Y-17660D01*
X-389961Y-17664D01*
X-389960Y-17664D01*
X-383710Y-17664D01*
X-383706Y-17661D01*
G37*
G36*
X-366956Y-17661D02*
X-366956Y-17661D01*
X-366956Y-17660D01*
X-366956Y-13440D01*
X-366959Y-13436D01*
X-366960Y-13436D01*
X-373210Y-13436D01*
X-373214Y-13439D01*
X-373214Y-13440D01*
X-373214Y-17660D01*
X-373211Y-17664D01*
X-373210Y-17664D01*
X-366960Y-17664D01*
X-366956Y-17661D01*
G37*
G36*
X-383706Y-25881D02*
X-383706Y-25881D01*
X-383706Y-25880D01*
X-383706Y-21660D01*
X-383709Y-21656D01*
X-383710Y-21656D01*
X-389960Y-21656D01*
X-389964Y-21659D01*
X-389964Y-21660D01*
X-389964Y-25880D01*
X-389961Y-25884D01*
X-389960Y-25884D01*
X-383710Y-25884D01*
X-383706Y-25881D01*
G37*
G36*
X-366956Y-25881D02*
X-366956Y-25881D01*
X-366956Y-25880D01*
X-366956Y-21660D01*
X-366959Y-21656D01*
X-366960Y-21656D01*
X-373210Y-21656D01*
X-373214Y-21659D01*
X-373214Y-21660D01*
X-373214Y-25880D01*
X-373211Y-25884D01*
X-373210Y-25884D01*
X-366960Y-25884D01*
X-366956Y-25881D01*
G37*
G36*
X-180506Y-121801D02*
X-180506Y-121801D01*
X-180506Y-121800D01*
X-180506Y-117580D01*
X-180509Y-117576D01*
X-180510Y-117576D01*
X-186760Y-117576D01*
X-186764Y-117579D01*
X-186764Y-117580D01*
X-186764Y-121800D01*
X-186761Y-121804D01*
X-186760Y-121804D01*
X-180510Y-121804D01*
X-180506Y-121801D01*
G37*
G36*
X-163756Y-121801D02*
X-163756Y-121801D01*
X-163756Y-121800D01*
X-163756Y-117580D01*
X-163759Y-117576D01*
X-163760Y-117576D01*
X-170010Y-117576D01*
X-170014Y-117579D01*
X-170014Y-117580D01*
X-170014Y-121800D01*
X-170011Y-121804D01*
X-170010Y-121804D01*
X-163760Y-121804D01*
X-163756Y-121801D01*
G37*
G36*
X-180506Y-130021D02*
X-180506Y-130021D01*
X-180506Y-130020D01*
X-180506Y-125800D01*
X-180509Y-125796D01*
X-180510Y-125796D01*
X-186760Y-125796D01*
X-186764Y-125799D01*
X-186764Y-125800D01*
X-186764Y-130020D01*
X-186761Y-130024D01*
X-186760Y-130024D01*
X-180510Y-130024D01*
X-180506Y-130021D01*
G37*
G36*
X12774Y-392311D02*
X12774Y-392311D01*
X12774Y-392310D01*
X12774Y-388090D01*
X12771Y-388086D01*
X12770Y-388086D01*
X6520Y-388086D01*
X6516Y-388089D01*
X6516Y-388090D01*
X6516Y-392310D01*
X6519Y-392314D01*
X6520Y-392314D01*
X12770Y-392314D01*
X12774Y-392311D01*
G37*
G36*
X-129706Y307459D02*
X-129706Y307459D01*
X-129706Y307460D01*
X-129706Y311680D01*
X-129709Y311684D01*
X-129710Y311684D01*
X-135960Y311684D01*
X-135964Y311681D01*
X-135964Y311680D01*
X-135964Y307460D01*
X-135961Y307456D01*
X-135960Y307456D01*
X-129710Y307456D01*
X-129706Y307459D01*
G37*
G36*
X81114Y299839D02*
X81114Y299839D01*
X81114Y299840D01*
X81114Y304060D01*
X81111Y304064D01*
X81110Y304064D01*
X74860Y304064D01*
X74856Y304061D01*
X74856Y304060D01*
X74856Y299840D01*
X74859Y299836D01*
X74860Y299836D01*
X81110Y299836D01*
X81114Y299839D01*
G37*
G36*
X97864Y299839D02*
X97864Y299839D01*
X97864Y299840D01*
X97864Y304060D01*
X97861Y304064D01*
X97860Y304064D01*
X91610Y304064D01*
X91606Y304061D01*
X91606Y304060D01*
X91606Y299840D01*
X91609Y299836D01*
X91610Y299836D01*
X97860Y299836D01*
X97864Y299839D01*
G37*
G36*
X-112956Y299239D02*
X-112956Y299239D01*
X-112956Y299240D01*
X-112956Y303460D01*
X-112959Y303464D01*
X-112960Y303464D01*
X-119210Y303464D01*
X-119214Y303461D01*
X-119214Y303460D01*
X-119214Y299240D01*
X-119211Y299236D01*
X-119210Y299236D01*
X-112960Y299236D01*
X-112956Y299239D01*
G37*
G36*
X-129706Y299239D02*
X-129706Y299239D01*
X-129706Y299240D01*
X-129706Y303460D01*
X-129709Y303464D01*
X-129710Y303464D01*
X-135960Y303464D01*
X-135964Y303461D01*
X-135964Y303460D01*
X-135964Y299240D01*
X-135961Y299236D01*
X-135960Y299236D01*
X-129710Y299236D01*
X-129706Y299239D01*
G37*
G36*
X97864Y291619D02*
X97864Y291619D01*
X97864Y291620D01*
X97864Y295840D01*
X97861Y295844D01*
X97860Y295844D01*
X91610Y295844D01*
X91606Y295841D01*
X91606Y295840D01*
X91606Y291620D01*
X91609Y291616D01*
X91610Y291616D01*
X97860Y291616D01*
X97864Y291619D01*
G37*
G36*
X81114Y291619D02*
X81114Y291619D01*
X81114Y291620D01*
X81114Y295840D01*
X81111Y295844D01*
X81110Y295844D01*
X74860Y295844D01*
X74856Y295841D01*
X74856Y295840D01*
X74856Y291620D01*
X74859Y291616D01*
X74860Y291616D01*
X81110Y291616D01*
X81114Y291619D01*
G37*
G36*
X389824Y7789D02*
X389824Y7789D01*
X389824Y7790D01*
X389824Y14040D01*
X389821Y14044D01*
X389820Y14044D01*
X385600Y14044D01*
X385596Y14041D01*
X385596Y14040D01*
X385596Y7790D01*
X385599Y7786D01*
X385600Y7786D01*
X389820Y7786D01*
X389824Y7789D01*
G37*
G36*
X-3976Y-392311D02*
X-3976Y-392311D01*
X-3976Y-392310D01*
X-3976Y-388090D01*
X-3979Y-388086D01*
X-3980Y-388086D01*
X-10230Y-388086D01*
X-10234Y-388089D01*
X-10234Y-388090D01*
X-10234Y-392310D01*
X-10231Y-392314D01*
X-10230Y-392314D01*
X-3980Y-392314D01*
X-3976Y-392311D01*
G37*
G36*
X12774Y-400531D02*
X12774Y-400531D01*
X12774Y-400530D01*
X12774Y-396310D01*
X12771Y-396306D01*
X12770Y-396306D01*
X6520Y-396306D01*
X6516Y-396309D01*
X6516Y-396310D01*
X6516Y-400530D01*
X6519Y-400534D01*
X6520Y-400534D01*
X12770Y-400534D01*
X12774Y-400531D01*
G37*
G36*
X-3976Y-400531D02*
X-3976Y-400531D01*
X-3976Y-400530D01*
X-3976Y-396310D01*
X-3979Y-396306D01*
X-3980Y-396306D01*
X-10230Y-396306D01*
X-10234Y-396309D01*
X-10234Y-396310D01*
X-10234Y-400530D01*
X-10231Y-400534D01*
X-10230Y-400534D01*
X-3980Y-400534D01*
X-3976Y-400531D01*
G37*
G36*
X143584Y200779D02*
X143584Y200779D01*
X143584Y200780D01*
X143584Y205000D01*
X143581Y205004D01*
X143580Y205004D01*
X137330Y205004D01*
X137326Y205001D01*
X137326Y205000D01*
X137326Y200780D01*
X137329Y200776D01*
X137330Y200776D01*
X143580Y200776D01*
X143584Y200779D01*
G37*
G36*
X126834Y200779D02*
X126834Y200779D01*
X126834Y200780D01*
X126834Y205000D01*
X126831Y205004D01*
X126830Y205004D01*
X120580Y205004D01*
X120576Y205001D01*
X120576Y205000D01*
X120576Y200780D01*
X120579Y200776D01*
X120580Y200776D01*
X126830Y200776D01*
X126834Y200779D01*
G37*
G36*
X143584Y192559D02*
X143584Y192559D01*
X143584Y192560D01*
X143584Y196780D01*
X143581Y196784D01*
X143580Y196784D01*
X137330Y196784D01*
X137326Y196781D01*
X137326Y196780D01*
X137326Y192560D01*
X137329Y192556D01*
X137330Y192556D01*
X143580Y192556D01*
X143584Y192559D01*
G37*
G36*
X126834Y192559D02*
X126834Y192559D01*
X126834Y192560D01*
X126834Y196780D01*
X126831Y196784D01*
X126830Y196784D01*
X120580Y196784D01*
X120576Y196781D01*
X120576Y196780D01*
X120576Y192560D01*
X120579Y192556D01*
X120580Y192556D01*
X126830Y192556D01*
X126834Y192559D01*
G37*
G36*
X80763Y314969D02*
X80763Y314969D01*
X80764Y314969D01*
X80976Y316065D01*
X81399Y317096D01*
X82017Y318025D01*
X82805Y318813D01*
X83734Y319431D01*
X84765Y319854D01*
X85861Y320066D01*
X85862Y320068D01*
X85864Y320069D01*
X85864Y320070D01*
X85864Y322570D01*
X85861Y322574D01*
X85860Y322574D01*
X85859Y322574D01*
X84202Y322310D01*
X84201Y322310D01*
X82634Y321708D01*
X82634Y321707D01*
X82633Y321707D01*
X81225Y320793D01*
X81225Y320792D01*
X80038Y319605D01*
X80037Y319605D01*
X79123Y318197D01*
X79123Y318196D01*
X79122Y318196D01*
X78520Y316629D01*
X78520Y316628D01*
X78256Y314971D01*
X78256Y314970D01*
X78259Y314966D01*
X78260Y314966D01*
X80760Y314966D01*
X80763Y314969D01*
G37*
G36*
X-130057Y322589D02*
X-130057Y322589D01*
X-130056Y322589D01*
X-129844Y323685D01*
X-129421Y324716D01*
X-128803Y325645D01*
X-128015Y326433D01*
X-127086Y327051D01*
X-126055Y327474D01*
X-124959Y327686D01*
X-124958Y327688D01*
X-124956Y327689D01*
X-124956Y327690D01*
X-124956Y330190D01*
X-124959Y330194D01*
X-124960Y330194D01*
X-124961Y330194D01*
X-126618Y329930D01*
X-126619Y329930D01*
X-128186Y329328D01*
X-128187Y329327D01*
X-129595Y328413D01*
X-129595Y328412D01*
X-130782Y327225D01*
X-130783Y327225D01*
X-131697Y325817D01*
X-131697Y325816D01*
X-131698Y325816D01*
X-132300Y324249D01*
X-132300Y324248D01*
X-132564Y322591D01*
X-132564Y322590D01*
X-132561Y322586D01*
X-132560Y322586D01*
X-130060Y322586D01*
X-130057Y322589D01*
G37*
G36*
X126483Y215909D02*
X126483Y215909D01*
X126484Y215909D01*
X126696Y217005D01*
X127119Y218036D01*
X127737Y218965D01*
X128525Y219753D01*
X129454Y220371D01*
X130485Y220794D01*
X131581Y221006D01*
X131582Y221008D01*
X131584Y221009D01*
X131584Y221010D01*
X131584Y223510D01*
X131581Y223514D01*
X131580Y223514D01*
X131579Y223514D01*
X129922Y223250D01*
X129921Y223250D01*
X128354Y222648D01*
X128354Y222647D01*
X128353Y222647D01*
X126945Y221733D01*
X126945Y221732D01*
X125758Y220545D01*
X125757Y220545D01*
X124843Y219137D01*
X124843Y219136D01*
X124842Y219136D01*
X124240Y217569D01*
X124240Y217568D01*
X123976Y215911D01*
X123976Y215910D01*
X123979Y215906D01*
X123980Y215906D01*
X126480Y215906D01*
X126483Y215909D01*
G37*
G36*
X-384057Y-2531D02*
X-384057Y-2531D01*
X-384056Y-2531D01*
X-383844Y-1435D01*
X-383421Y-404D01*
X-382803Y525D01*
X-382015Y1313D01*
X-381086Y1931D01*
X-380055Y2354D01*
X-378959Y2566D01*
X-378958Y2568D01*
X-378956Y2569D01*
X-378956Y2570D01*
X-378956Y5070D01*
X-378959Y5074D01*
X-378960Y5074D01*
X-378961Y5074D01*
X-380618Y4810D01*
X-380619Y4810D01*
X-382186Y4208D01*
X-382187Y4207D01*
X-383595Y3293D01*
X-383595Y3292D01*
X-384782Y2105D01*
X-384783Y2105D01*
X-385697Y697D01*
X-385697Y696D01*
X-385698Y696D01*
X-386300Y-871D01*
X-386300Y-872D01*
X-386564Y-2529D01*
X-386564Y-2530D01*
X-386561Y-2534D01*
X-386560Y-2534D01*
X-384060Y-2534D01*
X-384057Y-2531D01*
G37*
G36*
X-180857Y-106671D02*
X-180857Y-106671D01*
X-180856Y-106671D01*
X-180644Y-105575D01*
X-180221Y-104544D01*
X-179603Y-103615D01*
X-178815Y-102827D01*
X-177886Y-102209D01*
X-176855Y-101786D01*
X-175759Y-101574D01*
X-175758Y-101572D01*
X-175756Y-101571D01*
X-175756Y-101570D01*
X-175756Y-99070D01*
X-175759Y-99066D01*
X-175760Y-99066D01*
X-175761Y-99066D01*
X-177418Y-99330D01*
X-177419Y-99330D01*
X-178986Y-99932D01*
X-178987Y-99933D01*
X-180395Y-100847D01*
X-180395Y-100848D01*
X-181582Y-102035D01*
X-181583Y-102035D01*
X-182497Y-103443D01*
X-182497Y-103444D01*
X-182498Y-103444D01*
X-183100Y-105011D01*
X-183100Y-105012D01*
X-183364Y-106669D01*
X-183364Y-106670D01*
X-183361Y-106674D01*
X-183360Y-106674D01*
X-180860Y-106674D01*
X-180857Y-106671D01*
G37*
G36*
X-4777Y389659D02*
X-4777Y389659D01*
X-4776Y389659D01*
X-4564Y390755D01*
X-4141Y391786D01*
X-3523Y392715D01*
X-2735Y393503D01*
X-1806Y394121D01*
X-775Y394544D01*
X321Y394756D01*
X322Y394758D01*
X324Y394759D01*
X324Y394760D01*
X324Y397260D01*
X321Y397264D01*
X320Y397264D01*
X319Y397264D01*
X-1338Y397000D01*
X-1339Y397000D01*
X-2906Y396398D01*
X-2907Y396397D01*
X-4315Y395483D01*
X-4315Y395482D01*
X-5502Y394295D01*
X-5503Y394295D01*
X-6417Y392887D01*
X-6417Y392886D01*
X-6418Y392886D01*
X-7020Y391319D01*
X-7020Y391318D01*
X-7284Y389661D01*
X-7284Y389660D01*
X-7281Y389656D01*
X-7280Y389656D01*
X-4780Y389656D01*
X-4777Y389659D01*
G37*
G36*
X-4327Y-377181D02*
X-4327Y-377181D01*
X-4326Y-377181D01*
X-4114Y-376085D01*
X-3691Y-375054D01*
X-3073Y-374125D01*
X-2285Y-373337D01*
X-1356Y-372719D01*
X-325Y-372296D01*
X771Y-372084D01*
X772Y-372082D01*
X774Y-372081D01*
X774Y-372080D01*
X774Y-369580D01*
X771Y-369576D01*
X770Y-369576D01*
X769Y-369576D01*
X-888Y-369840D01*
X-889Y-369840D01*
X-2456Y-370442D01*
X-2457Y-370443D01*
X-3865Y-371357D01*
X-3865Y-371358D01*
X-5052Y-372545D01*
X-5053Y-372545D01*
X-5967Y-373953D01*
X-5967Y-373954D01*
X-5968Y-373954D01*
X-6570Y-375521D01*
X-6570Y-375522D01*
X-6834Y-377179D01*
X-6834Y-377180D01*
X-6831Y-377184D01*
X-6830Y-377184D01*
X-4330Y-377184D01*
X-4327Y-377181D01*
G37*
G36*
X402853Y3039D02*
X402853Y3039D01*
X402854Y3039D01*
X403066Y4135D01*
X403489Y5166D01*
X404107Y6095D01*
X404895Y6883D01*
X405824Y7501D01*
X406855Y7924D01*
X407951Y8136D01*
X407952Y8138D01*
X407954Y8139D01*
X407954Y8140D01*
X407954Y10640D01*
X407951Y10644D01*
X407950Y10644D01*
X407949Y10644D01*
X406292Y10380D01*
X406291Y10380D01*
X404724Y9778D01*
X404724Y9777D01*
X404723Y9777D01*
X403315Y8863D01*
X403315Y8862D01*
X402128Y7675D01*
X402127Y7675D01*
X401213Y6267D01*
X401213Y6266D01*
X401212Y6266D01*
X400610Y4699D01*
X400610Y4698D01*
X400346Y3041D01*
X400346Y3040D01*
X400349Y3036D01*
X400350Y3036D01*
X402850Y3036D01*
X402853Y3039D01*
G37*
G36*
X1320Y381056D02*
X1320Y381056D01*
X1321Y381056D01*
X2978Y381320D01*
X2979Y381320D01*
X4546Y381922D01*
X4547Y381923D01*
X5955Y382837D01*
X5955Y382838D01*
X7142Y384025D01*
X7143Y384025D01*
X8057Y385433D01*
X8057Y385434D01*
X8058Y385434D01*
X8660Y387001D01*
X8660Y387002D01*
X8924Y388659D01*
X8924Y388660D01*
X8921Y388664D01*
X8920Y388664D01*
X6420Y388664D01*
X6417Y388661D01*
X6416Y388661D01*
X6204Y387565D01*
X5781Y386534D01*
X5163Y385605D01*
X4375Y384817D01*
X3446Y384199D01*
X2415Y383776D01*
X1319Y383564D01*
X1316Y383561D01*
X1316Y383560D01*
X1316Y381060D01*
X1319Y381056D01*
X1320Y381056D01*
G37*
G36*
X-123960Y313986D02*
X-123960Y313986D01*
X-123959Y313986D01*
X-122302Y314250D01*
X-122301Y314250D01*
X-120734Y314852D01*
X-120734Y314853D01*
X-120733Y314853D01*
X-119325Y315767D01*
X-119325Y315768D01*
X-118138Y316955D01*
X-118137Y316955D01*
X-117223Y318363D01*
X-117223Y318364D01*
X-117222Y318364D01*
X-116620Y319931D01*
X-116620Y319932D01*
X-116356Y321589D01*
X-116356Y321590D01*
X-116359Y321594D01*
X-116360Y321594D01*
X-118860Y321594D01*
X-118863Y321591D01*
X-118864Y321591D01*
X-119076Y320495D01*
X-119499Y319464D01*
X-120117Y318535D01*
X-120905Y317747D01*
X-121834Y317129D01*
X-122865Y316706D01*
X-123961Y316494D01*
X-123964Y316491D01*
X-123964Y316490D01*
X-123964Y313990D01*
X-123961Y313986D01*
X-123960Y313986D01*
G37*
G36*
X86860Y306366D02*
X86860Y306366D01*
X86861Y306366D01*
X88518Y306630D01*
X88519Y306630D01*
X90086Y307232D01*
X90087Y307233D01*
X91495Y308147D01*
X91495Y308148D01*
X92682Y309335D01*
X92683Y309335D01*
X93597Y310743D01*
X93597Y310744D01*
X93598Y310744D01*
X94200Y312311D01*
X94200Y312312D01*
X94464Y313969D01*
X94464Y313970D01*
X94461Y313974D01*
X94460Y313974D01*
X91960Y313974D01*
X91957Y313971D01*
X91956Y313971D01*
X91744Y312875D01*
X91321Y311844D01*
X90703Y310915D01*
X89915Y310127D01*
X88986Y309509D01*
X87955Y309086D01*
X86859Y308874D01*
X86856Y308871D01*
X86856Y308870D01*
X86856Y306370D01*
X86859Y306366D01*
X86860Y306366D01*
G37*
G36*
X132580Y207306D02*
X132580Y207306D01*
X132581Y207306D01*
X134238Y207570D01*
X134239Y207570D01*
X135806Y208172D01*
X135807Y208173D01*
X137215Y209087D01*
X137215Y209088D01*
X138402Y210275D01*
X138403Y210275D01*
X139317Y211683D01*
X139317Y211684D01*
X139318Y211684D01*
X139920Y213251D01*
X139920Y213252D01*
X140184Y214909D01*
X140184Y214910D01*
X140181Y214914D01*
X140180Y214914D01*
X137680Y214914D01*
X137677Y214911D01*
X137676Y214911D01*
X137464Y213815D01*
X137041Y212784D01*
X136423Y211855D01*
X135635Y211067D01*
X134706Y210449D01*
X133675Y210026D01*
X132579Y209814D01*
X132576Y209811D01*
X132576Y209810D01*
X132576Y207310D01*
X132579Y207306D01*
X132580Y207306D01*
G37*
G36*
X-174760Y-115274D02*
X-174760Y-115274D01*
X-174759Y-115274D01*
X-173102Y-115010D01*
X-173101Y-115010D01*
X-171534Y-114408D01*
X-171534Y-114407D01*
X-171533Y-114407D01*
X-170125Y-113493D01*
X-170125Y-113492D01*
X-168938Y-112305D01*
X-168937Y-112305D01*
X-168023Y-110897D01*
X-168023Y-110896D01*
X-168022Y-110896D01*
X-167420Y-109329D01*
X-167420Y-109328D01*
X-167156Y-107671D01*
X-167156Y-107670D01*
X-167159Y-107666D01*
X-167160Y-107666D01*
X-169660Y-107666D01*
X-169663Y-107669D01*
X-169664Y-107669D01*
X-169876Y-108765D01*
X-170299Y-109796D01*
X-170917Y-110725D01*
X-171705Y-111513D01*
X-172634Y-112131D01*
X-173665Y-112554D01*
X-174761Y-112766D01*
X-174764Y-112769D01*
X-174764Y-112770D01*
X-174764Y-115270D01*
X-174761Y-115274D01*
X-174760Y-115274D01*
G37*
G36*
X408950Y-5564D02*
X408950Y-5564D01*
X408951Y-5564D01*
X410608Y-5300D01*
X410609Y-5300D01*
X412176Y-4698D01*
X412177Y-4697D01*
X413585Y-3783D01*
X413585Y-3782D01*
X414772Y-2595D01*
X414773Y-2595D01*
X415687Y-1187D01*
X415687Y-1186D01*
X415688Y-1186D01*
X416290Y381D01*
X416290Y382D01*
X416554Y2039D01*
X416554Y2040D01*
X416551Y2044D01*
X416550Y2044D01*
X414050Y2044D01*
X414047Y2041D01*
X414046Y2041D01*
X413834Y945D01*
X413411Y-86D01*
X412793Y-1015D01*
X412005Y-1803D01*
X411076Y-2421D01*
X410045Y-2844D01*
X408949Y-3056D01*
X408946Y-3059D01*
X408946Y-3060D01*
X408946Y-5560D01*
X408949Y-5564D01*
X408950Y-5564D01*
G37*
G36*
X1770Y-385784D02*
X1770Y-385784D01*
X1771Y-385784D01*
X3428Y-385520D01*
X3429Y-385520D01*
X4996Y-384918D01*
X4997Y-384917D01*
X6405Y-384003D01*
X6405Y-384002D01*
X7592Y-382815D01*
X7593Y-382815D01*
X8507Y-381407D01*
X8507Y-381406D01*
X8508Y-381406D01*
X9110Y-379839D01*
X9110Y-379838D01*
X9374Y-378181D01*
X9374Y-378180D01*
X9371Y-378176D01*
X9370Y-378176D01*
X6870Y-378176D01*
X6867Y-378179D01*
X6866Y-378179D01*
X6654Y-379275D01*
X6231Y-380306D01*
X5613Y-381235D01*
X4825Y-382023D01*
X3896Y-382641D01*
X2865Y-383064D01*
X1769Y-383276D01*
X1766Y-383279D01*
X1766Y-383280D01*
X1766Y-385780D01*
X1769Y-385784D01*
X1770Y-385784D01*
G37*
G36*
X-377960Y-11134D02*
X-377960Y-11134D01*
X-377959Y-11134D01*
X-376302Y-10870D01*
X-376301Y-10870D01*
X-374734Y-10268D01*
X-374734Y-10267D01*
X-374733Y-10267D01*
X-373325Y-9353D01*
X-373325Y-9352D01*
X-372138Y-8165D01*
X-372137Y-8165D01*
X-371223Y-6757D01*
X-371223Y-6756D01*
X-371222Y-6756D01*
X-370620Y-5189D01*
X-370620Y-5188D01*
X-370356Y-3531D01*
X-370356Y-3530D01*
X-370359Y-3526D01*
X-370360Y-3526D01*
X-372860Y-3526D01*
X-372863Y-3529D01*
X-372864Y-3529D01*
X-373076Y-4625D01*
X-373499Y-5656D01*
X-374117Y-6585D01*
X-374905Y-7373D01*
X-375834Y-7991D01*
X-376865Y-8414D01*
X-377961Y-8626D01*
X-377964Y-8629D01*
X-377964Y-8630D01*
X-377964Y-11130D01*
X-377961Y-11134D01*
X-377960Y-11134D01*
G37*
G36*
X8920Y389656D02*
X8920Y389656D01*
X8924Y389659D01*
X8924Y389660D01*
X8924Y389661D01*
X8660Y391318D01*
X8660Y391319D01*
X8058Y392886D01*
X8057Y392887D01*
X7143Y394295D01*
X7142Y394295D01*
X5955Y395482D01*
X5955Y395483D01*
X4547Y396397D01*
X4546Y396397D01*
X4546Y396398D01*
X2979Y397000D01*
X2978Y397000D01*
X1321Y397264D01*
X1320Y397264D01*
X1316Y397261D01*
X1316Y397260D01*
X1316Y394760D01*
X1319Y394757D01*
X1319Y394756D01*
X2415Y394544D01*
X3446Y394121D01*
X4375Y393503D01*
X5163Y392715D01*
X5781Y391786D01*
X6204Y390755D01*
X6416Y389659D01*
X6419Y389656D01*
X6420Y389656D01*
X8920Y389656D01*
X8920Y389656D01*
G37*
G36*
X-116360Y322586D02*
X-116360Y322586D01*
X-116356Y322589D01*
X-116356Y322590D01*
X-116356Y322591D01*
X-116620Y324248D01*
X-116620Y324249D01*
X-117222Y325816D01*
X-117223Y325817D01*
X-118137Y327225D01*
X-118138Y327225D01*
X-119325Y328412D01*
X-119325Y328413D01*
X-120733Y329327D01*
X-120734Y329327D01*
X-120734Y329328D01*
X-122301Y329930D01*
X-122302Y329930D01*
X-123959Y330194D01*
X-123960Y330194D01*
X-123964Y330191D01*
X-123964Y330190D01*
X-123964Y327690D01*
X-123961Y327687D01*
X-123961Y327686D01*
X-122865Y327474D01*
X-121834Y327051D01*
X-120905Y326433D01*
X-120117Y325645D01*
X-119499Y324716D01*
X-119076Y323685D01*
X-118864Y322589D01*
X-118861Y322586D01*
X-118860Y322586D01*
X-116360Y322586D01*
X-116360Y322586D01*
G37*
G36*
X94460Y314966D02*
X94460Y314966D01*
X94464Y314969D01*
X94464Y314970D01*
X94464Y314971D01*
X94200Y316628D01*
X94200Y316629D01*
X93598Y318196D01*
X93597Y318197D01*
X92683Y319605D01*
X92682Y319605D01*
X91495Y320792D01*
X91495Y320793D01*
X90087Y321707D01*
X90086Y321707D01*
X90086Y321708D01*
X88519Y322310D01*
X88518Y322310D01*
X86861Y322574D01*
X86860Y322574D01*
X86856Y322571D01*
X86856Y322570D01*
X86856Y320070D01*
X86859Y320067D01*
X86859Y320066D01*
X87955Y319854D01*
X88986Y319431D01*
X89915Y318813D01*
X90703Y318025D01*
X91321Y317096D01*
X91744Y316065D01*
X91956Y314969D01*
X91959Y314966D01*
X91960Y314966D01*
X94460Y314966D01*
X94460Y314966D01*
G37*
G36*
X-167160Y-106674D02*
X-167160Y-106674D01*
X-167156Y-106671D01*
X-167156Y-106670D01*
X-167156Y-106669D01*
X-167420Y-105012D01*
X-167420Y-105011D01*
X-168022Y-103444D01*
X-168023Y-103444D01*
X-168023Y-103443D01*
X-168937Y-102035D01*
X-168938Y-102035D01*
X-170125Y-100848D01*
X-170125Y-100847D01*
X-171533Y-99933D01*
X-171534Y-99933D01*
X-171534Y-99932D01*
X-173101Y-99330D01*
X-173102Y-99330D01*
X-174759Y-99066D01*
X-174760Y-99066D01*
X-174764Y-99069D01*
X-174764Y-99070D01*
X-174764Y-101570D01*
X-174761Y-101573D01*
X-174761Y-101574D01*
X-173665Y-101786D01*
X-172634Y-102209D01*
X-171705Y-102827D01*
X-170917Y-103615D01*
X-170299Y-104544D01*
X-169876Y-105575D01*
X-169664Y-106671D01*
X-169661Y-106674D01*
X-169660Y-106674D01*
X-167160Y-106674D01*
X-167160Y-106674D01*
G37*
G36*
X140180Y215906D02*
X140180Y215906D01*
X140184Y215909D01*
X140184Y215910D01*
X140184Y215911D01*
X139920Y217568D01*
X139920Y217569D01*
X139318Y219136D01*
X139317Y219137D01*
X138403Y220545D01*
X138402Y220545D01*
X137215Y221732D01*
X137215Y221733D01*
X135807Y222647D01*
X135806Y222647D01*
X135806Y222648D01*
X134239Y223250D01*
X134238Y223250D01*
X132581Y223514D01*
X132580Y223514D01*
X132576Y223511D01*
X132576Y223510D01*
X132576Y221010D01*
X132579Y221007D01*
X132579Y221006D01*
X133675Y220794D01*
X134706Y220371D01*
X135635Y219753D01*
X136423Y218965D01*
X137041Y218036D01*
X137464Y217005D01*
X137676Y215909D01*
X137679Y215906D01*
X137680Y215906D01*
X140180Y215906D01*
X140180Y215906D01*
G37*
G36*
X416550Y3036D02*
X416550Y3036D01*
X416554Y3039D01*
X416554Y3040D01*
X416554Y3041D01*
X416290Y4698D01*
X416290Y4699D01*
X415688Y6266D01*
X415687Y6267D01*
X414773Y7675D01*
X414772Y7675D01*
X413585Y8862D01*
X413585Y8863D01*
X412177Y9777D01*
X412176Y9777D01*
X412176Y9778D01*
X410609Y10380D01*
X410608Y10380D01*
X408951Y10644D01*
X408950Y10644D01*
X408946Y10641D01*
X408946Y10640D01*
X408946Y8140D01*
X408949Y8137D01*
X408949Y8136D01*
X410045Y7924D01*
X411076Y7501D01*
X412005Y6883D01*
X412793Y6095D01*
X413411Y5166D01*
X413834Y4135D01*
X414046Y3039D01*
X414049Y3036D01*
X414050Y3036D01*
X416550Y3036D01*
X416550Y3036D01*
G37*
G36*
X9370Y-377184D02*
X9370Y-377184D01*
X9374Y-377181D01*
X9374Y-377180D01*
X9374Y-377179D01*
X9110Y-375522D01*
X9110Y-375521D01*
X8508Y-373954D01*
X8507Y-373954D01*
X8507Y-373953D01*
X7593Y-372545D01*
X7592Y-372545D01*
X6405Y-371358D01*
X6405Y-371357D01*
X4997Y-370443D01*
X4996Y-370443D01*
X4996Y-370442D01*
X3429Y-369840D01*
X3428Y-369840D01*
X1771Y-369576D01*
X1770Y-369576D01*
X1766Y-369579D01*
X1766Y-369580D01*
X1766Y-372080D01*
X1769Y-372083D01*
X1769Y-372084D01*
X2865Y-372296D01*
X3896Y-372719D01*
X4825Y-373337D01*
X5613Y-374125D01*
X6231Y-375054D01*
X6654Y-376085D01*
X6866Y-377181D01*
X6869Y-377184D01*
X6870Y-377184D01*
X9370Y-377184D01*
X9370Y-377184D01*
G37*
G36*
X-370360Y-2534D02*
X-370360Y-2534D01*
X-370356Y-2531D01*
X-370356Y-2530D01*
X-370356Y-2529D01*
X-370620Y-872D01*
X-370620Y-871D01*
X-371222Y696D01*
X-371223Y697D01*
X-372137Y2105D01*
X-372138Y2105D01*
X-373325Y3292D01*
X-373325Y3293D01*
X-374733Y4207D01*
X-374734Y4207D01*
X-374734Y4208D01*
X-376301Y4810D01*
X-376302Y4810D01*
X-377959Y5074D01*
X-377960Y5074D01*
X-377964Y5071D01*
X-377964Y5070D01*
X-377964Y2570D01*
X-377961Y2567D01*
X-377961Y2566D01*
X-376865Y2354D01*
X-375834Y1931D01*
X-374905Y1313D01*
X-374117Y525D01*
X-373499Y-404D01*
X-373076Y-1435D01*
X-372864Y-2531D01*
X-372861Y-2534D01*
X-372860Y-2534D01*
X-370360Y-2534D01*
X-370360Y-2534D01*
G37*
G36*
X320Y381056D02*
X320Y381056D01*
X324Y381059D01*
X324Y381060D01*
X324Y383560D01*
X321Y383563D01*
X321Y383564D01*
X-775Y383776D01*
X-1806Y384199D01*
X-2735Y384817D01*
X-3523Y385605D01*
X-4141Y386534D01*
X-4564Y387565D01*
X-4776Y388661D01*
X-4779Y388664D01*
X-4780Y388664D01*
X-7280Y388664D01*
X-7284Y388661D01*
X-7284Y388660D01*
X-7284Y388659D01*
X-7020Y387002D01*
X-7020Y387001D01*
X-6418Y385434D01*
X-6417Y385434D01*
X-6417Y385433D01*
X-5503Y384025D01*
X-5502Y384025D01*
X-4315Y382838D01*
X-4315Y382837D01*
X-2907Y381923D01*
X-2906Y381923D01*
X-2906Y381922D01*
X-1339Y381320D01*
X-1338Y381320D01*
X319Y381056D01*
X320Y381056D01*
G37*
G36*
X-124960Y313986D02*
X-124960Y313986D01*
X-124956Y313989D01*
X-124956Y313990D01*
X-124956Y316490D01*
X-124959Y316493D01*
X-124959Y316494D01*
X-126055Y316706D01*
X-127086Y317129D01*
X-128015Y317747D01*
X-128803Y318535D01*
X-129421Y319464D01*
X-129844Y320495D01*
X-130056Y321591D01*
X-130059Y321594D01*
X-130060Y321594D01*
X-132560Y321594D01*
X-132564Y321591D01*
X-132564Y321590D01*
X-132564Y321589D01*
X-132300Y319932D01*
X-132300Y319931D01*
X-131698Y318364D01*
X-131697Y318364D01*
X-131697Y318363D01*
X-130783Y316955D01*
X-130782Y316955D01*
X-129595Y315768D01*
X-129595Y315767D01*
X-128187Y314853D01*
X-128186Y314853D01*
X-128186Y314852D01*
X-126619Y314250D01*
X-126618Y314250D01*
X-124961Y313986D01*
X-124960Y313986D01*
G37*
G36*
X85860Y306366D02*
X85860Y306366D01*
X85864Y306369D01*
X85864Y306370D01*
X85864Y308870D01*
X85861Y308873D01*
X85861Y308874D01*
X84765Y309086D01*
X83734Y309509D01*
X82805Y310127D01*
X82017Y310915D01*
X81399Y311844D01*
X80976Y312875D01*
X80764Y313971D01*
X80761Y313974D01*
X80760Y313974D01*
X78260Y313974D01*
X78256Y313971D01*
X78256Y313970D01*
X78256Y313969D01*
X78520Y312312D01*
X78520Y312311D01*
X79122Y310744D01*
X79123Y310744D01*
X79123Y310743D01*
X80037Y309335D01*
X80038Y309335D01*
X81225Y308148D01*
X81225Y308147D01*
X82633Y307233D01*
X82634Y307233D01*
X82634Y307232D01*
X84201Y306630D01*
X84202Y306630D01*
X85859Y306366D01*
X85860Y306366D01*
G37*
G36*
X131580Y207306D02*
X131580Y207306D01*
X131584Y207309D01*
X131584Y207310D01*
X131584Y209810D01*
X131581Y209813D01*
X131581Y209814D01*
X130485Y210026D01*
X129454Y210449D01*
X128525Y211067D01*
X127737Y211855D01*
X127119Y212784D01*
X126696Y213815D01*
X126484Y214911D01*
X126481Y214914D01*
X126480Y214914D01*
X123980Y214914D01*
X123976Y214911D01*
X123976Y214910D01*
X123976Y214909D01*
X124240Y213252D01*
X124240Y213251D01*
X124842Y211684D01*
X124843Y211684D01*
X124843Y211683D01*
X125757Y210275D01*
X125758Y210275D01*
X126945Y209088D01*
X126945Y209087D01*
X128353Y208173D01*
X128354Y208173D01*
X128354Y208172D01*
X129921Y207570D01*
X129922Y207570D01*
X131579Y207306D01*
X131580Y207306D01*
G37*
G36*
X407950Y-5564D02*
X407950Y-5564D01*
X407954Y-5561D01*
X407954Y-5560D01*
X407954Y-3060D01*
X407951Y-3057D01*
X407951Y-3056D01*
X406855Y-2844D01*
X405824Y-2421D01*
X404895Y-1803D01*
X404107Y-1015D01*
X403489Y-86D01*
X403066Y945D01*
X402854Y2041D01*
X402851Y2044D01*
X402850Y2044D01*
X400350Y2044D01*
X400346Y2041D01*
X400346Y2040D01*
X400346Y2039D01*
X400610Y382D01*
X400610Y381D01*
X401212Y-1186D01*
X401213Y-1187D01*
X402127Y-2595D01*
X402128Y-2595D01*
X403315Y-3782D01*
X403315Y-3783D01*
X404723Y-4697D01*
X404724Y-4697D01*
X404724Y-4698D01*
X406291Y-5300D01*
X406292Y-5300D01*
X407949Y-5564D01*
X407950Y-5564D01*
G37*
G36*
X-175760Y-115274D02*
X-175760Y-115274D01*
X-175756Y-115271D01*
X-175756Y-115270D01*
X-175756Y-112770D01*
X-175759Y-112767D01*
X-175759Y-112766D01*
X-176855Y-112554D01*
X-177886Y-112131D01*
X-178815Y-111513D01*
X-179603Y-110725D01*
X-180221Y-109796D01*
X-180644Y-108765D01*
X-180856Y-107669D01*
X-180859Y-107666D01*
X-180860Y-107666D01*
X-183360Y-107666D01*
X-183364Y-107669D01*
X-183364Y-107670D01*
X-183364Y-107671D01*
X-183100Y-109328D01*
X-183100Y-109329D01*
X-182498Y-110896D01*
X-182497Y-110897D01*
X-181583Y-112305D01*
X-181582Y-112305D01*
X-180395Y-113492D01*
X-180395Y-113493D01*
X-178987Y-114407D01*
X-178986Y-114407D01*
X-178986Y-114408D01*
X-177419Y-115010D01*
X-177418Y-115010D01*
X-175761Y-115274D01*
X-175760Y-115274D01*
G37*
G36*
X770Y-385784D02*
X770Y-385784D01*
X774Y-385781D01*
X774Y-385780D01*
X774Y-383280D01*
X771Y-383277D01*
X771Y-383276D01*
X-325Y-383064D01*
X-1356Y-382641D01*
X-2285Y-382023D01*
X-3073Y-381235D01*
X-3691Y-380306D01*
X-4114Y-379275D01*
X-4326Y-378179D01*
X-4329Y-378176D01*
X-4330Y-378176D01*
X-6830Y-378176D01*
X-6834Y-378179D01*
X-6834Y-378180D01*
X-6834Y-378181D01*
X-6570Y-379838D01*
X-6570Y-379839D01*
X-5968Y-381406D01*
X-5967Y-381407D01*
X-5053Y-382815D01*
X-5052Y-382815D01*
X-3865Y-384002D01*
X-3865Y-384003D01*
X-2457Y-384917D01*
X-2456Y-384917D01*
X-2456Y-384918D01*
X-889Y-385520D01*
X-888Y-385520D01*
X769Y-385784D01*
X770Y-385784D01*
G37*
G36*
X-378960Y-11134D02*
X-378960Y-11134D01*
X-378956Y-11131D01*
X-378956Y-11130D01*
X-378956Y-8630D01*
X-378959Y-8627D01*
X-378959Y-8626D01*
X-380055Y-8414D01*
X-381086Y-7991D01*
X-382015Y-7373D01*
X-382803Y-6585D01*
X-383421Y-5656D01*
X-383844Y-4625D01*
X-384056Y-3529D01*
X-384059Y-3526D01*
X-384060Y-3526D01*
X-386560Y-3526D01*
X-386564Y-3529D01*
X-386564Y-3530D01*
X-386564Y-3531D01*
X-386300Y-5188D01*
X-386300Y-5189D01*
X-385698Y-6756D01*
X-385697Y-6757D01*
X-384783Y-8165D01*
X-384782Y-8165D01*
X-383595Y-9352D01*
X-383595Y-9353D01*
X-382187Y-10267D01*
X-382186Y-10267D01*
X-382186Y-10268D01*
X-380619Y-10870D01*
X-380618Y-10870D01*
X-378961Y-11134D01*
X-378960Y-11134D01*
G37*
D10*
X143900Y-177800D03*
X160900Y-177800D03*
D11*
X266700Y-148200D03*
X266700Y-131200D03*
X241300Y-148200D03*
X241300Y-131200D03*
D10*
X194700Y-165100D03*
X211700Y-165100D03*
X194700Y-190500D03*
X211700Y-190500D03*
D11*
X-50800Y-313300D03*
X-50800Y-296300D03*
D10*
X-80400Y-12700D03*
X-97400Y-12700D03*
D11*
X88900Y55000D03*
X88900Y72000D03*
X363220Y13580D03*
X363220Y-3420D03*
D10*
X-8500Y-304800D03*
X8500Y-304800D03*
X-8500Y-330200D03*
X8500Y-330200D03*
D11*
X332740Y13580D03*
X332740Y-3420D03*
D10*
X-374260Y-53340D03*
X-357260Y-53340D03*
X-374260Y-78740D03*
X-357260Y-78740D03*
X-8500Y304800D03*
X8500Y304800D03*
X80400Y254000D03*
X97400Y254000D03*
X118500Y152400D03*
X135500Y152400D03*
X-183760Y-154940D03*
X-166760Y-154940D03*
X-135500Y266700D03*
X-118500Y266700D03*
X-145660Y48260D03*
X-128660Y48260D03*
X-145660Y12700D03*
X-128660Y12700D03*
D11*
X-215900Y-29600D03*
X-215900Y-46600D03*
X-241300Y-29600D03*
X-241300Y-46600D03*
D10*
X-8500Y330200D03*
X8500Y330200D03*
D11*
X228600Y135500D03*
X228600Y118500D03*
D12*
X-337630Y148900D02*
X-337630Y155900D01*
X-330630Y155900D01*
X-330630Y148900D01*
X-337630Y148900D01*
X-337630Y151750D02*
X-330630Y151750D01*
X-330630Y154600D02*
X-337630Y154600D01*
X-355170Y155900D02*
X-355170Y148900D01*
X-355170Y155900D02*
X-348170Y155900D01*
X-348170Y148900D01*
X-355170Y148900D01*
X-355170Y151750D02*
X-348170Y151750D01*
X-348170Y154600D02*
X-355170Y154600D01*
X-337630Y117800D02*
X-337630Y110800D01*
X-337630Y117800D02*
X-330630Y117800D01*
X-330630Y110800D01*
X-337630Y110800D01*
X-337630Y113650D02*
X-330630Y113650D01*
X-330630Y116500D02*
X-337630Y116500D01*
X-355170Y117800D02*
X-355170Y110800D01*
X-355170Y117800D02*
X-348170Y117800D01*
X-348170Y110800D01*
X-355170Y110800D01*
X-355170Y113650D02*
X-348170Y113650D01*
X-348170Y116500D02*
X-355170Y116500D01*
D13*
X267900Y-177800D03*
X290900Y-177800D03*
X267900Y-203200D03*
X290900Y-203200D03*
D12*
X-337630Y72700D02*
X-337630Y79700D01*
X-330630Y79700D01*
X-330630Y72700D01*
X-337630Y72700D01*
X-337630Y75550D02*
X-330630Y75550D01*
X-330630Y78400D02*
X-337630Y78400D01*
X-355170Y79700D02*
X-355170Y72700D01*
X-355170Y79700D02*
X-348170Y79700D01*
X-348170Y72700D01*
X-355170Y72700D01*
X-355170Y75550D02*
X-348170Y75550D01*
X-348170Y78400D02*
X-355170Y78400D01*
D14*
X216700Y-136750D03*
X216700Y-130250D03*
X216700Y-123750D03*
X216700Y-117250D03*
X189700Y-117250D03*
X189700Y-123750D03*
X189700Y-130250D03*
X189700Y-136750D03*
D15*
G36*
X124182Y-352643D02*
X128799Y-365327D01*
X125040Y-366695D01*
X120423Y-354011D01*
X124182Y-352643D01*
G37*
G36*
X130290Y-350420D02*
X134907Y-363104D01*
X131148Y-364472D01*
X126531Y-351788D01*
X130290Y-350420D01*
G37*
G36*
X136398Y-348197D02*
X141015Y-360881D01*
X137256Y-362249D01*
X132639Y-349565D01*
X136398Y-348197D01*
G37*
G36*
X142506Y-345973D02*
X147123Y-358657D01*
X143364Y-360025D01*
X138747Y-347341D01*
X142506Y-345973D01*
G37*
G36*
X148614Y-343750D02*
X153231Y-356434D01*
X149472Y-357802D01*
X144855Y-345118D01*
X148614Y-343750D01*
G37*
D16*
G36*
X146619Y-389437D02*
X129705Y-395593D01*
X123549Y-378679D01*
X140463Y-372523D01*
X146619Y-389437D01*
G37*
G36*
X168232Y-381570D02*
X151318Y-387726D01*
X145162Y-370812D01*
X162076Y-364656D01*
X168232Y-381570D01*
G37*
D17*
G36*
X123681Y-395124D02*
X102069Y-402991D01*
X97623Y-390776D01*
X119235Y-382909D01*
X123681Y-395124D01*
G37*
D18*
G36*
X117745Y-372969D02*
X102711Y-378441D01*
X97239Y-363407D01*
X112273Y-357935D01*
X117745Y-372969D01*
G37*
G36*
X177886Y-351079D02*
X162852Y-356551D01*
X157380Y-341517D01*
X172414Y-336045D01*
X177886Y-351079D01*
G37*
D17*
G36*
X194158Y-369473D02*
X172546Y-377340D01*
X168100Y-365125D01*
X189712Y-357258D01*
X194158Y-369473D01*
G37*
D19*
X167400Y-127000D03*
X137400Y-127000D03*
D10*
X199000Y76200D03*
X182000Y76200D03*
X129290Y-309010D03*
X112290Y-309010D03*
D11*
X-88900Y194700D03*
X-88900Y211700D03*
D10*
X160900Y-152400D03*
X143900Y-152400D03*
X160900Y-101600D03*
X143900Y-101600D03*
X232800Y-177800D03*
X249800Y-177800D03*
X249800Y-203200D03*
X232800Y-203200D03*
X199000Y101600D03*
X182000Y101600D03*
X-296300Y152400D03*
X-313300Y152400D03*
X-296300Y76200D03*
X-313300Y76200D03*
X-296300Y114300D03*
X-313300Y114300D03*
X199000Y127000D03*
X182000Y127000D03*
X199000Y152400D03*
X182000Y152400D03*
X199000Y177800D03*
X182000Y177800D03*
X149970Y-309400D03*
X166970Y-309400D03*
D20*
X260350Y165900D03*
X260350Y154900D03*
X260350Y143900D03*
X260350Y132900D03*
X260350Y121900D03*
X260350Y110900D03*
X260350Y99900D03*
X260350Y88900D03*
D21*
X285350Y77400D03*
D22*
X277350Y182400D03*
D23*
X289850Y184400D03*
D24*
X299850Y174900D03*
D25*
X-56500Y50200D03*
X-56500Y45200D03*
X-56500Y40200D03*
X-56500Y35200D03*
X-56500Y30200D03*
X-56500Y25200D03*
X-56500Y20200D03*
X-56500Y15200D03*
X-56500Y10200D03*
X-56500Y5200D03*
X-56500Y200D03*
X-56500Y-4800D03*
X-56500Y-9800D03*
X-56500Y-14800D03*
X-56500Y-19800D03*
X-56500Y-24800D03*
D26*
X-37500Y-43800D03*
X-32500Y-43800D03*
X-27500Y-43800D03*
X-22500Y-43800D03*
X-17500Y-43800D03*
X-12500Y-43800D03*
X-7500Y-43800D03*
X-2500Y-43800D03*
X2500Y-43800D03*
X7500Y-43800D03*
X12500Y-43800D03*
X17500Y-43800D03*
X22500Y-43800D03*
X27500Y-43800D03*
X32500Y-43800D03*
X37500Y-43800D03*
D25*
X56500Y-24800D03*
X56500Y-19800D03*
X56500Y-14800D03*
X56500Y-9800D03*
X56500Y-4800D03*
X56500Y200D03*
X56500Y5200D03*
X56500Y10200D03*
X56500Y15200D03*
X56500Y20200D03*
X56500Y25200D03*
X56500Y30200D03*
X56500Y35200D03*
X56500Y40200D03*
X56500Y45200D03*
X56500Y50200D03*
D26*
X37500Y69200D03*
X32500Y69200D03*
X27500Y69200D03*
X22500Y69200D03*
X17500Y69200D03*
X12500Y69200D03*
X7500Y69200D03*
X2500Y69200D03*
X-2500Y69200D03*
X-7500Y69200D03*
X-12500Y69200D03*
X-17500Y69200D03*
X-22500Y69200D03*
X-27500Y69200D03*
X-32500Y69200D03*
X-37500Y69200D03*
D27*
X207300Y304800D03*
X148300Y304800D03*
X207300Y317500D03*
X148300Y317500D03*
X207300Y330200D03*
X148300Y330200D03*
X207300Y342900D03*
X148300Y342900D03*
X207300Y355600D03*
X148300Y355600D03*
D28*
X-90560Y37480D03*
X-107560Y37480D03*
X-107560Y23480D03*
X-90560Y23480D03*
D27*
X-84800Y-317500D03*
X-143800Y-317500D03*
X-84800Y-304800D03*
X-143800Y-304800D03*
X-84800Y-292100D03*
X-143800Y-292100D03*
X-84800Y-279400D03*
X-143800Y-279400D03*
X-84800Y-266700D03*
X-143800Y-266700D03*
D29*
X-186400Y134300D03*
X-118400Y134300D03*
X-118400Y94300D03*
X-186400Y94300D03*
X-186400Y223200D03*
X-118400Y223200D03*
X-118400Y183200D03*
X-186400Y183200D03*
D11*
X-81280Y122800D03*
X-81280Y105800D03*
X-50800Y122800D03*
X-50800Y105800D03*
D10*
X199000Y203200D03*
X182000Y203200D03*
D30*
X280900Y0D03*
X176300Y0D03*
D11*
X127000Y-4200D03*
X127000Y-21200D03*
M02*
